const sequence = `{
  "header": {
    "PPQ": 384,
    "timeSignature": [
      4,
      4
    ],
    "bpm": 110.00011000011,
    "name": ""
  },
  "tempo": [
    {
      "absoluteTime": 0,
      "seconds": 0,
      "bpm": 110.00011000011
    }
  ],
  "timeSignature": [
    {
      "absoluteTime": 0,
      "seconds": 0,
      "numerator": 4,
      "denominator": 2,
      "click": 24,
      "notesQ": 8
    }
  ],
  "startTime": 0,
  "duration": 118.7726085000007,
  "tracks": [
    {
      "startTime": 0,
      "duration": 0,
      "length": 0,
      "notes": [],
      "controlChanges": {},
      "id": 0
    },
    {
      "startTime": 35.45451,
      "duration": 57.40903350000026,
      "length": 292,
      "notes": [
        {
          "name": "G#4",
          "midi": 68,
          "time": 35.45451,
          "velocity": 0.3937007874015748,
          "duration": 0.13636350000000164
        },
        {
          "name": "D#4",
          "midi": 63,
          "time": 35.45451,
          "velocity": 0.3937007874015748,
          "duration": 0.13636350000000164
        },
        {
          "name": "G#3",
          "midi": 56,
          "time": 35.45451,
          "velocity": 0.3937007874015748,
          "duration": 0.13636350000000164
        },
        {
          "name": "B3",
          "midi": 59,
          "time": 35.45451,
          "velocity": 0.3937007874015748,
          "duration": 0.13636350000000164
        },
        {
          "name": "G#3",
          "midi": 56,
          "time": 35.863600500000004,
          "velocity": 0.3937007874015748,
          "duration": 0.13636350000000164
        },
        {
          "name": "G#4",
          "midi": 68,
          "time": 35.863600500000004,
          "velocity": 0.3937007874015748,
          "duration": 0.13636350000000164
        },
        {
          "name": "B3",
          "midi": 59,
          "time": 35.863600500000004,
          "velocity": 0.3937007874015748,
          "duration": 0.13636350000000164
        },
        {
          "name": "D#4",
          "midi": 63,
          "time": 35.863600500000004,
          "velocity": 0.3937007874015748,
          "duration": 0.13636350000000164
        },
        {
          "name": "G#3",
          "midi": 56,
          "time": 36.13632750000001,
          "velocity": 0.3937007874015748,
          "duration": 0.13636350000000164
        },
        {
          "name": "D#4",
          "midi": 63,
          "time": 36.27269100000001,
          "velocity": 0.3937007874015748,
          "duration": 0.13636350000000164
        },
        {
          "name": "B3",
          "midi": 59,
          "time": 36.27269100000001,
          "velocity": 0.3937007874015748,
          "duration": 0.13636350000000164
        },
        {
          "name": "G#3",
          "midi": 56,
          "time": 36.54541800000001,
          "velocity": 0.3937007874015748,
          "duration": 0.13636350000000164
        },
        {
          "name": "G#4",
          "midi": 68,
          "time": 36.54541800000001,
          "velocity": 0.3937007874015748,
          "duration": 0.13636350000000164
        },
        {
          "name": "B3",
          "midi": 59,
          "time": 36.54541800000001,
          "velocity": 0.3937007874015748,
          "duration": 0.13636350000000164
        },
        {
          "name": "D#4",
          "midi": 63,
          "time": 36.54541800000001,
          "velocity": 0.3937007874015748,
          "duration": 0.13636350000000164
        },
        {
          "name": "B3",
          "midi": 59,
          "time": 36.818145000000015,
          "velocity": 0.3937007874015748,
          "duration": 0.13636350000000164
        },
        {
          "name": "E3",
          "midi": 52,
          "time": 36.818145000000015,
          "velocity": 0.3937007874015748,
          "duration": 0.13636350000000164
        },
        {
          "name": "G#3",
          "midi": 56,
          "time": 36.818145000000015,
          "velocity": 0.3937007874015748,
          "duration": 0.13636350000000164
        },
        {
          "name": "D#4",
          "midi": 63,
          "time": 36.818145000000015,
          "velocity": 0.3937007874015748,
          "duration": 0.13636350000000164
        },
        {
          "name": "G#3",
          "midi": 56,
          "time": 37.22723550000002,
          "velocity": 0.3937007874015748,
          "duration": 0.13636350000000164
        },
        {
          "name": "B3",
          "midi": 59,
          "time": 37.22723550000002,
          "velocity": 0.3937007874015748,
          "duration": 0.13636350000000164
        },
        {
          "name": "E3",
          "midi": 52,
          "time": 37.22723550000002,
          "velocity": 0.3937007874015748,
          "duration": 0.13636350000000164
        },
        {
          "name": "E3",
          "midi": 52,
          "time": 37.499962500000024,
          "velocity": 0.3937007874015748,
          "duration": 0.13636350000000164
        },
        {
          "name": "B3",
          "midi": 59,
          "time": 37.636326000000025,
          "velocity": 0.3937007874015748,
          "duration": 0.13636350000000164
        },
        {
          "name": "E3",
          "midi": 52,
          "time": 37.636326000000025,
          "velocity": 0.3937007874015748,
          "duration": 0.13636350000000164
        },
        {
          "name": "D#4",
          "midi": 63,
          "time": 37.636326000000025,
          "velocity": 0.3937007874015748,
          "duration": 0.13636350000000164
        },
        {
          "name": "G#3",
          "midi": 56,
          "time": 37.636326000000025,
          "velocity": 0.3937007874015748,
          "duration": 0.13636350000000164
        },
        {
          "name": "E3",
          "midi": 52,
          "time": 37.90905300000003,
          "velocity": 0.3937007874015748,
          "duration": 0.13636350000000164
        },
        {
          "name": "D#4",
          "midi": 63,
          "time": 37.90905300000003,
          "velocity": 0.3937007874015748,
          "duration": 0.13636350000000164
        },
        {
          "name": "B3",
          "midi": 59,
          "time": 37.90905300000003,
          "velocity": 0.3937007874015748,
          "duration": 0.13636350000000164
        },
        {
          "name": "G#3",
          "midi": 56,
          "time": 37.90905300000003,
          "velocity": 0.3937007874015748,
          "duration": 0.13636350000000164
        },
        {
          "name": "E3",
          "midi": 52,
          "time": 38.04541650000003,
          "velocity": 0.3937007874015748,
          "duration": 0.13636350000000164
        },
        {
          "name": "D#3",
          "midi": 51,
          "time": 38.18178000000003,
          "velocity": 0.3937007874015748,
          "duration": 0.13636350000000164
        },
        {
          "name": "F#3",
          "midi": 54,
          "time": 38.18178000000003,
          "velocity": 0.3937007874015748,
          "duration": 0.13636350000000164
        },
        {
          "name": "A#3",
          "midi": 58,
          "time": 38.18178000000003,
          "velocity": 0.3937007874015748,
          "duration": 0.13636350000000164
        },
        {
          "name": "C#4",
          "midi": 61,
          "time": 38.59087050000004,
          "velocity": 0.3937007874015748,
          "duration": 0.13636350000000164
        },
        {
          "name": "A#3",
          "midi": 58,
          "time": 38.59087050000004,
          "velocity": 0.3937007874015748,
          "duration": 0.13636350000000164
        },
        {
          "name": "D#3",
          "midi": 51,
          "time": 38.59087050000004,
          "velocity": 0.3937007874015748,
          "duration": 0.13636350000000164
        },
        {
          "name": "F#3",
          "midi": 54,
          "time": 38.59087050000004,
          "velocity": 0.3937007874015748,
          "duration": 0.13636350000000164
        },
        {
          "name": "D#3",
          "midi": 51,
          "time": 38.86359750000004,
          "velocity": 0.3937007874015748,
          "duration": 0.13636350000000164
        },
        {
          "name": "F#3",
          "midi": 54,
          "time": 38.99996100000004,
          "velocity": 0.3937007874015748,
          "duration": 0.13636350000000164
        },
        {
          "name": "C#4",
          "midi": 61,
          "time": 38.99996100000004,
          "velocity": 0.3937007874015748,
          "duration": 0.13636350000000164
        },
        {
          "name": "A#3",
          "midi": 58,
          "time": 38.99996100000004,
          "velocity": 0.3937007874015748,
          "duration": 0.13636350000000164
        },
        {
          "name": "F#3",
          "midi": 54,
          "time": 39.272688000000045,
          "velocity": 0.3937007874015748,
          "duration": 0.13636350000000164
        },
        {
          "name": "F4",
          "midi": 65,
          "time": 39.272688000000045,
          "velocity": 0.3937007874015748,
          "duration": 0.13636350000000164
        },
        {
          "name": "C#4",
          "midi": 61,
          "time": 39.272688000000045,
          "velocity": 0.3937007874015748,
          "duration": 0.13636350000000164
        },
        {
          "name": "A#3",
          "midi": 58,
          "time": 39.272688000000045,
          "velocity": 0.3937007874015748,
          "duration": 0.13636350000000164
        },
        {
          "name": "F4",
          "midi": 65,
          "time": 39.54541500000005,
          "velocity": 0.3937007874015748,
          "duration": 0.13636350000000164
        },
        {
          "name": "C#4",
          "midi": 61,
          "time": 39.54541500000005,
          "velocity": 0.3937007874015748,
          "duration": 0.13636350000000164
        },
        {
          "name": "A#3",
          "midi": 58,
          "time": 39.54541500000005,
          "velocity": 0.3937007874015748,
          "duration": 0.13636350000000164
        },
        {
          "name": "G#4",
          "midi": 68,
          "time": 39.54541500000005,
          "velocity": 0.3937007874015748,
          "duration": 0.13636350000000164
        },
        {
          "name": "D#3",
          "midi": 51,
          "time": 39.81814200000005,
          "velocity": 0.3937007874015748,
          "duration": 0.13636350000000164
        },
        {
          "name": "C#4",
          "midi": 61,
          "time": 39.95450550000005,
          "velocity": 0.3937007874015748,
          "duration": 0.13636350000000164
        },
        {
          "name": "C5",
          "midi": 72,
          "time": 39.95450550000005,
          "velocity": 0.3937007874015748,
          "duration": 0.13636350000000164
        },
        {
          "name": "G#4",
          "midi": 68,
          "time": 39.95450550000005,
          "velocity": 0.3937007874015748,
          "duration": 0.13636350000000164
        },
        {
          "name": "F4",
          "midi": 65,
          "time": 39.95450550000005,
          "velocity": 0.3937007874015748,
          "duration": 0.13636350000000164
        },
        {
          "name": "D#3",
          "midi": 51,
          "time": 40.227232500000056,
          "velocity": 0.3937007874015748,
          "duration": 0.13636350000000164
        },
        {
          "name": "D#4",
          "midi": 63,
          "time": 40.36359600000006,
          "velocity": 0.3937007874015748,
          "duration": 0.13636350000000164
        },
        {
          "name": "D#3",
          "midi": 51,
          "time": 40.36359600000006,
          "velocity": 0.3937007874015748,
          "duration": 0.13636350000000164
        },
        {
          "name": "C5",
          "midi": 72,
          "time": 40.49995950000006,
          "velocity": 0.3937007874015748,
          "duration": 0.13636350000000164
        },
        {
          "name": "F4",
          "midi": 65,
          "time": 40.49995950000006,
          "velocity": 0.3937007874015748,
          "duration": 0.13636350000000164
        },
        {
          "name": "E3",
          "midi": 52,
          "time": 40.63632300000006,
          "velocity": 0.3937007874015748,
          "duration": 0.13636350000000164
        },
        {
          "name": "B4",
          "midi": 71,
          "time": 40.63632300000006,
          "velocity": 0.3937007874015748,
          "duration": 0.13636350000000164
        },
        {
          "name": "F3",
          "midi": 53,
          "time": 40.77268650000006,
          "velocity": 0.3937007874015748,
          "duration": 0.13636350000000164
        },
        {
          "name": "A#4",
          "midi": 70,
          "time": 40.77268650000006,
          "velocity": 0.3937007874015748,
          "duration": 0.13636350000000164
        },
        {
          "name": "G#3",
          "midi": 56,
          "time": 40.909050000000065,
          "velocity": 0.3937007874015748,
          "duration": 0.13636350000000164
        },
        {
          "name": "B3",
          "midi": 59,
          "time": 41.045413500000066,
          "velocity": 0.3937007874015748,
          "duration": 0.13636350000000164
        },
        {
          "name": "G#3",
          "midi": 56,
          "time": 41.18177700000007,
          "velocity": 0.3937007874015748,
          "duration": 0.13636350000000164
        },
        {
          "name": "A#4",
          "midi": 70,
          "time": 41.18177700000007,
          "velocity": 0.3937007874015748,
          "duration": 0.13636350000000164
        },
        {
          "name": "D#4",
          "midi": 63,
          "time": 41.18177700000007,
          "velocity": 0.3937007874015748,
          "duration": 0.13636350000000164
        },
        {
          "name": "F#4",
          "midi": 66,
          "time": 41.18177700000007,
          "velocity": 0.3937007874015748,
          "duration": 0.13636350000000164
        },
        {
          "name": "D#4",
          "midi": 63,
          "time": 41.45450400000007,
          "velocity": 0.3937007874015748,
          "duration": 0.13636350000000164
        },
        {
          "name": "G#3",
          "midi": 56,
          "time": 41.45450400000007,
          "velocity": 0.3937007874015748,
          "duration": 0.13636350000000164
        },
        {
          "name": "F#4",
          "midi": 66,
          "time": 41.45450400000007,
          "velocity": 0.3937007874015748,
          "duration": 0.13636350000000164
        },
        {
          "name": "A#4",
          "midi": 70,
          "time": 41.45450400000007,
          "velocity": 0.3937007874015748,
          "duration": 0.13636350000000164
        },
        {
          "name": "G#3",
          "midi": 56,
          "time": 41.59086750000007,
          "velocity": 0.3937007874015748,
          "duration": 0.13636350000000164
        },
        {
          "name": "B3",
          "midi": 59,
          "time": 41.59086750000007,
          "velocity": 0.3937007874015748,
          "duration": 0.13636350000000164
        },
        {
          "name": "D#4",
          "midi": 63,
          "time": 41.59086750000007,
          "velocity": 0.3937007874015748,
          "duration": 0.13636350000000164
        },
        {
          "name": "F#4",
          "midi": 66,
          "time": 41.59086750000007,
          "velocity": 0.3937007874015748,
          "duration": 0.13636350000000164
        },
        {
          "name": "A#3",
          "midi": 58,
          "time": 41.99995800000008,
          "velocity": 0.3937007874015748,
          "duration": 0.13636350000000164
        },
        {
          "name": "C#4",
          "midi": 61,
          "time": 41.99995800000008,
          "velocity": 0.3937007874015748,
          "duration": 0.13636350000000164
        },
        {
          "name": "G#4",
          "midi": 68,
          "time": 41.99995800000008,
          "velocity": 0.3937007874015748,
          "duration": 0.13636350000000164
        },
        {
          "name": "F4",
          "midi": 65,
          "time": 41.99995800000008,
          "velocity": 0.3937007874015748,
          "duration": 0.13636350000000164
        },
        {
          "name": "E4",
          "midi": 64,
          "time": 42.27268500000008,
          "velocity": 0.3937007874015748,
          "duration": 0.13636350000000164
        },
        {
          "name": "G#4",
          "midi": 68,
          "time": 42.27268500000008,
          "velocity": 0.3937007874015748,
          "duration": 0.13636350000000164
        },
        {
          "name": "B4",
          "midi": 71,
          "time": 42.27268500000008,
          "velocity": 0.3937007874015748,
          "duration": 0.13636350000000164
        },
        {
          "name": "B3",
          "midi": 59,
          "time": 42.27268500000008,
          "velocity": 0.3937007874015748,
          "duration": 0.13636350000000164
        },
        {
          "name": "D#6",
          "midi": 87,
          "time": 42.27268500000008,
          "velocity": 0.3937007874015748,
          "duration": 0.13636350000000164
        },
        {
          "name": "G#4",
          "midi": 68,
          "time": 42.681775500000086,
          "velocity": 0.3937007874015748,
          "duration": 0.13636350000000164
        },
        {
          "name": "B4",
          "midi": 71,
          "time": 42.681775500000086,
          "velocity": 0.3937007874015748,
          "duration": 0.13636350000000164
        },
        {
          "name": "E4",
          "midi": 64,
          "time": 42.681775500000086,
          "velocity": 0.3937007874015748,
          "duration": 0.13636350000000164
        },
        {
          "name": "C#4",
          "midi": 61,
          "time": 42.681775500000086,
          "velocity": 0.3937007874015748,
          "duration": 0.13636350000000164
        },
        {
          "name": "B5",
          "midi": 83,
          "time": 42.95450250000009,
          "velocity": 0.3937007874015748,
          "duration": 0.13636350000000164
        },
        {
          "name": "G#3",
          "midi": 56,
          "time": 42.95450250000009,
          "velocity": 0.3937007874015748,
          "duration": 0.13636350000000164
        },
        {
          "name": "G#4",
          "midi": 68,
          "time": 43.09086600000009,
          "velocity": 0.3937007874015748,
          "duration": 0.13636350000000164
        },
        {
          "name": "A#4",
          "midi": 70,
          "time": 43.09086600000009,
          "velocity": 0.3937007874015748,
          "duration": 0.13636350000000164
        },
        {
          "name": "B3",
          "midi": 59,
          "time": 43.09086600000009,
          "velocity": 0.3937007874015748,
          "duration": 0.13636350000000164
        },
        {
          "name": "E4",
          "midi": 64,
          "time": 43.09086600000009,
          "velocity": 0.3937007874015748,
          "duration": 0.13636350000000164
        },
        {
          "name": "G#4",
          "midi": 68,
          "time": 43.363593000000094,
          "velocity": 0.3937007874015748,
          "duration": 0.13636350000000164
        },
        {
          "name": "E4",
          "midi": 64,
          "time": 43.363593000000094,
          "velocity": 0.3937007874015748,
          "duration": 0.13636350000000164
        },
        {
          "name": "B3",
          "midi": 59,
          "time": 43.363593000000094,
          "velocity": 0.3937007874015748,
          "duration": 0.13636350000000164
        },
        {
          "name": "A#4",
          "midi": 70,
          "time": 43.363593000000094,
          "velocity": 0.3937007874015748,
          "duration": 0.13636350000000164
        },
        {
          "name": "A#5",
          "midi": 82,
          "time": 43.6363200000001,
          "velocity": 0.3937007874015748,
          "duration": 0.13636350000000164
        },
        {
          "name": "D#3",
          "midi": 51,
          "time": 43.6363200000001,
          "velocity": 0.3937007874015748,
          "duration": 0.13636350000000164
        },
        {
          "name": "A#4",
          "midi": 70,
          "time": 43.6363200000001,
          "velocity": 0.3937007874015748,
          "duration": 0.13636350000000164
        },
        {
          "name": "F#4",
          "midi": 66,
          "time": 43.6363200000001,
          "velocity": 0.3937007874015748,
          "duration": 0.13636350000000164
        },
        {
          "name": "A#3",
          "midi": 58,
          "time": 43.6363200000001,
          "velocity": 0.3937007874015748,
          "duration": 0.13636350000000164
        },
        {
          "name": "D#4",
          "midi": 63,
          "time": 43.6363200000001,
          "velocity": 0.3937007874015748,
          "duration": 0.13636350000000164
        },
        {
          "name": "D#4",
          "midi": 63,
          "time": 44.0454105000001,
          "velocity": 0.3937007874015748,
          "duration": 0.13636350000000164
        },
        {
          "name": "A#3",
          "midi": 58,
          "time": 44.0454105000001,
          "velocity": 0.3937007874015748,
          "duration": 0.13636350000000164
        },
        {
          "name": "F#4",
          "midi": 66,
          "time": 44.0454105000001,
          "velocity": 0.3937007874015748,
          "duration": 0.13636350000000164
        },
        {
          "name": "A#4",
          "midi": 70,
          "time": 44.0454105000001,
          "velocity": 0.3937007874015748,
          "duration": 0.13636350000000164
        },
        {
          "name": "D#3",
          "midi": 51,
          "time": 44.0454105000001,
          "velocity": 0.3937007874015748,
          "duration": 0.13636350000000164
        },
        {
          "name": "D#3",
          "midi": 51,
          "time": 44.318137500000105,
          "velocity": 0.3937007874015748,
          "duration": 0.13636350000000164
        },
        {
          "name": "D#4",
          "midi": 63,
          "time": 44.45450100000011,
          "velocity": 0.3937007874015748,
          "duration": 0.13636350000000164
        },
        {
          "name": "F#4",
          "midi": 66,
          "time": 44.45450100000011,
          "velocity": 0.3937007874015748,
          "duration": 0.13636350000000164
        },
        {
          "name": "A#3",
          "midi": 58,
          "time": 44.45450100000011,
          "velocity": 0.3937007874015748,
          "duration": 0.13636350000000164
        },
        {
          "name": "A#4",
          "midi": 70,
          "time": 44.45450100000011,
          "velocity": 0.3937007874015748,
          "duration": 0.13636350000000164
        },
        {
          "name": "D#3",
          "midi": 51,
          "time": 44.59086450000011,
          "velocity": 0.3937007874015748,
          "duration": 0.13636350000000164
        },
        {
          "name": "F#3",
          "midi": 54,
          "time": 44.72722800000011,
          "velocity": 0.3937007874015748,
          "duration": 0.13636350000000164
        },
        {
          "name": "F#4",
          "midi": 66,
          "time": 44.999955000000114,
          "velocity": 0.3937007874015748,
          "duration": 0.13636350000000164
        },
        {
          "name": "F3",
          "midi": 53,
          "time": 44.999955000000114,
          "velocity": 0.3937007874015748,
          "duration": 0.13636350000000164
        },
        {
          "name": "C#4",
          "midi": 61,
          "time": 44.999955000000114,
          "velocity": 0.3937007874015748,
          "duration": 0.13636350000000164
        },
        {
          "name": "A#3",
          "midi": 58,
          "time": 44.999955000000114,
          "velocity": 0.3937007874015748,
          "duration": 0.13636350000000164
        },
        {
          "name": "F3",
          "midi": 53,
          "time": 45.40904550000012,
          "velocity": 0.3937007874015748,
          "duration": 0.13636350000000164
        },
        {
          "name": "C4",
          "midi": 60,
          "time": 45.40904550000012,
          "velocity": 0.3937007874015748,
          "duration": 0.13636350000000164
        },
        {
          "name": "F4",
          "midi": 65,
          "time": 45.40904550000012,
          "velocity": 0.3937007874015748,
          "duration": 0.13636350000000164
        },
        {
          "name": "G#3",
          "midi": 56,
          "time": 45.40904550000012,
          "velocity": 0.3937007874015748,
          "duration": 0.13636350000000164
        },
        {
          "name": "G#3",
          "midi": 56,
          "time": 45.68177250000012,
          "velocity": 0.3937007874015748,
          "duration": 0.13636350000000164
        },
        {
          "name": "D#3",
          "midi": 51,
          "time": 45.68177250000012,
          "velocity": 0.3937007874015748,
          "duration": 0.13636350000000164
        },
        {
          "name": "D#4",
          "midi": 63,
          "time": 45.68177250000012,
          "velocity": 0.3937007874015748,
          "duration": 0.13636350000000164
        },
        {
          "name": "D#3",
          "midi": 51,
          "time": 46.09086300000013,
          "velocity": 0.3937007874015748,
          "duration": 0.13636350000000164
        },
        {
          "name": "C4",
          "midi": 60,
          "time": 46.09086300000013,
          "velocity": 0.3937007874015748,
          "duration": 0.13636350000000164
        },
        {
          "name": "A#3",
          "midi": 58,
          "time": 46.09086300000013,
          "velocity": 0.3937007874015748,
          "duration": 0.13636350000000164
        },
        {
          "name": "G#3",
          "midi": 56,
          "time": 46.09086300000013,
          "velocity": 0.3937007874015748,
          "duration": 0.13636350000000164
        },
        {
          "name": "D#4",
          "midi": 63,
          "time": 46.36359000000013,
          "velocity": 0.3937007874015748,
          "duration": 0.13636350000000164
        },
        {
          "name": "B3",
          "midi": 59,
          "time": 46.36359000000013,
          "velocity": 0.3937007874015748,
          "duration": 0.13636350000000164
        },
        {
          "name": "G#3",
          "midi": 56,
          "time": 46.36359000000013,
          "velocity": 0.3937007874015748,
          "duration": 0.13636350000000164
        },
        {
          "name": "G#4",
          "midi": 68,
          "time": 46.36359000000013,
          "velocity": 0.3937007874015748,
          "duration": 0.13636350000000164
        },
        {
          "name": "G#3",
          "midi": 56,
          "time": 46.772680500000135,
          "velocity": 0.3937007874015748,
          "duration": 0.13636350000000164
        },
        {
          "name": "D#4",
          "midi": 63,
          "time": 46.772680500000135,
          "velocity": 0.3937007874015748,
          "duration": 0.13636350000000164
        },
        {
          "name": "G#4",
          "midi": 68,
          "time": 46.772680500000135,
          "velocity": 0.3937007874015748,
          "duration": 0.13636350000000164
        },
        {
          "name": "B3",
          "midi": 59,
          "time": 46.772680500000135,
          "velocity": 0.3937007874015748,
          "duration": 0.13636350000000164
        },
        {
          "name": "G#3",
          "midi": 56,
          "time": 47.04540750000014,
          "velocity": 0.3937007874015748,
          "duration": 0.13636350000000164
        },
        {
          "name": "B3",
          "midi": 59,
          "time": 47.18177100000014,
          "velocity": 0.3937007874015748,
          "duration": 0.13636350000000164
        },
        {
          "name": "D#4",
          "midi": 63,
          "time": 47.18177100000014,
          "velocity": 0.3937007874015748,
          "duration": 0.13636350000000164
        },
        {
          "name": "G#3",
          "midi": 56,
          "time": 47.45449800000014,
          "velocity": 0.3937007874015748,
          "duration": 0.13636350000000164
        },
        {
          "name": "B3",
          "midi": 59,
          "time": 47.45449800000014,
          "velocity": 0.3937007874015748,
          "duration": 0.13636350000000164
        },
        {
          "name": "D#4",
          "midi": 63,
          "time": 47.45449800000014,
          "velocity": 0.3937007874015748,
          "duration": 0.13636350000000164
        },
        {
          "name": "G#4",
          "midi": 68,
          "time": 47.45449800000014,
          "velocity": 0.3937007874015748,
          "duration": 0.13636350000000164
        },
        {
          "name": "B3",
          "midi": 59,
          "time": 47.727225000000146,
          "velocity": 0.3937007874015748,
          "duration": 0.13636350000000164
        },
        {
          "name": "E3",
          "midi": 52,
          "time": 47.727225000000146,
          "velocity": 0.3937007874015748,
          "duration": 0.13636350000000164
        },
        {
          "name": "G#3",
          "midi": 56,
          "time": 47.727225000000146,
          "velocity": 0.3937007874015748,
          "duration": 0.13636350000000164
        },
        {
          "name": "D#4",
          "midi": 63,
          "time": 47.727225000000146,
          "velocity": 0.3937007874015748,
          "duration": 0.13636350000000164
        },
        {
          "name": "G#3",
          "midi": 56,
          "time": 48.13631550000015,
          "velocity": 0.3937007874015748,
          "duration": 0.13636350000000164
        },
        {
          "name": "E3",
          "midi": 52,
          "time": 48.13631550000015,
          "velocity": 0.3937007874015748,
          "duration": 0.13636350000000164
        },
        {
          "name": "B3",
          "midi": 59,
          "time": 48.13631550000015,
          "velocity": 0.3937007874015748,
          "duration": 0.13636350000000164
        },
        {
          "name": "E3",
          "midi": 52,
          "time": 48.409042500000155,
          "velocity": 0.3937007874015748,
          "duration": 0.13636350000000164
        },
        {
          "name": "B3",
          "midi": 59,
          "time": 48.545406000000156,
          "velocity": 0.3937007874015748,
          "duration": 0.13636350000000164
        },
        {
          "name": "E3",
          "midi": 52,
          "time": 48.545406000000156,
          "velocity": 0.3937007874015748,
          "duration": 0.13636350000000164
        },
        {
          "name": "D#4",
          "midi": 63,
          "time": 48.545406000000156,
          "velocity": 0.3937007874015748,
          "duration": 0.13636350000000164
        },
        {
          "name": "G#3",
          "midi": 56,
          "time": 48.545406000000156,
          "velocity": 0.3937007874015748,
          "duration": 0.13636350000000164
        },
        {
          "name": "B3",
          "midi": 59,
          "time": 48.81813300000016,
          "velocity": 0.3937007874015748,
          "duration": 0.13636350000000164
        },
        {
          "name": "E3",
          "midi": 52,
          "time": 48.81813300000016,
          "velocity": 0.3937007874015748,
          "duration": 0.13636350000000164
        },
        {
          "name": "D#4",
          "midi": 63,
          "time": 48.81813300000016,
          "velocity": 0.3937007874015748,
          "duration": 0.13636350000000164
        },
        {
          "name": "G#3",
          "midi": 56,
          "time": 48.81813300000016,
          "velocity": 0.3937007874015748,
          "duration": 0.13636350000000164
        },
        {
          "name": "E3",
          "midi": 52,
          "time": 48.95449650000016,
          "velocity": 0.3937007874015748,
          "duration": 0.13636350000000164
        },
        {
          "name": "D#3",
          "midi": 51,
          "time": 49.09086000000016,
          "velocity": 0.3937007874015748,
          "duration": 0.13636350000000164
        },
        {
          "name": "F#3",
          "midi": 54,
          "time": 49.09086000000016,
          "velocity": 0.3937007874015748,
          "duration": 0.13636350000000164
        },
        {
          "name": "A#3",
          "midi": 58,
          "time": 49.09086000000016,
          "velocity": 0.3937007874015748,
          "duration": 0.13636350000000164
        },
        {
          "name": "A#3",
          "midi": 58,
          "time": 49.49995050000017,
          "velocity": 0.3937007874015748,
          "duration": 0.13636350000000164
        },
        {
          "name": "C#4",
          "midi": 61,
          "time": 49.49995050000017,
          "velocity": 0.3937007874015748,
          "duration": 0.13636350000000164
        },
        {
          "name": "D#3",
          "midi": 51,
          "time": 49.49995050000017,
          "velocity": 0.3937007874015748,
          "duration": 0.13636350000000164
        },
        {
          "name": "F#3",
          "midi": 54,
          "time": 49.49995050000017,
          "velocity": 0.3937007874015748,
          "duration": 0.13636350000000164
        },
        {
          "name": "D#3",
          "midi": 51,
          "time": 49.77267750000017,
          "velocity": 0.3937007874015748,
          "duration": 0.13636350000000164
        },
        {
          "name": "C#4",
          "midi": 61,
          "time": 49.90904100000017,
          "velocity": 0.3937007874015748,
          "duration": 0.13636350000000164
        },
        {
          "name": "F#3",
          "midi": 54,
          "time": 49.90904100000017,
          "velocity": 0.3937007874015748,
          "duration": 0.13636350000000164
        },
        {
          "name": "A#3",
          "midi": 58,
          "time": 49.90904100000017,
          "velocity": 0.3937007874015748,
          "duration": 0.13636350000000164
        },
        {
          "name": "F#3",
          "midi": 54,
          "time": 50.181768000000176,
          "velocity": 0.3937007874015748,
          "duration": 0.13636350000000164
        },
        {
          "name": "F4",
          "midi": 65,
          "time": 50.181768000000176,
          "velocity": 0.3937007874015748,
          "duration": 0.13636350000000164
        },
        {
          "name": "C#4",
          "midi": 61,
          "time": 50.181768000000176,
          "velocity": 0.3937007874015748,
          "duration": 0.13636350000000164
        },
        {
          "name": "A#3",
          "midi": 58,
          "time": 50.181768000000176,
          "velocity": 0.3937007874015748,
          "duration": 0.13636350000000164
        },
        {
          "name": "F4",
          "midi": 65,
          "time": 50.45449500000018,
          "velocity": 0.3937007874015748,
          "duration": 0.13636350000000164
        },
        {
          "name": "G#4",
          "midi": 68,
          "time": 50.45449500000018,
          "velocity": 0.3937007874015748,
          "duration": 0.13636350000000164
        },
        {
          "name": "C#4",
          "midi": 61,
          "time": 50.45449500000018,
          "velocity": 0.3937007874015748,
          "duration": 0.13636350000000164
        },
        {
          "name": "A#3",
          "midi": 58,
          "time": 50.45449500000018,
          "velocity": 0.3937007874015748,
          "duration": 0.13636350000000164
        },
        {
          "name": "D#3",
          "midi": 51,
          "time": 50.72722200000018,
          "velocity": 0.3937007874015748,
          "duration": 0.13636350000000164
        },
        {
          "name": "F4",
          "midi": 65,
          "time": 50.863585500000184,
          "velocity": 0.3937007874015748,
          "duration": 0.13636350000000164
        },
        {
          "name": "G#4",
          "midi": 68,
          "time": 50.863585500000184,
          "velocity": 0.3937007874015748,
          "duration": 0.13636350000000164
        },
        {
          "name": "C5",
          "midi": 72,
          "time": 50.863585500000184,
          "velocity": 0.3937007874015748,
          "duration": 0.13636350000000164
        },
        {
          "name": "C#4",
          "midi": 61,
          "time": 50.863585500000184,
          "velocity": 0.3937007874015748,
          "duration": 0.13636350000000164
        },
        {
          "name": "D#3",
          "midi": 51,
          "time": 51.13631250000019,
          "velocity": 0.3937007874015748,
          "duration": 0.13636350000000164
        },
        {
          "name": "D#3",
          "midi": 51,
          "time": 51.27267600000019,
          "velocity": 0.3937007874015748,
          "duration": 0.13636350000000164
        },
        {
          "name": "D#4",
          "midi": 63,
          "time": 51.27267600000019,
          "velocity": 0.3937007874015748,
          "duration": 0.13636350000000164
        },
        {
          "name": "F4",
          "midi": 65,
          "time": 51.40903950000019,
          "velocity": 0.3937007874015748,
          "duration": 0.13636350000000164
        },
        {
          "name": "C5",
          "midi": 72,
          "time": 51.40903950000019,
          "velocity": 0.3937007874015748,
          "duration": 0.13636350000000164
        },
        {
          "name": "B4",
          "midi": 71,
          "time": 51.54540300000019,
          "velocity": 0.3937007874015748,
          "duration": 0.13636350000000164
        },
        {
          "name": "E3",
          "midi": 52,
          "time": 51.54540300000019,
          "velocity": 0.3937007874015748,
          "duration": 0.13636350000000164
        },
        {
          "name": "A#4",
          "midi": 70,
          "time": 51.681766500000194,
          "velocity": 0.3937007874015748,
          "duration": 0.13636350000000164
        },
        {
          "name": "F3",
          "midi": 53,
          "time": 51.681766500000194,
          "velocity": 0.3937007874015748,
          "duration": 0.13636350000000164
        },
        {
          "name": "G#3",
          "midi": 56,
          "time": 51.818130000000195,
          "velocity": 0.3937007874015748,
          "duration": 0.13636350000000164
        },
        {
          "name": "B3",
          "midi": 59,
          "time": 51.9544935000002,
          "velocity": 0.3937007874015748,
          "duration": 0.13636350000000164
        },
        {
          "name": "G#3",
          "midi": 56,
          "time": 52.0908570000002,
          "velocity": 0.3937007874015748,
          "duration": 0.13636350000000164
        },
        {
          "name": "A#4",
          "midi": 70,
          "time": 52.0908570000002,
          "velocity": 0.3937007874015748,
          "duration": 0.13636350000000164
        },
        {
          "name": "D#4",
          "midi": 63,
          "time": 52.0908570000002,
          "velocity": 0.3937007874015748,
          "duration": 0.13636350000000164
        },
        {
          "name": "F#4",
          "midi": 66,
          "time": 52.0908570000002,
          "velocity": 0.3937007874015748,
          "duration": 0.13636350000000164
        },
        {
          "name": "A#4",
          "midi": 70,
          "time": 52.3635840000002,
          "velocity": 0.3937007874015748,
          "duration": 0.13636350000000164
        },
        {
          "name": "F#4",
          "midi": 66,
          "time": 52.3635840000002,
          "velocity": 0.3937007874015748,
          "duration": 0.13636350000000164
        },
        {
          "name": "D#4",
          "midi": 63,
          "time": 52.3635840000002,
          "velocity": 0.3937007874015748,
          "duration": 0.13636350000000164
        },
        {
          "name": "G#3",
          "midi": 56,
          "time": 52.3635840000002,
          "velocity": 0.3937007874015748,
          "duration": 0.13636350000000164
        },
        {
          "name": "G#3",
          "midi": 56,
          "time": 52.499947500000204,
          "velocity": 0.3937007874015748,
          "duration": 0.13636350000000164
        },
        {
          "name": "F#4",
          "midi": 66,
          "time": 52.499947500000204,
          "velocity": 0.3937007874015748,
          "duration": 0.13636350000000164
        },
        {
          "name": "D#4",
          "midi": 63,
          "time": 52.499947500000204,
          "velocity": 0.3937007874015748,
          "duration": 0.13636350000000164
        },
        {
          "name": "B3",
          "midi": 59,
          "time": 52.499947500000204,
          "velocity": 0.3937007874015748,
          "duration": 0.13636350000000164
        },
        {
          "name": "C#4",
          "midi": 61,
          "time": 52.90903800000021,
          "velocity": 0.3937007874015748,
          "duration": 0.13636350000000164
        },
        {
          "name": "A#3",
          "midi": 58,
          "time": 52.90903800000021,
          "velocity": 0.3937007874015748,
          "duration": 0.13636350000000164
        },
        {
          "name": "F4",
          "midi": 65,
          "time": 52.90903800000021,
          "velocity": 0.3937007874015748,
          "duration": 0.13636350000000164
        },
        {
          "name": "G#4",
          "midi": 68,
          "time": 52.90903800000021,
          "velocity": 0.3937007874015748,
          "duration": 0.13636350000000164
        },
        {
          "name": "B4",
          "midi": 71,
          "time": 53.18176500000021,
          "velocity": 0.3937007874015748,
          "duration": 0.13636350000000164
        },
        {
          "name": "G#4",
          "midi": 68,
          "time": 53.18176500000021,
          "velocity": 0.3937007874015748,
          "duration": 0.13636350000000164
        },
        {
          "name": "D#6",
          "midi": 87,
          "time": 53.18176500000021,
          "velocity": 0.3937007874015748,
          "duration": 0.13636350000000164
        },
        {
          "name": "E4",
          "midi": 64,
          "time": 53.18176500000021,
          "velocity": 0.3937007874015748,
          "duration": 0.13636350000000164
        },
        {
          "name": "B3",
          "midi": 59,
          "time": 53.18176500000021,
          "velocity": 0.3937007874015748,
          "duration": 0.13636350000000164
        },
        {
          "name": "B4",
          "midi": 71,
          "time": 53.59085550000022,
          "velocity": 0.3937007874015748,
          "duration": 0.13636350000000164
        },
        {
          "name": "E4",
          "midi": 64,
          "time": 53.59085550000022,
          "velocity": 0.3937007874015748,
          "duration": 0.13636350000000164
        },
        {
          "name": "G#4",
          "midi": 68,
          "time": 53.59085550000022,
          "velocity": 0.3937007874015748,
          "duration": 0.13636350000000164
        },
        {
          "name": "C#4",
          "midi": 61,
          "time": 53.59085550000022,
          "velocity": 0.3937007874015748,
          "duration": 0.13636350000000164
        },
        {
          "name": "G#3",
          "midi": 56,
          "time": 53.86358250000022,
          "velocity": 0.3937007874015748,
          "duration": 0.13636350000000164
        },
        {
          "name": "B5",
          "midi": 83,
          "time": 53.86358250000022,
          "velocity": 0.3937007874015748,
          "duration": 0.13636350000000164
        },
        {
          "name": "B3",
          "midi": 59,
          "time": 53.99994600000022,
          "velocity": 0.3937007874015748,
          "duration": 0.13636350000000164
        },
        {
          "name": "G#4",
          "midi": 68,
          "time": 53.99994600000022,
          "velocity": 0.3937007874015748,
          "duration": 0.13636350000000164
        },
        {
          "name": "E4",
          "midi": 64,
          "time": 53.99994600000022,
          "velocity": 0.3937007874015748,
          "duration": 0.13636350000000164
        },
        {
          "name": "A#4",
          "midi": 70,
          "time": 53.99994600000022,
          "velocity": 0.3937007874015748,
          "duration": 0.13636350000000164
        },
        {
          "name": "G#4",
          "midi": 68,
          "time": 54.272673000000225,
          "velocity": 0.3937007874015748,
          "duration": 0.13636350000000164
        },
        {
          "name": "E4",
          "midi": 64,
          "time": 54.272673000000225,
          "velocity": 0.3937007874015748,
          "duration": 0.13636350000000164
        },
        {
          "name": "B3",
          "midi": 59,
          "time": 54.272673000000225,
          "velocity": 0.3937007874015748,
          "duration": 0.13636350000000164
        },
        {
          "name": "A#4",
          "midi": 70,
          "time": 54.272673000000225,
          "velocity": 0.3937007874015748,
          "duration": 0.13636350000000164
        },
        {
          "name": "D#3",
          "midi": 51,
          "time": 54.54540000000023,
          "velocity": 0.3937007874015748,
          "duration": 0.13636350000000164
        },
        {
          "name": "A#3",
          "midi": 58,
          "time": 54.54540000000023,
          "velocity": 0.3937007874015748,
          "duration": 0.13636350000000164
        },
        {
          "name": "A#4",
          "midi": 70,
          "time": 54.54540000000023,
          "velocity": 0.3937007874015748,
          "duration": 0.13636350000000164
        },
        {
          "name": "D#4",
          "midi": 63,
          "time": 54.54540000000023,
          "velocity": 0.3937007874015748,
          "duration": 0.13636350000000164
        },
        {
          "name": "F#4",
          "midi": 66,
          "time": 54.54540000000023,
          "velocity": 0.3937007874015748,
          "duration": 0.13636350000000164
        },
        {
          "name": "A#5",
          "midi": 82,
          "time": 54.54540000000023,
          "velocity": 0.3937007874015748,
          "duration": 0.13636350000000164
        },
        {
          "name": "F#5",
          "midi": 78,
          "time": 54.54540000000023,
          "velocity": 0.3937007874015748,
          "duration": 0.13636350000000164
        },
        {
          "name": "F5",
          "midi": 77,
          "time": 54.68176350000023,
          "velocity": 0.3937007874015748,
          "duration": 0.13636350000000164
        },
        {
          "name": "E5",
          "midi": 76,
          "time": 54.81812700000023,
          "velocity": 0.3937007874015748,
          "duration": 0.13636350000000164
        },
        {
          "name": "A#3",
          "midi": 58,
          "time": 54.95449050000023,
          "velocity": 0.3937007874015748,
          "duration": 0.13636350000000164
        },
        {
          "name": "D#5",
          "midi": 75,
          "time": 54.95449050000023,
          "velocity": 0.3937007874015748,
          "duration": 0.13636350000000164
        },
        {
          "name": "D#4",
          "midi": 63,
          "time": 54.95449050000023,
          "velocity": 0.3937007874015748,
          "duration": 0.13636350000000164
        },
        {
          "name": "A#4",
          "midi": 70,
          "time": 54.95449050000023,
          "velocity": 0.3937007874015748,
          "duration": 0.13636350000000164
        },
        {
          "name": "D#3",
          "midi": 51,
          "time": 54.95449050000023,
          "velocity": 0.3937007874015748,
          "duration": 0.13636350000000164
        },
        {
          "name": "F#4",
          "midi": 66,
          "time": 54.95449050000023,
          "velocity": 0.3937007874015748,
          "duration": 0.13636350000000164
        },
        {
          "name": "D5",
          "midi": 74,
          "time": 55.090854000000235,
          "velocity": 0.3937007874015748,
          "duration": 0.13636350000000164
        },
        {
          "name": "D#3",
          "midi": 51,
          "time": 55.227217500000236,
          "velocity": 0.3937007874015748,
          "duration": 0.13636350000000164
        },
        {
          "name": "C#5",
          "midi": 73,
          "time": 55.227217500000236,
          "velocity": 0.3937007874015748,
          "duration": 0.13636350000000164
        },
        {
          "name": "F#4",
          "midi": 66,
          "time": 55.36358100000024,
          "velocity": 0.3937007874015748,
          "duration": 0.13636350000000164
        },
        {
          "name": "A#3",
          "midi": 58,
          "time": 55.36358100000024,
          "velocity": 0.3937007874015748,
          "duration": 0.13636350000000164
        },
        {
          "name": "D#4",
          "midi": 63,
          "time": 55.36358100000024,
          "velocity": 0.3937007874015748,
          "duration": 0.13636350000000164
        },
        {
          "name": "A#4",
          "midi": 70,
          "time": 55.36358100000024,
          "velocity": 0.3937007874015748,
          "duration": 0.13636350000000164
        },
        {
          "name": "C5",
          "midi": 72,
          "time": 55.36358100000024,
          "velocity": 0.3937007874015748,
          "duration": 0.13636350000000164
        },
        {
          "name": "B4",
          "midi": 71,
          "time": 55.49994450000024,
          "velocity": 0.3937007874015748,
          "duration": 0.13636350000000164
        },
        {
          "name": "D#3",
          "midi": 51,
          "time": 55.49994450000024,
          "velocity": 0.3937007874015748,
          "duration": 0.13636350000000164
        },
        {
          "name": "A#4",
          "midi": 70,
          "time": 55.63630800000024,
          "velocity": 0.3937007874015748,
          "duration": 0.13636350000000164
        },
        {
          "name": "F#3",
          "midi": 54,
          "time": 55.63630800000024,
          "velocity": 0.3937007874015748,
          "duration": 0.13636350000000164
        },
        {
          "name": "A4",
          "midi": 69,
          "time": 55.77267150000024,
          "velocity": 0.3937007874015748,
          "duration": 0.13636350000000164
        },
        {
          "name": "G#4",
          "midi": 68,
          "time": 55.909035000000245,
          "velocity": 0.3937007874015748,
          "duration": 0.13636350000000164
        },
        {
          "name": "C#4",
          "midi": 61,
          "time": 55.909035000000245,
          "velocity": 0.3937007874015748,
          "duration": 0.13636350000000164
        },
        {
          "name": "A#3",
          "midi": 58,
          "time": 55.909035000000245,
          "velocity": 0.3937007874015748,
          "duration": 0.13636350000000164
        },
        {
          "name": "F#4",
          "midi": 66,
          "time": 55.909035000000245,
          "velocity": 0.3937007874015748,
          "duration": 0.13636350000000164
        },
        {
          "name": "G#4",
          "midi": 68,
          "time": 55.909035000000245,
          "velocity": 0.3937007874015748,
          "duration": 0.13636350000000164
        },
        {
          "name": "F3",
          "midi": 53,
          "time": 55.909035000000245,
          "velocity": 0.3937007874015748,
          "duration": 0.13636350000000164
        },
        {
          "name": "G4",
          "midi": 67,
          "time": 56.045398500000246,
          "velocity": 0.3937007874015748,
          "duration": 0.13636350000000164
        },
        {
          "name": "F#4",
          "midi": 66,
          "time": 56.18176200000025,
          "velocity": 0.3937007874015748,
          "duration": 0.13636350000000164
        },
        {
          "name": "F4",
          "midi": 65,
          "time": 56.31812550000025,
          "velocity": 0.3937007874015748,
          "duration": 0.13636350000000164
        },
        {
          "name": "F3",
          "midi": 53,
          "time": 56.31812550000025,
          "velocity": 0.3937007874015748,
          "duration": 0.13636350000000164
        },
        {
          "name": "G#3",
          "midi": 56,
          "time": 56.31812550000025,
          "velocity": 0.3937007874015748,
          "duration": 0.13636350000000164
        },
        {
          "name": "C4",
          "midi": 60,
          "time": 56.31812550000025,
          "velocity": 0.3937007874015748,
          "duration": 0.13636350000000164
        },
        {
          "name": "E4",
          "midi": 64,
          "time": 56.45448900000025,
          "velocity": 0.3937007874015748,
          "duration": 0.13636350000000164
        },
        {
          "name": "D#3",
          "midi": 51,
          "time": 56.59085250000025,
          "velocity": 0.3937007874015748,
          "duration": 0.13636350000000164
        },
        {
          "name": "G#3",
          "midi": 56,
          "time": 56.59085250000025,
          "velocity": 0.3937007874015748,
          "duration": 0.13636350000000164
        },
        {
          "name": "D#4",
          "midi": 63,
          "time": 56.59085250000025,
          "velocity": 0.3937007874015748,
          "duration": 0.13636350000000164
        },
        {
          "name": "D4",
          "midi": 62,
          "time": 56.727216000000254,
          "velocity": 0.3937007874015748,
          "duration": 0.13636350000000164
        },
        {
          "name": "C#4",
          "midi": 61,
          "time": 56.863579500000256,
          "velocity": 0.3937007874015748,
          "duration": 0.13636350000000164
        },
        {
          "name": "C4",
          "midi": 60,
          "time": 56.99994300000026,
          "velocity": 0.3937007874015748,
          "duration": 0.13636350000000164
        },
        {
          "name": "D#3",
          "midi": 51,
          "time": 56.99994300000026,
          "velocity": 0.3937007874015748,
          "duration": 0.13636350000000164
        },
        {
          "name": "A#3",
          "midi": 58,
          "time": 56.99994300000026,
          "velocity": 0.3937007874015748,
          "duration": 0.13636350000000164
        },
        {
          "name": "G#3",
          "midi": 56,
          "time": 56.99994300000026,
          "velocity": 0.3937007874015748,
          "duration": 0.13636350000000164
        },
        {
          "name": "B3",
          "midi": 59,
          "time": 57.13630650000026,
          "velocity": 0.3937007874015748,
          "duration": 0.13636350000000164
        },
        {
          "name": "D#4",
          "midi": 63,
          "time": 57.27267000000026,
          "velocity": 0.3937007874015748,
          "duration": 0.13636350000000164
        },
        {
          "name": "G#4",
          "midi": 68,
          "time": 57.27267000000026,
          "velocity": 0.3937007874015748,
          "duration": 0.13636350000000164
        },
        {
          "name": "G#3",
          "midi": 56,
          "time": 57.27267000000026,
          "velocity": 0.3937007874015748,
          "duration": 0.13636350000000164
        },
        {
          "name": "A#3",
          "midi": 58,
          "time": 57.27267000000026,
          "velocity": 0.3937007874015748,
          "duration": 0.13636350000000164
        }
      ],
      "controlChanges": {},
      "id": 1,
      "name": "Electric Piano",
      "instrumentNumber": 0,
      "instrument": "acoustic grand piano",
      "instrumentFamily": "piano",
      "channelNumber": 0,
      "isPercussion": false
    },
    {
      "startTime": 13.63635,
      "duration": 113.31806850000031,
      "length": 100,
      "notes": [
        {
          "name": "D#2",
          "midi": 39,
          "time": 13.63635,
          "velocity": 0.3937007874015748,
          "duration": 0.13636349999999986
        },
        {
          "name": "B1",
          "midi": 35,
          "time": 14.999985,
          "velocity": 0.3937007874015748,
          "duration": 0.13636349999999986
        },
        {
          "name": "A#1",
          "midi": 34,
          "time": 16.36362,
          "velocity": 0.3937007874015748,
          "duration": 0.13636350000000164
        },
        {
          "name": "D#2",
          "midi": 39,
          "time": 19.09089,
          "velocity": 0.3937007874015748,
          "duration": 0.13636350000000164
        },
        {
          "name": "B1",
          "midi": 35,
          "time": 20.454525000000004,
          "velocity": 0.3937007874015748,
          "duration": 0.13636350000000164
        },
        {
          "name": "A#1",
          "midi": 34,
          "time": 21.818160000000006,
          "velocity": 0.3937007874015748,
          "duration": 0.13636350000000164
        },
        {
          "name": "D#2",
          "midi": 39,
          "time": 24.545430000000007,
          "velocity": 0.3937007874015748,
          "duration": 0.13636350000000164
        },
        {
          "name": "B1",
          "midi": 35,
          "time": 25.90906500000001,
          "velocity": 0.3937007874015748,
          "duration": 0.13636350000000164
        },
        {
          "name": "A#1",
          "midi": 34,
          "time": 27.27270000000001,
          "velocity": 0.3937007874015748,
          "duration": 0.13636350000000164
        },
        {
          "name": "D#2",
          "midi": 39,
          "time": 29.999970000000012,
          "velocity": 0.3937007874015748,
          "duration": 0.13636350000000164
        },
        {
          "name": "B1",
          "midi": 35,
          "time": 31.363605000000014,
          "velocity": 0.3937007874015748,
          "duration": 0.13636350000000164
        },
        {
          "name": "A#1",
          "midi": 34,
          "time": 32.727240000000016,
          "velocity": 0.3937007874015748,
          "duration": 0.13636350000000164
        },
        {
          "name": "B3",
          "midi": 59,
          "time": 35.45451000000002,
          "velocity": 0.3937007874015748,
          "duration": 0.13636350000000164
        },
        {
          "name": "D#2",
          "midi": 39,
          "time": 35.45451000000002,
          "velocity": 0.3937007874015748,
          "duration": 0.13636350000000164
        },
        {
          "name": "G#5",
          "midi": 80,
          "time": 35.45451000000002,
          "velocity": 0.3937007874015748,
          "duration": 0.13636350000000164
        },
        {
          "name": "B3",
          "midi": 59,
          "time": 35.863600500000025,
          "velocity": 0.3937007874015748,
          "duration": 0.13636350000000164
        },
        {
          "name": "B3",
          "midi": 59,
          "time": 36.13632750000003,
          "velocity": 0.3937007874015748,
          "duration": 0.13636350000000164
        },
        {
          "name": "B3",
          "midi": 59,
          "time": 36.54541800000003,
          "velocity": 0.3937007874015748,
          "duration": 0.13636350000000164
        },
        {
          "name": "B3",
          "midi": 59,
          "time": 36.81814500000004,
          "velocity": 0.3937007874015748,
          "duration": 0.13636350000000164
        },
        {
          "name": "B3",
          "midi": 59,
          "time": 37.22723550000004,
          "velocity": 0.3937007874015748,
          "duration": 0.13636350000000164
        },
        {
          "name": "B3",
          "midi": 59,
          "time": 37.63632600000005,
          "velocity": 0.3937007874015748,
          "duration": 0.13636350000000164
        },
        {
          "name": "B3",
          "midi": 59,
          "time": 37.90905300000005,
          "velocity": 0.3937007874015748,
          "duration": 0.13636350000000164
        },
        {
          "name": "F#5",
          "midi": 78,
          "time": 38.18178000000005,
          "velocity": 0.3937007874015748,
          "duration": 0.13636350000000164
        },
        {
          "name": "A#3",
          "midi": 58,
          "time": 38.18178000000005,
          "velocity": 0.3937007874015748,
          "duration": 0.13636350000000164
        },
        {
          "name": "A#3",
          "midi": 58,
          "time": 38.59087050000006,
          "velocity": 0.3937007874015748,
          "duration": 0.13636350000000164
        },
        {
          "name": "A#3",
          "midi": 58,
          "time": 38.86359750000006,
          "velocity": 0.3937007874015748,
          "duration": 0.13636350000000164
        },
        {
          "name": "A#3",
          "midi": 58,
          "time": 39.272688000000066,
          "velocity": 0.3937007874015748,
          "duration": 0.13636350000000164
        },
        {
          "name": "A#3",
          "midi": 58,
          "time": 39.54541500000007,
          "velocity": 0.3937007874015748,
          "duration": 0.13636350000000164
        },
        {
          "name": "A#3",
          "midi": 58,
          "time": 39.954505500000074,
          "velocity": 0.3937007874015748,
          "duration": 0.13636350000000164
        },
        {
          "name": "A#3",
          "midi": 58,
          "time": 40.22723250000008,
          "velocity": 0.3937007874015748,
          "duration": 0.13636350000000164
        },
        {
          "name": "A#3",
          "midi": 58,
          "time": 40.63632300000008,
          "velocity": 0.3937007874015748,
          "duration": 0.13636350000000164
        },
        {
          "name": "G#5",
          "midi": 80,
          "time": 40.909050000000086,
          "velocity": 0.3937007874015748,
          "duration": 0.13636350000000164
        },
        {
          "name": "G#3",
          "midi": 56,
          "time": 40.909050000000086,
          "velocity": 0.3937007874015748,
          "duration": 0.13636350000000164
        },
        {
          "name": "G#3",
          "midi": 56,
          "time": 41.31814050000009,
          "velocity": 0.3937007874015748,
          "duration": 0.13636350000000164
        },
        {
          "name": "G#3",
          "midi": 56,
          "time": 41.590867500000094,
          "velocity": 0.3937007874015748,
          "duration": 0.13636350000000164
        },
        {
          "name": "G#3",
          "midi": 56,
          "time": 41.9999580000001,
          "velocity": 0.3937007874015748,
          "duration": 0.13636350000000164
        },
        {
          "name": "B3",
          "midi": 59,
          "time": 42.2726850000001,
          "velocity": 0.3937007874015748,
          "duration": 0.13636350000000164
        },
        {
          "name": "B3",
          "midi": 59,
          "time": 42.68177550000011,
          "velocity": 0.3937007874015748,
          "duration": 0.13636350000000164
        },
        {
          "name": "B3",
          "midi": 59,
          "time": 42.95450250000011,
          "velocity": 0.3937007874015748,
          "duration": 0.13636350000000164
        },
        {
          "name": "B3",
          "midi": 59,
          "time": 43.363593000000115,
          "velocity": 0.3937007874015748,
          "duration": 0.13636350000000164
        },
        {
          "name": "F#5",
          "midi": 78,
          "time": 43.63632000000012,
          "velocity": 0.3937007874015748,
          "duration": 0.13636350000000164
        },
        {
          "name": "A#3",
          "midi": 58,
          "time": 43.63632000000012,
          "velocity": 0.3937007874015748,
          "duration": 0.13636350000000164
        },
        {
          "name": "A#3",
          "midi": 58,
          "time": 44.04541050000012,
          "velocity": 0.3937007874015748,
          "duration": 0.13636350000000164
        },
        {
          "name": "A#3",
          "midi": 58,
          "time": 44.31813750000013,
          "velocity": 0.3937007874015748,
          "duration": 0.13636350000000164
        },
        {
          "name": "A#3",
          "midi": 58,
          "time": 44.72722800000013,
          "velocity": 0.3937007874015748,
          "duration": 0.13636350000000164
        },
        {
          "name": "A#3",
          "midi": 58,
          "time": 44.999955000000135,
          "velocity": 0.3937007874015748,
          "duration": 0.13636350000000164
        },
        {
          "name": "A#3",
          "midi": 58,
          "time": 45.40904550000014,
          "velocity": 0.3937007874015748,
          "duration": 0.13636350000000164
        },
        {
          "name": "A#3",
          "midi": 58,
          "time": 45.68177250000014,
          "velocity": 0.3937007874015748,
          "duration": 0.13636350000000164
        },
        {
          "name": "A#3",
          "midi": 58,
          "time": 46.09086300000015,
          "velocity": 0.3937007874015748,
          "duration": 0.13636350000000164
        },
        {
          "name": "D#2",
          "midi": 39,
          "time": 46.36359000000015,
          "velocity": 0.3937007874015748,
          "duration": 0.13636350000000164
        },
        {
          "name": "B3",
          "midi": 59,
          "time": 46.36359000000015,
          "velocity": 0.3937007874015748,
          "duration": 0.13636350000000164
        },
        {
          "name": "G#5",
          "midi": 80,
          "time": 46.36359000000015,
          "velocity": 0.3937007874015748,
          "duration": 0.13636350000000164
        },
        {
          "name": "B3",
          "midi": 59,
          "time": 46.772680500000156,
          "velocity": 0.3937007874015748,
          "duration": 0.13636350000000164
        },
        {
          "name": "B3",
          "midi": 59,
          "time": 47.04540750000016,
          "velocity": 0.3937007874015748,
          "duration": 0.13636350000000164
        },
        {
          "name": "B3",
          "midi": 59,
          "time": 47.454498000000164,
          "velocity": 0.3937007874015748,
          "duration": 0.13636350000000164
        },
        {
          "name": "B3",
          "midi": 59,
          "time": 47.72722500000017,
          "velocity": 0.3937007874015748,
          "duration": 0.13636350000000164
        },
        {
          "name": "B3",
          "midi": 59,
          "time": 48.13631550000017,
          "velocity": 0.3937007874015748,
          "duration": 0.13636350000000164
        },
        {
          "name": "B3",
          "midi": 59,
          "time": 48.54540600000018,
          "velocity": 0.3937007874015748,
          "duration": 0.13636350000000164
        },
        {
          "name": "B3",
          "midi": 59,
          "time": 48.81813300000018,
          "velocity": 0.3937007874015748,
          "duration": 0.13636350000000164
        },
        {
          "name": "A#3",
          "midi": 58,
          "time": 49.090860000000184,
          "velocity": 0.3937007874015748,
          "duration": 0.13636350000000164
        },
        {
          "name": "F#5",
          "midi": 78,
          "time": 49.090860000000184,
          "velocity": 0.3937007874015748,
          "duration": 0.13636350000000164
        },
        {
          "name": "A#3",
          "midi": 58,
          "time": 49.49995050000019,
          "velocity": 0.3937007874015748,
          "duration": 0.13636350000000164
        },
        {
          "name": "A#3",
          "midi": 58,
          "time": 49.77267750000019,
          "velocity": 0.3937007874015748,
          "duration": 0.13636350000000164
        },
        {
          "name": "A#3",
          "midi": 58,
          "time": 50.1817680000002,
          "velocity": 0.3937007874015748,
          "duration": 0.13636350000000164
        },
        {
          "name": "A#3",
          "midi": 58,
          "time": 50.4544950000002,
          "velocity": 0.3937007874015748,
          "duration": 0.13636350000000164
        },
        {
          "name": "A#3",
          "midi": 58,
          "time": 50.863585500000205,
          "velocity": 0.3937007874015748,
          "duration": 0.13636350000000164
        },
        {
          "name": "A#3",
          "midi": 58,
          "time": 51.13631250000021,
          "velocity": 0.3937007874015748,
          "duration": 0.13636350000000164
        },
        {
          "name": "A#3",
          "midi": 58,
          "time": 51.54540300000021,
          "velocity": 0.3937007874015748,
          "duration": 0.13636350000000164
        },
        {
          "name": "G#5",
          "midi": 80,
          "time": 51.81813000000022,
          "velocity": 0.3937007874015748,
          "duration": 0.13636350000000164
        },
        {
          "name": "G#3",
          "midi": 56,
          "time": 51.81813000000022,
          "velocity": 0.3937007874015748,
          "duration": 0.13636350000000164
        },
        {
          "name": "G#3",
          "midi": 56,
          "time": 52.22722050000022,
          "velocity": 0.3937007874015748,
          "duration": 0.13636350000000164
        },
        {
          "name": "G#3",
          "midi": 56,
          "time": 52.499947500000225,
          "velocity": 0.3937007874015748,
          "duration": 0.13636350000000164
        },
        {
          "name": "G#3",
          "midi": 56,
          "time": 52.90903800000023,
          "velocity": 0.3937007874015748,
          "duration": 0.13636350000000164
        },
        {
          "name": "B3",
          "midi": 59,
          "time": 53.18176500000023,
          "velocity": 0.3937007874015748,
          "duration": 0.13636350000000164
        },
        {
          "name": "B3",
          "midi": 59,
          "time": 53.59085550000024,
          "velocity": 0.3937007874015748,
          "duration": 0.13636350000000164
        },
        {
          "name": "B3",
          "midi": 59,
          "time": 53.86358250000024,
          "velocity": 0.3937007874015748,
          "duration": 0.13636350000000164
        },
        {
          "name": "B3",
          "midi": 59,
          "time": 54.272673000000246,
          "velocity": 0.3937007874015748,
          "duration": 0.13636350000000164
        },
        {
          "name": "A#3",
          "midi": 58,
          "time": 54.54540000000025,
          "velocity": 0.3937007874015748,
          "duration": 0.13636350000000164
        },
        {
          "name": "F#5",
          "midi": 78,
          "time": 54.54540000000025,
          "velocity": 0.3937007874015748,
          "duration": 0.13636350000000164
        },
        {
          "name": "A#3",
          "midi": 58,
          "time": 54.954490500000254,
          "velocity": 0.3937007874015748,
          "duration": 0.13636350000000164
        },
        {
          "name": "A#3",
          "midi": 58,
          "time": 55.22721750000026,
          "velocity": 0.3937007874015748,
          "duration": 0.13636350000000164
        },
        {
          "name": "A#3",
          "midi": 58,
          "time": 55.63630800000026,
          "velocity": 0.3937007874015748,
          "duration": 0.13636350000000164
        },
        {
          "name": "A#3",
          "midi": 58,
          "time": 55.909035000000266,
          "velocity": 0.3937007874015748,
          "duration": 0.13636350000000164
        },
        {
          "name": "A#3",
          "midi": 58,
          "time": 56.31812550000027,
          "velocity": 0.3937007874015748,
          "duration": 0.13636350000000164
        },
        {
          "name": "A#3",
          "midi": 58,
          "time": 56.590852500000274,
          "velocity": 0.3937007874015748,
          "duration": 0.13636350000000164
        },
        {
          "name": "A#3",
          "midi": 58,
          "time": 56.99994300000028,
          "velocity": 0.3937007874015748,
          "duration": 0.13636350000000164
        },
        {
          "name": "G#3",
          "midi": 56,
          "time": 57.27267000000028,
          "velocity": 0.3937007874015748,
          "duration": 0.13636350000000164
        },
        {
          "name": "G#5",
          "midi": 80,
          "time": 57.27267000000028,
          "velocity": 0.3937007874015748,
          "duration": 0.13636350000000164
        },
        {
          "name": "D#2",
          "midi": 39,
          "time": 94.09081500000028,
          "velocity": 0.3937007874015748,
          "duration": 0.13636350000000164
        },
        {
          "name": "B1",
          "midi": 35,
          "time": 95.45445000000028,
          "velocity": 0.3937007874015748,
          "duration": 0.13636350000000164
        },
        {
          "name": "A#1",
          "midi": 34,
          "time": 96.81808500000028,
          "velocity": 0.3937007874015748,
          "duration": 0.13636350000000164
        },
        {
          "name": "D#2",
          "midi": 39,
          "time": 99.54535500000028,
          "velocity": 0.3937007874015748,
          "duration": 0.13636350000000164
        },
        {
          "name": "B1",
          "midi": 35,
          "time": 100.90899000000029,
          "velocity": 0.3937007874015748,
          "duration": 0.13636350000000164
        },
        {
          "name": "A#1",
          "midi": 34,
          "time": 102.27262500000029,
          "velocity": 0.3937007874015748,
          "duration": 0.13636350000000164
        },
        {
          "name": "D#2",
          "midi": 39,
          "time": 104.9998950000003,
          "velocity": 0.3937007874015748,
          "duration": 0.13636350000000164
        },
        {
          "name": "B1",
          "midi": 35,
          "time": 106.3635300000003,
          "velocity": 0.3937007874015748,
          "duration": 0.13636350000000164
        },
        {
          "name": "A#1",
          "midi": 34,
          "time": 107.7271650000003,
          "velocity": 0.3937007874015748,
          "duration": 0.13636350000000164
        },
        {
          "name": "D#2",
          "midi": 39,
          "time": 110.4544350000003,
          "velocity": 0.3937007874015748,
          "duration": 0.13636350000000164
        },
        {
          "name": "B1",
          "midi": 35,
          "time": 111.8180700000003,
          "velocity": 0.3937007874015748,
          "duration": 0.13636350000000164
        },
        {
          "name": "A#1",
          "midi": 34,
          "time": 113.1817050000003,
          "velocity": 0.3937007874015748,
          "duration": 0.13636350000000164
        }
      ],
      "controlChanges": {},
      "id": 2,
      "name": "Smooth Synth",
      "instrumentNumber": 80,
      "instrument": "lead 1 (square)",
      "instrumentFamily": "synth lead",
      "channelNumber": 1,
      "isPercussion": false
    },
    {
      "startTime": 40.90905,
      "duration": 57.409033500000064,
      "length": 24,
      "notes": [
        {
          "name": "D#5",
          "midi": 75,
          "time": 40.90905,
          "velocity": 0.3937007874015748,
          "duration": 0.13636350000000164
        },
        {
          "name": "G#4",
          "midi": 68,
          "time": 41.318140500000005,
          "velocity": 0.3937007874015748,
          "duration": 0.13636350000000164
        },
        {
          "name": "A#4",
          "midi": 70,
          "time": 41.59086750000001,
          "velocity": 0.3937007874015748,
          "duration": 0.13636350000000164
        },
        {
          "name": "B4",
          "midi": 71,
          "time": 41.72723100000001,
          "velocity": 0.3937007874015748,
          "duration": 0.13636350000000164
        },
        {
          "name": "D#5",
          "midi": 75,
          "time": 41.86359450000001,
          "velocity": 0.3937007874015748,
          "duration": 0.13636350000000164
        },
        {
          "name": "G#5",
          "midi": 80,
          "time": 41.999958000000014,
          "velocity": 0.3937007874015748,
          "duration": 0.13636350000000164
        },
        {
          "name": "G#4",
          "midi": 68,
          "time": 51.81813000000002,
          "velocity": 0.3937007874015748,
          "duration": 0.13636350000000164
        },
        {
          "name": "B4",
          "midi": 71,
          "time": 51.95449350000002,
          "velocity": 0.3937007874015748,
          "duration": 0.13636350000000164
        },
        {
          "name": "D#5",
          "midi": 75,
          "time": 52.09085700000002,
          "velocity": 0.3937007874015748,
          "duration": 0.13636350000000164
        },
        {
          "name": "F#5",
          "midi": 78,
          "time": 52.22722050000002,
          "velocity": 0.3937007874015748,
          "duration": 0.13636350000000164
        },
        {
          "name": "D#5",
          "midi": 75,
          "time": 52.499947500000026,
          "velocity": 0.3937007874015748,
          "duration": 0.13636350000000164
        },
        {
          "name": "G#4",
          "midi": 68,
          "time": 52.77267450000003,
          "velocity": 0.3937007874015748,
          "duration": 0.13636350000000164
        },
        {
          "name": "A#4",
          "midi": 70,
          "time": 52.90903800000003,
          "velocity": 0.3937007874015748,
          "duration": 0.13636350000000164
        },
        {
          "name": "B4",
          "midi": 71,
          "time": 53.04540150000003,
          "velocity": 0.3937007874015748,
          "duration": 0.13636350000000164
        },
        {
          "name": "D#5",
          "midi": 75,
          "time": 53.181765000000034,
          "velocity": 0.3937007874015748,
          "duration": 0.13636350000000164
        },
        {
          "name": "B4",
          "midi": 71,
          "time": 53.45449200000004,
          "velocity": 0.3937007874015748,
          "duration": 0.13636350000000164
        },
        {
          "name": "A#4",
          "midi": 70,
          "time": 53.59085550000004,
          "velocity": 0.3937007874015748,
          "duration": 0.13636350000000164
        },
        {
          "name": "G#4",
          "midi": 68,
          "time": 53.86358250000004,
          "velocity": 0.3937007874015748,
          "duration": 0.13636350000000164
        },
        {
          "name": "A#4",
          "midi": 70,
          "time": 54.136309500000046,
          "velocity": 0.3937007874015748,
          "duration": 0.13636350000000164
        },
        {
          "name": "B4",
          "midi": 71,
          "time": 54.27267300000005,
          "velocity": 0.3937007874015748,
          "duration": 0.13636350000000164
        },
        {
          "name": "A#4",
          "midi": 70,
          "time": 54.54540000000005,
          "velocity": 0.3937007874015748,
          "duration": 0.13636350000000164
        },
        {
          "name": "A#4",
          "midi": 70,
          "time": 56.590852500000054,
          "velocity": 0.3937007874015748,
          "duration": 0.13636350000000164
        },
        {
          "name": "F#4",
          "midi": 66,
          "time": 56.99994300000006,
          "velocity": 0.3937007874015748,
          "duration": 0.13636350000000164
        },
        {
          "name": "G#4",
          "midi": 68,
          "time": 57.27267000000006,
          "velocity": 0.3937007874015748,
          "duration": 0.13636350000000164
        }
      ],
      "controlChanges": {},
      "id": 3,
      "name": "Scifi",
      "instrumentNumber": 99,
      "instrument": "fx 4 (atmosphere)",
      "instrumentFamily": "synth effects",
      "channelNumber": 2,
      "isPercussion": false
    },
    {
      "startTime": 94.09081499999999,
      "duration": 116.04533850000026,
      "length": 295,
      "notes": [
        {
          "name": "G#4",
          "midi": 68,
          "time": 94.09081499999999,
          "velocity": 0.3937007874015748,
          "duration": 0.13636350000000164
        },
        {
          "name": "B3",
          "midi": 59,
          "time": 94.09081499999999,
          "velocity": 0.3937007874015748,
          "duration": 0.13636350000000164
        },
        {
          "name": "D#4",
          "midi": 63,
          "time": 94.09081499999999,
          "velocity": 0.3937007874015748,
          "duration": 0.13636350000000164
        },
        {
          "name": "G#3",
          "midi": 56,
          "time": 94.09081499999999,
          "velocity": 0.3937007874015748,
          "duration": 0.13636350000000164
        },
        {
          "name": "G#3",
          "midi": 56,
          "time": 94.4999055,
          "velocity": 0.3937007874015748,
          "duration": 0.13636350000000164
        },
        {
          "name": "D#4",
          "midi": 63,
          "time": 94.4999055,
          "velocity": 0.3937007874015748,
          "duration": 0.13636350000000164
        },
        {
          "name": "G#4",
          "midi": 68,
          "time": 94.4999055,
          "velocity": 0.3937007874015748,
          "duration": 0.13636350000000164
        },
        {
          "name": "B3",
          "midi": 59,
          "time": 94.4999055,
          "velocity": 0.3937007874015748,
          "duration": 0.13636350000000164
        },
        {
          "name": "G#3",
          "midi": 56,
          "time": 94.7726325,
          "velocity": 0.3937007874015748,
          "duration": 0.13636350000000164
        },
        {
          "name": "D#4",
          "midi": 63,
          "time": 94.908996,
          "velocity": 0.3937007874015748,
          "duration": 0.13636350000000164
        },
        {
          "name": "B3",
          "midi": 59,
          "time": 94.908996,
          "velocity": 0.3937007874015748,
          "duration": 0.13636350000000164
        },
        {
          "name": "D#4",
          "midi": 63,
          "time": 95.181723,
          "velocity": 0.3937007874015748,
          "duration": 0.13636350000000164
        },
        {
          "name": "B3",
          "midi": 59,
          "time": 95.181723,
          "velocity": 0.3937007874015748,
          "duration": 0.13636350000000164
        },
        {
          "name": "G#4",
          "midi": 68,
          "time": 95.181723,
          "velocity": 0.3937007874015748,
          "duration": 0.13636350000000164
        },
        {
          "name": "G#3",
          "midi": 56,
          "time": 95.181723,
          "velocity": 0.3937007874015748,
          "duration": 0.13636350000000164
        },
        {
          "name": "D#4",
          "midi": 63,
          "time": 95.45445000000001,
          "velocity": 0.3937007874015748,
          "duration": 0.13636350000000164
        },
        {
          "name": "G#3",
          "midi": 56,
          "time": 95.45445000000001,
          "velocity": 0.3937007874015748,
          "duration": 0.13636350000000164
        },
        {
          "name": "B3",
          "midi": 59,
          "time": 95.45445000000001,
          "velocity": 0.3937007874015748,
          "duration": 0.13636350000000164
        },
        {
          "name": "E3",
          "midi": 52,
          "time": 95.45445000000001,
          "velocity": 0.3937007874015748,
          "duration": 0.13636350000000164
        },
        {
          "name": "B3",
          "midi": 59,
          "time": 95.86354050000001,
          "velocity": 0.3937007874015748,
          "duration": 0.13636350000000164
        },
        {
          "name": "E3",
          "midi": 52,
          "time": 95.86354050000001,
          "velocity": 0.3937007874015748,
          "duration": 0.13636350000000164
        },
        {
          "name": "G#3",
          "midi": 56,
          "time": 95.86354050000001,
          "velocity": 0.3937007874015748,
          "duration": 0.13636350000000164
        },
        {
          "name": "E3",
          "midi": 52,
          "time": 96.13626750000002,
          "velocity": 0.3937007874015748,
          "duration": 0.13636350000000164
        },
        {
          "name": "E3",
          "midi": 52,
          "time": 96.27263100000002,
          "velocity": 0.3937007874015748,
          "duration": 0.13636350000000164
        },
        {
          "name": "D#4",
          "midi": 63,
          "time": 96.27263100000002,
          "velocity": 0.3937007874015748,
          "duration": 0.13636350000000164
        },
        {
          "name": "B3",
          "midi": 59,
          "time": 96.27263100000002,
          "velocity": 0.3937007874015748,
          "duration": 0.13636350000000164
        },
        {
          "name": "G#3",
          "midi": 56,
          "time": 96.27263100000002,
          "velocity": 0.3937007874015748,
          "duration": 0.13636350000000164
        },
        {
          "name": "D#4",
          "midi": 63,
          "time": 96.54535800000002,
          "velocity": 0.3937007874015748,
          "duration": 0.13636350000000164
        },
        {
          "name": "G#3",
          "midi": 56,
          "time": 96.54535800000002,
          "velocity": 0.3937007874015748,
          "duration": 0.13636350000000164
        },
        {
          "name": "E3",
          "midi": 52,
          "time": 96.54535800000002,
          "velocity": 0.3937007874015748,
          "duration": 0.13636350000000164
        },
        {
          "name": "B3",
          "midi": 59,
          "time": 96.54535800000002,
          "velocity": 0.3937007874015748,
          "duration": 0.13636350000000164
        },
        {
          "name": "E3",
          "midi": 52,
          "time": 96.68172150000002,
          "velocity": 0.3937007874015748,
          "duration": 0.13636350000000164
        },
        {
          "name": "F#3",
          "midi": 54,
          "time": 96.81808500000002,
          "velocity": 0.3937007874015748,
          "duration": 0.13636350000000164
        },
        {
          "name": "A#3",
          "midi": 58,
          "time": 96.81808500000002,
          "velocity": 0.3937007874015748,
          "duration": 0.13636350000000164
        },
        {
          "name": "D#3",
          "midi": 51,
          "time": 96.81808500000002,
          "velocity": 0.3937007874015748,
          "duration": 0.13636350000000164
        },
        {
          "name": "D#3",
          "midi": 51,
          "time": 97.22717550000003,
          "velocity": 0.3937007874015748,
          "duration": 0.13636350000000164
        },
        {
          "name": "A#3",
          "midi": 58,
          "time": 97.22717550000003,
          "velocity": 0.3937007874015748,
          "duration": 0.13636350000000164
        },
        {
          "name": "F#3",
          "midi": 54,
          "time": 97.22717550000003,
          "velocity": 0.3937007874015748,
          "duration": 0.13636350000000164
        },
        {
          "name": "C#4",
          "midi": 61,
          "time": 97.22717550000003,
          "velocity": 0.3937007874015748,
          "duration": 0.13636350000000164
        },
        {
          "name": "D#3",
          "midi": 51,
          "time": 97.49990250000003,
          "velocity": 0.3937007874015748,
          "duration": 0.13636350000000164
        },
        {
          "name": "C#4",
          "midi": 61,
          "time": 97.63626600000003,
          "velocity": 0.3937007874015748,
          "duration": 0.13636350000000164
        },
        {
          "name": "A#3",
          "midi": 58,
          "time": 97.63626600000003,
          "velocity": 0.3937007874015748,
          "duration": 0.13636350000000164
        },
        {
          "name": "F#3",
          "midi": 54,
          "time": 97.63626600000003,
          "velocity": 0.3937007874015748,
          "duration": 0.13636350000000164
        },
        {
          "name": "F#3",
          "midi": 54,
          "time": 97.90899300000004,
          "velocity": 0.3937007874015748,
          "duration": 0.13636350000000164
        },
        {
          "name": "F4",
          "midi": 65,
          "time": 97.90899300000004,
          "velocity": 0.3937007874015748,
          "duration": 0.13636350000000164
        },
        {
          "name": "C#4",
          "midi": 61,
          "time": 97.90899300000004,
          "velocity": 0.3937007874015748,
          "duration": 0.13636350000000164
        },
        {
          "name": "A#3",
          "midi": 58,
          "time": 97.90899300000004,
          "velocity": 0.3937007874015748,
          "duration": 0.13636350000000164
        },
        {
          "name": "G#4",
          "midi": 68,
          "time": 98.18172000000004,
          "velocity": 0.3937007874015748,
          "duration": 0.13636350000000164
        },
        {
          "name": "F4",
          "midi": 65,
          "time": 98.18172000000004,
          "velocity": 0.3937007874015748,
          "duration": 0.13636350000000164
        },
        {
          "name": "C#4",
          "midi": 61,
          "time": 98.18172000000004,
          "velocity": 0.3937007874015748,
          "duration": 0.13636350000000164
        },
        {
          "name": "A#3",
          "midi": 58,
          "time": 98.18172000000004,
          "velocity": 0.3937007874015748,
          "duration": 0.13636350000000164
        },
        {
          "name": "D#3",
          "midi": 51,
          "time": 98.45444700000004,
          "velocity": 0.3937007874015748,
          "duration": 0.13636350000000164
        },
        {
          "name": "C#4",
          "midi": 61,
          "time": 98.59081050000005,
          "velocity": 0.3937007874015748,
          "duration": 0.13636350000000164
        },
        {
          "name": "F4",
          "midi": 65,
          "time": 98.59081050000005,
          "velocity": 0.3937007874015748,
          "duration": 0.13636350000000164
        },
        {
          "name": "G#4",
          "midi": 68,
          "time": 98.59081050000005,
          "velocity": 0.3937007874015748,
          "duration": 0.13636350000000164
        },
        {
          "name": "C5",
          "midi": 72,
          "time": 98.59081050000005,
          "velocity": 0.3937007874015748,
          "duration": 0.13636350000000164
        },
        {
          "name": "D#3",
          "midi": 51,
          "time": 98.86353750000005,
          "velocity": 0.3937007874015748,
          "duration": 0.13636350000000164
        },
        {
          "name": "D#4",
          "midi": 63,
          "time": 98.99990100000005,
          "velocity": 0.3937007874015748,
          "duration": 0.13636350000000164
        },
        {
          "name": "D#3",
          "midi": 51,
          "time": 98.99990100000005,
          "velocity": 0.3937007874015748,
          "duration": 0.13636350000000164
        },
        {
          "name": "C5",
          "midi": 72,
          "time": 99.13626450000005,
          "velocity": 0.3937007874015748,
          "duration": 0.13636350000000164
        },
        {
          "name": "F4",
          "midi": 65,
          "time": 99.13626450000005,
          "velocity": 0.3937007874015748,
          "duration": 0.13636350000000164
        },
        {
          "name": "B4",
          "midi": 71,
          "time": 99.27262800000005,
          "velocity": 0.3937007874015748,
          "duration": 0.13636350000000164
        },
        {
          "name": "E3",
          "midi": 52,
          "time": 99.27262800000005,
          "velocity": 0.3937007874015748,
          "duration": 0.13636350000000164
        },
        {
          "name": "A#4",
          "midi": 70,
          "time": 99.40899150000006,
          "velocity": 0.3937007874015748,
          "duration": 0.13636350000000164
        },
        {
          "name": "F3",
          "midi": 53,
          "time": 99.40899150000006,
          "velocity": 0.3937007874015748,
          "duration": 0.13636350000000164
        },
        {
          "name": "G#3",
          "midi": 56,
          "time": 99.54535500000006,
          "velocity": 0.3937007874015748,
          "duration": 0.13636350000000164
        },
        {
          "name": "B3",
          "midi": 59,
          "time": 99.68171850000006,
          "velocity": 0.3937007874015748,
          "duration": 0.13636350000000164
        },
        {
          "name": "A#4",
          "midi": 70,
          "time": 99.81808200000006,
          "velocity": 0.3937007874015748,
          "duration": 0.13636350000000164
        },
        {
          "name": "F#4",
          "midi": 66,
          "time": 99.81808200000006,
          "velocity": 0.3937007874015748,
          "duration": 0.13636350000000164
        },
        {
          "name": "D#4",
          "midi": 63,
          "time": 99.81808200000006,
          "velocity": 0.3937007874015748,
          "duration": 0.13636350000000164
        },
        {
          "name": "G#3",
          "midi": 56,
          "time": 99.81808200000006,
          "velocity": 0.3937007874015748,
          "duration": 0.13636350000000164
        },
        {
          "name": "A#4",
          "midi": 70,
          "time": 100.09080900000006,
          "velocity": 0.3937007874015748,
          "duration": 0.13636350000000164
        },
        {
          "name": "D#4",
          "midi": 63,
          "time": 100.09080900000006,
          "velocity": 0.3937007874015748,
          "duration": 0.13636350000000164
        },
        {
          "name": "F#4",
          "midi": 66,
          "time": 100.09080900000006,
          "velocity": 0.3937007874015748,
          "duration": 0.13636350000000164
        },
        {
          "name": "G#3",
          "midi": 56,
          "time": 100.09080900000006,
          "velocity": 0.3937007874015748,
          "duration": 0.13636350000000164
        },
        {
          "name": "F#4",
          "midi": 66,
          "time": 100.22717250000007,
          "velocity": 0.3937007874015748,
          "duration": 0.13636350000000164
        },
        {
          "name": "B3",
          "midi": 59,
          "time": 100.22717250000007,
          "velocity": 0.3937007874015748,
          "duration": 0.13636350000000164
        },
        {
          "name": "G#3",
          "midi": 56,
          "time": 100.22717250000007,
          "velocity": 0.3937007874015748,
          "duration": 0.13636350000000164
        },
        {
          "name": "D#4",
          "midi": 63,
          "time": 100.22717250000007,
          "velocity": 0.3937007874015748,
          "duration": 0.13636350000000164
        },
        {
          "name": "G#4",
          "midi": 68,
          "time": 100.63626300000007,
          "velocity": 0.3937007874015748,
          "duration": 0.13636350000000164
        },
        {
          "name": "D#4",
          "midi": 63,
          "time": 100.63626300000007,
          "velocity": 0.3937007874015748,
          "duration": 0.13636350000000164
        },
        {
          "name": "B3",
          "midi": 59,
          "time": 100.63626300000007,
          "velocity": 0.3937007874015748,
          "duration": 0.13636350000000164
        },
        {
          "name": "G#3",
          "midi": 56,
          "time": 100.63626300000007,
          "velocity": 0.3937007874015748,
          "duration": 0.13636350000000164
        },
        {
          "name": "G#4",
          "midi": 68,
          "time": 100.90899000000007,
          "velocity": 0.3937007874015748,
          "duration": 0.13636350000000164
        },
        {
          "name": "D#6",
          "midi": 87,
          "time": 100.90899000000007,
          "velocity": 0.3937007874015748,
          "duration": 0.13636350000000164
        },
        {
          "name": "E4",
          "midi": 64,
          "time": 100.90899000000007,
          "velocity": 0.3937007874015748,
          "duration": 0.13636350000000164
        },
        {
          "name": "B3",
          "midi": 59,
          "time": 100.90899000000007,
          "velocity": 0.3937007874015748,
          "duration": 0.13636350000000164
        },
        {
          "name": "B4",
          "midi": 71,
          "time": 100.90899000000007,
          "velocity": 0.3937007874015748,
          "duration": 0.13636350000000164
        },
        {
          "name": "E4",
          "midi": 64,
          "time": 101.31808050000008,
          "velocity": 0.3937007874015748,
          "duration": 0.13636350000000164
        },
        {
          "name": "B4",
          "midi": 71,
          "time": 101.31808050000008,
          "velocity": 0.3937007874015748,
          "duration": 0.13636350000000164
        },
        {
          "name": "G#4",
          "midi": 68,
          "time": 101.31808050000008,
          "velocity": 0.3937007874015748,
          "duration": 0.13636350000000164
        },
        {
          "name": "C#4",
          "midi": 61,
          "time": 101.31808050000008,
          "velocity": 0.3937007874015748,
          "duration": 0.13636350000000164
        },
        {
          "name": "B3",
          "midi": 59,
          "time": 101.59080750000008,
          "velocity": 0.3937007874015748,
          "duration": 0.13636350000000164
        },
        {
          "name": "B5",
          "midi": 83,
          "time": 101.59080750000008,
          "velocity": 0.3937007874015748,
          "duration": 0.13636350000000164
        },
        {
          "name": "A#4",
          "midi": 70,
          "time": 101.72717100000008,
          "velocity": 0.3937007874015748,
          "duration": 0.13636350000000164
        },
        {
          "name": "G#4",
          "midi": 68,
          "time": 101.72717100000008,
          "velocity": 0.3937007874015748,
          "duration": 0.13636350000000164
        },
        {
          "name": "E4",
          "midi": 64,
          "time": 101.72717100000008,
          "velocity": 0.3937007874015748,
          "duration": 0.13636350000000164
        },
        {
          "name": "B3",
          "midi": 59,
          "time": 101.72717100000008,
          "velocity": 0.3937007874015748,
          "duration": 0.13636350000000164
        },
        {
          "name": "E4",
          "midi": 64,
          "time": 101.99989800000009,
          "velocity": 0.3937007874015748,
          "duration": 0.13636350000000164
        },
        {
          "name": "A#4",
          "midi": 70,
          "time": 101.99989800000009,
          "velocity": 0.3937007874015748,
          "duration": 0.13636350000000164
        },
        {
          "name": "G#4",
          "midi": 68,
          "time": 101.99989800000009,
          "velocity": 0.3937007874015748,
          "duration": 0.13636350000000164
        },
        {
          "name": "B3",
          "midi": 59,
          "time": 101.99989800000009,
          "velocity": 0.3937007874015748,
          "duration": 0.13636350000000164
        },
        {
          "name": "F#4",
          "midi": 66,
          "time": 102.27262500000009,
          "velocity": 0.3937007874015748,
          "duration": 0.13636350000000164
        },
        {
          "name": "D#3",
          "midi": 51,
          "time": 102.27262500000009,
          "velocity": 0.3937007874015748,
          "duration": 0.13636350000000164
        },
        {
          "name": "A#3",
          "midi": 58,
          "time": 102.27262500000009,
          "velocity": 0.3937007874015748,
          "duration": 0.13636350000000164
        },
        {
          "name": "D#4",
          "midi": 63,
          "time": 102.27262500000009,
          "velocity": 0.3937007874015748,
          "duration": 0.13636350000000164
        },
        {
          "name": "A#4",
          "midi": 70,
          "time": 102.27262500000009,
          "velocity": 0.3937007874015748,
          "duration": 0.13636350000000164
        },
        {
          "name": "A#5",
          "midi": 82,
          "time": 102.27262500000009,
          "velocity": 0.3937007874015748,
          "duration": 0.13636350000000164
        },
        {
          "name": "F#4",
          "midi": 66,
          "time": 102.6817155000001,
          "velocity": 0.3937007874015748,
          "duration": 0.13636350000000164
        },
        {
          "name": "D#4",
          "midi": 63,
          "time": 102.6817155000001,
          "velocity": 0.3937007874015748,
          "duration": 0.13636350000000164
        },
        {
          "name": "A#4",
          "midi": 70,
          "time": 102.6817155000001,
          "velocity": 0.3937007874015748,
          "duration": 0.13636350000000164
        },
        {
          "name": "D#3",
          "midi": 51,
          "time": 102.6817155000001,
          "velocity": 0.3937007874015748,
          "duration": 0.13636350000000164
        },
        {
          "name": "A#3",
          "midi": 58,
          "time": 102.6817155000001,
          "velocity": 0.3937007874015748,
          "duration": 0.13636350000000164
        },
        {
          "name": "D#3",
          "midi": 51,
          "time": 102.9544425000001,
          "velocity": 0.3937007874015748,
          "duration": 0.13636350000000164
        },
        {
          "name": "A#3",
          "midi": 58,
          "time": 103.0908060000001,
          "velocity": 0.3937007874015748,
          "duration": 0.13636350000000164
        },
        {
          "name": "A#4",
          "midi": 70,
          "time": 103.0908060000001,
          "velocity": 0.3937007874015748,
          "duration": 0.13636350000000164
        },
        {
          "name": "D#4",
          "midi": 63,
          "time": 103.0908060000001,
          "velocity": 0.3937007874015748,
          "duration": 0.13636350000000164
        },
        {
          "name": "F#4",
          "midi": 66,
          "time": 103.0908060000001,
          "velocity": 0.3937007874015748,
          "duration": 0.13636350000000164
        },
        {
          "name": "D#3",
          "midi": 51,
          "time": 103.2271695000001,
          "velocity": 0.3937007874015748,
          "duration": 0.13636350000000164
        },
        {
          "name": "F#3",
          "midi": 54,
          "time": 103.3635330000001,
          "velocity": 0.3937007874015748,
          "duration": 0.13636350000000164
        },
        {
          "name": "C#4",
          "midi": 61,
          "time": 103.6362600000001,
          "velocity": 0.3937007874015748,
          "duration": 0.13636350000000164
        },
        {
          "name": "F#4",
          "midi": 66,
          "time": 103.6362600000001,
          "velocity": 0.3937007874015748,
          "duration": 0.13636350000000164
        },
        {
          "name": "A#3",
          "midi": 58,
          "time": 103.6362600000001,
          "velocity": 0.3937007874015748,
          "duration": 0.13636350000000164
        },
        {
          "name": "F3",
          "midi": 53,
          "time": 103.6362600000001,
          "velocity": 0.3937007874015748,
          "duration": 0.13636350000000164
        },
        {
          "name": "F4",
          "midi": 65,
          "time": 104.04535050000011,
          "velocity": 0.3937007874015748,
          "duration": 0.13636350000000164
        },
        {
          "name": "C4",
          "midi": 60,
          "time": 104.04535050000011,
          "velocity": 0.3937007874015748,
          "duration": 0.13636350000000164
        },
        {
          "name": "G#3",
          "midi": 56,
          "time": 104.04535050000011,
          "velocity": 0.3937007874015748,
          "duration": 0.13636350000000164
        },
        {
          "name": "F3",
          "midi": 53,
          "time": 104.04535050000011,
          "velocity": 0.3937007874015748,
          "duration": 0.13636350000000164
        },
        {
          "name": "F3",
          "midi": 53,
          "time": 104.31807750000011,
          "velocity": 0.3937007874015748,
          "duration": 0.13636350000000164
        },
        {
          "name": "G3",
          "midi": 55,
          "time": 104.31807750000011,
          "velocity": 0.3937007874015748,
          "duration": 0.13636350000000164
        },
        {
          "name": "A#3",
          "midi": 58,
          "time": 104.31807750000011,
          "velocity": 0.3937007874015748,
          "duration": 0.13636350000000164
        },
        {
          "name": "D#4",
          "midi": 63,
          "time": 104.31807750000011,
          "velocity": 0.3937007874015748,
          "duration": 0.13636350000000164
        },
        {
          "name": "F3",
          "midi": 53,
          "time": 104.72716800000012,
          "velocity": 0.3937007874015748,
          "duration": 0.13636350000000164
        },
        {
          "name": "C#4",
          "midi": 61,
          "time": 104.72716800000012,
          "velocity": 0.3937007874015748,
          "duration": 0.13636350000000164
        },
        {
          "name": "G3",
          "midi": 55,
          "time": 104.72716800000012,
          "velocity": 0.3937007874015748,
          "duration": 0.13636350000000164
        },
        {
          "name": "A#3",
          "midi": 58,
          "time": 104.72716800000012,
          "velocity": 0.3937007874015748,
          "duration": 0.13636350000000164
        },
        {
          "name": "G#3",
          "midi": 56,
          "time": 104.99989500000012,
          "velocity": 0.3937007874015748,
          "duration": 0.13636350000000164
        },
        {
          "name": "D#4",
          "midi": 63,
          "time": 104.99989500000012,
          "velocity": 0.3937007874015748,
          "duration": 0.13636350000000164
        },
        {
          "name": "G#4",
          "midi": 68,
          "time": 104.99989500000012,
          "velocity": 0.3937007874015748,
          "duration": 0.13636350000000164
        },
        {
          "name": "B3",
          "midi": 59,
          "time": 104.99989500000012,
          "velocity": 0.3937007874015748,
          "duration": 0.13636350000000164
        },
        {
          "name": "D#4",
          "midi": 63,
          "time": 105.40898550000013,
          "velocity": 0.3937007874015748,
          "duration": 0.13636350000000164
        },
        {
          "name": "G#3",
          "midi": 56,
          "time": 105.40898550000013,
          "velocity": 0.3937007874015748,
          "duration": 0.13636350000000164
        },
        {
          "name": "G#4",
          "midi": 68,
          "time": 105.40898550000013,
          "velocity": 0.3937007874015748,
          "duration": 0.13636350000000164
        },
        {
          "name": "B3",
          "midi": 59,
          "time": 105.40898550000013,
          "velocity": 0.3937007874015748,
          "duration": 0.13636350000000164
        },
        {
          "name": "G#3",
          "midi": 56,
          "time": 105.68171250000013,
          "velocity": 0.3937007874015748,
          "duration": 0.13636350000000164
        },
        {
          "name": "D#4",
          "midi": 63,
          "time": 105.81807600000013,
          "velocity": 0.3937007874015748,
          "duration": 0.13636350000000164
        },
        {
          "name": "B3",
          "midi": 59,
          "time": 105.81807600000013,
          "velocity": 0.3937007874015748,
          "duration": 0.13636350000000164
        },
        {
          "name": "D#4",
          "midi": 63,
          "time": 106.09080300000014,
          "velocity": 0.3937007874015748,
          "duration": 0.13636350000000164
        },
        {
          "name": "G#4",
          "midi": 68,
          "time": 106.09080300000014,
          "velocity": 0.3937007874015748,
          "duration": 0.13636350000000164
        },
        {
          "name": "B3",
          "midi": 59,
          "time": 106.09080300000014,
          "velocity": 0.3937007874015748,
          "duration": 0.13636350000000164
        },
        {
          "name": "G#3",
          "midi": 56,
          "time": 106.09080300000014,
          "velocity": 0.3937007874015748,
          "duration": 0.13636350000000164
        },
        {
          "name": "E3",
          "midi": 52,
          "time": 106.36353000000014,
          "velocity": 0.3937007874015748,
          "duration": 0.13636350000000164
        },
        {
          "name": "B3",
          "midi": 59,
          "time": 106.36353000000014,
          "velocity": 0.3937007874015748,
          "duration": 0.13636350000000164
        },
        {
          "name": "G#3",
          "midi": 56,
          "time": 106.36353000000014,
          "velocity": 0.3937007874015748,
          "duration": 0.13636350000000164
        },
        {
          "name": "D#4",
          "midi": 63,
          "time": 106.36353000000014,
          "velocity": 0.3937007874015748,
          "duration": 0.13636350000000164
        },
        {
          "name": "E3",
          "midi": 52,
          "time": 106.77262050000014,
          "velocity": 0.3937007874015748,
          "duration": 0.13636350000000164
        },
        {
          "name": "B3",
          "midi": 59,
          "time": 106.77262050000014,
          "velocity": 0.3937007874015748,
          "duration": 0.13636350000000164
        },
        {
          "name": "G#3",
          "midi": 56,
          "time": 106.77262050000014,
          "velocity": 0.3937007874015748,
          "duration": 0.13636350000000164
        },
        {
          "name": "E3",
          "midi": 52,
          "time": 107.04534750000015,
          "velocity": 0.3937007874015748,
          "duration": 0.13636350000000164
        },
        {
          "name": "E3",
          "midi": 52,
          "time": 107.18171100000015,
          "velocity": 0.3937007874015748,
          "duration": 0.13636350000000164
        },
        {
          "name": "D#4",
          "midi": 63,
          "time": 107.18171100000015,
          "velocity": 0.3937007874015748,
          "duration": 0.13636350000000164
        },
        {
          "name": "B3",
          "midi": 59,
          "time": 107.18171100000015,
          "velocity": 0.3937007874015748,
          "duration": 0.13636350000000164
        },
        {
          "name": "G#3",
          "midi": 56,
          "time": 107.18171100000015,
          "velocity": 0.3937007874015748,
          "duration": 0.13636350000000164
        },
        {
          "name": "D#4",
          "midi": 63,
          "time": 107.45443800000015,
          "velocity": 0.3937007874015748,
          "duration": 0.13636350000000164
        },
        {
          "name": "G#3",
          "midi": 56,
          "time": 107.45443800000015,
          "velocity": 0.3937007874015748,
          "duration": 0.13636350000000164
        },
        {
          "name": "E3",
          "midi": 52,
          "time": 107.45443800000015,
          "velocity": 0.3937007874015748,
          "duration": 0.13636350000000164
        },
        {
          "name": "B3",
          "midi": 59,
          "time": 107.45443800000015,
          "velocity": 0.3937007874015748,
          "duration": 0.13636350000000164
        },
        {
          "name": "E3",
          "midi": 52,
          "time": 107.59080150000015,
          "velocity": 0.3937007874015748,
          "duration": 0.13636350000000164
        },
        {
          "name": "F#3",
          "midi": 54,
          "time": 107.72716500000016,
          "velocity": 0.3937007874015748,
          "duration": 0.13636350000000164
        },
        {
          "name": "A#3",
          "midi": 58,
          "time": 107.72716500000016,
          "velocity": 0.3937007874015748,
          "duration": 0.13636350000000164
        },
        {
          "name": "D#3",
          "midi": 51,
          "time": 107.72716500000016,
          "velocity": 0.3937007874015748,
          "duration": 0.13636350000000164
        },
        {
          "name": "A#3",
          "midi": 58,
          "time": 108.13625550000016,
          "velocity": 0.3937007874015748,
          "duration": 0.13636350000000164
        },
        {
          "name": "F#3",
          "midi": 54,
          "time": 108.13625550000016,
          "velocity": 0.3937007874015748,
          "duration": 0.13636350000000164
        },
        {
          "name": "C#4",
          "midi": 61,
          "time": 108.13625550000016,
          "velocity": 0.3937007874015748,
          "duration": 0.13636350000000164
        },
        {
          "name": "D#3",
          "midi": 51,
          "time": 108.13625550000016,
          "velocity": 0.3937007874015748,
          "duration": 0.13636350000000164
        },
        {
          "name": "D#3",
          "midi": 51,
          "time": 108.40898250000016,
          "velocity": 0.3937007874015748,
          "duration": 0.13636350000000164
        },
        {
          "name": "C#4",
          "midi": 61,
          "time": 108.54534600000017,
          "velocity": 0.3937007874015748,
          "duration": 0.13636350000000164
        },
        {
          "name": "A#3",
          "midi": 58,
          "time": 108.54534600000017,
          "velocity": 0.3937007874015748,
          "duration": 0.13636350000000164
        },
        {
          "name": "F#3",
          "midi": 54,
          "time": 108.54534600000017,
          "velocity": 0.3937007874015748,
          "duration": 0.13636350000000164
        },
        {
          "name": "C#4",
          "midi": 61,
          "time": 108.81807300000017,
          "velocity": 0.3937007874015748,
          "duration": 0.13636350000000164
        },
        {
          "name": "A#3",
          "midi": 58,
          "time": 108.81807300000017,
          "velocity": 0.3937007874015748,
          "duration": 0.13636350000000164
        },
        {
          "name": "F4",
          "midi": 65,
          "time": 108.81807300000017,
          "velocity": 0.3937007874015748,
          "duration": 0.13636350000000164
        },
        {
          "name": "F#3",
          "midi": 54,
          "time": 108.81807300000017,
          "velocity": 0.3937007874015748,
          "duration": 0.13636350000000164
        },
        {
          "name": "F4",
          "midi": 65,
          "time": 109.09080000000017,
          "velocity": 0.3937007874015748,
          "duration": 0.13636350000000164
        },
        {
          "name": "G#4",
          "midi": 68,
          "time": 109.09080000000017,
          "velocity": 0.3937007874015748,
          "duration": 0.13636350000000164
        },
        {
          "name": "C#4",
          "midi": 61,
          "time": 109.09080000000017,
          "velocity": 0.3937007874015748,
          "duration": 0.13636350000000164
        },
        {
          "name": "A#3",
          "midi": 58,
          "time": 109.09080000000017,
          "velocity": 0.3937007874015748,
          "duration": 0.13636350000000164
        },
        {
          "name": "D#3",
          "midi": 51,
          "time": 109.36352700000018,
          "velocity": 0.3937007874015748,
          "duration": 0.13636350000000164
        },
        {
          "name": "C5",
          "midi": 72,
          "time": 109.49989050000018,
          "velocity": 0.3937007874015748,
          "duration": 0.13636350000000164
        },
        {
          "name": "C#4",
          "midi": 61,
          "time": 109.49989050000018,
          "velocity": 0.3937007874015748,
          "duration": 0.13636350000000164
        },
        {
          "name": "G#4",
          "midi": 68,
          "time": 109.49989050000018,
          "velocity": 0.3937007874015748,
          "duration": 0.13636350000000164
        },
        {
          "name": "F4",
          "midi": 65,
          "time": 109.49989050000018,
          "velocity": 0.3937007874015748,
          "duration": 0.13636350000000164
        },
        {
          "name": "D#3",
          "midi": 51,
          "time": 109.77261750000018,
          "velocity": 0.3937007874015748,
          "duration": 0.13636350000000164
        },
        {
          "name": "D#3",
          "midi": 51,
          "time": 109.90898100000018,
          "velocity": 0.3937007874015748,
          "duration": 0.13636350000000164
        },
        {
          "name": "D#4",
          "midi": 63,
          "time": 109.90898100000018,
          "velocity": 0.3937007874015748,
          "duration": 0.13636350000000164
        },
        {
          "name": "F4",
          "midi": 65,
          "time": 110.04534450000018,
          "velocity": 0.3937007874015748,
          "duration": 0.13636350000000164
        },
        {
          "name": "C5",
          "midi": 72,
          "time": 110.04534450000018,
          "velocity": 0.3937007874015748,
          "duration": 0.13636350000000164
        },
        {
          "name": "B4",
          "midi": 71,
          "time": 110.18170800000019,
          "velocity": 0.3937007874015748,
          "duration": 0.13636350000000164
        },
        {
          "name": "E3",
          "midi": 52,
          "time": 110.18170800000019,
          "velocity": 0.3937007874015748,
          "duration": 0.13636350000000164
        },
        {
          "name": "F3",
          "midi": 53,
          "time": 110.31807150000019,
          "velocity": 0.3937007874015748,
          "duration": 0.13636350000000164
        },
        {
          "name": "A#4",
          "midi": 70,
          "time": 110.31807150000019,
          "velocity": 0.3937007874015748,
          "duration": 0.13636350000000164
        },
        {
          "name": "G#3",
          "midi": 56,
          "time": 110.45443500000019,
          "velocity": 0.3937007874015748,
          "duration": 0.13636350000000164
        },
        {
          "name": "B3",
          "midi": 59,
          "time": 110.59079850000019,
          "velocity": 0.3937007874015748,
          "duration": 0.13636350000000164
        },
        {
          "name": "D#4",
          "midi": 63,
          "time": 110.72716200000019,
          "velocity": 0.3937007874015748,
          "duration": 0.13636350000000164
        },
        {
          "name": "G#3",
          "midi": 56,
          "time": 110.72716200000019,
          "velocity": 0.3937007874015748,
          "duration": 0.13636350000000164
        },
        {
          "name": "A#4",
          "midi": 70,
          "time": 110.72716200000019,
          "velocity": 0.3937007874015748,
          "duration": 0.13636350000000164
        },
        {
          "name": "F#4",
          "midi": 66,
          "time": 110.72716200000019,
          "velocity": 0.3937007874015748,
          "duration": 0.13636350000000164
        },
        {
          "name": "G#3",
          "midi": 56,
          "time": 110.9998890000002,
          "velocity": 0.3937007874015748,
          "duration": 0.13636350000000164
        },
        {
          "name": "A#4",
          "midi": 70,
          "time": 110.9998890000002,
          "velocity": 0.3937007874015748,
          "duration": 0.13636350000000164
        },
        {
          "name": "F#4",
          "midi": 66,
          "time": 110.9998890000002,
          "velocity": 0.3937007874015748,
          "duration": 0.13636350000000164
        },
        {
          "name": "D#4",
          "midi": 63,
          "time": 110.9998890000002,
          "velocity": 0.3937007874015748,
          "duration": 0.13636350000000164
        },
        {
          "name": "F#4",
          "midi": 66,
          "time": 111.1362525000002,
          "velocity": 0.3937007874015748,
          "duration": 0.13636350000000164
        },
        {
          "name": "B3",
          "midi": 59,
          "time": 111.1362525000002,
          "velocity": 0.3937007874015748,
          "duration": 0.13636350000000164
        },
        {
          "name": "G#3",
          "midi": 56,
          "time": 111.1362525000002,
          "velocity": 0.3937007874015748,
          "duration": 0.13636350000000164
        },
        {
          "name": "D#4",
          "midi": 63,
          "time": 111.1362525000002,
          "velocity": 0.3937007874015748,
          "duration": 0.13636350000000164
        },
        {
          "name": "A#3",
          "midi": 58,
          "time": 111.5453430000002,
          "velocity": 0.3937007874015748,
          "duration": 0.13636350000000164
        },
        {
          "name": "C#4",
          "midi": 61,
          "time": 111.5453430000002,
          "velocity": 0.3937007874015748,
          "duration": 0.13636350000000164
        },
        {
          "name": "F4",
          "midi": 65,
          "time": 111.5453430000002,
          "velocity": 0.3937007874015748,
          "duration": 0.13636350000000164
        },
        {
          "name": "G#4",
          "midi": 68,
          "time": 111.5453430000002,
          "velocity": 0.3937007874015748,
          "duration": 0.13636350000000164
        },
        {
          "name": "B4",
          "midi": 71,
          "time": 111.8180700000002,
          "velocity": 0.3937007874015748,
          "duration": 0.13636350000000164
        },
        {
          "name": "E4",
          "midi": 64,
          "time": 111.8180700000002,
          "velocity": 0.3937007874015748,
          "duration": 0.13636350000000164
        },
        {
          "name": "B3",
          "midi": 59,
          "time": 111.8180700000002,
          "velocity": 0.3937007874015748,
          "duration": 0.13636350000000164
        },
        {
          "name": "G#4",
          "midi": 68,
          "time": 111.8180700000002,
          "velocity": 0.3937007874015748,
          "duration": 0.13636350000000164
        },
        {
          "name": "D#6",
          "midi": 87,
          "time": 111.8180700000002,
          "velocity": 0.3937007874015748,
          "duration": 0.13636350000000164
        },
        {
          "name": "C#4",
          "midi": 61,
          "time": 112.22716050000021,
          "velocity": 0.3937007874015748,
          "duration": 0.13636350000000164
        },
        {
          "name": "B4",
          "midi": 71,
          "time": 112.22716050000021,
          "velocity": 0.3937007874015748,
          "duration": 0.13636350000000164
        },
        {
          "name": "G#4",
          "midi": 68,
          "time": 112.22716050000021,
          "velocity": 0.3937007874015748,
          "duration": 0.13636350000000164
        },
        {
          "name": "E4",
          "midi": 64,
          "time": 112.22716050000021,
          "velocity": 0.3937007874015748,
          "duration": 0.13636350000000164
        },
        {
          "name": "B5",
          "midi": 83,
          "time": 112.49988750000021,
          "velocity": 0.3937007874015748,
          "duration": 0.13636350000000164
        },
        {
          "name": "G#3",
          "midi": 56,
          "time": 112.49988750000021,
          "velocity": 0.3937007874015748,
          "duration": 0.13636350000000164
        },
        {
          "name": "A#4",
          "midi": 70,
          "time": 112.63625100000021,
          "velocity": 0.3937007874015748,
          "duration": 0.13636350000000164
        },
        {
          "name": "E4",
          "midi": 64,
          "time": 112.63625100000021,
          "velocity": 0.3937007874015748,
          "duration": 0.13636350000000164
        },
        {
          "name": "G#4",
          "midi": 68,
          "time": 112.63625100000021,
          "velocity": 0.3937007874015748,
          "duration": 0.13636350000000164
        },
        {
          "name": "B3",
          "midi": 59,
          "time": 112.63625100000021,
          "velocity": 0.3937007874015748,
          "duration": 0.13636350000000164
        },
        {
          "name": "A#4",
          "midi": 70,
          "time": 112.90897800000022,
          "velocity": 0.3937007874015748,
          "duration": 0.13636350000000164
        },
        {
          "name": "G#4",
          "midi": 68,
          "time": 112.90897800000022,
          "velocity": 0.3937007874015748,
          "duration": 0.13636350000000164
        },
        {
          "name": "E4",
          "midi": 64,
          "time": 112.90897800000022,
          "velocity": 0.3937007874015748,
          "duration": 0.13636350000000164
        },
        {
          "name": "B3",
          "midi": 59,
          "time": 112.90897800000022,
          "velocity": 0.3937007874015748,
          "duration": 0.13636350000000164
        },
        {
          "name": "A#3",
          "midi": 58,
          "time": 113.18170500000022,
          "velocity": 0.3937007874015748,
          "duration": 0.13636350000000164
        },
        {
          "name": "A#5",
          "midi": 82,
          "time": 113.18170500000022,
          "velocity": 0.3937007874015748,
          "duration": 0.13636350000000164
        },
        {
          "name": "A#4",
          "midi": 70,
          "time": 113.18170500000022,
          "velocity": 0.3937007874015748,
          "duration": 0.13636350000000164
        },
        {
          "name": "F#5",
          "midi": 78,
          "time": 113.18170500000022,
          "velocity": 0.3937007874015748,
          "duration": 0.13636350000000164
        },
        {
          "name": "F#4",
          "midi": 66,
          "time": 113.18170500000022,
          "velocity": 0.3937007874015748,
          "duration": 0.13636350000000164
        },
        {
          "name": "D#3",
          "midi": 51,
          "time": 113.18170500000022,
          "velocity": 0.3937007874015748,
          "duration": 0.13636350000000164
        },
        {
          "name": "D#4",
          "midi": 63,
          "time": 113.18170500000022,
          "velocity": 0.3937007874015748,
          "duration": 0.13636350000000164
        },
        {
          "name": "F5",
          "midi": 77,
          "time": 113.31806850000022,
          "velocity": 0.3937007874015748,
          "duration": 0.13636350000000164
        },
        {
          "name": "E5",
          "midi": 76,
          "time": 113.45443200000022,
          "velocity": 0.3937007874015748,
          "duration": 0.13636350000000164
        },
        {
          "name": "D#3",
          "midi": 51,
          "time": 113.59079550000023,
          "velocity": 0.3937007874015748,
          "duration": 0.13636350000000164
        },
        {
          "name": "A#3",
          "midi": 58,
          "time": 113.59079550000023,
          "velocity": 0.3937007874015748,
          "duration": 0.13636350000000164
        },
        {
          "name": "A#4",
          "midi": 70,
          "time": 113.59079550000023,
          "velocity": 0.3937007874015748,
          "duration": 0.13636350000000164
        },
        {
          "name": "D#5",
          "midi": 75,
          "time": 113.59079550000023,
          "velocity": 0.3937007874015748,
          "duration": 0.13636350000000164
        },
        {
          "name": "D#4",
          "midi": 63,
          "time": 113.59079550000023,
          "velocity": 0.3937007874015748,
          "duration": 0.13636350000000164
        },
        {
          "name": "F#4",
          "midi": 66,
          "time": 113.59079550000023,
          "velocity": 0.3937007874015748,
          "duration": 0.13636350000000164
        },
        {
          "name": "D5",
          "midi": 74,
          "time": 113.72715900000023,
          "velocity": 0.3937007874015748,
          "duration": 0.13636350000000164
        },
        {
          "name": "C#5",
          "midi": 73,
          "time": 113.86352250000023,
          "velocity": 0.3937007874015748,
          "duration": 0.13636350000000164
        },
        {
          "name": "D#3",
          "midi": 51,
          "time": 113.86352250000023,
          "velocity": 0.3937007874015748,
          "duration": 0.13636350000000164
        },
        {
          "name": "A#3",
          "midi": 58,
          "time": 113.99988600000023,
          "velocity": 0.3937007874015748,
          "duration": 0.13636350000000164
        },
        {
          "name": "C5",
          "midi": 72,
          "time": 113.99988600000023,
          "velocity": 0.3937007874015748,
          "duration": 0.13636350000000164
        },
        {
          "name": "D#4",
          "midi": 63,
          "time": 113.99988600000023,
          "velocity": 0.3937007874015748,
          "duration": 0.13636350000000164
        },
        {
          "name": "F#4",
          "midi": 66,
          "time": 113.99988600000023,
          "velocity": 0.3937007874015748,
          "duration": 0.13636350000000164
        },
        {
          "name": "A#4",
          "midi": 70,
          "time": 113.99988600000023,
          "velocity": 0.3937007874015748,
          "duration": 0.13636350000000164
        },
        {
          "name": "B4",
          "midi": 71,
          "time": 114.13624950000023,
          "velocity": 0.3937007874015748,
          "duration": 0.13636350000000164
        },
        {
          "name": "D#3",
          "midi": 51,
          "time": 114.13624950000023,
          "velocity": 0.3937007874015748,
          "duration": 0.13636350000000164
        },
        {
          "name": "A#4",
          "midi": 70,
          "time": 114.27261300000023,
          "velocity": 0.3937007874015748,
          "duration": 0.13636350000000164
        },
        {
          "name": "F#3",
          "midi": 54,
          "time": 114.27261300000023,
          "velocity": 0.3937007874015748,
          "duration": 0.13636350000000164
        },
        {
          "name": "A4",
          "midi": 69,
          "time": 114.40897650000024,
          "velocity": 0.3937007874015748,
          "duration": 0.13636350000000164
        },
        {
          "name": "G#4",
          "midi": 68,
          "time": 114.54534000000024,
          "velocity": 0.3937007874015748,
          "duration": 0.13636350000000164
        },
        {
          "name": "C#4",
          "midi": 61,
          "time": 114.54534000000024,
          "velocity": 0.3937007874015748,
          "duration": 0.13636350000000164
        },
        {
          "name": "G#4",
          "midi": 68,
          "time": 114.54534000000024,
          "velocity": 0.3937007874015748,
          "duration": 0.13636350000000164
        },
        {
          "name": "A#3",
          "midi": 58,
          "time": 114.54534000000024,
          "velocity": 0.3937007874015748,
          "duration": 0.13636350000000164
        },
        {
          "name": "D#3",
          "midi": 51,
          "time": 114.54534000000024,
          "velocity": 0.3937007874015748,
          "duration": 0.13636350000000164
        },
        {
          "name": "F#4",
          "midi": 66,
          "time": 114.54534000000024,
          "velocity": 0.3937007874015748,
          "duration": 0.13636350000000164
        },
        {
          "name": "G4",
          "midi": 67,
          "time": 114.68170350000024,
          "velocity": 0.3937007874015748,
          "duration": 0.13636350000000164
        },
        {
          "name": "F#4",
          "midi": 66,
          "time": 114.81806700000024,
          "velocity": 0.3937007874015748,
          "duration": 0.13636350000000164
        },
        {
          "name": "F4",
          "midi": 65,
          "time": 114.95443050000024,
          "velocity": 0.3937007874015748,
          "duration": 0.13636350000000164
        },
        {
          "name": "D#4",
          "midi": 63,
          "time": 114.95443050000024,
          "velocity": 0.3937007874015748,
          "duration": 0.13636350000000164
        },
        {
          "name": "G#3",
          "midi": 56,
          "time": 114.95443050000024,
          "velocity": 0.3937007874015748,
          "duration": 0.13636350000000164
        },
        {
          "name": "D#3",
          "midi": 51,
          "time": 114.95443050000024,
          "velocity": 0.3937007874015748,
          "duration": 0.13636350000000164
        },
        {
          "name": "E4",
          "midi": 64,
          "time": 115.09079400000024,
          "velocity": 0.3937007874015748,
          "duration": 0.13636350000000164
        },
        {
          "name": "D#3",
          "midi": 51,
          "time": 115.22715750000025,
          "velocity": 0.3937007874015748,
          "duration": 0.13636350000000164
        },
        {
          "name": "G#3",
          "midi": 56,
          "time": 115.22715750000025,
          "velocity": 0.3937007874015748,
          "duration": 0.13636350000000164
        },
        {
          "name": "D#4",
          "midi": 63,
          "time": 115.22715750000025,
          "velocity": 0.3937007874015748,
          "duration": 0.13636350000000164
        },
        {
          "name": "D4",
          "midi": 62,
          "time": 115.36352100000025,
          "velocity": 0.3937007874015748,
          "duration": 0.13636350000000164
        },
        {
          "name": "C#4",
          "midi": 61,
          "time": 115.49988450000025,
          "velocity": 0.3937007874015748,
          "duration": 0.13636350000000164
        },
        {
          "name": "C4",
          "midi": 60,
          "time": 115.63624800000025,
          "velocity": 0.3937007874015748,
          "duration": 0.13636350000000164
        },
        {
          "name": "G#3",
          "midi": 56,
          "time": 115.63624800000025,
          "velocity": 0.3937007874015748,
          "duration": 0.13636350000000164
        },
        {
          "name": "D#3",
          "midi": 51,
          "time": 115.63624800000025,
          "velocity": 0.3937007874015748,
          "duration": 0.13636350000000164
        },
        {
          "name": "A#3",
          "midi": 58,
          "time": 115.63624800000025,
          "velocity": 0.3937007874015748,
          "duration": 0.13636350000000164
        },
        {
          "name": "B3",
          "midi": 59,
          "time": 115.77261150000025,
          "velocity": 0.3937007874015748,
          "duration": 0.13636350000000164
        },
        {
          "name": "G#5",
          "midi": 80,
          "time": 115.90897500000025,
          "velocity": 0.3937007874015748,
          "duration": 0.13636350000000164
        },
        {
          "name": "D#5",
          "midi": 75,
          "time": 115.90897500000025,
          "velocity": 0.3937007874015748,
          "duration": 0.13636350000000164
        },
        {
          "name": "D#4",
          "midi": 63,
          "time": 115.90897500000025,
          "velocity": 0.3937007874015748,
          "duration": 0.13636350000000164
        },
        {
          "name": "G#3",
          "midi": 56,
          "time": 115.90897500000025,
          "velocity": 0.3937007874015748,
          "duration": 0.13636350000000164
        },
        {
          "name": "B3",
          "midi": 59,
          "time": 115.90897500000025,
          "velocity": 0.3937007874015748,
          "duration": 0.13636350000000164
        },
        {
          "name": "F#4",
          "midi": 66,
          "time": 115.90897500000025,
          "velocity": 0.3937007874015748,
          "duration": 0.13636350000000164
        }
      ],
      "controlChanges": {},
      "id": 4,
      "name": "Grand Piano",
      "instrumentNumber": 0,
      "instrument": "acoustic grand piano",
      "instrumentFamily": "piano",
      "channelNumber": 3,
      "isPercussion": false
    },
    {
      "startTime": 57.27267,
      "duration": 92.72718000000008,
      "length": 88,
      "notes": [
        {
          "name": "B2",
          "midi": 47,
          "time": 57.27267,
          "velocity": 0.3937007874015748,
          "duration": 1.3636350000000022
        },
        {
          "name": "G#2",
          "midi": 44,
          "time": 57.27267,
          "velocity": 0.3937007874015748,
          "duration": 1.3636350000000022
        },
        {
          "name": "D#3",
          "midi": 51,
          "time": 57.27267,
          "velocity": 0.3937007874015748,
          "duration": 1.3636350000000022
        },
        {
          "name": "G#3",
          "midi": 56,
          "time": 57.27267,
          "velocity": 0.3937007874015748,
          "duration": 1.3636350000000022
        },
        {
          "name": "G3",
          "midi": 55,
          "time": 58.636305,
          "velocity": 0.3937007874015748,
          "duration": 1.3636350000000022
        },
        {
          "name": "D#3",
          "midi": 51,
          "time": 58.636305,
          "velocity": 0.3937007874015748,
          "duration": 1.3636350000000022
        },
        {
          "name": "C3",
          "midi": 48,
          "time": 58.636305,
          "velocity": 0.3937007874015748,
          "duration": 1.3636350000000022
        },
        {
          "name": "G#2",
          "midi": 44,
          "time": 58.636305,
          "velocity": 0.3937007874015748,
          "duration": 1.3636350000000022
        },
        {
          "name": "E2",
          "midi": 40,
          "time": 59.99994,
          "velocity": 0.3937007874015748,
          "duration": 0.5454539999999994
        },
        {
          "name": "B3",
          "midi": 59,
          "time": 59.99994,
          "velocity": 0.3937007874015748,
          "duration": 2.7272700000000043
        },
        {
          "name": "B2",
          "midi": 47,
          "time": 59.99994,
          "velocity": 0.3937007874015748,
          "duration": 2.7272700000000043
        },
        {
          "name": "F#3",
          "midi": 54,
          "time": 59.99994,
          "velocity": 0.3937007874015748,
          "duration": 2.7272700000000043
        },
        {
          "name": "G#2",
          "midi": 44,
          "time": 61.363575000000004,
          "velocity": 0.3937007874015748,
          "duration": 0.2727270000000033
        },
        {
          "name": "A2",
          "midi": 45,
          "time": 62.045392500000005,
          "velocity": 0.3937007874015748,
          "duration": 0.2727270000000033
        },
        {
          "name": "D2",
          "midi": 38,
          "time": 62.72721000000001,
          "velocity": 0.3937007874015748,
          "duration": 1.4999984999999967
        },
        {
          "name": "F#2",
          "midi": 42,
          "time": 62.72721000000001,
          "velocity": 0.3937007874015748,
          "duration": 2.727269999999997
        },
        {
          "name": "A2",
          "midi": 45,
          "time": 62.72721000000001,
          "velocity": 0.3937007874015748,
          "duration": 2.727269999999997
        },
        {
          "name": "C#3",
          "midi": 49,
          "time": 62.72721000000001,
          "velocity": 0.3937007874015748,
          "duration": 2.727269999999997
        },
        {
          "name": "E3",
          "midi": 52,
          "time": 62.72721000000001,
          "velocity": 0.3937007874015748,
          "duration": 2.727269999999997
        },
        {
          "name": "A3",
          "midi": 57,
          "time": 62.72721000000001,
          "velocity": 0.3937007874015748,
          "duration": 2.727269999999997
        },
        {
          "name": "E2",
          "midi": 40,
          "time": 64.909026,
          "velocity": 0.3937007874015748,
          "duration": 0.13636350000000164
        },
        {
          "name": "E3",
          "midi": 52,
          "time": 65.45448,
          "velocity": 0.3937007874015748,
          "duration": 2.7272700000000043
        },
        {
          "name": "G#3",
          "midi": 56,
          "time": 65.45448,
          "velocity": 0.3937007874015748,
          "duration": 2.7272700000000043
        },
        {
          "name": "C#3",
          "midi": 49,
          "time": 65.45448,
          "velocity": 0.3937007874015748,
          "duration": 2.7272700000000043
        },
        {
          "name": "A1",
          "midi": 33,
          "time": 65.45448,
          "velocity": 0.3937007874015748,
          "duration": 0.13636350000000164
        },
        {
          "name": "E2",
          "midi": 40,
          "time": 65.45448,
          "velocity": 0.3937007874015748,
          "duration": 2.7272700000000043
        },
        {
          "name": "A2",
          "midi": 45,
          "time": 65.45448,
          "velocity": 0.3937007874015748,
          "duration": 2.7272700000000043
        },
        {
          "name": "G3",
          "midi": 55,
          "time": 68.18175000000001,
          "velocity": 0.3937007874015748,
          "duration": 2.7272700000000043
        },
        {
          "name": "G#2",
          "midi": 44,
          "time": 68.18175000000001,
          "velocity": 0.3937007874015748,
          "duration": 2.7272700000000043
        },
        {
          "name": "D#3",
          "midi": 51,
          "time": 68.18175000000001,
          "velocity": 0.3937007874015748,
          "duration": 2.7272700000000043
        },
        {
          "name": "C3",
          "midi": 48,
          "time": 68.18175000000001,
          "velocity": 0.3937007874015748,
          "duration": 2.7272700000000043
        },
        {
          "name": "F#3",
          "midi": 54,
          "time": 70.90902000000001,
          "velocity": 0.3937007874015748,
          "duration": 2.7272700000000185
        },
        {
          "name": "B2",
          "midi": 47,
          "time": 70.90902000000001,
          "velocity": 0.3937007874015748,
          "duration": 2.7272700000000185
        },
        {
          "name": "E2",
          "midi": 40,
          "time": 70.90902000000001,
          "velocity": 0.3937007874015748,
          "duration": 0.5454540000000065
        },
        {
          "name": "B3",
          "midi": 59,
          "time": 70.90902000000001,
          "velocity": 0.3937007874015748,
          "duration": 2.7272700000000185
        },
        {
          "name": "G#2",
          "midi": 44,
          "time": 72.27265500000001,
          "velocity": 0.3937007874015748,
          "duration": 0.2727270000000033
        },
        {
          "name": "A2",
          "midi": 45,
          "time": 72.95447250000002,
          "velocity": 0.3937007874015748,
          "duration": 0.2727270000000033
        },
        {
          "name": "A3",
          "midi": 57,
          "time": 73.63629000000003,
          "velocity": 0.3937007874015748,
          "duration": 2.7272700000000043
        },
        {
          "name": "C#3",
          "midi": 49,
          "time": 73.63629000000003,
          "velocity": 0.3937007874015748,
          "duration": 2.7272700000000043
        },
        {
          "name": "F#2",
          "midi": 42,
          "time": 73.63629000000003,
          "velocity": 0.3937007874015748,
          "duration": 2.7272700000000043
        },
        {
          "name": "E3",
          "midi": 52,
          "time": 73.63629000000003,
          "velocity": 0.3937007874015748,
          "duration": 2.7272700000000043
        },
        {
          "name": "D2",
          "midi": 38,
          "time": 73.63629000000003,
          "velocity": 0.3937007874015748,
          "duration": 1.4999985000000038
        },
        {
          "name": "A2",
          "midi": 45,
          "time": 73.63629000000003,
          "velocity": 0.3937007874015748,
          "duration": 2.7272700000000043
        },
        {
          "name": "E2",
          "midi": 40,
          "time": 75.81810600000003,
          "velocity": 0.3937007874015748,
          "duration": 0.13636350000000164
        },
        {
          "name": "E3",
          "midi": 52,
          "time": 76.36356000000004,
          "velocity": 0.3937007874015748,
          "duration": 2.7272700000000043
        },
        {
          "name": "E2",
          "midi": 40,
          "time": 76.36356000000004,
          "velocity": 0.3937007874015748,
          "duration": 2.7272700000000043
        },
        {
          "name": "A2",
          "midi": 45,
          "time": 76.36356000000004,
          "velocity": 0.3937007874015748,
          "duration": 2.7272700000000043
        },
        {
          "name": "G#3",
          "midi": 56,
          "time": 76.36356000000004,
          "velocity": 0.3937007874015748,
          "duration": 2.7272700000000043
        },
        {
          "name": "C#3",
          "midi": 49,
          "time": 76.36356000000004,
          "velocity": 0.3937007874015748,
          "duration": 2.7272700000000043
        },
        {
          "name": "G#1",
          "midi": 32,
          "time": 79.09083000000004,
          "velocity": 0.3937007874015748,
          "duration": 2.7272700000000185
        },
        {
          "name": "C4",
          "midi": 60,
          "time": 79.09083000000004,
          "velocity": 0.3937007874015748,
          "duration": 1.3636350000000164
        },
        {
          "name": "C2",
          "midi": 36,
          "time": 79.36355700000004,
          "velocity": 0.3937007874015748,
          "duration": 2.4545430000000152
        },
        {
          "name": "D#2",
          "midi": 39,
          "time": 79.63628400000005,
          "velocity": 0.3937007874015748,
          "duration": 2.181816000000012
        },
        {
          "name": "F#2",
          "midi": 42,
          "time": 80.04537450000005,
          "velocity": 0.3937007874015748,
          "duration": 1.772725500000007
        },
        {
          "name": "C#4",
          "midi": 61,
          "time": 80.45446500000006,
          "velocity": 0.3937007874015748,
          "duration": 0.6818175000000082
        },
        {
          "name": "C3",
          "midi": 48,
          "time": 80.59082850000006,
          "velocity": 0.3937007874015748,
          "duration": 1.2272715000000005
        },
        {
          "name": "D#3",
          "midi": 51,
          "time": 81.13628250000006,
          "velocity": 0.3937007874015748,
          "duration": 0.681817499999994
        },
        {
          "name": "D#4",
          "midi": 63,
          "time": 81.13628250000006,
          "velocity": 0.3937007874015748,
          "duration": 0.681817499999994
        },
        {
          "name": "E2",
          "midi": 40,
          "time": 81.81810000000006,
          "velocity": 0.3937007874015748,
          "duration": 1.3636350000000022
        },
        {
          "name": "C#4",
          "midi": 61,
          "time": 81.81810000000006,
          "velocity": 0.3937007874015748,
          "duration": 1.3636350000000022
        },
        {
          "name": "C#3",
          "midi": 49,
          "time": 81.81810000000006,
          "velocity": 0.3937007874015748,
          "duration": 1.3636350000000022
        },
        {
          "name": "C#2",
          "midi": 37,
          "time": 81.81810000000006,
          "velocity": 0.3937007874015748,
          "duration": 1.3636350000000022
        },
        {
          "name": "G#2",
          "midi": 44,
          "time": 81.81810000000006,
          "velocity": 0.3937007874015748,
          "duration": 1.3636350000000022
        },
        {
          "name": "E3",
          "midi": 52,
          "time": 81.81810000000006,
          "velocity": 0.3937007874015748,
          "duration": 1.3636350000000022
        },
        {
          "name": "B1",
          "midi": 35,
          "time": 83.18173500000006,
          "velocity": 0.3937007874015748,
          "duration": 1.3636350000000022
        },
        {
          "name": "F#2",
          "midi": 42,
          "time": 83.18173500000006,
          "velocity": 0.3937007874015748,
          "duration": 1.3636350000000022
        },
        {
          "name": "B2",
          "midi": 47,
          "time": 83.18173500000006,
          "velocity": 0.3937007874015748,
          "duration": 1.3636350000000022
        },
        {
          "name": "G#3",
          "midi": 56,
          "time": 83.18173500000006,
          "velocity": 0.3937007874015748,
          "duration": 1.3636350000000022
        },
        {
          "name": "D#3",
          "midi": 51,
          "time": 83.18173500000006,
          "velocity": 0.3937007874015748,
          "duration": 1.3636350000000022
        },
        {
          "name": "A#1",
          "midi": 34,
          "time": 84.54537000000006,
          "velocity": 0.3937007874015748,
          "duration": 2.7272700000000043
        },
        {
          "name": "A#2",
          "midi": 46,
          "time": 84.54537000000006,
          "velocity": 0.3937007874015748,
          "duration": 2.7272700000000043
        },
        {
          "name": "C#3",
          "midi": 49,
          "time": 84.54537000000006,
          "velocity": 0.3937007874015748,
          "duration": 2.7272700000000043
        },
        {
          "name": "E3",
          "midi": 52,
          "time": 84.54537000000006,
          "velocity": 0.3937007874015748,
          "duration": 2.7272700000000043
        },
        {
          "name": "G#3",
          "midi": 56,
          "time": 84.54537000000006,
          "velocity": 0.3937007874015748,
          "duration": 2.7272700000000043
        },
        {
          "name": "E2",
          "midi": 40,
          "time": 84.54537000000006,
          "velocity": 0.3937007874015748,
          "duration": 2.7272700000000043
        },
        {
          "name": "D#2",
          "midi": 39,
          "time": 87.27264000000007,
          "velocity": 0.3937007874015748,
          "duration": 2.7272700000000043
        },
        {
          "name": "G#3",
          "midi": 56,
          "time": 87.27264000000007,
          "velocity": 0.3937007874015748,
          "duration": 1.0909079999999989
        },
        {
          "name": "C3",
          "midi": 48,
          "time": 87.27264000000007,
          "velocity": 0.3937007874015748,
          "duration": 2.7272700000000043
        },
        {
          "name": "A1",
          "midi": 33,
          "time": 87.27264000000007,
          "velocity": 0.3937007874015748,
          "duration": 2.7272700000000043
        },
        {
          "name": "G#2",
          "midi": 44,
          "time": 87.27264000000007,
          "velocity": 0.3937007874015748,
          "duration": 2.7272700000000043
        },
        {
          "name": "F#3",
          "midi": 54,
          "time": 88.36354800000007,
          "velocity": 0.3937007874015748,
          "duration": 1.6363620000000054
        },
        {
          "name": "D#3",
          "midi": 51,
          "time": 89.99991000000007,
          "velocity": 0.3937007874015748,
          "duration": 1.3636350000000022
        },
        {
          "name": "C3",
          "midi": 48,
          "time": 89.99991000000007,
          "velocity": 0.3937007874015748,
          "duration": 1.2272715000000005
        },
        {
          "name": "F#2",
          "midi": 42,
          "time": 89.99991000000007,
          "velocity": 0.3937007874015748,
          "duration": 2.7272700000000043
        },
        {
          "name": "G#1",
          "midi": 32,
          "time": 89.99991000000007,
          "velocity": 0.3937007874015748,
          "duration": 2.7272700000000043
        },
        {
          "name": "C2",
          "midi": 36,
          "time": 89.99991000000007,
          "velocity": 0.3937007874015748,
          "duration": 2.7272700000000043
        },
        {
          "name": "D#2",
          "midi": 39,
          "time": 89.99991000000007,
          "velocity": 0.3937007874015748,
          "duration": 2.7272700000000043
        },
        {
          "name": "C3",
          "midi": 48,
          "time": 91.36354500000007,
          "velocity": 0.3937007874015748,
          "duration": 1.3636350000000022
        }
      ],
      "controlChanges": {},
      "id": 5,
      "name": "8-Bit Sine",
      "instrumentNumber": 82,
      "instrument": "lead 3 (calliope)",
      "instrumentFamily": "synth lead",
      "channelNumber": 4,
      "isPercussion": false
    },
    {
      "startTime": 2.72727,
      "duration": 115.9089750000003,
      "length": 187,
      "notes": [
        {
          "name": "G#1",
          "midi": 32,
          "time": 2.72727,
          "velocity": 0.3937007874015748,
          "duration": 1.3636349999999995
        },
        {
          "name": "E1",
          "midi": 28,
          "time": 4.090904999999999,
          "velocity": 0.3937007874015748,
          "duration": 1.3636350000000004
        },
        {
          "name": "D#1",
          "midi": 27,
          "time": 5.45454,
          "velocity": 0.3937007874015748,
          "duration": 2.0454524999999997
        },
        {
          "name": "F#1",
          "midi": 30,
          "time": 7.499992499999999,
          "velocity": 0.3937007874015748,
          "duration": 0.13636349999999986
        },
        {
          "name": "E1",
          "midi": 28,
          "time": 7.636355999999999,
          "velocity": 0.3937007874015748,
          "duration": 0.13636349999999986
        },
        {
          "name": "C#1",
          "midi": 25,
          "time": 7.772719499999999,
          "velocity": 0.3937007874015748,
          "duration": 0.13636349999999986
        },
        {
          "name": "D1",
          "midi": 26,
          "time": 7.909082999999999,
          "velocity": 0.3937007874015748,
          "duration": 0.13636349999999986
        },
        {
          "name": "D#1",
          "midi": 27,
          "time": 8.045446499999999,
          "velocity": 0.3937007874015748,
          "duration": 0.13636349999999986
        },
        {
          "name": "G#1",
          "midi": 32,
          "time": 8.181809999999999,
          "velocity": 0.3937007874015748,
          "duration": 1.3636350000000004
        },
        {
          "name": "B3",
          "midi": 59,
          "time": 8.181809999999999,
          "velocity": 0.3937007874015748,
          "duration": 1.3636350000000004
        },
        {
          "name": "G#3",
          "midi": 56,
          "time": 9.545444999999999,
          "velocity": 0.3937007874015748,
          "duration": 1.3636350000000004
        },
        {
          "name": "E1",
          "midi": 28,
          "time": 9.545444999999999,
          "velocity": 0.3937007874015748,
          "duration": 1.3636350000000004
        },
        {
          "name": "A3",
          "midi": 57,
          "time": 10.90908,
          "velocity": 0.3937007874015748,
          "duration": 0.03409087500000041
        },
        {
          "name": "D#1",
          "midi": 27,
          "time": 10.90908,
          "velocity": 0.3937007874015748,
          "duration": 2.0454525000000245
        },
        {
          "name": "A#3",
          "midi": 58,
          "time": 10.943170875,
          "velocity": 0.3937007874015748,
          "duration": 0.03409087500000041
        },
        {
          "name": "A3",
          "midi": 57,
          "time": 10.97726175,
          "velocity": 0.3937007874015748,
          "duration": 0.03409087500000041
        },
        {
          "name": "A#3",
          "midi": 58,
          "time": 11.011352625,
          "velocity": 0.3937007874015748,
          "duration": 0.03409087500000041
        },
        {
          "name": "A3",
          "midi": 57,
          "time": 11.045443500000001,
          "velocity": 0.3937007874015748,
          "duration": 0.03409087500000041
        },
        {
          "name": "A#3",
          "midi": 58,
          "time": 11.079534375000001,
          "velocity": 0.3937007874015748,
          "duration": 0.03409087500000041
        },
        {
          "name": "A3",
          "midi": 57,
          "time": 11.113625250000002,
          "velocity": 0.3937007874015748,
          "duration": 0.03409087500000041
        },
        {
          "name": "A#3",
          "midi": 58,
          "time": 11.147716125000002,
          "velocity": 0.3937007874015748,
          "duration": 0.03409087500000041
        },
        {
          "name": "A3",
          "midi": 57,
          "time": 11.181807000000003,
          "velocity": 0.3937007874015748,
          "duration": 0.03409087500000041
        },
        {
          "name": "A#3",
          "midi": 58,
          "time": 11.215897875000003,
          "velocity": 0.3937007874015748,
          "duration": 0.03409087500000041
        },
        {
          "name": "A3",
          "midi": 57,
          "time": 11.249988750000004,
          "velocity": 0.3937007874015748,
          "duration": 0.03409087500000041
        },
        {
          "name": "A#3",
          "midi": 58,
          "time": 11.284079625000004,
          "velocity": 0.3937007874015748,
          "duration": 0.03409087500000041
        },
        {
          "name": "A3",
          "midi": 57,
          "time": 11.318170500000004,
          "velocity": 0.3937007874015748,
          "duration": 0.03409087500000041
        },
        {
          "name": "A#3",
          "midi": 58,
          "time": 11.352261375000005,
          "velocity": 0.3937007874015748,
          "duration": 0.03409087500000041
        },
        {
          "name": "A3",
          "midi": 57,
          "time": 11.386352250000005,
          "velocity": 0.3937007874015748,
          "duration": 0.03409087500000041
        },
        {
          "name": "A#3",
          "midi": 58,
          "time": 11.420443125000006,
          "velocity": 0.3937007874015748,
          "duration": 0.03409087500000041
        },
        {
          "name": "A3",
          "midi": 57,
          "time": 11.454534000000006,
          "velocity": 0.3937007874015748,
          "duration": 0.03409087500000041
        },
        {
          "name": "A#3",
          "midi": 58,
          "time": 11.488624875000006,
          "velocity": 0.3937007874015748,
          "duration": 0.03409087500000041
        },
        {
          "name": "A3",
          "midi": 57,
          "time": 11.522715750000007,
          "velocity": 0.3937007874015748,
          "duration": 0.03409087500000041
        },
        {
          "name": "A#3",
          "midi": 58,
          "time": 11.556806625000007,
          "velocity": 0.3937007874015748,
          "duration": 0.03409087500000041
        },
        {
          "name": "A3",
          "midi": 57,
          "time": 11.590897500000008,
          "velocity": 0.3937007874015748,
          "duration": 0.03409087500000041
        },
        {
          "name": "A#3",
          "midi": 58,
          "time": 11.624988375000008,
          "velocity": 0.3937007874015748,
          "duration": 0.03409087500000041
        },
        {
          "name": "A3",
          "midi": 57,
          "time": 11.659079250000008,
          "velocity": 0.3937007874015748,
          "duration": 0.03409087500000041
        },
        {
          "name": "A#3",
          "midi": 58,
          "time": 11.693170125000009,
          "velocity": 0.3937007874015748,
          "duration": 0.03409087500000041
        },
        {
          "name": "A3",
          "midi": 57,
          "time": 11.72726100000001,
          "velocity": 0.3937007874015748,
          "duration": 0.03409087500000041
        },
        {
          "name": "A#3",
          "midi": 58,
          "time": 11.76135187500001,
          "velocity": 0.3937007874015748,
          "duration": 0.03409087500000041
        },
        {
          "name": "A3",
          "midi": 57,
          "time": 11.79544275000001,
          "velocity": 0.3937007874015748,
          "duration": 0.03409087500000041
        },
        {
          "name": "A#3",
          "midi": 58,
          "time": 11.82953362500001,
          "velocity": 0.3937007874015748,
          "duration": 0.03409087500000041
        },
        {
          "name": "A3",
          "midi": 57,
          "time": 11.863624500000011,
          "velocity": 0.3937007874015748,
          "duration": 0.03409087500000041
        },
        {
          "name": "A#3",
          "midi": 58,
          "time": 11.897715375000011,
          "velocity": 0.3937007874015748,
          "duration": 0.03409087500000041
        },
        {
          "name": "A3",
          "midi": 57,
          "time": 11.931806250000012,
          "velocity": 0.3937007874015748,
          "duration": 0.03409087500000041
        },
        {
          "name": "A#3",
          "midi": 58,
          "time": 11.965897125000012,
          "velocity": 0.3937007874015748,
          "duration": 0.03409087500000041
        },
        {
          "name": "A3",
          "midi": 57,
          "time": 11.999988000000013,
          "velocity": 0.3937007874015748,
          "duration": 0.03409087500000041
        },
        {
          "name": "A#3",
          "midi": 58,
          "time": 12.034078875000013,
          "velocity": 0.3937007874015748,
          "duration": 0.03409087500000041
        },
        {
          "name": "A3",
          "midi": 57,
          "time": 12.068169750000013,
          "velocity": 0.3937007874015748,
          "duration": 0.03409087500000041
        },
        {
          "name": "A#3",
          "midi": 58,
          "time": 12.102260625000014,
          "velocity": 0.3937007874015748,
          "duration": 0.03409087500000041
        },
        {
          "name": "A3",
          "midi": 57,
          "time": 12.136351500000014,
          "velocity": 0.3937007874015748,
          "duration": 0.03409087500000041
        },
        {
          "name": "A#3",
          "midi": 58,
          "time": 12.170442375000015,
          "velocity": 0.3937007874015748,
          "duration": 0.03409087500000041
        },
        {
          "name": "A3",
          "midi": 57,
          "time": 12.204533250000015,
          "velocity": 0.3937007874015748,
          "duration": 0.03409087500000041
        },
        {
          "name": "A#3",
          "midi": 58,
          "time": 12.238624125000015,
          "velocity": 0.3937007874015748,
          "duration": 0.03409087500000041
        },
        {
          "name": "A3",
          "midi": 57,
          "time": 12.272715000000016,
          "velocity": 0.3937007874015748,
          "duration": 0.03409087500000041
        },
        {
          "name": "A#3",
          "midi": 58,
          "time": 12.306805875000016,
          "velocity": 0.3937007874015748,
          "duration": 0.03409087500000041
        },
        {
          "name": "A3",
          "midi": 57,
          "time": 12.340896750000017,
          "velocity": 0.3937007874015748,
          "duration": 0.03409087500000041
        },
        {
          "name": "A#3",
          "midi": 58,
          "time": 12.374987625000017,
          "velocity": 0.3937007874015748,
          "duration": 0.03409087500000041
        },
        {
          "name": "A3",
          "midi": 57,
          "time": 12.409078500000017,
          "velocity": 0.3937007874015748,
          "duration": 0.03409087500000041
        },
        {
          "name": "A#3",
          "midi": 58,
          "time": 12.443169375000018,
          "velocity": 0.3937007874015748,
          "duration": 0.03409087500000041
        },
        {
          "name": "A3",
          "midi": 57,
          "time": 12.477260250000018,
          "velocity": 0.3937007874015748,
          "duration": 0.03409087500000041
        },
        {
          "name": "A#3",
          "midi": 58,
          "time": 12.511351125000019,
          "velocity": 0.3937007874015748,
          "duration": 0.03409087500000041
        },
        {
          "name": "A3",
          "midi": 57,
          "time": 12.545442000000019,
          "velocity": 0.3937007874015748,
          "duration": 0.03409087500000041
        },
        {
          "name": "A#3",
          "midi": 58,
          "time": 12.57953287500002,
          "velocity": 0.3937007874015748,
          "duration": 0.03409087500000041
        },
        {
          "name": "A3",
          "midi": 57,
          "time": 12.61362375000002,
          "velocity": 0.3937007874015748,
          "duration": 0.03409087500000041
        },
        {
          "name": "A#3",
          "midi": 58,
          "time": 12.64771462500002,
          "velocity": 0.3937007874015748,
          "duration": 0.03409087500000041
        },
        {
          "name": "A3",
          "midi": 57,
          "time": 12.68180550000002,
          "velocity": 0.3937007874015748,
          "duration": 0.03409087500000041
        },
        {
          "name": "A#3",
          "midi": 58,
          "time": 12.715896375000021,
          "velocity": 0.3937007874015748,
          "duration": 0.03409087500000041
        },
        {
          "name": "A3",
          "midi": 57,
          "time": 12.749987250000022,
          "velocity": 0.3937007874015748,
          "duration": 0.03409087500000041
        },
        {
          "name": "A#3",
          "midi": 58,
          "time": 12.784078125000022,
          "velocity": 0.3937007874015748,
          "duration": 0.03409087500000041
        },
        {
          "name": "A3",
          "midi": 57,
          "time": 12.818169000000022,
          "velocity": 0.3937007874015748,
          "duration": 0.03409087500000041
        },
        {
          "name": "A#3",
          "midi": 58,
          "time": 12.852259875000023,
          "velocity": 0.3937007874015748,
          "duration": 0.03409087500000041
        },
        {
          "name": "A3",
          "midi": 57,
          "time": 12.886350750000023,
          "velocity": 0.3937007874015748,
          "duration": 0.03409087500000041
        },
        {
          "name": "A#3",
          "midi": 58,
          "time": 12.920441625000024,
          "velocity": 0.3937007874015748,
          "duration": 0.03409087500000041
        },
        {
          "name": "A3",
          "midi": 57,
          "time": 12.954532500000024,
          "velocity": 0.3937007874015748,
          "duration": 0.03409087500000041
        },
        {
          "name": "F#1",
          "midi": 30,
          "time": 12.954532500000024,
          "velocity": 0.3937007874015748,
          "duration": 0.03409087500000041
        },
        {
          "name": "E1",
          "midi": 28,
          "time": 13.090896000000024,
          "velocity": 0.3937007874015748,
          "duration": 0.03409087500000041
        },
        {
          "name": "C#1",
          "midi": 25,
          "time": 13.227259500000024,
          "velocity": 0.3937007874015748,
          "duration": 0.03409087500000041
        },
        {
          "name": "D1",
          "midi": 26,
          "time": 13.363623000000024,
          "velocity": 0.3937007874015748,
          "duration": 0.03409087500000041
        },
        {
          "name": "D#1",
          "midi": 27,
          "time": 13.499986500000023,
          "velocity": 0.3937007874015748,
          "duration": 0.03409087500000041
        },
        {
          "name": "G#1",
          "midi": 32,
          "time": 13.636350000000023,
          "velocity": 0.3937007874015748,
          "duration": 1.3636350000000004
        },
        {
          "name": "E1",
          "midi": 28,
          "time": 14.999985000000024,
          "velocity": 0.3937007874015748,
          "duration": 1.3636349999999986
        },
        {
          "name": "D#1",
          "midi": 27,
          "time": 16.363620000000022,
          "velocity": 0.3937007874015748,
          "duration": 2.0454524999999997
        },
        {
          "name": "F#1",
          "midi": 30,
          "time": 18.409072500000022,
          "velocity": 0.3937007874015748,
          "duration": 0.13636350000000164
        },
        {
          "name": "E1",
          "midi": 28,
          "time": 18.545436000000024,
          "velocity": 0.3937007874015748,
          "duration": 0.13636350000000164
        },
        {
          "name": "C#1",
          "midi": 25,
          "time": 18.681799500000025,
          "velocity": 0.3937007874015748,
          "duration": 0.13636350000000164
        },
        {
          "name": "D1",
          "midi": 26,
          "time": 18.818163000000027,
          "velocity": 0.3937007874015748,
          "duration": 0.13636350000000164
        },
        {
          "name": "D#1",
          "midi": 27,
          "time": 18.95452650000003,
          "velocity": 0.3937007874015748,
          "duration": 0.13636350000000164
        },
        {
          "name": "G#1",
          "midi": 32,
          "time": 19.09089000000003,
          "velocity": 0.3937007874015748,
          "duration": 1.3636349999999986
        },
        {
          "name": "E1",
          "midi": 28,
          "time": 20.45452500000003,
          "velocity": 0.3937007874015748,
          "duration": 1.3636349999999986
        },
        {
          "name": "D#1",
          "midi": 27,
          "time": 21.818160000000027,
          "velocity": 0.3937007874015748,
          "duration": 2.0454524999999997
        },
        {
          "name": "F#1",
          "midi": 30,
          "time": 23.863612500000027,
          "velocity": 0.3937007874015748,
          "duration": 0.13636350000000164
        },
        {
          "name": "E1",
          "midi": 28,
          "time": 23.99997600000003,
          "velocity": 0.3937007874015748,
          "duration": 0.13636350000000164
        },
        {
          "name": "C#1",
          "midi": 25,
          "time": 24.13633950000003,
          "velocity": 0.3937007874015748,
          "duration": 0.13636350000000164
        },
        {
          "name": "D1",
          "midi": 26,
          "time": 24.272703000000032,
          "velocity": 0.3937007874015748,
          "duration": 0.13636350000000164
        },
        {
          "name": "D#1",
          "midi": 27,
          "time": 24.409066500000034,
          "velocity": 0.3937007874015748,
          "duration": 0.13636350000000164
        },
        {
          "name": "G#1",
          "midi": 32,
          "time": 24.545430000000035,
          "velocity": 0.3937007874015748,
          "duration": 1.3636349999999986
        },
        {
          "name": "E1",
          "midi": 28,
          "time": 25.909065000000034,
          "velocity": 0.3937007874015748,
          "duration": 1.3636349999999986
        },
        {
          "name": "D#1",
          "midi": 27,
          "time": 27.272700000000032,
          "velocity": 0.3937007874015748,
          "duration": 2.0454524999999997
        },
        {
          "name": "F#1",
          "midi": 30,
          "time": 29.318152500000032,
          "velocity": 0.3937007874015748,
          "duration": 0.13636350000000164
        },
        {
          "name": "E1",
          "midi": 28,
          "time": 29.454516000000034,
          "velocity": 0.3937007874015748,
          "duration": 0.13636350000000164
        },
        {
          "name": "C#1",
          "midi": 25,
          "time": 29.590879500000035,
          "velocity": 0.3937007874015748,
          "duration": 0.13636350000000164
        },
        {
          "name": "D1",
          "midi": 26,
          "time": 29.727243000000037,
          "velocity": 0.3937007874015748,
          "duration": 0.13636350000000164
        },
        {
          "name": "D#1",
          "midi": 27,
          "time": 29.86360650000004,
          "velocity": 0.3937007874015748,
          "duration": 0.13636350000000164
        },
        {
          "name": "G#1",
          "midi": 32,
          "time": 29.99997000000004,
          "velocity": 0.3937007874015748,
          "duration": 1.3636349999999986
        },
        {
          "name": "E1",
          "midi": 28,
          "time": 31.36360500000004,
          "velocity": 0.3937007874015748,
          "duration": 1.3636349999999986
        },
        {
          "name": "D#1",
          "midi": 27,
          "time": 32.72724000000004,
          "velocity": 0.3937007874015748,
          "duration": 2.0454525000000032
        },
        {
          "name": "F#1",
          "midi": 30,
          "time": 34.77269250000004,
          "velocity": 0.3937007874015748,
          "duration": 0.13636350000000164
        },
        {
          "name": "E1",
          "midi": 28,
          "time": 34.90905600000004,
          "velocity": 0.3937007874015748,
          "duration": 0.13636350000000164
        },
        {
          "name": "C#1",
          "midi": 25,
          "time": 35.045419500000044,
          "velocity": 0.3937007874015748,
          "duration": 0.13636350000000164
        },
        {
          "name": "D1",
          "midi": 26,
          "time": 35.181783000000046,
          "velocity": 0.3937007874015748,
          "duration": 0.13636350000000164
        },
        {
          "name": "D#1",
          "midi": 27,
          "time": 35.31814650000005,
          "velocity": 0.3937007874015748,
          "duration": 0.13636350000000164
        },
        {
          "name": "G#1",
          "midi": 32,
          "time": 40.90905000000005,
          "velocity": 0.3937007874015748,
          "duration": 1.3636350000000022
        },
        {
          "name": "E1",
          "midi": 28,
          "time": 42.27268500000005,
          "velocity": 0.3937007874015748,
          "duration": 1.3636350000000022
        },
        {
          "name": "D#1",
          "midi": 27,
          "time": 43.636320000000055,
          "velocity": 0.3937007874015748,
          "duration": 2.0454525000000032
        },
        {
          "name": "G#1",
          "midi": 32,
          "time": 46.36359000000006,
          "velocity": 0.3937007874015748,
          "duration": 1.3636350000000022
        },
        {
          "name": "E1",
          "midi": 28,
          "time": 47.72722500000006,
          "velocity": 0.3937007874015748,
          "duration": 1.3636350000000022
        },
        {
          "name": "D#1",
          "midi": 27,
          "time": 49.09086000000006,
          "velocity": 0.3937007874015748,
          "duration": 2.727269999999997
        },
        {
          "name": "G#1",
          "midi": 32,
          "time": 51.81813000000006,
          "velocity": 0.3937007874015748,
          "duration": 1.3636350000000022
        },
        {
          "name": "E1",
          "midi": 28,
          "time": 53.18176500000006,
          "velocity": 0.3937007874015748,
          "duration": 1.3636350000000022
        },
        {
          "name": "D#1",
          "midi": 27,
          "time": 54.545400000000065,
          "velocity": 0.3937007874015748,
          "duration": 2.0454525000000032
        },
        {
          "name": "F#1",
          "midi": 30,
          "time": 56.59085250000007,
          "velocity": 0.3937007874015748,
          "duration": 0.13636350000000164
        },
        {
          "name": "D#1",
          "midi": 27,
          "time": 56.72721600000007,
          "velocity": 0.3937007874015748,
          "duration": 0.13636350000000164
        },
        {
          "name": "F#1",
          "midi": 30,
          "time": 56.86357950000007,
          "velocity": 0.3937007874015748,
          "duration": 0.13636350000000164
        },
        {
          "name": "G#4",
          "midi": 68,
          "time": 75.63628800000006,
          "velocity": 0.3937007874015748,
          "duration": 0.03409087500000396
        },
        {
          "name": "G#4",
          "midi": 68,
          "time": 75.72719700000007,
          "velocity": 0.3937007874015748,
          "duration": 0.03409087500000396
        },
        {
          "name": "G#4",
          "midi": 68,
          "time": 75.81810600000009,
          "velocity": 0.3937007874015748,
          "duration": 0.03409087500000396
        },
        {
          "name": "G#4",
          "midi": 68,
          "time": 75.95446950000009,
          "velocity": 0.3937007874015748,
          "duration": 0.03409087500000396
        },
        {
          "name": "G#4",
          "midi": 68,
          "time": 76.0453785000001,
          "velocity": 0.3937007874015748,
          "duration": 0.03409087500000396
        },
        {
          "name": "G#4",
          "midi": 68,
          "time": 76.13628750000011,
          "velocity": 0.3937007874015748,
          "duration": 0.03409087500000396
        },
        {
          "name": "G#4",
          "midi": 68,
          "time": 76.27265100000011,
          "velocity": 0.3937007874015748,
          "duration": 0.03409087500000396
        },
        {
          "name": "G#4",
          "midi": 68,
          "time": 76.36356000000012,
          "velocity": 0.3937007874015748,
          "duration": 0.03409087500000396
        },
        {
          "name": "G#4",
          "midi": 68,
          "time": 76.45446900000013,
          "velocity": 0.3937007874015748,
          "duration": 0.03409087500000396
        },
        {
          "name": "G#4",
          "midi": 68,
          "time": 76.59083250000013,
          "velocity": 0.3937007874015748,
          "duration": 0.03409087500000396
        },
        {
          "name": "G#4",
          "midi": 68,
          "time": 76.68174150000014,
          "velocity": 0.3937007874015748,
          "duration": 0.03409087500000396
        },
        {
          "name": "G#4",
          "midi": 68,
          "time": 76.77265050000015,
          "velocity": 0.3937007874015748,
          "duration": 0.03409087500000396
        },
        {
          "name": "G#4",
          "midi": 68,
          "time": 77.65901325000016,
          "velocity": 0.3937007874015748,
          "duration": 0.03409087500000396
        },
        {
          "name": "G#4",
          "midi": 68,
          "time": 77.74992225000017,
          "velocity": 0.3937007874015748,
          "duration": 0.03409087500000396
        },
        {
          "name": "G#4",
          "midi": 68,
          "time": 77.84083125000018,
          "velocity": 0.3937007874015748,
          "duration": 0.03409087500000396
        },
        {
          "name": "G#4",
          "midi": 68,
          "time": 77.97719475000018,
          "velocity": 0.3937007874015748,
          "duration": 0.03409087500000396
        },
        {
          "name": "G#4",
          "midi": 68,
          "time": 78.06810375000019,
          "velocity": 0.3937007874015748,
          "duration": 0.03409087500000396
        },
        {
          "name": "G#4",
          "midi": 68,
          "time": 78.1590127500002,
          "velocity": 0.3937007874015748,
          "duration": 0.03409087500000396
        },
        {
          "name": "G#4",
          "midi": 68,
          "time": 78.2953762500002,
          "velocity": 0.3937007874015748,
          "duration": 0.03409087500000396
        },
        {
          "name": "G#4",
          "midi": 68,
          "time": 78.38628525000021,
          "velocity": 0.3937007874015748,
          "duration": 0.03409087500000396
        },
        {
          "name": "G#4",
          "midi": 68,
          "time": 78.47719425000022,
          "velocity": 0.3937007874015748,
          "duration": 0.03409087500000396
        },
        {
          "name": "G#4",
          "midi": 68,
          "time": 78.61355775000023,
          "velocity": 0.3937007874015748,
          "duration": 0.03409087500000396
        },
        {
          "name": "G#4",
          "midi": 68,
          "time": 78.70446675000024,
          "velocity": 0.3937007874015748,
          "duration": 0.03409087500000396
        },
        {
          "name": "G#4",
          "midi": 68,
          "time": 78.79537575000025,
          "velocity": 0.3937007874015748,
          "duration": 0.03409087500000396
        },
        {
          "name": "G#1",
          "midi": 32,
          "time": 87.27264000000025,
          "velocity": 0.3937007874015748,
          "duration": 1.3636350000000022
        },
        {
          "name": "F#1",
          "midi": 30,
          "time": 88.63627500000025,
          "velocity": 0.3937007874015748,
          "duration": 1.3636350000000022
        },
        {
          "name": "D#1",
          "midi": 27,
          "time": 89.99991000000026,
          "velocity": 0.3937007874015748,
          "duration": 2.045452499999996
        },
        {
          "name": "F#1",
          "midi": 30,
          "time": 92.04536250000025,
          "velocity": 0.3937007874015748,
          "duration": 0.13636350000000164
        },
        {
          "name": "E1",
          "midi": 28,
          "time": 92.18172600000025,
          "velocity": 0.3937007874015748,
          "duration": 0.13636350000000164
        },
        {
          "name": "C#1",
          "midi": 25,
          "time": 92.31808950000026,
          "velocity": 0.3937007874015748,
          "duration": 0.13636350000000164
        },
        {
          "name": "D1",
          "midi": 26,
          "time": 92.45445300000026,
          "velocity": 0.3937007874015748,
          "duration": 0.13636350000000164
        },
        {
          "name": "D#1",
          "midi": 27,
          "time": 92.59081650000026,
          "velocity": 0.3937007874015748,
          "duration": 0.13636350000000164
        },
        {
          "name": "G#1",
          "midi": 32,
          "time": 94.09081500000026,
          "velocity": 0.3937007874015748,
          "duration": 1.3636350000000022
        },
        {
          "name": "E1",
          "midi": 28,
          "time": 95.45445000000026,
          "velocity": 0.3937007874015748,
          "duration": 1.3636350000000022
        },
        {
          "name": "D#1",
          "midi": 27,
          "time": 96.81808500000027,
          "velocity": 0.3937007874015748,
          "duration": 2.045452499999996
        },
        {
          "name": "F#1",
          "midi": 30,
          "time": 98.86353750000026,
          "velocity": 0.3937007874015748,
          "duration": 0.13636350000000164
        },
        {
          "name": "E1",
          "midi": 28,
          "time": 98.99990100000026,
          "velocity": 0.3937007874015748,
          "duration": 0.13636350000000164
        },
        {
          "name": "C#1",
          "midi": 25,
          "time": 99.13626450000027,
          "velocity": 0.3937007874015748,
          "duration": 0.13636350000000164
        },
        {
          "name": "D1",
          "midi": 26,
          "time": 99.27262800000027,
          "velocity": 0.3937007874015748,
          "duration": 0.13636350000000164
        },
        {
          "name": "D#1",
          "midi": 27,
          "time": 99.40899150000027,
          "velocity": 0.3937007874015748,
          "duration": 0.13636350000000164
        },
        {
          "name": "G#1",
          "midi": 32,
          "time": 99.54535500000027,
          "velocity": 0.3937007874015748,
          "duration": 1.3636350000000022
        },
        {
          "name": "E1",
          "midi": 28,
          "time": 100.90899000000027,
          "velocity": 0.3937007874015748,
          "duration": 1.3636350000000022
        },
        {
          "name": "D#1",
          "midi": 27,
          "time": 102.27262500000028,
          "velocity": 0.3937007874015748,
          "duration": 2.045452499999996
        },
        {
          "name": "F#1",
          "midi": 30,
          "time": 104.31807750000027,
          "velocity": 0.3937007874015748,
          "duration": 0.13636350000000164
        },
        {
          "name": "E1",
          "midi": 28,
          "time": 104.45444100000027,
          "velocity": 0.3937007874015748,
          "duration": 0.13636350000000164
        },
        {
          "name": "C#1",
          "midi": 25,
          "time": 104.59080450000027,
          "velocity": 0.3937007874015748,
          "duration": 0.13636350000000164
        },
        {
          "name": "D1",
          "midi": 26,
          "time": 104.72716800000028,
          "velocity": 0.3937007874015748,
          "duration": 0.13636350000000164
        },
        {
          "name": "D#1",
          "midi": 27,
          "time": 104.86353150000028,
          "velocity": 0.3937007874015748,
          "duration": 0.13636350000000164
        },
        {
          "name": "G#1",
          "midi": 32,
          "time": 104.99989500000028,
          "velocity": 0.3937007874015748,
          "duration": 1.3636350000000022
        },
        {
          "name": "E1",
          "midi": 28,
          "time": 106.36353000000028,
          "velocity": 0.3937007874015748,
          "duration": 1.3636350000000022
        },
        {
          "name": "D#1",
          "midi": 27,
          "time": 107.72716500000028,
          "velocity": 0.3937007874015748,
          "duration": 2.045452499999996
        },
        {
          "name": "F#1",
          "midi": 30,
          "time": 109.77261750000028,
          "velocity": 0.3937007874015748,
          "duration": 0.13636350000000164
        },
        {
          "name": "E1",
          "midi": 28,
          "time": 109.90898100000028,
          "velocity": 0.3937007874015748,
          "duration": 0.13636350000000164
        },
        {
          "name": "C#1",
          "midi": 25,
          "time": 110.04534450000028,
          "velocity": 0.3937007874015748,
          "duration": 0.13636350000000164
        },
        {
          "name": "D1",
          "midi": 26,
          "time": 110.18170800000028,
          "velocity": 0.3937007874015748,
          "duration": 0.13636350000000164
        },
        {
          "name": "D#1",
          "midi": 27,
          "time": 110.31807150000029,
          "velocity": 0.3937007874015748,
          "duration": 0.13636350000000164
        },
        {
          "name": "G#1",
          "midi": 32,
          "time": 110.45443500000029,
          "velocity": 0.3937007874015748,
          "duration": 1.3636350000000022
        },
        {
          "name": "E1",
          "midi": 28,
          "time": 111.81807000000029,
          "velocity": 0.3937007874015748,
          "duration": 1.3636350000000022
        },
        {
          "name": "D#1",
          "midi": 27,
          "time": 113.18170500000029,
          "velocity": 0.3937007874015748,
          "duration": 2.045452499999996
        },
        {
          "name": "F#1",
          "midi": 30,
          "time": 115.22715750000029,
          "velocity": 0.3937007874015748,
          "duration": 0.13636350000000164
        },
        {
          "name": "E1",
          "midi": 28,
          "time": 115.36352100000029,
          "velocity": 0.3937007874015748,
          "duration": 0.13636350000000164
        },
        {
          "name": "C#1",
          "midi": 25,
          "time": 115.49988450000029,
          "velocity": 0.3937007874015748,
          "duration": 0.13636350000000164
        },
        {
          "name": "D1",
          "midi": 26,
          "time": 115.6362480000003,
          "velocity": 0.3937007874015748,
          "duration": 0.13636350000000164
        },
        {
          "name": "D#1",
          "midi": 27,
          "time": 115.7726115000003,
          "velocity": 0.3937007874015748,
          "duration": 0.13636350000000164
        }
      ],
      "controlChanges": {},
      "id": 6,
      "name": "8-Bit Square",
      "instrumentNumber": 80,
      "instrument": "lead 1 (square)",
      "instrumentFamily": "synth lead",
      "channelNumber": 5,
      "isPercussion": false
    },
    {
      "startTime": 13.63635,
      "duration": 115.87488412500112,
      "length": 653,
      "notes": [
        {
          "name": "B2",
          "midi": 47,
          "time": 13.63635,
          "velocity": 0.3937007874015748,
          "duration": 1.3636350000000004
        },
        {
          "name": "G#2",
          "midi": 44,
          "time": 14.999985,
          "velocity": 0.3937007874015748,
          "duration": 1.3636350000000004
        },
        {
          "name": "A#2",
          "midi": 46,
          "time": 16.36362,
          "velocity": 0.3937007874015748,
          "duration": 0.03409087500000041
        },
        {
          "name": "B2",
          "midi": 47,
          "time": 16.397710875,
          "velocity": 0.3937007874015748,
          "duration": 0.03409087500000041
        },
        {
          "name": "A#2",
          "midi": 46,
          "time": 16.43180175,
          "velocity": 0.3937007874015748,
          "duration": 0.03409087500000041
        },
        {
          "name": "B2",
          "midi": 47,
          "time": 16.465892625000002,
          "velocity": 0.3937007874015748,
          "duration": 0.03409087500000041
        },
        {
          "name": "A#2",
          "midi": 46,
          "time": 16.499983500000003,
          "velocity": 0.3937007874015748,
          "duration": 0.03409087500000041
        },
        {
          "name": "B2",
          "midi": 47,
          "time": 16.534074375000003,
          "velocity": 0.3937007874015748,
          "duration": 0.03409087500000041
        },
        {
          "name": "A#2",
          "midi": 46,
          "time": 16.568165250000003,
          "velocity": 0.3937007874015748,
          "duration": 0.03409087500000041
        },
        {
          "name": "B2",
          "midi": 47,
          "time": 16.602256125000004,
          "velocity": 0.3937007874015748,
          "duration": 0.03409087500000041
        },
        {
          "name": "A#2",
          "midi": 46,
          "time": 16.636347000000004,
          "velocity": 0.3937007874015748,
          "duration": 0.03409087500000041
        },
        {
          "name": "B2",
          "midi": 47,
          "time": 16.670437875000005,
          "velocity": 0.3937007874015748,
          "duration": 0.03409087500000041
        },
        {
          "name": "A#2",
          "midi": 46,
          "time": 16.704528750000005,
          "velocity": 0.3937007874015748,
          "duration": 0.03409087500000041
        },
        {
          "name": "B2",
          "midi": 47,
          "time": 16.738619625000005,
          "velocity": 0.3937007874015748,
          "duration": 0.03409087500000041
        },
        {
          "name": "A#2",
          "midi": 46,
          "time": 16.772710500000006,
          "velocity": 0.3937007874015748,
          "duration": 0.03409087500000041
        },
        {
          "name": "B2",
          "midi": 47,
          "time": 16.806801375000006,
          "velocity": 0.3937007874015748,
          "duration": 0.03409087500000041
        },
        {
          "name": "A#2",
          "midi": 46,
          "time": 16.840892250000007,
          "velocity": 0.3937007874015748,
          "duration": 0.03409087500000041
        },
        {
          "name": "B2",
          "midi": 47,
          "time": 16.874983125000007,
          "velocity": 0.3937007874015748,
          "duration": 0.03409087500000041
        },
        {
          "name": "A#2",
          "midi": 46,
          "time": 16.909074000000007,
          "velocity": 0.3937007874015748,
          "duration": 0.03409087500000041
        },
        {
          "name": "B2",
          "midi": 47,
          "time": 16.943164875000008,
          "velocity": 0.3937007874015748,
          "duration": 0.03409087500000041
        },
        {
          "name": "A#2",
          "midi": 46,
          "time": 16.97725575000001,
          "velocity": 0.3937007874015748,
          "duration": 0.03409087500000041
        },
        {
          "name": "B2",
          "midi": 47,
          "time": 17.01134662500001,
          "velocity": 0.3937007874015748,
          "duration": 0.03409087500000041
        },
        {
          "name": "A#2",
          "midi": 46,
          "time": 17.04543750000001,
          "velocity": 0.3937007874015748,
          "duration": 0.03409087500000041
        },
        {
          "name": "B2",
          "midi": 47,
          "time": 17.07952837500001,
          "velocity": 0.3937007874015748,
          "duration": 0.03409087500000041
        },
        {
          "name": "A#2",
          "midi": 46,
          "time": 17.11361925000001,
          "velocity": 0.3937007874015748,
          "duration": 0.03409087500000041
        },
        {
          "name": "B2",
          "midi": 47,
          "time": 17.14771012500001,
          "velocity": 0.3937007874015748,
          "duration": 0.03409087500000041
        },
        {
          "name": "A#2",
          "midi": 46,
          "time": 17.18180100000001,
          "velocity": 0.3937007874015748,
          "duration": 0.03409087500000041
        },
        {
          "name": "B2",
          "midi": 47,
          "time": 17.21589187500001,
          "velocity": 0.3937007874015748,
          "duration": 0.03409087500000041
        },
        {
          "name": "A#2",
          "midi": 46,
          "time": 17.24998275000001,
          "velocity": 0.3937007874015748,
          "duration": 0.03409087500000041
        },
        {
          "name": "B2",
          "midi": 47,
          "time": 17.284073625000012,
          "velocity": 0.3937007874015748,
          "duration": 0.03409087500000041
        },
        {
          "name": "A#2",
          "midi": 46,
          "time": 17.318164500000012,
          "velocity": 0.3937007874015748,
          "duration": 0.03409087500000041
        },
        {
          "name": "B2",
          "midi": 47,
          "time": 17.352255375000013,
          "velocity": 0.3937007874015748,
          "duration": 0.03409087500000041
        },
        {
          "name": "A#2",
          "midi": 46,
          "time": 17.386346250000013,
          "velocity": 0.3937007874015748,
          "duration": 0.03409087500000041
        },
        {
          "name": "B2",
          "midi": 47,
          "time": 17.420437125000014,
          "velocity": 0.3937007874015748,
          "duration": 0.03409087500000041
        },
        {
          "name": "A#2",
          "midi": 46,
          "time": 17.454528000000014,
          "velocity": 0.3937007874015748,
          "duration": 0.03409087500000041
        },
        {
          "name": "B2",
          "midi": 47,
          "time": 17.488618875000014,
          "velocity": 0.3937007874015748,
          "duration": 0.03409087500000041
        },
        {
          "name": "A#2",
          "midi": 46,
          "time": 17.522709750000015,
          "velocity": 0.3937007874015748,
          "duration": 0.03409087500000041
        },
        {
          "name": "B2",
          "midi": 47,
          "time": 17.556800625000015,
          "velocity": 0.3937007874015748,
          "duration": 0.03409087500000041
        },
        {
          "name": "A#2",
          "midi": 46,
          "time": 17.590891500000016,
          "velocity": 0.3937007874015748,
          "duration": 0.03409087500000041
        },
        {
          "name": "B2",
          "midi": 47,
          "time": 17.624982375000016,
          "velocity": 0.3937007874015748,
          "duration": 0.03409087500000041
        },
        {
          "name": "A#2",
          "midi": 46,
          "time": 17.659073250000016,
          "velocity": 0.3937007874015748,
          "duration": 0.03409087500000041
        },
        {
          "name": "B2",
          "midi": 47,
          "time": 17.693164125000017,
          "velocity": 0.3937007874015748,
          "duration": 0.03409087500000041
        },
        {
          "name": "A#2",
          "midi": 46,
          "time": 17.727255000000017,
          "velocity": 0.3937007874015748,
          "duration": 0.03409087500000041
        },
        {
          "name": "B2",
          "midi": 47,
          "time": 17.761345875000018,
          "velocity": 0.3937007874015748,
          "duration": 0.03409087500000041
        },
        {
          "name": "A#2",
          "midi": 46,
          "time": 17.795436750000018,
          "velocity": 0.3937007874015748,
          "duration": 0.03409087500000041
        },
        {
          "name": "B2",
          "midi": 47,
          "time": 17.82952762500002,
          "velocity": 0.3937007874015748,
          "duration": 0.03409087500000041
        },
        {
          "name": "A#2",
          "midi": 46,
          "time": 17.86361850000002,
          "velocity": 0.3937007874015748,
          "duration": 0.03409087500000041
        },
        {
          "name": "B2",
          "midi": 47,
          "time": 17.89770937500002,
          "velocity": 0.3937007874015748,
          "duration": 0.03409087500000041
        },
        {
          "name": "A#2",
          "midi": 46,
          "time": 17.93180025000002,
          "velocity": 0.3937007874015748,
          "duration": 0.03409087500000041
        },
        {
          "name": "B2",
          "midi": 47,
          "time": 17.96589112500002,
          "velocity": 0.3937007874015748,
          "duration": 0.03409087500000041
        },
        {
          "name": "A#2",
          "midi": 46,
          "time": 17.99998200000002,
          "velocity": 0.3937007874015748,
          "duration": 0.03409087500000041
        },
        {
          "name": "B2",
          "midi": 47,
          "time": 18.03407287500002,
          "velocity": 0.3937007874015748,
          "duration": 0.03409087500000041
        },
        {
          "name": "A#2",
          "midi": 46,
          "time": 18.06816375000002,
          "velocity": 0.3937007874015748,
          "duration": 0.03409087500000041
        },
        {
          "name": "B2",
          "midi": 47,
          "time": 18.102254625000022,
          "velocity": 0.3937007874015748,
          "duration": 0.03409087500000041
        },
        {
          "name": "A#2",
          "midi": 46,
          "time": 18.136345500000022,
          "velocity": 0.3937007874015748,
          "duration": 0.03409087500000041
        },
        {
          "name": "B2",
          "midi": 47,
          "time": 18.170436375000023,
          "velocity": 0.3937007874015748,
          "duration": 0.03409087500000041
        },
        {
          "name": "A#2",
          "midi": 46,
          "time": 18.204527250000023,
          "velocity": 0.3937007874015748,
          "duration": 0.03409087500000041
        },
        {
          "name": "B2",
          "midi": 47,
          "time": 18.238618125000023,
          "velocity": 0.3937007874015748,
          "duration": 0.03409087500000041
        },
        {
          "name": "A#2",
          "midi": 46,
          "time": 18.272709000000024,
          "velocity": 0.3937007874015748,
          "duration": 0.03409087500000041
        },
        {
          "name": "B2",
          "midi": 47,
          "time": 18.306799875000024,
          "velocity": 0.3937007874015748,
          "duration": 0.03409087500000041
        },
        {
          "name": "A#2",
          "midi": 46,
          "time": 18.340890750000025,
          "velocity": 0.3937007874015748,
          "duration": 0.03409087500000041
        },
        {
          "name": "B2",
          "midi": 47,
          "time": 18.374981625000025,
          "velocity": 0.3937007874015748,
          "duration": 0.03409087500000041
        },
        {
          "name": "A#2",
          "midi": 46,
          "time": 18.409072500000025,
          "velocity": 0.3937007874015748,
          "duration": 0.03409087500000041
        },
        {
          "name": "B2",
          "midi": 47,
          "time": 18.443163375000026,
          "velocity": 0.3937007874015748,
          "duration": 0.03409087500000041
        },
        {
          "name": "A#2",
          "midi": 46,
          "time": 18.477254250000026,
          "velocity": 0.3937007874015748,
          "duration": 0.03409087500000041
        },
        {
          "name": "B2",
          "midi": 47,
          "time": 18.511345125000027,
          "velocity": 0.3937007874015748,
          "duration": 0.03409087500000041
        },
        {
          "name": "A#2",
          "midi": 46,
          "time": 18.545436000000027,
          "velocity": 0.3937007874015748,
          "duration": 0.03409087500000041
        },
        {
          "name": "B2",
          "midi": 47,
          "time": 18.579526875000028,
          "velocity": 0.3937007874015748,
          "duration": 0.03409087500000041
        },
        {
          "name": "A#2",
          "midi": 46,
          "time": 18.613617750000028,
          "velocity": 0.3937007874015748,
          "duration": 0.03409087500000041
        },
        {
          "name": "B2",
          "midi": 47,
          "time": 18.64770862500003,
          "velocity": 0.3937007874015748,
          "duration": 0.03409087500000041
        },
        {
          "name": "A#2",
          "midi": 46,
          "time": 18.68179950000003,
          "velocity": 0.3937007874015748,
          "duration": 0.03409087500000041
        },
        {
          "name": "B2",
          "midi": 47,
          "time": 18.71589037500003,
          "velocity": 0.3937007874015748,
          "duration": 0.03409087500000041
        },
        {
          "name": "A#2",
          "midi": 46,
          "time": 18.74998125000003,
          "velocity": 0.3937007874015748,
          "duration": 0.03409087500000041
        },
        {
          "name": "B2",
          "midi": 47,
          "time": 18.78407212500003,
          "velocity": 0.3937007874015748,
          "duration": 0.03409087500000041
        },
        {
          "name": "A#2",
          "midi": 46,
          "time": 18.81816300000003,
          "velocity": 0.3937007874015748,
          "duration": 0.03409087500000041
        },
        {
          "name": "B2",
          "midi": 47,
          "time": 18.85225387500003,
          "velocity": 0.3937007874015748,
          "duration": 0.03409087500000041
        },
        {
          "name": "A#2",
          "midi": 46,
          "time": 18.88634475000003,
          "velocity": 0.3937007874015748,
          "duration": 0.03409087500000041
        },
        {
          "name": "B2",
          "midi": 47,
          "time": 18.92043562500003,
          "velocity": 0.3937007874015748,
          "duration": 0.03409087500000041
        },
        {
          "name": "A#2",
          "midi": 46,
          "time": 18.954526500000032,
          "velocity": 0.3937007874015748,
          "duration": 0.03409087500000041
        },
        {
          "name": "B2",
          "midi": 47,
          "time": 18.988617375000032,
          "velocity": 0.3937007874015748,
          "duration": 0.03409087500000041
        },
        {
          "name": "A#2",
          "midi": 46,
          "time": 19.022708250000033,
          "velocity": 0.3937007874015748,
          "duration": 0.03409087500000041
        },
        {
          "name": "B2",
          "midi": 47,
          "time": 19.056799125000033,
          "velocity": 0.3937007874015748,
          "duration": 0.03409087500000041
        },
        {
          "name": "B2",
          "midi": 47,
          "time": 19.090890000000034,
          "velocity": 0.3937007874015748,
          "duration": 1.3636349999999986
        },
        {
          "name": "G#2",
          "midi": 44,
          "time": 20.454525000000032,
          "velocity": 0.3937007874015748,
          "duration": 1.3636349999999986
        },
        {
          "name": "A#2",
          "midi": 46,
          "time": 21.81816000000003,
          "velocity": 0.3937007874015748,
          "duration": 0.03409087500000041
        },
        {
          "name": "B2",
          "midi": 47,
          "time": 21.85225087500003,
          "velocity": 0.3937007874015748,
          "duration": 0.03409087500000041
        },
        {
          "name": "A#2",
          "midi": 46,
          "time": 21.88634175000003,
          "velocity": 0.3937007874015748,
          "duration": 0.03409087500000041
        },
        {
          "name": "B2",
          "midi": 47,
          "time": 21.920432625000032,
          "velocity": 0.3937007874015748,
          "duration": 0.03409087500000041
        },
        {
          "name": "A#2",
          "midi": 46,
          "time": 21.954523500000032,
          "velocity": 0.3937007874015748,
          "duration": 0.03409087500000041
        },
        {
          "name": "B2",
          "midi": 47,
          "time": 21.988614375000033,
          "velocity": 0.3937007874015748,
          "duration": 0.03409087500000041
        },
        {
          "name": "A#2",
          "midi": 46,
          "time": 22.022705250000033,
          "velocity": 0.3937007874015748,
          "duration": 0.03409087500000041
        },
        {
          "name": "B2",
          "midi": 47,
          "time": 22.056796125000034,
          "velocity": 0.3937007874015748,
          "duration": 0.03409087500000041
        },
        {
          "name": "A#2",
          "midi": 46,
          "time": 22.090887000000034,
          "velocity": 0.3937007874015748,
          "duration": 0.03409087500000041
        },
        {
          "name": "B2",
          "midi": 47,
          "time": 22.124977875000035,
          "velocity": 0.3937007874015748,
          "duration": 0.03409087500000041
        },
        {
          "name": "A#2",
          "midi": 46,
          "time": 22.159068750000035,
          "velocity": 0.3937007874015748,
          "duration": 0.03409087500000041
        },
        {
          "name": "B2",
          "midi": 47,
          "time": 22.193159625000035,
          "velocity": 0.3937007874015748,
          "duration": 0.03409087500000041
        },
        {
          "name": "A#2",
          "midi": 46,
          "time": 22.227250500000036,
          "velocity": 0.3937007874015748,
          "duration": 0.03409087500000041
        },
        {
          "name": "B2",
          "midi": 47,
          "time": 22.261341375000036,
          "velocity": 0.3937007874015748,
          "duration": 0.03409087500000041
        },
        {
          "name": "A#2",
          "midi": 46,
          "time": 22.295432250000037,
          "velocity": 0.3937007874015748,
          "duration": 0.03409087500000041
        },
        {
          "name": "B2",
          "midi": 47,
          "time": 22.329523125000037,
          "velocity": 0.3937007874015748,
          "duration": 0.03409087500000041
        },
        {
          "name": "A#2",
          "midi": 46,
          "time": 22.363614000000037,
          "velocity": 0.3937007874015748,
          "duration": 0.03409087500000041
        },
        {
          "name": "B2",
          "midi": 47,
          "time": 22.397704875000038,
          "velocity": 0.3937007874015748,
          "duration": 0.03409087500000041
        },
        {
          "name": "A#2",
          "midi": 46,
          "time": 22.43179575000004,
          "velocity": 0.3937007874015748,
          "duration": 0.03409087500000041
        },
        {
          "name": "B2",
          "midi": 47,
          "time": 22.46588662500004,
          "velocity": 0.3937007874015748,
          "duration": 0.03409087500000041
        },
        {
          "name": "A#2",
          "midi": 46,
          "time": 22.49997750000004,
          "velocity": 0.3937007874015748,
          "duration": 0.03409087500000041
        },
        {
          "name": "B2",
          "midi": 47,
          "time": 22.53406837500004,
          "velocity": 0.3937007874015748,
          "duration": 0.03409087500000041
        },
        {
          "name": "A#2",
          "midi": 46,
          "time": 22.56815925000004,
          "velocity": 0.3937007874015748,
          "duration": 0.03409087500000041
        },
        {
          "name": "B2",
          "midi": 47,
          "time": 22.60225012500004,
          "velocity": 0.3937007874015748,
          "duration": 0.03409087500000041
        },
        {
          "name": "A#2",
          "midi": 46,
          "time": 22.63634100000004,
          "velocity": 0.3937007874015748,
          "duration": 0.03409087500000041
        },
        {
          "name": "B2",
          "midi": 47,
          "time": 22.67043187500004,
          "velocity": 0.3937007874015748,
          "duration": 0.03409087500000041
        },
        {
          "name": "A#2",
          "midi": 46,
          "time": 22.70452275000004,
          "velocity": 0.3937007874015748,
          "duration": 0.03409087500000041
        },
        {
          "name": "B2",
          "midi": 47,
          "time": 22.738613625000042,
          "velocity": 0.3937007874015748,
          "duration": 0.03409087500000041
        },
        {
          "name": "A#2",
          "midi": 46,
          "time": 22.772704500000042,
          "velocity": 0.3937007874015748,
          "duration": 0.03409087500000041
        },
        {
          "name": "B2",
          "midi": 47,
          "time": 22.806795375000043,
          "velocity": 0.3937007874015748,
          "duration": 0.03409087500000041
        },
        {
          "name": "A#2",
          "midi": 46,
          "time": 22.840886250000043,
          "velocity": 0.3937007874015748,
          "duration": 0.03409087500000041
        },
        {
          "name": "B2",
          "midi": 47,
          "time": 22.874977125000044,
          "velocity": 0.3937007874015748,
          "duration": 0.03409087500000041
        },
        {
          "name": "A#2",
          "midi": 46,
          "time": 22.909068000000044,
          "velocity": 0.3937007874015748,
          "duration": 0.03409087500000041
        },
        {
          "name": "B2",
          "midi": 47,
          "time": 22.943158875000044,
          "velocity": 0.3937007874015748,
          "duration": 0.03409087500000041
        },
        {
          "name": "A#2",
          "midi": 46,
          "time": 22.977249750000045,
          "velocity": 0.3937007874015748,
          "duration": 0.03409087500000041
        },
        {
          "name": "B2",
          "midi": 47,
          "time": 23.011340625000045,
          "velocity": 0.3937007874015748,
          "duration": 0.03409087500000041
        },
        {
          "name": "A#2",
          "midi": 46,
          "time": 23.045431500000046,
          "velocity": 0.3937007874015748,
          "duration": 0.03409087500000041
        },
        {
          "name": "B2",
          "midi": 47,
          "time": 23.079522375000046,
          "velocity": 0.3937007874015748,
          "duration": 0.03409087500000041
        },
        {
          "name": "A#2",
          "midi": 46,
          "time": 23.113613250000046,
          "velocity": 0.3937007874015748,
          "duration": 0.03409087500000041
        },
        {
          "name": "B2",
          "midi": 47,
          "time": 23.147704125000047,
          "velocity": 0.3937007874015748,
          "duration": 0.03409087500000041
        },
        {
          "name": "A#2",
          "midi": 46,
          "time": 23.181795000000047,
          "velocity": 0.3937007874015748,
          "duration": 0.03409087500000041
        },
        {
          "name": "B2",
          "midi": 47,
          "time": 23.215885875000048,
          "velocity": 0.3937007874015748,
          "duration": 0.03409087500000041
        },
        {
          "name": "A#2",
          "midi": 46,
          "time": 23.249976750000048,
          "velocity": 0.3937007874015748,
          "duration": 0.03409087500000041
        },
        {
          "name": "B2",
          "midi": 47,
          "time": 23.28406762500005,
          "velocity": 0.3937007874015748,
          "duration": 0.03409087500000041
        },
        {
          "name": "A#2",
          "midi": 46,
          "time": 23.31815850000005,
          "velocity": 0.3937007874015748,
          "duration": 0.03409087500000041
        },
        {
          "name": "B2",
          "midi": 47,
          "time": 23.35224937500005,
          "velocity": 0.3937007874015748,
          "duration": 0.03409087500000041
        },
        {
          "name": "A#2",
          "midi": 46,
          "time": 23.38634025000005,
          "velocity": 0.3937007874015748,
          "duration": 0.03409087500000041
        },
        {
          "name": "B2",
          "midi": 47,
          "time": 23.42043112500005,
          "velocity": 0.3937007874015748,
          "duration": 0.03409087500000041
        },
        {
          "name": "A#2",
          "midi": 46,
          "time": 23.45452200000005,
          "velocity": 0.3937007874015748,
          "duration": 0.03409087500000041
        },
        {
          "name": "B2",
          "midi": 47,
          "time": 23.48861287500005,
          "velocity": 0.3937007874015748,
          "duration": 0.03409087500000041
        },
        {
          "name": "A#2",
          "midi": 46,
          "time": 23.52270375000005,
          "velocity": 0.3937007874015748,
          "duration": 0.03409087500000041
        },
        {
          "name": "B2",
          "midi": 47,
          "time": 23.55679462500005,
          "velocity": 0.3937007874015748,
          "duration": 0.03409087500000041
        },
        {
          "name": "A#2",
          "midi": 46,
          "time": 23.590885500000052,
          "velocity": 0.3937007874015748,
          "duration": 0.03409087500000041
        },
        {
          "name": "B2",
          "midi": 47,
          "time": 23.624976375000053,
          "velocity": 0.3937007874015748,
          "duration": 0.03409087500000041
        },
        {
          "name": "A#2",
          "midi": 46,
          "time": 23.659067250000053,
          "velocity": 0.3937007874015748,
          "duration": 0.03409087500000041
        },
        {
          "name": "B2",
          "midi": 47,
          "time": 23.693158125000053,
          "velocity": 0.3937007874015748,
          "duration": 0.03409087500000041
        },
        {
          "name": "A#2",
          "midi": 46,
          "time": 23.727249000000054,
          "velocity": 0.3937007874015748,
          "duration": 0.03409087500000041
        },
        {
          "name": "B2",
          "midi": 47,
          "time": 23.761339875000054,
          "velocity": 0.3937007874015748,
          "duration": 0.03409087500000041
        },
        {
          "name": "A#2",
          "midi": 46,
          "time": 23.795430750000055,
          "velocity": 0.3937007874015748,
          "duration": 0.03409087500000041
        },
        {
          "name": "B2",
          "midi": 47,
          "time": 23.829521625000055,
          "velocity": 0.3937007874015748,
          "duration": 0.03409087500000041
        },
        {
          "name": "A#2",
          "midi": 46,
          "time": 23.863612500000055,
          "velocity": 0.3937007874015748,
          "duration": 0.03409087500000041
        },
        {
          "name": "B2",
          "midi": 47,
          "time": 23.897703375000056,
          "velocity": 0.3937007874015748,
          "duration": 0.03409087500000041
        },
        {
          "name": "A#2",
          "midi": 46,
          "time": 23.931794250000056,
          "velocity": 0.3937007874015748,
          "duration": 0.03409087500000041
        },
        {
          "name": "B2",
          "midi": 47,
          "time": 23.965885125000057,
          "velocity": 0.3937007874015748,
          "duration": 0.03409087500000041
        },
        {
          "name": "A#2",
          "midi": 46,
          "time": 23.999976000000057,
          "velocity": 0.3937007874015748,
          "duration": 0.03409087500000041
        },
        {
          "name": "B2",
          "midi": 47,
          "time": 24.034066875000057,
          "velocity": 0.3937007874015748,
          "duration": 0.03409087500000041
        },
        {
          "name": "A#2",
          "midi": 46,
          "time": 24.068157750000058,
          "velocity": 0.3937007874015748,
          "duration": 0.03409087500000041
        },
        {
          "name": "B2",
          "midi": 47,
          "time": 24.10224862500006,
          "velocity": 0.3937007874015748,
          "duration": 0.03409087500000041
        },
        {
          "name": "A#2",
          "midi": 46,
          "time": 24.13633950000006,
          "velocity": 0.3937007874015748,
          "duration": 0.03409087500000041
        },
        {
          "name": "B2",
          "midi": 47,
          "time": 24.17043037500006,
          "velocity": 0.3937007874015748,
          "duration": 0.03409087500000041
        },
        {
          "name": "A#2",
          "midi": 46,
          "time": 24.20452125000006,
          "velocity": 0.3937007874015748,
          "duration": 0.03409087500000041
        },
        {
          "name": "B2",
          "midi": 47,
          "time": 24.23861212500006,
          "velocity": 0.3937007874015748,
          "duration": 0.03409087500000041
        },
        {
          "name": "A#2",
          "midi": 46,
          "time": 24.27270300000006,
          "velocity": 0.3937007874015748,
          "duration": 0.03409087500000041
        },
        {
          "name": "B2",
          "midi": 47,
          "time": 24.30679387500006,
          "velocity": 0.3937007874015748,
          "duration": 0.03409087500000041
        },
        {
          "name": "A#2",
          "midi": 46,
          "time": 24.34088475000006,
          "velocity": 0.3937007874015748,
          "duration": 0.03409087500000041
        },
        {
          "name": "B2",
          "midi": 47,
          "time": 24.37497562500006,
          "velocity": 0.3937007874015748,
          "duration": 0.03409087500000041
        },
        {
          "name": "A#2",
          "midi": 46,
          "time": 24.409066500000062,
          "velocity": 0.3937007874015748,
          "duration": 0.03409087500000041
        },
        {
          "name": "B2",
          "midi": 47,
          "time": 24.443157375000062,
          "velocity": 0.3937007874015748,
          "duration": 0.03409087500000041
        },
        {
          "name": "A#2",
          "midi": 46,
          "time": 24.477248250000063,
          "velocity": 0.3937007874015748,
          "duration": 0.03409087500000041
        },
        {
          "name": "B2",
          "midi": 47,
          "time": 24.511339125000063,
          "velocity": 0.3937007874015748,
          "duration": 0.03409087500000041
        },
        {
          "name": "B2",
          "midi": 47,
          "time": 24.545430000000064,
          "velocity": 0.3937007874015748,
          "duration": 1.3636349999999986
        },
        {
          "name": "G#2",
          "midi": 44,
          "time": 25.909065000000062,
          "velocity": 0.3937007874015748,
          "duration": 1.3636349999999986
        },
        {
          "name": "A#2",
          "midi": 46,
          "time": 27.27270000000006,
          "velocity": 0.3937007874015748,
          "duration": 0.03409087500000041
        },
        {
          "name": "B2",
          "midi": 47,
          "time": 27.30679087500006,
          "velocity": 0.3937007874015748,
          "duration": 0.03409087500000041
        },
        {
          "name": "A#2",
          "midi": 46,
          "time": 27.34088175000006,
          "velocity": 0.3937007874015748,
          "duration": 0.03409087500000041
        },
        {
          "name": "B2",
          "midi": 47,
          "time": 27.374972625000062,
          "velocity": 0.3937007874015748,
          "duration": 0.03409087500000041
        },
        {
          "name": "A#2",
          "midi": 46,
          "time": 27.409063500000062,
          "velocity": 0.3937007874015748,
          "duration": 0.03409087500000041
        },
        {
          "name": "B2",
          "midi": 47,
          "time": 27.443154375000063,
          "velocity": 0.3937007874015748,
          "duration": 0.03409087500000041
        },
        {
          "name": "A#2",
          "midi": 46,
          "time": 27.477245250000063,
          "velocity": 0.3937007874015748,
          "duration": 0.03409087500000041
        },
        {
          "name": "B2",
          "midi": 47,
          "time": 27.511336125000064,
          "velocity": 0.3937007874015748,
          "duration": 0.03409087500000041
        },
        {
          "name": "A#2",
          "midi": 46,
          "time": 27.545427000000064,
          "velocity": 0.3937007874015748,
          "duration": 0.03409087500000041
        },
        {
          "name": "B2",
          "midi": 47,
          "time": 27.579517875000064,
          "velocity": 0.3937007874015748,
          "duration": 0.03409087500000041
        },
        {
          "name": "A#2",
          "midi": 46,
          "time": 27.613608750000065,
          "velocity": 0.3937007874015748,
          "duration": 0.03409087500000041
        },
        {
          "name": "B2",
          "midi": 47,
          "time": 27.647699625000065,
          "velocity": 0.3937007874015748,
          "duration": 0.03409087500000041
        },
        {
          "name": "A#2",
          "midi": 46,
          "time": 27.681790500000066,
          "velocity": 0.3937007874015748,
          "duration": 0.03409087500000041
        },
        {
          "name": "B2",
          "midi": 47,
          "time": 27.715881375000066,
          "velocity": 0.3937007874015748,
          "duration": 0.03409087500000041
        },
        {
          "name": "A#2",
          "midi": 46,
          "time": 27.749972250000067,
          "velocity": 0.3937007874015748,
          "duration": 0.03409087500000041
        },
        {
          "name": "B2",
          "midi": 47,
          "time": 27.784063125000067,
          "velocity": 0.3937007874015748,
          "duration": 0.03409087500000041
        },
        {
          "name": "A#2",
          "midi": 46,
          "time": 27.818154000000067,
          "velocity": 0.3937007874015748,
          "duration": 0.03409087500000041
        },
        {
          "name": "B2",
          "midi": 47,
          "time": 27.852244875000068,
          "velocity": 0.3937007874015748,
          "duration": 0.03409087500000041
        },
        {
          "name": "A#2",
          "midi": 46,
          "time": 27.886335750000068,
          "velocity": 0.3937007874015748,
          "duration": 0.03409087500000041
        },
        {
          "name": "B2",
          "midi": 47,
          "time": 27.92042662500007,
          "velocity": 0.3937007874015748,
          "duration": 0.03409087500000041
        },
        {
          "name": "A#2",
          "midi": 46,
          "time": 27.95451750000007,
          "velocity": 0.3937007874015748,
          "duration": 0.03409087500000041
        },
        {
          "name": "B2",
          "midi": 47,
          "time": 27.98860837500007,
          "velocity": 0.3937007874015748,
          "duration": 0.03409087500000041
        },
        {
          "name": "A#2",
          "midi": 46,
          "time": 28.02269925000007,
          "velocity": 0.3937007874015748,
          "duration": 0.03409087500000041
        },
        {
          "name": "B2",
          "midi": 47,
          "time": 28.05679012500007,
          "velocity": 0.3937007874015748,
          "duration": 0.03409087500000041
        },
        {
          "name": "A#2",
          "midi": 46,
          "time": 28.09088100000007,
          "velocity": 0.3937007874015748,
          "duration": 0.03409087500000041
        },
        {
          "name": "B2",
          "midi": 47,
          "time": 28.12497187500007,
          "velocity": 0.3937007874015748,
          "duration": 0.03409087500000041
        },
        {
          "name": "A#2",
          "midi": 46,
          "time": 28.15906275000007,
          "velocity": 0.3937007874015748,
          "duration": 0.03409087500000041
        },
        {
          "name": "B2",
          "midi": 47,
          "time": 28.193153625000072,
          "velocity": 0.3937007874015748,
          "duration": 0.03409087500000041
        },
        {
          "name": "A#2",
          "midi": 46,
          "time": 28.227244500000072,
          "velocity": 0.3937007874015748,
          "duration": 0.03409087500000041
        },
        {
          "name": "B2",
          "midi": 47,
          "time": 28.261335375000073,
          "velocity": 0.3937007874015748,
          "duration": 0.03409087500000041
        },
        {
          "name": "A#2",
          "midi": 46,
          "time": 28.295426250000073,
          "velocity": 0.3937007874015748,
          "duration": 0.03409087500000041
        },
        {
          "name": "B2",
          "midi": 47,
          "time": 28.329517125000073,
          "velocity": 0.3937007874015748,
          "duration": 0.03409087500000041
        },
        {
          "name": "A#2",
          "midi": 46,
          "time": 28.363608000000074,
          "velocity": 0.3937007874015748,
          "duration": 0.03409087500000041
        },
        {
          "name": "B2",
          "midi": 47,
          "time": 28.397698875000074,
          "velocity": 0.3937007874015748,
          "duration": 0.03409087500000041
        },
        {
          "name": "A#2",
          "midi": 46,
          "time": 28.431789750000075,
          "velocity": 0.3937007874015748,
          "duration": 0.03409087500000041
        },
        {
          "name": "B2",
          "midi": 47,
          "time": 28.465880625000075,
          "velocity": 0.3937007874015748,
          "duration": 0.03409087500000041
        },
        {
          "name": "A#2",
          "midi": 46,
          "time": 28.499971500000076,
          "velocity": 0.3937007874015748,
          "duration": 0.03409087500000041
        },
        {
          "name": "B2",
          "midi": 47,
          "time": 28.534062375000076,
          "velocity": 0.3937007874015748,
          "duration": 0.03409087500000041
        },
        {
          "name": "A#2",
          "midi": 46,
          "time": 28.568153250000076,
          "velocity": 0.3937007874015748,
          "duration": 0.03409087500000041
        },
        {
          "name": "B2",
          "midi": 47,
          "time": 28.602244125000077,
          "velocity": 0.3937007874015748,
          "duration": 0.03409087500000041
        },
        {
          "name": "A#2",
          "midi": 46,
          "time": 28.636335000000077,
          "velocity": 0.3937007874015748,
          "duration": 0.03409087500000041
        },
        {
          "name": "B2",
          "midi": 47,
          "time": 28.670425875000078,
          "velocity": 0.3937007874015748,
          "duration": 0.03409087500000041
        },
        {
          "name": "A#2",
          "midi": 46,
          "time": 28.704516750000078,
          "velocity": 0.3937007874015748,
          "duration": 0.03409087500000041
        },
        {
          "name": "B2",
          "midi": 47,
          "time": 28.73860762500008,
          "velocity": 0.3937007874015748,
          "duration": 0.03409087500000041
        },
        {
          "name": "A#2",
          "midi": 46,
          "time": 28.77269850000008,
          "velocity": 0.3937007874015748,
          "duration": 0.03409087500000041
        },
        {
          "name": "B2",
          "midi": 47,
          "time": 28.80678937500008,
          "velocity": 0.3937007874015748,
          "duration": 0.03409087500000041
        },
        {
          "name": "A#2",
          "midi": 46,
          "time": 28.84088025000008,
          "velocity": 0.3937007874015748,
          "duration": 0.03409087500000041
        },
        {
          "name": "B2",
          "midi": 47,
          "time": 28.87497112500008,
          "velocity": 0.3937007874015748,
          "duration": 0.03409087500000041
        },
        {
          "name": "A#2",
          "midi": 46,
          "time": 28.90906200000008,
          "velocity": 0.3937007874015748,
          "duration": 0.03409087500000041
        },
        {
          "name": "B2",
          "midi": 47,
          "time": 28.94315287500008,
          "velocity": 0.3937007874015748,
          "duration": 0.03409087500000041
        },
        {
          "name": "A#2",
          "midi": 46,
          "time": 28.97724375000008,
          "velocity": 0.3937007874015748,
          "duration": 0.03409087500000041
        },
        {
          "name": "B2",
          "midi": 47,
          "time": 29.01133462500008,
          "velocity": 0.3937007874015748,
          "duration": 0.03409087500000041
        },
        {
          "name": "A#2",
          "midi": 46,
          "time": 29.045425500000082,
          "velocity": 0.3937007874015748,
          "duration": 0.03409087500000041
        },
        {
          "name": "B2",
          "midi": 47,
          "time": 29.079516375000082,
          "velocity": 0.3937007874015748,
          "duration": 0.03409087500000041
        },
        {
          "name": "A#2",
          "midi": 46,
          "time": 29.113607250000083,
          "velocity": 0.3937007874015748,
          "duration": 0.03409087500000041
        },
        {
          "name": "B2",
          "midi": 47,
          "time": 29.147698125000083,
          "velocity": 0.3937007874015748,
          "duration": 0.03409087500000041
        },
        {
          "name": "A#2",
          "midi": 46,
          "time": 29.181789000000084,
          "velocity": 0.3937007874015748,
          "duration": 0.03409087500000041
        },
        {
          "name": "B2",
          "midi": 47,
          "time": 29.215879875000084,
          "velocity": 0.3937007874015748,
          "duration": 0.03409087500000041
        },
        {
          "name": "A#2",
          "midi": 46,
          "time": 29.249970750000085,
          "velocity": 0.3937007874015748,
          "duration": 0.03409087500000041
        },
        {
          "name": "B2",
          "midi": 47,
          "time": 29.284061625000085,
          "velocity": 0.3937007874015748,
          "duration": 0.03409087500000041
        },
        {
          "name": "A#2",
          "midi": 46,
          "time": 29.318152500000085,
          "velocity": 0.3937007874015748,
          "duration": 0.03409087500000041
        },
        {
          "name": "B2",
          "midi": 47,
          "time": 29.352243375000086,
          "velocity": 0.3937007874015748,
          "duration": 0.03409087500000041
        },
        {
          "name": "A#2",
          "midi": 46,
          "time": 29.386334250000086,
          "velocity": 0.3937007874015748,
          "duration": 0.03409087500000041
        },
        {
          "name": "B2",
          "midi": 47,
          "time": 29.420425125000087,
          "velocity": 0.3937007874015748,
          "duration": 0.03409087500000041
        },
        {
          "name": "A#2",
          "midi": 46,
          "time": 29.454516000000087,
          "velocity": 0.3937007874015748,
          "duration": 0.03409087500000041
        },
        {
          "name": "B2",
          "midi": 47,
          "time": 29.488606875000087,
          "velocity": 0.3937007874015748,
          "duration": 0.03409087500000041
        },
        {
          "name": "A#2",
          "midi": 46,
          "time": 29.522697750000088,
          "velocity": 0.3937007874015748,
          "duration": 0.03409087500000041
        },
        {
          "name": "B2",
          "midi": 47,
          "time": 29.556788625000088,
          "velocity": 0.3937007874015748,
          "duration": 0.03409087500000041
        },
        {
          "name": "A#2",
          "midi": 46,
          "time": 29.59087950000009,
          "velocity": 0.3937007874015748,
          "duration": 0.03409087500000041
        },
        {
          "name": "B2",
          "midi": 47,
          "time": 29.62497037500009,
          "velocity": 0.3937007874015748,
          "duration": 0.03409087500000041
        },
        {
          "name": "A#2",
          "midi": 46,
          "time": 29.65906125000009,
          "velocity": 0.3937007874015748,
          "duration": 0.03409087500000041
        },
        {
          "name": "B2",
          "midi": 47,
          "time": 29.69315212500009,
          "velocity": 0.3937007874015748,
          "duration": 0.03409087500000041
        },
        {
          "name": "A#2",
          "midi": 46,
          "time": 29.72724300000009,
          "velocity": 0.3937007874015748,
          "duration": 0.03409087500000041
        },
        {
          "name": "B2",
          "midi": 47,
          "time": 29.76133387500009,
          "velocity": 0.3937007874015748,
          "duration": 0.03409087500000041
        },
        {
          "name": "A#2",
          "midi": 46,
          "time": 29.79542475000009,
          "velocity": 0.3937007874015748,
          "duration": 0.03409087500000041
        },
        {
          "name": "B2",
          "midi": 47,
          "time": 29.82951562500009,
          "velocity": 0.3937007874015748,
          "duration": 0.03409087500000041
        },
        {
          "name": "A#2",
          "midi": 46,
          "time": 29.863606500000092,
          "velocity": 0.3937007874015748,
          "duration": 0.03409087500000041
        },
        {
          "name": "B2",
          "midi": 47,
          "time": 29.897697375000092,
          "velocity": 0.3937007874015748,
          "duration": 0.03409087500000041
        },
        {
          "name": "A#2",
          "midi": 46,
          "time": 29.931788250000093,
          "velocity": 0.3937007874015748,
          "duration": 0.03409087500000041
        },
        {
          "name": "B2",
          "midi": 47,
          "time": 29.965879125000093,
          "velocity": 0.3937007874015748,
          "duration": 0.03409087500000041
        },
        {
          "name": "B2",
          "midi": 47,
          "time": 29.999970000000094,
          "velocity": 0.3937007874015748,
          "duration": 1.3636349999999986
        },
        {
          "name": "G#2",
          "midi": 44,
          "time": 31.363605000000092,
          "velocity": 0.3937007874015748,
          "duration": 1.3636350000000022
        },
        {
          "name": "A#2",
          "midi": 46,
          "time": 32.727240000000094,
          "velocity": 0.3937007874015748,
          "duration": 0.034090874999996856
        },
        {
          "name": "B2",
          "midi": 47,
          "time": 32.76133087500009,
          "velocity": 0.3937007874015748,
          "duration": 0.034090874999996856
        },
        {
          "name": "A#2",
          "midi": 46,
          "time": 32.79542175000009,
          "velocity": 0.3937007874015748,
          "duration": 0.034090874999996856
        },
        {
          "name": "B2",
          "midi": 47,
          "time": 32.829512625000085,
          "velocity": 0.3937007874015748,
          "duration": 0.034090874999996856
        },
        {
          "name": "A#2",
          "midi": 46,
          "time": 32.86360350000008,
          "velocity": 0.3937007874015748,
          "duration": 0.034090874999996856
        },
        {
          "name": "B2",
          "midi": 47,
          "time": 32.89769437500008,
          "velocity": 0.3937007874015748,
          "duration": 0.034090874999996856
        },
        {
          "name": "A#2",
          "midi": 46,
          "time": 32.931785250000075,
          "velocity": 0.3937007874015748,
          "duration": 0.034090874999996856
        },
        {
          "name": "B2",
          "midi": 47,
          "time": 32.96587612500007,
          "velocity": 0.3937007874015748,
          "duration": 0.034090874999996856
        },
        {
          "name": "A#2",
          "midi": 46,
          "time": 32.99996700000007,
          "velocity": 0.3937007874015748,
          "duration": 0.034090874999996856
        },
        {
          "name": "B2",
          "midi": 47,
          "time": 33.034057875000066,
          "velocity": 0.3937007874015748,
          "duration": 0.034090874999996856
        },
        {
          "name": "A#2",
          "midi": 46,
          "time": 33.06814875000006,
          "velocity": 0.3937007874015748,
          "duration": 0.034090874999996856
        },
        {
          "name": "B2",
          "midi": 47,
          "time": 33.10223962500006,
          "velocity": 0.3937007874015748,
          "duration": 0.034090874999996856
        },
        {
          "name": "A#2",
          "midi": 46,
          "time": 33.13633050000006,
          "velocity": 0.3937007874015748,
          "duration": 0.034090874999996856
        },
        {
          "name": "B2",
          "midi": 47,
          "time": 33.17042137500005,
          "velocity": 0.3937007874015748,
          "duration": 0.034090874999996856
        },
        {
          "name": "A#2",
          "midi": 46,
          "time": 33.20451225000005,
          "velocity": 0.3937007874015748,
          "duration": 0.034090874999996856
        },
        {
          "name": "B2",
          "midi": 47,
          "time": 33.23860312500005,
          "velocity": 0.3937007874015748,
          "duration": 0.034090874999996856
        },
        {
          "name": "A#2",
          "midi": 46,
          "time": 33.272694000000044,
          "velocity": 0.3937007874015748,
          "duration": 0.034090874999996856
        },
        {
          "name": "B2",
          "midi": 47,
          "time": 33.30678487500004,
          "velocity": 0.3937007874015748,
          "duration": 0.034090874999996856
        },
        {
          "name": "A#2",
          "midi": 46,
          "time": 33.34087575000004,
          "velocity": 0.3937007874015748,
          "duration": 0.034090874999996856
        },
        {
          "name": "B2",
          "midi": 47,
          "time": 33.374966625000035,
          "velocity": 0.3937007874015748,
          "duration": 0.034090874999996856
        },
        {
          "name": "A#2",
          "midi": 46,
          "time": 33.40905750000003,
          "velocity": 0.3937007874015748,
          "duration": 0.034090874999996856
        },
        {
          "name": "B2",
          "midi": 47,
          "time": 33.44314837500003,
          "velocity": 0.3937007874015748,
          "duration": 0.034090874999996856
        },
        {
          "name": "A#2",
          "midi": 46,
          "time": 33.477239250000025,
          "velocity": 0.3937007874015748,
          "duration": 0.034090874999996856
        },
        {
          "name": "B2",
          "midi": 47,
          "time": 33.51133012500002,
          "velocity": 0.3937007874015748,
          "duration": 0.034090874999996856
        },
        {
          "name": "A#2",
          "midi": 46,
          "time": 33.54542100000002,
          "velocity": 0.3937007874015748,
          "duration": 0.034090874999996856
        },
        {
          "name": "B2",
          "midi": 47,
          "time": 33.579511875000016,
          "velocity": 0.3937007874015748,
          "duration": 0.034090874999996856
        },
        {
          "name": "A#2",
          "midi": 46,
          "time": 33.61360275000001,
          "velocity": 0.3937007874015748,
          "duration": 0.034090874999996856
        },
        {
          "name": "B2",
          "midi": 47,
          "time": 33.64769362500001,
          "velocity": 0.3937007874015748,
          "duration": 0.034090874999996856
        },
        {
          "name": "A#2",
          "midi": 46,
          "time": 33.681784500000006,
          "velocity": 0.3937007874015748,
          "duration": 0.034090874999996856
        },
        {
          "name": "B2",
          "midi": 47,
          "time": 33.715875375,
          "velocity": 0.3937007874015748,
          "duration": 0.034090874999996856
        },
        {
          "name": "A#2",
          "midi": 46,
          "time": 33.74996625,
          "velocity": 0.3937007874015748,
          "duration": 0.034090874999996856
        },
        {
          "name": "B2",
          "midi": 47,
          "time": 33.784057125,
          "velocity": 0.3937007874015748,
          "duration": 0.034090874999996856
        },
        {
          "name": "A#2",
          "midi": 46,
          "time": 33.818147999999994,
          "velocity": 0.3937007874015748,
          "duration": 0.034090874999996856
        },
        {
          "name": "B2",
          "midi": 47,
          "time": 33.85223887499999,
          "velocity": 0.3937007874015748,
          "duration": 0.034090874999996856
        },
        {
          "name": "A#2",
          "midi": 46,
          "time": 33.88632974999999,
          "velocity": 0.3937007874015748,
          "duration": 0.034090874999996856
        },
        {
          "name": "B2",
          "midi": 47,
          "time": 33.920420624999984,
          "velocity": 0.3937007874015748,
          "duration": 0.034090874999996856
        },
        {
          "name": "A#2",
          "midi": 46,
          "time": 33.95451149999998,
          "velocity": 0.3937007874015748,
          "duration": 0.034090874999996856
        },
        {
          "name": "B2",
          "midi": 47,
          "time": 33.98860237499998,
          "velocity": 0.3937007874015748,
          "duration": 0.034090874999996856
        },
        {
          "name": "A#2",
          "midi": 46,
          "time": 34.022693249999975,
          "velocity": 0.3937007874015748,
          "duration": 0.034090874999996856
        },
        {
          "name": "B2",
          "midi": 47,
          "time": 34.05678412499997,
          "velocity": 0.3937007874015748,
          "duration": 0.034090874999996856
        },
        {
          "name": "A#2",
          "midi": 46,
          "time": 34.09087499999997,
          "velocity": 0.3937007874015748,
          "duration": 0.034090874999996856
        },
        {
          "name": "B2",
          "midi": 47,
          "time": 34.124965874999965,
          "velocity": 0.3937007874015748,
          "duration": 0.034090874999996856
        },
        {
          "name": "A#2",
          "midi": 46,
          "time": 34.15905674999996,
          "velocity": 0.3937007874015748,
          "duration": 0.034090874999996856
        },
        {
          "name": "B2",
          "midi": 47,
          "time": 34.19314762499996,
          "velocity": 0.3937007874015748,
          "duration": 0.034090874999996856
        },
        {
          "name": "A#2",
          "midi": 46,
          "time": 34.227238499999956,
          "velocity": 0.3937007874015748,
          "duration": 0.034090874999996856
        },
        {
          "name": "B2",
          "midi": 47,
          "time": 34.26132937499995,
          "velocity": 0.3937007874015748,
          "duration": 0.034090874999996856
        },
        {
          "name": "A#2",
          "midi": 46,
          "time": 34.29542024999995,
          "velocity": 0.3937007874015748,
          "duration": 0.034090874999996856
        },
        {
          "name": "B2",
          "midi": 47,
          "time": 34.32951112499995,
          "velocity": 0.3937007874015748,
          "duration": 0.034090874999996856
        },
        {
          "name": "A#2",
          "midi": 46,
          "time": 34.36360199999994,
          "velocity": 0.3937007874015748,
          "duration": 0.034090874999996856
        },
        {
          "name": "B2",
          "midi": 47,
          "time": 34.39769287499994,
          "velocity": 0.3937007874015748,
          "duration": 0.034090874999996856
        },
        {
          "name": "A#2",
          "midi": 46,
          "time": 34.43178374999994,
          "velocity": 0.3937007874015748,
          "duration": 0.034090874999996856
        },
        {
          "name": "B2",
          "midi": 47,
          "time": 34.465874624999934,
          "velocity": 0.3937007874015748,
          "duration": 0.034090874999996856
        },
        {
          "name": "A#2",
          "midi": 46,
          "time": 34.49996549999993,
          "velocity": 0.3937007874015748,
          "duration": 0.034090874999996856
        },
        {
          "name": "B2",
          "midi": 47,
          "time": 34.53405637499993,
          "velocity": 0.3937007874015748,
          "duration": 0.034090874999996856
        },
        {
          "name": "A#2",
          "midi": 46,
          "time": 34.568147249999924,
          "velocity": 0.3937007874015748,
          "duration": 0.034090874999996856
        },
        {
          "name": "B2",
          "midi": 47,
          "time": 34.60223812499992,
          "velocity": 0.3937007874015748,
          "duration": 0.034090874999996856
        },
        {
          "name": "A#2",
          "midi": 46,
          "time": 34.63632899999992,
          "velocity": 0.3937007874015748,
          "duration": 0.034090874999996856
        },
        {
          "name": "B2",
          "midi": 47,
          "time": 34.670419874999915,
          "velocity": 0.3937007874015748,
          "duration": 0.034090874999996856
        },
        {
          "name": "A#2",
          "midi": 46,
          "time": 34.70451074999991,
          "velocity": 0.3937007874015748,
          "duration": 0.034090874999996856
        },
        {
          "name": "B2",
          "midi": 47,
          "time": 34.73860162499991,
          "velocity": 0.3937007874015748,
          "duration": 0.034090874999996856
        },
        {
          "name": "A#2",
          "midi": 46,
          "time": 34.772692499999906,
          "velocity": 0.3937007874015748,
          "duration": 0.034090874999996856
        },
        {
          "name": "B2",
          "midi": 47,
          "time": 34.8067833749999,
          "velocity": 0.3937007874015748,
          "duration": 0.034090874999996856
        },
        {
          "name": "A#2",
          "midi": 46,
          "time": 34.8408742499999,
          "velocity": 0.3937007874015748,
          "duration": 0.034090874999996856
        },
        {
          "name": "B2",
          "midi": 47,
          "time": 34.874965124999896,
          "velocity": 0.3937007874015748,
          "duration": 0.034090874999996856
        },
        {
          "name": "A#2",
          "midi": 46,
          "time": 34.90905599999989,
          "velocity": 0.3937007874015748,
          "duration": 0.034090874999996856
        },
        {
          "name": "B2",
          "midi": 47,
          "time": 34.94314687499989,
          "velocity": 0.3937007874015748,
          "duration": 0.034090874999996856
        },
        {
          "name": "A#2",
          "midi": 46,
          "time": 34.97723774999989,
          "velocity": 0.3937007874015748,
          "duration": 0.034090874999996856
        },
        {
          "name": "B2",
          "midi": 47,
          "time": 35.011328624999884,
          "velocity": 0.3937007874015748,
          "duration": 0.034090874999996856
        },
        {
          "name": "A#2",
          "midi": 46,
          "time": 35.04541949999988,
          "velocity": 0.3937007874015748,
          "duration": 0.034090874999996856
        },
        {
          "name": "B2",
          "midi": 47,
          "time": 35.07951037499988,
          "velocity": 0.3937007874015748,
          "duration": 0.034090874999996856
        },
        {
          "name": "A#2",
          "midi": 46,
          "time": 35.113601249999874,
          "velocity": 0.3937007874015748,
          "duration": 0.034090874999996856
        },
        {
          "name": "B2",
          "midi": 47,
          "time": 35.14769212499987,
          "velocity": 0.3937007874015748,
          "duration": 0.034090874999996856
        },
        {
          "name": "A#2",
          "midi": 46,
          "time": 35.18178299999987,
          "velocity": 0.3937007874015748,
          "duration": 0.034090874999996856
        },
        {
          "name": "B2",
          "midi": 47,
          "time": 35.215873874999865,
          "velocity": 0.3937007874015748,
          "duration": 0.034090874999996856
        },
        {
          "name": "A#2",
          "midi": 46,
          "time": 35.24996474999986,
          "velocity": 0.3937007874015748,
          "duration": 0.034090874999996856
        },
        {
          "name": "B2",
          "midi": 47,
          "time": 35.28405562499986,
          "velocity": 0.3937007874015748,
          "duration": 0.034090874999996856
        },
        {
          "name": "A#2",
          "midi": 46,
          "time": 35.318146499999855,
          "velocity": 0.3937007874015748,
          "duration": 0.034090874999996856
        },
        {
          "name": "B2",
          "midi": 47,
          "time": 35.35223737499985,
          "velocity": 0.3937007874015748,
          "duration": 0.034090874999996856
        },
        {
          "name": "A#2",
          "midi": 46,
          "time": 35.38632824999985,
          "velocity": 0.3937007874015748,
          "duration": 0.034090874999996856
        },
        {
          "name": "B2",
          "midi": 47,
          "time": 35.420419124999846,
          "velocity": 0.3937007874015748,
          "duration": 0.034090874999996856
        },
        {
          "name": "G#2",
          "midi": 44,
          "time": 95.45444999999984,
          "velocity": 0.3937007874015748,
          "duration": 1.3636350000000022
        },
        {
          "name": "A#2",
          "midi": 46,
          "time": 96.81808499999984,
          "velocity": 0.3937007874015748,
          "duration": 0.03409087500000396
        },
        {
          "name": "B2",
          "midi": 47,
          "time": 96.85217587499984,
          "velocity": 0.3937007874015748,
          "duration": 0.03409087500000396
        },
        {
          "name": "A#2",
          "midi": 46,
          "time": 96.88626674999985,
          "velocity": 0.3937007874015748,
          "duration": 0.03409087500000396
        },
        {
          "name": "B2",
          "midi": 47,
          "time": 96.92035762499985,
          "velocity": 0.3937007874015748,
          "duration": 0.03409087500000396
        },
        {
          "name": "A#2",
          "midi": 46,
          "time": 96.95444849999986,
          "velocity": 0.3937007874015748,
          "duration": 0.03409087500000396
        },
        {
          "name": "B2",
          "midi": 47,
          "time": 96.98853937499986,
          "velocity": 0.3937007874015748,
          "duration": 0.03409087500000396
        },
        {
          "name": "A#2",
          "midi": 46,
          "time": 97.02263024999986,
          "velocity": 0.3937007874015748,
          "duration": 0.03409087500000396
        },
        {
          "name": "B2",
          "midi": 47,
          "time": 97.05672112499987,
          "velocity": 0.3937007874015748,
          "duration": 0.03409087500000396
        },
        {
          "name": "A#2",
          "midi": 46,
          "time": 97.09081199999987,
          "velocity": 0.3937007874015748,
          "duration": 0.03409087500000396
        },
        {
          "name": "B2",
          "midi": 47,
          "time": 97.12490287499988,
          "velocity": 0.3937007874015748,
          "duration": 0.03409087500000396
        },
        {
          "name": "A#2",
          "midi": 46,
          "time": 97.15899374999988,
          "velocity": 0.3937007874015748,
          "duration": 0.03409087500000396
        },
        {
          "name": "B2",
          "midi": 47,
          "time": 97.19308462499988,
          "velocity": 0.3937007874015748,
          "duration": 0.03409087500000396
        },
        {
          "name": "A#2",
          "midi": 46,
          "time": 97.22717549999989,
          "velocity": 0.3937007874015748,
          "duration": 0.03409087500000396
        },
        {
          "name": "B2",
          "midi": 47,
          "time": 97.26126637499989,
          "velocity": 0.3937007874015748,
          "duration": 0.03409087500000396
        },
        {
          "name": "A#2",
          "midi": 46,
          "time": 97.2953572499999,
          "velocity": 0.3937007874015748,
          "duration": 0.03409087500000396
        },
        {
          "name": "B2",
          "midi": 47,
          "time": 97.3294481249999,
          "velocity": 0.3937007874015748,
          "duration": 0.03409087500000396
        },
        {
          "name": "A#2",
          "midi": 46,
          "time": 97.3635389999999,
          "velocity": 0.3937007874015748,
          "duration": 0.03409087500000396
        },
        {
          "name": "B2",
          "midi": 47,
          "time": 97.39762987499991,
          "velocity": 0.3937007874015748,
          "duration": 0.03409087500000396
        },
        {
          "name": "A#2",
          "midi": 46,
          "time": 97.43172074999991,
          "velocity": 0.3937007874015748,
          "duration": 0.03409087500000396
        },
        {
          "name": "B2",
          "midi": 47,
          "time": 97.46581162499992,
          "velocity": 0.3937007874015748,
          "duration": 0.03409087500000396
        },
        {
          "name": "A#2",
          "midi": 46,
          "time": 97.49990249999992,
          "velocity": 0.3937007874015748,
          "duration": 0.03409087500000396
        },
        {
          "name": "B2",
          "midi": 47,
          "time": 97.53399337499992,
          "velocity": 0.3937007874015748,
          "duration": 0.03409087500000396
        },
        {
          "name": "A#2",
          "midi": 46,
          "time": 97.56808424999993,
          "velocity": 0.3937007874015748,
          "duration": 0.03409087500000396
        },
        {
          "name": "B2",
          "midi": 47,
          "time": 97.60217512499993,
          "velocity": 0.3937007874015748,
          "duration": 0.03409087500000396
        },
        {
          "name": "A#2",
          "midi": 46,
          "time": 97.63626599999994,
          "velocity": 0.3937007874015748,
          "duration": 0.03409087500000396
        },
        {
          "name": "B2",
          "midi": 47,
          "time": 97.67035687499994,
          "velocity": 0.3937007874015748,
          "duration": 0.03409087500000396
        },
        {
          "name": "A#2",
          "midi": 46,
          "time": 97.70444774999994,
          "velocity": 0.3937007874015748,
          "duration": 0.03409087500000396
        },
        {
          "name": "B2",
          "midi": 47,
          "time": 97.73853862499995,
          "velocity": 0.3937007874015748,
          "duration": 0.03409087500000396
        },
        {
          "name": "A#2",
          "midi": 46,
          "time": 97.77262949999995,
          "velocity": 0.3937007874015748,
          "duration": 0.03409087500000396
        },
        {
          "name": "B2",
          "midi": 47,
          "time": 97.80672037499995,
          "velocity": 0.3937007874015748,
          "duration": 0.03409087500000396
        },
        {
          "name": "A#2",
          "midi": 46,
          "time": 97.84081124999996,
          "velocity": 0.3937007874015748,
          "duration": 0.03409087500000396
        },
        {
          "name": "B2",
          "midi": 47,
          "time": 97.87490212499996,
          "velocity": 0.3937007874015748,
          "duration": 0.03409087500000396
        },
        {
          "name": "A#2",
          "midi": 46,
          "time": 97.90899299999997,
          "velocity": 0.3937007874015748,
          "duration": 0.03409087500000396
        },
        {
          "name": "B2",
          "midi": 47,
          "time": 97.94308387499997,
          "velocity": 0.3937007874015748,
          "duration": 0.03409087500000396
        },
        {
          "name": "A#2",
          "midi": 46,
          "time": 97.97717474999997,
          "velocity": 0.3937007874015748,
          "duration": 0.03409087500000396
        },
        {
          "name": "B2",
          "midi": 47,
          "time": 98.01126562499998,
          "velocity": 0.3937007874015748,
          "duration": 0.03409087500000396
        },
        {
          "name": "A#2",
          "midi": 46,
          "time": 98.04535649999998,
          "velocity": 0.3937007874015748,
          "duration": 0.03409087500000396
        },
        {
          "name": "B2",
          "midi": 47,
          "time": 98.07944737499999,
          "velocity": 0.3937007874015748,
          "duration": 0.03409087500000396
        },
        {
          "name": "A#2",
          "midi": 46,
          "time": 98.11353824999999,
          "velocity": 0.3937007874015748,
          "duration": 0.03409087500000396
        },
        {
          "name": "B2",
          "midi": 47,
          "time": 98.147629125,
          "velocity": 0.3937007874015748,
          "duration": 0.03409087500000396
        },
        {
          "name": "A#2",
          "midi": 46,
          "time": 98.18172,
          "velocity": 0.3937007874015748,
          "duration": 0.03409087500000396
        },
        {
          "name": "B2",
          "midi": 47,
          "time": 98.215810875,
          "velocity": 0.3937007874015748,
          "duration": 0.03409087500000396
        },
        {
          "name": "A#2",
          "midi": 46,
          "time": 98.24990175,
          "velocity": 0.3937007874015748,
          "duration": 0.03409087500000396
        },
        {
          "name": "B2",
          "midi": 47,
          "time": 98.28399262500001,
          "velocity": 0.3937007874015748,
          "duration": 0.03409087500000396
        },
        {
          "name": "A#2",
          "midi": 46,
          "time": 98.31808350000001,
          "velocity": 0.3937007874015748,
          "duration": 0.03409087500000396
        },
        {
          "name": "B2",
          "midi": 47,
          "time": 98.35217437500002,
          "velocity": 0.3937007874015748,
          "duration": 0.03409087500000396
        },
        {
          "name": "A#2",
          "midi": 46,
          "time": 98.38626525000002,
          "velocity": 0.3937007874015748,
          "duration": 0.03409087500000396
        },
        {
          "name": "B2",
          "midi": 47,
          "time": 98.42035612500003,
          "velocity": 0.3937007874015748,
          "duration": 0.03409087500000396
        },
        {
          "name": "A#2",
          "midi": 46,
          "time": 98.45444700000003,
          "velocity": 0.3937007874015748,
          "duration": 0.03409087500000396
        },
        {
          "name": "B2",
          "midi": 47,
          "time": 98.48853787500003,
          "velocity": 0.3937007874015748,
          "duration": 0.03409087500000396
        },
        {
          "name": "A#2",
          "midi": 46,
          "time": 98.52262875000004,
          "velocity": 0.3937007874015748,
          "duration": 0.03409087500000396
        },
        {
          "name": "B2",
          "midi": 47,
          "time": 98.55671962500004,
          "velocity": 0.3937007874015748,
          "duration": 0.03409087500000396
        },
        {
          "name": "A#2",
          "midi": 46,
          "time": 98.59081050000005,
          "velocity": 0.3937007874015748,
          "duration": 0.03409087500000396
        },
        {
          "name": "B2",
          "midi": 47,
          "time": 98.62490137500005,
          "velocity": 0.3937007874015748,
          "duration": 0.03409087500000396
        },
        {
          "name": "A#2",
          "midi": 46,
          "time": 98.65899225000005,
          "velocity": 0.3937007874015748,
          "duration": 0.03409087500000396
        },
        {
          "name": "B2",
          "midi": 47,
          "time": 98.69308312500006,
          "velocity": 0.3937007874015748,
          "duration": 0.03409087500000396
        },
        {
          "name": "A#2",
          "midi": 46,
          "time": 98.72717400000006,
          "velocity": 0.3937007874015748,
          "duration": 0.03409087500000396
        },
        {
          "name": "B2",
          "midi": 47,
          "time": 98.76126487500007,
          "velocity": 0.3937007874015748,
          "duration": 0.03409087500000396
        },
        {
          "name": "A#2",
          "midi": 46,
          "time": 98.79535575000007,
          "velocity": 0.3937007874015748,
          "duration": 0.03409087500000396
        },
        {
          "name": "B2",
          "midi": 47,
          "time": 98.82944662500007,
          "velocity": 0.3937007874015748,
          "duration": 0.03409087500000396
        },
        {
          "name": "A#2",
          "midi": 46,
          "time": 98.86353750000008,
          "velocity": 0.3937007874015748,
          "duration": 0.03409087500000396
        },
        {
          "name": "B2",
          "midi": 47,
          "time": 98.89762837500008,
          "velocity": 0.3937007874015748,
          "duration": 0.03409087500000396
        },
        {
          "name": "A#2",
          "midi": 46,
          "time": 98.93171925000009,
          "velocity": 0.3937007874015748,
          "duration": 0.03409087500000396
        },
        {
          "name": "B2",
          "midi": 47,
          "time": 98.96581012500009,
          "velocity": 0.3937007874015748,
          "duration": 0.03409087500000396
        },
        {
          "name": "A#2",
          "midi": 46,
          "time": 98.9999010000001,
          "velocity": 0.3937007874015748,
          "duration": 0.03409087500000396
        },
        {
          "name": "B2",
          "midi": 47,
          "time": 99.0339918750001,
          "velocity": 0.3937007874015748,
          "duration": 0.03409087500000396
        },
        {
          "name": "A#2",
          "midi": 46,
          "time": 99.0680827500001,
          "velocity": 0.3937007874015748,
          "duration": 0.03409087500000396
        },
        {
          "name": "B2",
          "midi": 47,
          "time": 99.1021736250001,
          "velocity": 0.3937007874015748,
          "duration": 0.03409087500000396
        },
        {
          "name": "A#2",
          "midi": 46,
          "time": 99.13626450000011,
          "velocity": 0.3937007874015748,
          "duration": 0.03409087500000396
        },
        {
          "name": "B2",
          "midi": 47,
          "time": 99.17035537500011,
          "velocity": 0.3937007874015748,
          "duration": 0.03409087500000396
        },
        {
          "name": "A#2",
          "midi": 46,
          "time": 99.20444625000012,
          "velocity": 0.3937007874015748,
          "duration": 0.03409087500000396
        },
        {
          "name": "B2",
          "midi": 47,
          "time": 99.23853712500012,
          "velocity": 0.3937007874015748,
          "duration": 0.03409087500000396
        },
        {
          "name": "A#2",
          "midi": 46,
          "time": 99.27262800000013,
          "velocity": 0.3937007874015748,
          "duration": 0.03409087500000396
        },
        {
          "name": "B2",
          "midi": 47,
          "time": 99.30671887500013,
          "velocity": 0.3937007874015748,
          "duration": 0.03409087500000396
        },
        {
          "name": "A#2",
          "midi": 46,
          "time": 99.34080975000013,
          "velocity": 0.3937007874015748,
          "duration": 0.03409087500000396
        },
        {
          "name": "B2",
          "midi": 47,
          "time": 99.37490062500014,
          "velocity": 0.3937007874015748,
          "duration": 0.03409087500000396
        },
        {
          "name": "A#2",
          "midi": 46,
          "time": 99.40899150000014,
          "velocity": 0.3937007874015748,
          "duration": 0.03409087500000396
        },
        {
          "name": "B2",
          "midi": 47,
          "time": 99.44308237500015,
          "velocity": 0.3937007874015748,
          "duration": 0.03409087500000396
        },
        {
          "name": "A#2",
          "midi": 46,
          "time": 99.47717325000015,
          "velocity": 0.3937007874015748,
          "duration": 0.03409087500000396
        },
        {
          "name": "B2",
          "midi": 47,
          "time": 99.51126412500015,
          "velocity": 0.3937007874015748,
          "duration": 0.03409087500000396
        },
        {
          "name": "B2",
          "midi": 47,
          "time": 99.54535500000016,
          "velocity": 0.3937007874015748,
          "duration": 1.3636350000000022
        },
        {
          "name": "G#2",
          "midi": 44,
          "time": 100.90899000000016,
          "velocity": 0.3937007874015748,
          "duration": 1.3636350000000022
        },
        {
          "name": "A#2",
          "midi": 46,
          "time": 102.27262500000016,
          "velocity": 0.3937007874015748,
          "duration": 0.03409087500000396
        },
        {
          "name": "B2",
          "midi": 47,
          "time": 102.30671587500017,
          "velocity": 0.3937007874015748,
          "duration": 0.03409087500000396
        },
        {
          "name": "A#2",
          "midi": 46,
          "time": 102.34080675000017,
          "velocity": 0.3937007874015748,
          "duration": 0.03409087500000396
        },
        {
          "name": "B2",
          "midi": 47,
          "time": 102.37489762500017,
          "velocity": 0.3937007874015748,
          "duration": 0.03409087500000396
        },
        {
          "name": "A#2",
          "midi": 46,
          "time": 102.40898850000018,
          "velocity": 0.3937007874015748,
          "duration": 0.03409087500000396
        },
        {
          "name": "B2",
          "midi": 47,
          "time": 102.44307937500018,
          "velocity": 0.3937007874015748,
          "duration": 0.03409087500000396
        },
        {
          "name": "A#2",
          "midi": 46,
          "time": 102.47717025000019,
          "velocity": 0.3937007874015748,
          "duration": 0.03409087500000396
        },
        {
          "name": "B2",
          "midi": 47,
          "time": 102.51126112500019,
          "velocity": 0.3937007874015748,
          "duration": 0.03409087500000396
        },
        {
          "name": "A#2",
          "midi": 46,
          "time": 102.5453520000002,
          "velocity": 0.3937007874015748,
          "duration": 0.03409087500000396
        },
        {
          "name": "B2",
          "midi": 47,
          "time": 102.5794428750002,
          "velocity": 0.3937007874015748,
          "duration": 0.03409087500000396
        },
        {
          "name": "A#2",
          "midi": 46,
          "time": 102.6135337500002,
          "velocity": 0.3937007874015748,
          "duration": 0.03409087500000396
        },
        {
          "name": "B2",
          "midi": 47,
          "time": 102.6476246250002,
          "velocity": 0.3937007874015748,
          "duration": 0.03409087500000396
        },
        {
          "name": "A#2",
          "midi": 46,
          "time": 102.68171550000021,
          "velocity": 0.3937007874015748,
          "duration": 0.03409087500000396
        },
        {
          "name": "B2",
          "midi": 47,
          "time": 102.71580637500021,
          "velocity": 0.3937007874015748,
          "duration": 0.03409087500000396
        },
        {
          "name": "A#2",
          "midi": 46,
          "time": 102.74989725000022,
          "velocity": 0.3937007874015748,
          "duration": 0.03409087500000396
        },
        {
          "name": "B2",
          "midi": 47,
          "time": 102.78398812500022,
          "velocity": 0.3937007874015748,
          "duration": 0.03409087500000396
        },
        {
          "name": "A#2",
          "midi": 46,
          "time": 102.81807900000022,
          "velocity": 0.3937007874015748,
          "duration": 0.03409087500000396
        },
        {
          "name": "B2",
          "midi": 47,
          "time": 102.85216987500023,
          "velocity": 0.3937007874015748,
          "duration": 0.03409087500000396
        },
        {
          "name": "A#2",
          "midi": 46,
          "time": 102.88626075000023,
          "velocity": 0.3937007874015748,
          "duration": 0.03409087500000396
        },
        {
          "name": "B2",
          "midi": 47,
          "time": 102.92035162500024,
          "velocity": 0.3937007874015748,
          "duration": 0.03409087500000396
        },
        {
          "name": "A#2",
          "midi": 46,
          "time": 102.95444250000024,
          "velocity": 0.3937007874015748,
          "duration": 0.03409087500000396
        },
        {
          "name": "B2",
          "midi": 47,
          "time": 102.98853337500024,
          "velocity": 0.3937007874015748,
          "duration": 0.03409087500000396
        },
        {
          "name": "A#2",
          "midi": 46,
          "time": 103.02262425000025,
          "velocity": 0.3937007874015748,
          "duration": 0.03409087500000396
        },
        {
          "name": "B2",
          "midi": 47,
          "time": 103.05671512500025,
          "velocity": 0.3937007874015748,
          "duration": 0.03409087500000396
        },
        {
          "name": "A#2",
          "midi": 46,
          "time": 103.09080600000026,
          "velocity": 0.3937007874015748,
          "duration": 0.03409087500000396
        },
        {
          "name": "B2",
          "midi": 47,
          "time": 103.12489687500026,
          "velocity": 0.3937007874015748,
          "duration": 0.03409087500000396
        },
        {
          "name": "A#2",
          "midi": 46,
          "time": 103.15898775000026,
          "velocity": 0.3937007874015748,
          "duration": 0.03409087500000396
        },
        {
          "name": "B2",
          "midi": 47,
          "time": 103.19307862500027,
          "velocity": 0.3937007874015748,
          "duration": 0.03409087500000396
        },
        {
          "name": "A#2",
          "midi": 46,
          "time": 103.22716950000027,
          "velocity": 0.3937007874015748,
          "duration": 0.03409087500000396
        },
        {
          "name": "B2",
          "midi": 47,
          "time": 103.26126037500028,
          "velocity": 0.3937007874015748,
          "duration": 0.03409087500000396
        },
        {
          "name": "A#2",
          "midi": 46,
          "time": 103.29535125000028,
          "velocity": 0.3937007874015748,
          "duration": 0.03409087500000396
        },
        {
          "name": "B2",
          "midi": 47,
          "time": 103.32944212500028,
          "velocity": 0.3937007874015748,
          "duration": 0.03409087500000396
        },
        {
          "name": "A#2",
          "midi": 46,
          "time": 103.36353300000029,
          "velocity": 0.3937007874015748,
          "duration": 0.03409087500000396
        },
        {
          "name": "B2",
          "midi": 47,
          "time": 103.39762387500029,
          "velocity": 0.3937007874015748,
          "duration": 0.03409087500000396
        },
        {
          "name": "A#2",
          "midi": 46,
          "time": 103.4317147500003,
          "velocity": 0.3937007874015748,
          "duration": 0.03409087500000396
        },
        {
          "name": "B2",
          "midi": 47,
          "time": 103.4658056250003,
          "velocity": 0.3937007874015748,
          "duration": 0.03409087500000396
        },
        {
          "name": "A#2",
          "midi": 46,
          "time": 103.4998965000003,
          "velocity": 0.3937007874015748,
          "duration": 0.03409087500000396
        },
        {
          "name": "B2",
          "midi": 47,
          "time": 103.53398737500031,
          "velocity": 0.3937007874015748,
          "duration": 0.03409087500000396
        },
        {
          "name": "A#2",
          "midi": 46,
          "time": 103.56807825000031,
          "velocity": 0.3937007874015748,
          "duration": 0.03409087500000396
        },
        {
          "name": "B2",
          "midi": 47,
          "time": 103.60216912500032,
          "velocity": 0.3937007874015748,
          "duration": 0.03409087500000396
        },
        {
          "name": "A#2",
          "midi": 46,
          "time": 103.63626000000032,
          "velocity": 0.3937007874015748,
          "duration": 0.03409087500000396
        },
        {
          "name": "B2",
          "midi": 47,
          "time": 103.67035087500032,
          "velocity": 0.3937007874015748,
          "duration": 0.03409087500000396
        },
        {
          "name": "A#2",
          "midi": 46,
          "time": 103.70444175000033,
          "velocity": 0.3937007874015748,
          "duration": 0.03409087500000396
        },
        {
          "name": "B2",
          "midi": 47,
          "time": 103.73853262500033,
          "velocity": 0.3937007874015748,
          "duration": 0.03409087500000396
        },
        {
          "name": "A#2",
          "midi": 46,
          "time": 103.77262350000034,
          "velocity": 0.3937007874015748,
          "duration": 0.03409087500000396
        },
        {
          "name": "B2",
          "midi": 47,
          "time": 103.80671437500034,
          "velocity": 0.3937007874015748,
          "duration": 0.03409087500000396
        },
        {
          "name": "A#2",
          "midi": 46,
          "time": 103.84080525000034,
          "velocity": 0.3937007874015748,
          "duration": 0.03409087500000396
        },
        {
          "name": "B2",
          "midi": 47,
          "time": 103.87489612500035,
          "velocity": 0.3937007874015748,
          "duration": 0.03409087500000396
        },
        {
          "name": "A#2",
          "midi": 46,
          "time": 103.90898700000035,
          "velocity": 0.3937007874015748,
          "duration": 0.03409087500000396
        },
        {
          "name": "B2",
          "midi": 47,
          "time": 103.94307787500036,
          "velocity": 0.3937007874015748,
          "duration": 0.03409087500000396
        },
        {
          "name": "A#2",
          "midi": 46,
          "time": 103.97716875000036,
          "velocity": 0.3937007874015748,
          "duration": 0.03409087500000396
        },
        {
          "name": "B2",
          "midi": 47,
          "time": 104.01125962500036,
          "velocity": 0.3937007874015748,
          "duration": 0.03409087500000396
        },
        {
          "name": "A#2",
          "midi": 46,
          "time": 104.04535050000037,
          "velocity": 0.3937007874015748,
          "duration": 0.03409087500000396
        },
        {
          "name": "B2",
          "midi": 47,
          "time": 104.07944137500037,
          "velocity": 0.3937007874015748,
          "duration": 0.03409087500000396
        },
        {
          "name": "A#2",
          "midi": 46,
          "time": 104.11353225000038,
          "velocity": 0.3937007874015748,
          "duration": 0.03409087500000396
        },
        {
          "name": "B2",
          "midi": 47,
          "time": 104.14762312500038,
          "velocity": 0.3937007874015748,
          "duration": 0.03409087500000396
        },
        {
          "name": "A#2",
          "midi": 46,
          "time": 104.18171400000038,
          "velocity": 0.3937007874015748,
          "duration": 0.03409087500000396
        },
        {
          "name": "B2",
          "midi": 47,
          "time": 104.21580487500039,
          "velocity": 0.3937007874015748,
          "duration": 0.03409087500000396
        },
        {
          "name": "A#2",
          "midi": 46,
          "time": 104.24989575000039,
          "velocity": 0.3937007874015748,
          "duration": 0.03409087500000396
        },
        {
          "name": "B2",
          "midi": 47,
          "time": 104.2839866250004,
          "velocity": 0.3937007874015748,
          "duration": 0.03409087500000396
        },
        {
          "name": "A#2",
          "midi": 46,
          "time": 104.3180775000004,
          "velocity": 0.3937007874015748,
          "duration": 0.03409087500000396
        },
        {
          "name": "B2",
          "midi": 47,
          "time": 104.3521683750004,
          "velocity": 0.3937007874015748,
          "duration": 0.03409087500000396
        },
        {
          "name": "A#2",
          "midi": 46,
          "time": 104.3862592500004,
          "velocity": 0.3937007874015748,
          "duration": 0.03409087500000396
        },
        {
          "name": "B2",
          "midi": 47,
          "time": 104.42035012500041,
          "velocity": 0.3937007874015748,
          "duration": 0.03409087500000396
        },
        {
          "name": "A#2",
          "midi": 46,
          "time": 104.45444100000041,
          "velocity": 0.3937007874015748,
          "duration": 0.03409087500000396
        },
        {
          "name": "B2",
          "midi": 47,
          "time": 104.48853187500042,
          "velocity": 0.3937007874015748,
          "duration": 0.03409087500000396
        },
        {
          "name": "A#2",
          "midi": 46,
          "time": 104.52262275000042,
          "velocity": 0.3937007874015748,
          "duration": 0.03409087500000396
        },
        {
          "name": "B2",
          "midi": 47,
          "time": 104.55671362500043,
          "velocity": 0.3937007874015748,
          "duration": 0.03409087500000396
        },
        {
          "name": "A#2",
          "midi": 46,
          "time": 104.59080450000043,
          "velocity": 0.3937007874015748,
          "duration": 0.03409087500000396
        },
        {
          "name": "B2",
          "midi": 47,
          "time": 104.62489537500043,
          "velocity": 0.3937007874015748,
          "duration": 0.03409087500000396
        },
        {
          "name": "A#2",
          "midi": 46,
          "time": 104.65898625000044,
          "velocity": 0.3937007874015748,
          "duration": 0.03409087500000396
        },
        {
          "name": "B2",
          "midi": 47,
          "time": 104.69307712500044,
          "velocity": 0.3937007874015748,
          "duration": 0.03409087500000396
        },
        {
          "name": "A#2",
          "midi": 46,
          "time": 104.72716800000045,
          "velocity": 0.3937007874015748,
          "duration": 0.03409087500000396
        },
        {
          "name": "B2",
          "midi": 47,
          "time": 104.76125887500045,
          "velocity": 0.3937007874015748,
          "duration": 0.03409087500000396
        },
        {
          "name": "A#2",
          "midi": 46,
          "time": 104.79534975000045,
          "velocity": 0.3937007874015748,
          "duration": 0.03409087500000396
        },
        {
          "name": "B2",
          "midi": 47,
          "time": 104.82944062500046,
          "velocity": 0.3937007874015748,
          "duration": 0.03409087500000396
        },
        {
          "name": "A#2",
          "midi": 46,
          "time": 104.86353150000046,
          "velocity": 0.3937007874015748,
          "duration": 0.03409087500000396
        },
        {
          "name": "B2",
          "midi": 47,
          "time": 104.89762237500047,
          "velocity": 0.3937007874015748,
          "duration": 0.03409087500000396
        },
        {
          "name": "A#2",
          "midi": 46,
          "time": 104.93171325000047,
          "velocity": 0.3937007874015748,
          "duration": 0.03409087500000396
        },
        {
          "name": "B2",
          "midi": 47,
          "time": 104.99989500000048,
          "velocity": 0.3937007874015748,
          "duration": 1.3636350000000022
        },
        {
          "name": "G#2",
          "midi": 44,
          "time": 106.36353000000048,
          "velocity": 0.3937007874015748,
          "duration": 1.3636350000000022
        },
        {
          "name": "A#2",
          "midi": 46,
          "time": 107.72716500000048,
          "velocity": 0.3937007874015748,
          "duration": 0.03409087500000396
        },
        {
          "name": "B2",
          "midi": 47,
          "time": 107.76125587500049,
          "velocity": 0.3937007874015748,
          "duration": 0.03409087500000396
        },
        {
          "name": "A#2",
          "midi": 46,
          "time": 107.79534675000049,
          "velocity": 0.3937007874015748,
          "duration": 0.03409087500000396
        },
        {
          "name": "B2",
          "midi": 47,
          "time": 107.8294376250005,
          "velocity": 0.3937007874015748,
          "duration": 0.03409087500000396
        },
        {
          "name": "A#2",
          "midi": 46,
          "time": 107.8635285000005,
          "velocity": 0.3937007874015748,
          "duration": 0.03409087500000396
        },
        {
          "name": "B2",
          "midi": 47,
          "time": 107.8976193750005,
          "velocity": 0.3937007874015748,
          "duration": 0.03409087500000396
        },
        {
          "name": "A#2",
          "midi": 46,
          "time": 107.9317102500005,
          "velocity": 0.3937007874015748,
          "duration": 0.03409087500000396
        },
        {
          "name": "B2",
          "midi": 47,
          "time": 107.96580112500051,
          "velocity": 0.3937007874015748,
          "duration": 0.03409087500000396
        },
        {
          "name": "A#2",
          "midi": 46,
          "time": 107.99989200000051,
          "velocity": 0.3937007874015748,
          "duration": 0.03409087500000396
        },
        {
          "name": "B2",
          "midi": 47,
          "time": 108.03398287500052,
          "velocity": 0.3937007874015748,
          "duration": 0.03409087500000396
        },
        {
          "name": "A#2",
          "midi": 46,
          "time": 108.06807375000052,
          "velocity": 0.3937007874015748,
          "duration": 0.03409087500000396
        },
        {
          "name": "B2",
          "midi": 47,
          "time": 108.10216462500053,
          "velocity": 0.3937007874015748,
          "duration": 0.03409087500000396
        },
        {
          "name": "A#2",
          "midi": 46,
          "time": 108.13625550000053,
          "velocity": 0.3937007874015748,
          "duration": 0.03409087500000396
        },
        {
          "name": "B2",
          "midi": 47,
          "time": 108.17034637500053,
          "velocity": 0.3937007874015748,
          "duration": 0.03409087500000396
        },
        {
          "name": "A#2",
          "midi": 46,
          "time": 108.20443725000054,
          "velocity": 0.3937007874015748,
          "duration": 0.03409087500000396
        },
        {
          "name": "B2",
          "midi": 47,
          "time": 108.23852812500054,
          "velocity": 0.3937007874015748,
          "duration": 0.03409087500000396
        },
        {
          "name": "A#2",
          "midi": 46,
          "time": 108.27261900000055,
          "velocity": 0.3937007874015748,
          "duration": 0.03409087500000396
        },
        {
          "name": "B2",
          "midi": 47,
          "time": 108.30670987500055,
          "velocity": 0.3937007874015748,
          "duration": 0.03409087500000396
        },
        {
          "name": "A#2",
          "midi": 46,
          "time": 108.34080075000055,
          "velocity": 0.3937007874015748,
          "duration": 0.03409087500000396
        },
        {
          "name": "B2",
          "midi": 47,
          "time": 108.37489162500056,
          "velocity": 0.3937007874015748,
          "duration": 0.03409087500000396
        },
        {
          "name": "A#2",
          "midi": 46,
          "time": 108.40898250000056,
          "velocity": 0.3937007874015748,
          "duration": 0.03409087500000396
        },
        {
          "name": "B2",
          "midi": 47,
          "time": 108.44307337500057,
          "velocity": 0.3937007874015748,
          "duration": 0.03409087500000396
        },
        {
          "name": "A#2",
          "midi": 46,
          "time": 108.47716425000057,
          "velocity": 0.3937007874015748,
          "duration": 0.03409087500000396
        },
        {
          "name": "B2",
          "midi": 47,
          "time": 108.51125512500057,
          "velocity": 0.3937007874015748,
          "duration": 0.03409087500000396
        },
        {
          "name": "A#2",
          "midi": 46,
          "time": 108.54534600000058,
          "velocity": 0.3937007874015748,
          "duration": 0.03409087500000396
        },
        {
          "name": "B2",
          "midi": 47,
          "time": 108.57943687500058,
          "velocity": 0.3937007874015748,
          "duration": 0.03409087500000396
        },
        {
          "name": "A#2",
          "midi": 46,
          "time": 108.61352775000059,
          "velocity": 0.3937007874015748,
          "duration": 0.03409087500000396
        },
        {
          "name": "B2",
          "midi": 47,
          "time": 108.64761862500059,
          "velocity": 0.3937007874015748,
          "duration": 0.03409087500000396
        },
        {
          "name": "A#2",
          "midi": 46,
          "time": 108.6817095000006,
          "velocity": 0.3937007874015748,
          "duration": 0.03409087500000396
        },
        {
          "name": "B2",
          "midi": 47,
          "time": 108.7158003750006,
          "velocity": 0.3937007874015748,
          "duration": 0.03409087500000396
        },
        {
          "name": "A#2",
          "midi": 46,
          "time": 108.7498912500006,
          "velocity": 0.3937007874015748,
          "duration": 0.03409087500000396
        },
        {
          "name": "B2",
          "midi": 47,
          "time": 108.7839821250006,
          "velocity": 0.3937007874015748,
          "duration": 0.03409087500000396
        },
        {
          "name": "A#2",
          "midi": 46,
          "time": 108.81807300000061,
          "velocity": 0.3937007874015748,
          "duration": 0.03409087500000396
        },
        {
          "name": "B2",
          "midi": 47,
          "time": 108.85216387500061,
          "velocity": 0.3937007874015748,
          "duration": 0.03409087500000396
        },
        {
          "name": "A#2",
          "midi": 46,
          "time": 108.88625475000062,
          "velocity": 0.3937007874015748,
          "duration": 0.03409087500000396
        },
        {
          "name": "B2",
          "midi": 47,
          "time": 108.92034562500062,
          "velocity": 0.3937007874015748,
          "duration": 0.03409087500000396
        },
        {
          "name": "A#2",
          "midi": 46,
          "time": 108.95443650000063,
          "velocity": 0.3937007874015748,
          "duration": 0.03409087500000396
        },
        {
          "name": "B2",
          "midi": 47,
          "time": 108.98852737500063,
          "velocity": 0.3937007874015748,
          "duration": 0.03409087500000396
        },
        {
          "name": "A#2",
          "midi": 46,
          "time": 109.02261825000063,
          "velocity": 0.3937007874015748,
          "duration": 0.03409087500000396
        },
        {
          "name": "B2",
          "midi": 47,
          "time": 109.05670912500064,
          "velocity": 0.3937007874015748,
          "duration": 0.03409087500000396
        },
        {
          "name": "A#2",
          "midi": 46,
          "time": 109.09080000000064,
          "velocity": 0.3937007874015748,
          "duration": 0.03409087500000396
        },
        {
          "name": "B2",
          "midi": 47,
          "time": 109.12489087500064,
          "velocity": 0.3937007874015748,
          "duration": 0.03409087500000396
        },
        {
          "name": "A#2",
          "midi": 46,
          "time": 109.15898175000065,
          "velocity": 0.3937007874015748,
          "duration": 0.03409087500000396
        },
        {
          "name": "B2",
          "midi": 47,
          "time": 109.19307262500065,
          "velocity": 0.3937007874015748,
          "duration": 0.03409087500000396
        },
        {
          "name": "A#2",
          "midi": 46,
          "time": 109.22716350000066,
          "velocity": 0.3937007874015748,
          "duration": 0.03409087500000396
        },
        {
          "name": "B2",
          "midi": 47,
          "time": 109.26125437500066,
          "velocity": 0.3937007874015748,
          "duration": 0.03409087500000396
        },
        {
          "name": "A#2",
          "midi": 46,
          "time": 109.29534525000066,
          "velocity": 0.3937007874015748,
          "duration": 0.03409087500000396
        },
        {
          "name": "B2",
          "midi": 47,
          "time": 109.32943612500067,
          "velocity": 0.3937007874015748,
          "duration": 0.03409087500000396
        },
        {
          "name": "A#2",
          "midi": 46,
          "time": 109.36352700000067,
          "velocity": 0.3937007874015748,
          "duration": 0.03409087500000396
        },
        {
          "name": "B2",
          "midi": 47,
          "time": 109.39761787500068,
          "velocity": 0.3937007874015748,
          "duration": 0.03409087500000396
        },
        {
          "name": "A#2",
          "midi": 46,
          "time": 109.43170875000068,
          "velocity": 0.3937007874015748,
          "duration": 0.03409087500000396
        },
        {
          "name": "B2",
          "midi": 47,
          "time": 109.46579962500068,
          "velocity": 0.3937007874015748,
          "duration": 0.03409087500000396
        },
        {
          "name": "A#2",
          "midi": 46,
          "time": 109.49989050000069,
          "velocity": 0.3937007874015748,
          "duration": 0.03409087500000396
        },
        {
          "name": "B2",
          "midi": 47,
          "time": 109.53398137500069,
          "velocity": 0.3937007874015748,
          "duration": 0.03409087500000396
        },
        {
          "name": "A#2",
          "midi": 46,
          "time": 109.5680722500007,
          "velocity": 0.3937007874015748,
          "duration": 0.03409087500000396
        },
        {
          "name": "B2",
          "midi": 47,
          "time": 109.6021631250007,
          "velocity": 0.3937007874015748,
          "duration": 0.03409087500000396
        },
        {
          "name": "A#2",
          "midi": 46,
          "time": 109.6362540000007,
          "velocity": 0.3937007874015748,
          "duration": 0.03409087500000396
        },
        {
          "name": "B2",
          "midi": 47,
          "time": 109.67034487500071,
          "velocity": 0.3937007874015748,
          "duration": 0.03409087500000396
        },
        {
          "name": "A#2",
          "midi": 46,
          "time": 109.70443575000071,
          "velocity": 0.3937007874015748,
          "duration": 0.03409087500000396
        },
        {
          "name": "B2",
          "midi": 47,
          "time": 109.73852662500072,
          "velocity": 0.3937007874015748,
          "duration": 0.03409087500000396
        },
        {
          "name": "A#2",
          "midi": 46,
          "time": 109.77261750000072,
          "velocity": 0.3937007874015748,
          "duration": 0.03409087500000396
        },
        {
          "name": "B2",
          "midi": 47,
          "time": 109.80670837500072,
          "velocity": 0.3937007874015748,
          "duration": 0.03409087500000396
        },
        {
          "name": "A#2",
          "midi": 46,
          "time": 109.84079925000073,
          "velocity": 0.3937007874015748,
          "duration": 0.03409087500000396
        },
        {
          "name": "B2",
          "midi": 47,
          "time": 109.87489012500073,
          "velocity": 0.3937007874015748,
          "duration": 0.03409087500000396
        },
        {
          "name": "A#2",
          "midi": 46,
          "time": 109.90898100000074,
          "velocity": 0.3937007874015748,
          "duration": 0.03409087500000396
        },
        {
          "name": "B2",
          "midi": 47,
          "time": 109.94307187500074,
          "velocity": 0.3937007874015748,
          "duration": 0.03409087500000396
        },
        {
          "name": "A#2",
          "midi": 46,
          "time": 109.97716275000074,
          "velocity": 0.3937007874015748,
          "duration": 0.03409087500000396
        },
        {
          "name": "B2",
          "midi": 47,
          "time": 110.01125362500075,
          "velocity": 0.3937007874015748,
          "duration": 0.03409087500000396
        },
        {
          "name": "A#2",
          "midi": 46,
          "time": 110.04534450000075,
          "velocity": 0.3937007874015748,
          "duration": 0.03409087500000396
        },
        {
          "name": "B2",
          "midi": 47,
          "time": 110.07943537500076,
          "velocity": 0.3937007874015748,
          "duration": 0.03409087500000396
        },
        {
          "name": "A#2",
          "midi": 46,
          "time": 110.11352625000076,
          "velocity": 0.3937007874015748,
          "duration": 0.03409087500000396
        },
        {
          "name": "B2",
          "midi": 47,
          "time": 110.14761712500076,
          "velocity": 0.3937007874015748,
          "duration": 0.03409087500000396
        },
        {
          "name": "A#2",
          "midi": 46,
          "time": 110.18170800000077,
          "velocity": 0.3937007874015748,
          "duration": 0.03409087500000396
        },
        {
          "name": "B2",
          "midi": 47,
          "time": 110.21579887500077,
          "velocity": 0.3937007874015748,
          "duration": 0.03409087500000396
        },
        {
          "name": "A#2",
          "midi": 46,
          "time": 110.24988975000078,
          "velocity": 0.3937007874015748,
          "duration": 0.03409087500000396
        },
        {
          "name": "B2",
          "midi": 47,
          "time": 110.28398062500078,
          "velocity": 0.3937007874015748,
          "duration": 0.03409087500000396
        },
        {
          "name": "A#2",
          "midi": 46,
          "time": 110.31807150000078,
          "velocity": 0.3937007874015748,
          "duration": 0.03409087500000396
        },
        {
          "name": "B2",
          "midi": 47,
          "time": 110.35216237500079,
          "velocity": 0.3937007874015748,
          "duration": 0.03409087500000396
        },
        {
          "name": "A#2",
          "midi": 46,
          "time": 110.38625325000079,
          "velocity": 0.3937007874015748,
          "duration": 0.03409087500000396
        },
        {
          "name": "B2",
          "midi": 47,
          "time": 110.4203441250008,
          "velocity": 0.3937007874015748,
          "duration": 0.03409087500000396
        },
        {
          "name": "B2",
          "midi": 47,
          "time": 110.4544350000008,
          "velocity": 0.3937007874015748,
          "duration": 1.3636350000000022
        },
        {
          "name": "G#2",
          "midi": 44,
          "time": 111.8180700000008,
          "velocity": 0.3937007874015748,
          "duration": 1.3636350000000022
        },
        {
          "name": "A#2",
          "midi": 46,
          "time": 113.1817050000008,
          "velocity": 0.3937007874015748,
          "duration": 0.03409087500000396
        },
        {
          "name": "B2",
          "midi": 47,
          "time": 113.21579587500081,
          "velocity": 0.3937007874015748,
          "duration": 0.03409087500000396
        },
        {
          "name": "A#2",
          "midi": 46,
          "time": 113.24988675000081,
          "velocity": 0.3937007874015748,
          "duration": 0.03409087500000396
        },
        {
          "name": "B2",
          "midi": 47,
          "time": 113.28397762500082,
          "velocity": 0.3937007874015748,
          "duration": 0.03409087500000396
        },
        {
          "name": "A#2",
          "midi": 46,
          "time": 113.31806850000082,
          "velocity": 0.3937007874015748,
          "duration": 0.03409087500000396
        },
        {
          "name": "B2",
          "midi": 47,
          "time": 113.35215937500082,
          "velocity": 0.3937007874015748,
          "duration": 0.03409087500000396
        },
        {
          "name": "A#2",
          "midi": 46,
          "time": 113.38625025000083,
          "velocity": 0.3937007874015748,
          "duration": 0.03409087500000396
        },
        {
          "name": "B2",
          "midi": 47,
          "time": 113.42034112500083,
          "velocity": 0.3937007874015748,
          "duration": 0.03409087500000396
        },
        {
          "name": "A#2",
          "midi": 46,
          "time": 113.45443200000084,
          "velocity": 0.3937007874015748,
          "duration": 0.03409087500000396
        },
        {
          "name": "B2",
          "midi": 47,
          "time": 113.48852287500084,
          "velocity": 0.3937007874015748,
          "duration": 0.03409087500000396
        },
        {
          "name": "A#2",
          "midi": 46,
          "time": 113.52261375000084,
          "velocity": 0.3937007874015748,
          "duration": 0.03409087500000396
        },
        {
          "name": "B2",
          "midi": 47,
          "time": 113.55670462500085,
          "velocity": 0.3937007874015748,
          "duration": 0.03409087500000396
        },
        {
          "name": "A#2",
          "midi": 46,
          "time": 113.59079550000085,
          "velocity": 0.3937007874015748,
          "duration": 0.03409087500000396
        },
        {
          "name": "B2",
          "midi": 47,
          "time": 113.62488637500086,
          "velocity": 0.3937007874015748,
          "duration": 0.03409087500000396
        },
        {
          "name": "A#2",
          "midi": 46,
          "time": 113.65897725000086,
          "velocity": 0.3937007874015748,
          "duration": 0.03409087500000396
        },
        {
          "name": "B2",
          "midi": 47,
          "time": 113.69306812500086,
          "velocity": 0.3937007874015748,
          "duration": 0.03409087500000396
        },
        {
          "name": "A#2",
          "midi": 46,
          "time": 113.72715900000087,
          "velocity": 0.3937007874015748,
          "duration": 0.03409087500000396
        },
        {
          "name": "B2",
          "midi": 47,
          "time": 113.76124987500087,
          "velocity": 0.3937007874015748,
          "duration": 0.03409087500000396
        },
        {
          "name": "A#2",
          "midi": 46,
          "time": 113.79534075000088,
          "velocity": 0.3937007874015748,
          "duration": 0.03409087500000396
        },
        {
          "name": "B2",
          "midi": 47,
          "time": 113.82943162500088,
          "velocity": 0.3937007874015748,
          "duration": 0.03409087500000396
        },
        {
          "name": "A#2",
          "midi": 46,
          "time": 113.86352250000088,
          "velocity": 0.3937007874015748,
          "duration": 0.03409087500000396
        },
        {
          "name": "B2",
          "midi": 47,
          "time": 113.89761337500089,
          "velocity": 0.3937007874015748,
          "duration": 0.03409087500000396
        },
        {
          "name": "A#2",
          "midi": 46,
          "time": 113.93170425000089,
          "velocity": 0.3937007874015748,
          "duration": 0.03409087500000396
        },
        {
          "name": "B2",
          "midi": 47,
          "time": 113.9657951250009,
          "velocity": 0.3937007874015748,
          "duration": 0.03409087500000396
        },
        {
          "name": "A#2",
          "midi": 46,
          "time": 113.9998860000009,
          "velocity": 0.3937007874015748,
          "duration": 0.03409087500000396
        },
        {
          "name": "B2",
          "midi": 47,
          "time": 114.0339768750009,
          "velocity": 0.3937007874015748,
          "duration": 0.03409087500000396
        },
        {
          "name": "A#2",
          "midi": 46,
          "time": 114.0680677500009,
          "velocity": 0.3937007874015748,
          "duration": 0.03409087500000396
        },
        {
          "name": "B2",
          "midi": 47,
          "time": 114.10215862500091,
          "velocity": 0.3937007874015748,
          "duration": 0.03409087500000396
        },
        {
          "name": "A#2",
          "midi": 46,
          "time": 114.13624950000091,
          "velocity": 0.3937007874015748,
          "duration": 0.03409087500000396
        },
        {
          "name": "B2",
          "midi": 47,
          "time": 114.17034037500092,
          "velocity": 0.3937007874015748,
          "duration": 0.03409087500000396
        },
        {
          "name": "A#2",
          "midi": 46,
          "time": 114.20443125000092,
          "velocity": 0.3937007874015748,
          "duration": 0.03409087500000396
        },
        {
          "name": "B2",
          "midi": 47,
          "time": 114.23852212500093,
          "velocity": 0.3937007874015748,
          "duration": 0.03409087500000396
        },
        {
          "name": "A#2",
          "midi": 46,
          "time": 114.27261300000093,
          "velocity": 0.3937007874015748,
          "duration": 0.03409087500000396
        },
        {
          "name": "B2",
          "midi": 47,
          "time": 114.30670387500093,
          "velocity": 0.3937007874015748,
          "duration": 0.03409087500000396
        },
        {
          "name": "A#2",
          "midi": 46,
          "time": 114.34079475000094,
          "velocity": 0.3937007874015748,
          "duration": 0.03409087500000396
        },
        {
          "name": "B2",
          "midi": 47,
          "time": 114.37488562500094,
          "velocity": 0.3937007874015748,
          "duration": 0.03409087500000396
        },
        {
          "name": "A#2",
          "midi": 46,
          "time": 114.40897650000095,
          "velocity": 0.3937007874015748,
          "duration": 0.03409087500000396
        },
        {
          "name": "B2",
          "midi": 47,
          "time": 114.44306737500095,
          "velocity": 0.3937007874015748,
          "duration": 0.03409087500000396
        },
        {
          "name": "A#2",
          "midi": 46,
          "time": 114.47715825000095,
          "velocity": 0.3937007874015748,
          "duration": 0.03409087500000396
        },
        {
          "name": "B2",
          "midi": 47,
          "time": 114.51124912500096,
          "velocity": 0.3937007874015748,
          "duration": 0.03409087500000396
        },
        {
          "name": "A#2",
          "midi": 46,
          "time": 114.54534000000096,
          "velocity": 0.3937007874015748,
          "duration": 0.03409087500000396
        },
        {
          "name": "B2",
          "midi": 47,
          "time": 114.57943087500097,
          "velocity": 0.3937007874015748,
          "duration": 0.03409087500000396
        },
        {
          "name": "A#2",
          "midi": 46,
          "time": 114.61352175000097,
          "velocity": 0.3937007874015748,
          "duration": 0.03409087500000396
        },
        {
          "name": "B2",
          "midi": 47,
          "time": 114.64761262500097,
          "velocity": 0.3937007874015748,
          "duration": 0.03409087500000396
        },
        {
          "name": "A#2",
          "midi": 46,
          "time": 114.68170350000098,
          "velocity": 0.3937007874015748,
          "duration": 0.03409087500000396
        },
        {
          "name": "B2",
          "midi": 47,
          "time": 114.71579437500098,
          "velocity": 0.3937007874015748,
          "duration": 0.03409087500000396
        },
        {
          "name": "A#2",
          "midi": 46,
          "time": 114.74988525000099,
          "velocity": 0.3937007874015748,
          "duration": 0.03409087500000396
        },
        {
          "name": "B2",
          "midi": 47,
          "time": 114.78397612500099,
          "velocity": 0.3937007874015748,
          "duration": 0.03409087500000396
        },
        {
          "name": "A#2",
          "midi": 46,
          "time": 114.818067000001,
          "velocity": 0.3937007874015748,
          "duration": 0.03409087500000396
        },
        {
          "name": "B2",
          "midi": 47,
          "time": 114.852157875001,
          "velocity": 0.3937007874015748,
          "duration": 0.03409087500000396
        },
        {
          "name": "A#2",
          "midi": 46,
          "time": 114.886248750001,
          "velocity": 0.3937007874015748,
          "duration": 0.03409087500000396
        },
        {
          "name": "B2",
          "midi": 47,
          "time": 114.920339625001,
          "velocity": 0.3937007874015748,
          "duration": 0.03409087500000396
        },
        {
          "name": "A#2",
          "midi": 46,
          "time": 114.95443050000101,
          "velocity": 0.3937007874015748,
          "duration": 0.03409087500000396
        },
        {
          "name": "B2",
          "midi": 47,
          "time": 114.98852137500101,
          "velocity": 0.3937007874015748,
          "duration": 0.03409087500000396
        },
        {
          "name": "A#2",
          "midi": 46,
          "time": 115.02261225000102,
          "velocity": 0.3937007874015748,
          "duration": 0.03409087500000396
        },
        {
          "name": "B2",
          "midi": 47,
          "time": 115.05670312500102,
          "velocity": 0.3937007874015748,
          "duration": 0.03409087500000396
        },
        {
          "name": "A#2",
          "midi": 46,
          "time": 115.09079400000103,
          "velocity": 0.3937007874015748,
          "duration": 0.03409087500000396
        },
        {
          "name": "B2",
          "midi": 47,
          "time": 115.12488487500103,
          "velocity": 0.3937007874015748,
          "duration": 0.03409087500000396
        },
        {
          "name": "A#2",
          "midi": 46,
          "time": 115.15897575000103,
          "velocity": 0.3937007874015748,
          "duration": 0.03409087500000396
        },
        {
          "name": "B2",
          "midi": 47,
          "time": 115.19306662500104,
          "velocity": 0.3937007874015748,
          "duration": 0.03409087500000396
        },
        {
          "name": "A#2",
          "midi": 46,
          "time": 115.22715750000104,
          "velocity": 0.3937007874015748,
          "duration": 0.03409087500000396
        },
        {
          "name": "B2",
          "midi": 47,
          "time": 115.26124837500105,
          "velocity": 0.3937007874015748,
          "duration": 0.03409087500000396
        },
        {
          "name": "A#2",
          "midi": 46,
          "time": 115.29533925000105,
          "velocity": 0.3937007874015748,
          "duration": 0.03409087500000396
        },
        {
          "name": "B2",
          "midi": 47,
          "time": 115.32943012500105,
          "velocity": 0.3937007874015748,
          "duration": 0.03409087500000396
        },
        {
          "name": "A#2",
          "midi": 46,
          "time": 115.36352100000106,
          "velocity": 0.3937007874015748,
          "duration": 0.03409087500000396
        },
        {
          "name": "B2",
          "midi": 47,
          "time": 115.39761187500106,
          "velocity": 0.3937007874015748,
          "duration": 0.03409087500000396
        },
        {
          "name": "A#2",
          "midi": 46,
          "time": 115.43170275000107,
          "velocity": 0.3937007874015748,
          "duration": 0.03409087500000396
        },
        {
          "name": "B2",
          "midi": 47,
          "time": 115.46579362500107,
          "velocity": 0.3937007874015748,
          "duration": 0.03409087500000396
        },
        {
          "name": "A#2",
          "midi": 46,
          "time": 115.49988450000107,
          "velocity": 0.3937007874015748,
          "duration": 0.03409087500000396
        },
        {
          "name": "B2",
          "midi": 47,
          "time": 115.53397537500108,
          "velocity": 0.3937007874015748,
          "duration": 0.03409087500000396
        },
        {
          "name": "A#2",
          "midi": 46,
          "time": 115.56806625000108,
          "velocity": 0.3937007874015748,
          "duration": 0.03409087500000396
        },
        {
          "name": "B2",
          "midi": 47,
          "time": 115.60215712500109,
          "velocity": 0.3937007874015748,
          "duration": 0.03409087500000396
        },
        {
          "name": "A#2",
          "midi": 46,
          "time": 115.63624800000109,
          "velocity": 0.3937007874015748,
          "duration": 0.03409087500000396
        },
        {
          "name": "B2",
          "midi": 47,
          "time": 115.6703388750011,
          "velocity": 0.3937007874015748,
          "duration": 0.03409087500000396
        },
        {
          "name": "A#2",
          "midi": 46,
          "time": 115.7044297500011,
          "velocity": 0.3937007874015748,
          "duration": 0.03409087500000396
        },
        {
          "name": "B2",
          "midi": 47,
          "time": 115.7385206250011,
          "velocity": 0.3937007874015748,
          "duration": 0.03409087500000396
        },
        {
          "name": "A#2",
          "midi": 46,
          "time": 115.7726115000011,
          "velocity": 0.3937007874015748,
          "duration": 0.03409087500000396
        },
        {
          "name": "B2",
          "midi": 47,
          "time": 115.80670237500111,
          "velocity": 0.3937007874015748,
          "duration": 0.03409087500000396
        },
        {
          "name": "A#2",
          "midi": 46,
          "time": 115.84079325000111,
          "velocity": 0.3937007874015748,
          "duration": 0.03409087500000396
        }
      ],
      "controlChanges": {},
      "id": 7,
      "name": "8-Bit Sawtooth",
      "instrumentNumber": 81,
      "instrument": "lead 2 (sawtooth)",
      "instrumentFamily": "synth lead",
      "channelNumber": 6,
      "isPercussion": false
    },
    {
      "startTime": 24.54543,
      "duration": 115.9089750000001,
      "length": 146,
      "notes": [
        {
          "name": "D#2",
          "midi": 39,
          "time": 24.54543,
          "velocity": 0.3937007874015748,
          "duration": 1.3636349999999986
        },
        {
          "name": "B1",
          "midi": 35,
          "time": 25.909065,
          "velocity": 0.3937007874015748,
          "duration": 1.3636349999999986
        },
        {
          "name": "D#2",
          "midi": 39,
          "time": 27.272699999999997,
          "velocity": 0.3937007874015748,
          "duration": 2.0454524999999997
        },
        {
          "name": "G#1",
          "midi": 32,
          "time": 29.318152499999997,
          "velocity": 0.3937007874015748,
          "duration": 0.13636350000000164
        },
        {
          "name": "A#1",
          "midi": 34,
          "time": 29.454515999999998,
          "velocity": 0.3937007874015748,
          "duration": 0.13636350000000164
        },
        {
          "name": "B1",
          "midi": 35,
          "time": 29.5908795,
          "velocity": 0.3937007874015748,
          "duration": 0.13636350000000164
        },
        {
          "name": "C#2",
          "midi": 37,
          "time": 29.727243,
          "velocity": 0.3937007874015748,
          "duration": 0.13636350000000164
        },
        {
          "name": "D#2",
          "midi": 39,
          "time": 29.863606500000003,
          "velocity": 0.3937007874015748,
          "duration": 0.13636350000000164
        },
        {
          "name": "G#2",
          "midi": 44,
          "time": 29.999970000000005,
          "velocity": 0.3937007874015748,
          "duration": 1.3636349999999986
        },
        {
          "name": "E2",
          "midi": 40,
          "time": 31.363605000000003,
          "velocity": 0.3937007874015748,
          "duration": 1.3636349999999986
        },
        {
          "name": "D#2",
          "midi": 39,
          "time": 32.72724,
          "velocity": 0.3937007874015748,
          "duration": 2.0454525000000032
        },
        {
          "name": "D#2",
          "midi": 39,
          "time": 34.772692500000005,
          "velocity": 0.3937007874015748,
          "duration": 0.13636350000000164
        },
        {
          "name": "C#2",
          "midi": 37,
          "time": 34.90905600000001,
          "velocity": 0.3937007874015748,
          "duration": 0.13636350000000164
        },
        {
          "name": "B1",
          "midi": 35,
          "time": 35.04541950000001,
          "velocity": 0.3937007874015748,
          "duration": 0.13636350000000164
        },
        {
          "name": "A#1",
          "midi": 34,
          "time": 35.18178300000001,
          "velocity": 0.3937007874015748,
          "duration": 0.13636350000000164
        },
        {
          "name": "G#1",
          "midi": 32,
          "time": 35.31814650000001,
          "velocity": 0.3937007874015748,
          "duration": 0.13636350000000164
        },
        {
          "name": "G#1",
          "midi": 32,
          "time": 35.45451000000001,
          "velocity": 0.3937007874015748,
          "duration": 0.13636350000000164
        },
        {
          "name": "E1",
          "midi": 28,
          "time": 36.818145000000015,
          "velocity": 0.3937007874015748,
          "duration": 0.13636350000000164
        },
        {
          "name": "D#1",
          "midi": 27,
          "time": 38.18178000000002,
          "velocity": 0.3937007874015748,
          "duration": 0.13636350000000164
        },
        {
          "name": "F#1",
          "midi": 30,
          "time": 40.22723250000002,
          "velocity": 0.3937007874015748,
          "duration": 0.13636350000000164
        },
        {
          "name": "E1",
          "midi": 28,
          "time": 40.36359600000002,
          "velocity": 0.3937007874015748,
          "duration": 0.13636350000000164
        },
        {
          "name": "C#1",
          "midi": 25,
          "time": 40.499959500000024,
          "velocity": 0.3937007874015748,
          "duration": 0.13636350000000164
        },
        {
          "name": "D1",
          "midi": 26,
          "time": 40.636323000000026,
          "velocity": 0.3937007874015748,
          "duration": 0.13636350000000164
        },
        {
          "name": "D#1",
          "midi": 27,
          "time": 40.77268650000003,
          "velocity": 0.3937007874015748,
          "duration": 0.13636350000000164
        },
        {
          "name": "G#1",
          "midi": 32,
          "time": 40.90905000000003,
          "velocity": 0.3937007874015748,
          "duration": 0.13636350000000164
        },
        {
          "name": "E1",
          "midi": 28,
          "time": 42.27268500000003,
          "velocity": 0.3937007874015748,
          "duration": 0.13636350000000164
        },
        {
          "name": "D#1",
          "midi": 27,
          "time": 43.63632000000003,
          "velocity": 0.3937007874015748,
          "duration": 0.13636350000000164
        },
        {
          "name": "F#1",
          "midi": 30,
          "time": 45.68177250000004,
          "velocity": 0.3937007874015748,
          "duration": 0.13636350000000164
        },
        {
          "name": "E1",
          "midi": 28,
          "time": 45.81813600000004,
          "velocity": 0.3937007874015748,
          "duration": 0.13636350000000164
        },
        {
          "name": "C#1",
          "midi": 25,
          "time": 45.95449950000004,
          "velocity": 0.3937007874015748,
          "duration": 0.13636350000000164
        },
        {
          "name": "D1",
          "midi": 26,
          "time": 46.09086300000004,
          "velocity": 0.3937007874015748,
          "duration": 0.13636350000000164
        },
        {
          "name": "D#1",
          "midi": 27,
          "time": 46.22722650000004,
          "velocity": 0.3937007874015748,
          "duration": 0.13636350000000164
        },
        {
          "name": "G#1",
          "midi": 32,
          "time": 46.363590000000045,
          "velocity": 0.3937007874015748,
          "duration": 0.13636350000000164
        },
        {
          "name": "G#1",
          "midi": 32,
          "time": 47.454498000000044,
          "velocity": 0.3937007874015748,
          "duration": 0.13636350000000164
        },
        {
          "name": "E1",
          "midi": 28,
          "time": 47.72722500000005,
          "velocity": 0.3937007874015748,
          "duration": 0.13636350000000164
        },
        {
          "name": "E1",
          "midi": 28,
          "time": 48.818133000000046,
          "velocity": 0.3937007874015748,
          "duration": 0.13636350000000164
        },
        {
          "name": "D#1",
          "midi": 27,
          "time": 49.09086000000005,
          "velocity": 0.3937007874015748,
          "duration": 0.13636350000000164
        },
        {
          "name": "D#1",
          "midi": 27,
          "time": 50.45449500000005,
          "velocity": 0.3937007874015748,
          "duration": 0.13636350000000164
        },
        {
          "name": "F#1",
          "midi": 30,
          "time": 51.54540300000005,
          "velocity": 0.3937007874015748,
          "duration": 0.13636350000000164
        },
        {
          "name": "G1",
          "midi": 31,
          "time": 51.68176650000005,
          "velocity": 0.3937007874015748,
          "duration": 0.13636350000000164
        },
        {
          "name": "G#1",
          "midi": 32,
          "time": 51.81813000000005,
          "velocity": 0.3937007874015748,
          "duration": 0.13636350000000164
        },
        {
          "name": "G#1",
          "midi": 32,
          "time": 52.90903800000005,
          "velocity": 0.3937007874015748,
          "duration": 0.13636350000000164
        },
        {
          "name": "E1",
          "midi": 28,
          "time": 53.181765000000055,
          "velocity": 0.3937007874015748,
          "duration": 0.13636350000000164
        },
        {
          "name": "E1",
          "midi": 28,
          "time": 54.272673000000054,
          "velocity": 0.3937007874015748,
          "duration": 0.13636350000000164
        },
        {
          "name": "D#1",
          "midi": 27,
          "time": 54.54540000000006,
          "velocity": 0.3937007874015748,
          "duration": 0.13636350000000164
        },
        {
          "name": "D#1",
          "midi": 27,
          "time": 55.63630800000006,
          "velocity": 0.3937007874015748,
          "duration": 0.13636350000000164
        },
        {
          "name": "D#1",
          "midi": 27,
          "time": 55.90903500000006,
          "velocity": 0.3937007874015748,
          "duration": 0.13636350000000164
        },
        {
          "name": "F#1",
          "midi": 30,
          "time": 56.59085250000006,
          "velocity": 0.3937007874015748,
          "duration": 0.13636350000000164
        },
        {
          "name": "E1",
          "midi": 28,
          "time": 56.72721600000006,
          "velocity": 0.3937007874015748,
          "duration": 0.13636350000000164
        },
        {
          "name": "C#1",
          "midi": 25,
          "time": 56.863579500000064,
          "velocity": 0.3937007874015748,
          "duration": 0.13636350000000164
        },
        {
          "name": "D1",
          "midi": 26,
          "time": 56.999943000000066,
          "velocity": 0.3937007874015748,
          "duration": 0.13636350000000164
        },
        {
          "name": "D#1",
          "midi": 27,
          "time": 57.13630650000007,
          "velocity": 0.3937007874015748,
          "duration": 0.13636350000000164
        },
        {
          "name": "G#1",
          "midi": 32,
          "time": 57.27267000000007,
          "velocity": 0.3937007874015748,
          "duration": 0.13636350000000164
        },
        {
          "name": "E2",
          "midi": 40,
          "time": 64.95448050000007,
          "velocity": 0.3937007874015748,
          "duration": 0.13636350000000164
        },
        {
          "name": "E2",
          "midi": 40,
          "time": 65.13629850000008,
          "velocity": 0.3937007874015748,
          "duration": 0.13636350000000164
        },
        {
          "name": "A1",
          "midi": 33,
          "time": 65.45448000000009,
          "velocity": 0.3937007874015748,
          "duration": 0.13636350000000164
        },
        {
          "name": "C#2",
          "midi": 37,
          "time": 66.81811500000009,
          "velocity": 0.3937007874015748,
          "duration": 0.13636350000000164
        },
        {
          "name": "E2",
          "midi": 40,
          "time": 67.77265950000009,
          "velocity": 0.3937007874015748,
          "duration": 0.13636350000000164
        },
        {
          "name": "G#1",
          "midi": 32,
          "time": 68.14765912500009,
          "velocity": 0.3937007874015748,
          "duration": 0.2727270000000033
        },
        {
          "name": "G#2",
          "midi": 44,
          "time": 68.1817500000001,
          "velocity": 0.3937007874015748,
          "duration": 0.13636350000000164
        },
        {
          "name": "C2",
          "midi": 36,
          "time": 69.95447550000009,
          "velocity": 0.3937007874015748,
          "duration": 0.13636350000000164
        },
        {
          "name": "C3",
          "midi": 48,
          "time": 69.98856637500009,
          "velocity": 0.3937007874015748,
          "duration": 0.13636350000000164
        },
        {
          "name": "D#3",
          "midi": 51,
          "time": 70.32947512500009,
          "velocity": 0.3937007874015748,
          "duration": 0.13636350000000164
        },
        {
          "name": "D#2",
          "midi": 39,
          "time": 70.36356600000009,
          "velocity": 0.3937007874015748,
          "duration": 0.13636350000000164
        },
        {
          "name": "C#3",
          "midi": 49,
          "time": 70.9090200000001,
          "velocity": 0.3937007874015748,
          "duration": 0.13636350000000164
        },
        {
          "name": "C#2",
          "midi": 37,
          "time": 70.9431108750001,
          "velocity": 0.3937007874015748,
          "duration": 0.13636350000000164
        },
        {
          "name": "C#3",
          "midi": 49,
          "time": 72.7499272500001,
          "velocity": 0.3937007874015748,
          "duration": 0.06818174999999371
        },
        {
          "name": "C#3",
          "midi": 49,
          "time": 72.9544725000001,
          "velocity": 0.3937007874015748,
          "duration": 0.06818174999999371
        },
        {
          "name": "G#2",
          "midi": 44,
          "time": 73.15901775000009,
          "velocity": 0.3937007874015748,
          "duration": 0.06818174999999371
        },
        {
          "name": "B2",
          "midi": 47,
          "time": 73.63629000000009,
          "velocity": 0.3937007874015748,
          "duration": 0.06818174999999371
        },
        {
          "name": "B2",
          "midi": 47,
          "time": 73.77265350000008,
          "velocity": 0.3937007874015748,
          "duration": 0.06818174999999371
        },
        {
          "name": "B2",
          "midi": 47,
          "time": 73.90901700000006,
          "velocity": 0.3937007874015748,
          "duration": 0.06818174999999371
        },
        {
          "name": "B2",
          "midi": 47,
          "time": 74.04538050000005,
          "velocity": 0.3937007874015748,
          "duration": 0.06818174999999371
        },
        {
          "name": "A2",
          "midi": 45,
          "time": 74.18174400000004,
          "velocity": 0.3937007874015748,
          "duration": 0.06818174999999371
        },
        {
          "name": "A#1",
          "midi": 34,
          "time": 84.54537000000003,
          "velocity": 0.3937007874015748,
          "duration": 2.7272700000000043
        },
        {
          "name": "G#1",
          "midi": 32,
          "time": 87.27264000000004,
          "velocity": 0.3937007874015748,
          "duration": 1.3636350000000022
        },
        {
          "name": "G#2",
          "midi": 44,
          "time": 94.09081500000003,
          "velocity": 0.3937007874015748,
          "duration": 0.13636350000000164
        },
        {
          "name": "E2",
          "midi": 40,
          "time": 95.45445000000004,
          "velocity": 0.3937007874015748,
          "duration": 1.3636350000000022
        },
        {
          "name": "D#2",
          "midi": 39,
          "time": 96.81808500000004,
          "velocity": 0.3937007874015748,
          "duration": 1.0909079999999989
        },
        {
          "name": "A#1",
          "midi": 34,
          "time": 97.90899300000004,
          "velocity": 0.3937007874015748,
          "duration": 0.13636350000000164
        },
        {
          "name": "C#2",
          "midi": 37,
          "time": 98.04535650000004,
          "velocity": 0.3937007874015748,
          "duration": 0.13636350000000164
        },
        {
          "name": "D#2",
          "midi": 39,
          "time": 98.18172000000004,
          "velocity": 0.3937007874015748,
          "duration": 0.681817499999994
        },
        {
          "name": "F2",
          "midi": 41,
          "time": 98.86353750000004,
          "velocity": 0.3937007874015748,
          "duration": 0.13636350000000164
        },
        {
          "name": "D#2",
          "midi": 39,
          "time": 98.99990100000004,
          "velocity": 0.3937007874015748,
          "duration": 0.13636350000000164
        },
        {
          "name": "B1",
          "midi": 35,
          "time": 99.13626450000004,
          "velocity": 0.3937007874015748,
          "duration": 0.13636350000000164
        },
        {
          "name": "C#2",
          "midi": 37,
          "time": 99.27262800000004,
          "velocity": 0.3937007874015748,
          "duration": 0.13636350000000164
        },
        {
          "name": "D2",
          "midi": 38,
          "time": 99.40899150000004,
          "velocity": 0.3937007874015748,
          "duration": 0.13636350000000164
        },
        {
          "name": "G#2",
          "midi": 44,
          "time": 99.54535500000004,
          "velocity": 0.3937007874015748,
          "duration": 1.3636350000000022
        },
        {
          "name": "E2",
          "midi": 40,
          "time": 100.90899000000005,
          "velocity": 0.3937007874015748,
          "duration": 0.8181809999999956
        },
        {
          "name": "E2",
          "midi": 40,
          "time": 101.86353450000004,
          "velocity": 0.3937007874015748,
          "duration": 0.13636350000000164
        },
        {
          "name": "F#2",
          "midi": 42,
          "time": 101.99989800000004,
          "velocity": 0.3937007874015748,
          "duration": 0.13636350000000164
        },
        {
          "name": "E2",
          "midi": 40,
          "time": 102.13626150000005,
          "velocity": 0.3937007874015748,
          "duration": 0.13636350000000164
        },
        {
          "name": "D#2",
          "midi": 39,
          "time": 102.27262500000005,
          "velocity": 0.3937007874015748,
          "duration": 0.13636350000000164
        },
        {
          "name": "A#1",
          "midi": 34,
          "time": 102.40898850000005,
          "velocity": 0.3937007874015748,
          "duration": 0.13636350000000164
        },
        {
          "name": "C#2",
          "midi": 37,
          "time": 102.54535200000005,
          "velocity": 0.3937007874015748,
          "duration": 0.13636350000000164
        },
        {
          "name": "D#2",
          "midi": 39,
          "time": 102.68171550000005,
          "velocity": 0.3937007874015748,
          "duration": 0.2727270000000033
        },
        {
          "name": "A#1",
          "midi": 34,
          "time": 102.95444250000006,
          "velocity": 0.3937007874015748,
          "duration": 0.13636350000000164
        },
        {
          "name": "C#2",
          "midi": 37,
          "time": 103.09080600000006,
          "velocity": 0.3937007874015748,
          "duration": 0.13636350000000164
        },
        {
          "name": "D#2",
          "midi": 39,
          "time": 103.22716950000006,
          "velocity": 0.3937007874015748,
          "duration": 0.13636350000000164
        },
        {
          "name": "D#1",
          "midi": 27,
          "time": 103.36353300000006,
          "velocity": 0.3937007874015748,
          "duration": 0.9545444999999972
        },
        {
          "name": "F#1",
          "midi": 30,
          "time": 104.31807750000006,
          "velocity": 0.3937007874015748,
          "duration": 0.13636350000000164
        },
        {
          "name": "E1",
          "midi": 28,
          "time": 104.45444100000006,
          "velocity": 0.3937007874015748,
          "duration": 0.13636350000000164
        },
        {
          "name": "C#1",
          "midi": 25,
          "time": 104.59080450000006,
          "velocity": 0.3937007874015748,
          "duration": 0.13636350000000164
        },
        {
          "name": "D1",
          "midi": 26,
          "time": 104.72716800000006,
          "velocity": 0.3937007874015748,
          "duration": 0.13636350000000164
        },
        {
          "name": "D#1",
          "midi": 27,
          "time": 104.86353150000006,
          "velocity": 0.3937007874015748,
          "duration": 0.13636350000000164
        },
        {
          "name": "G#1",
          "midi": 32,
          "time": 104.99989500000007,
          "velocity": 0.3937007874015748,
          "duration": 1.3636350000000022
        },
        {
          "name": "G#2",
          "midi": 44,
          "time": 104.99989500000007,
          "velocity": 0.3937007874015748,
          "duration": 1.3636350000000022
        },
        {
          "name": "E1",
          "midi": 28,
          "time": 106.36353000000007,
          "velocity": 0.3937007874015748,
          "duration": 1.3636350000000022
        },
        {
          "name": "E2",
          "midi": 40,
          "time": 106.36353000000007,
          "velocity": 0.3937007874015748,
          "duration": 1.3636350000000022
        },
        {
          "name": "D#2",
          "midi": 39,
          "time": 107.72716500000007,
          "velocity": 0.3937007874015748,
          "duration": 1.0909079999999989
        },
        {
          "name": "D#1",
          "midi": 27,
          "time": 107.72716500000007,
          "velocity": 0.3937007874015748,
          "duration": 0.13636350000000164
        },
        {
          "name": "D#1",
          "midi": 27,
          "time": 107.99989200000007,
          "velocity": 0.3937007874015748,
          "duration": 1.7727254999999928
        },
        {
          "name": "A#1",
          "midi": 34,
          "time": 108.81807300000007,
          "velocity": 0.3937007874015748,
          "duration": 0.13636350000000164
        },
        {
          "name": "C#2",
          "midi": 37,
          "time": 108.95443650000007,
          "velocity": 0.3937007874015748,
          "duration": 0.13636350000000164
        },
        {
          "name": "D#2",
          "midi": 39,
          "time": 109.09080000000007,
          "velocity": 0.3937007874015748,
          "duration": 0.681817499999994
        },
        {
          "name": "F2",
          "midi": 41,
          "time": 109.77261750000007,
          "velocity": 0.3937007874015748,
          "duration": 0.13636350000000164
        },
        {
          "name": "F#1",
          "midi": 30,
          "time": 109.77261750000007,
          "velocity": 0.3937007874015748,
          "duration": 0.13636350000000164
        },
        {
          "name": "E1",
          "midi": 28,
          "time": 109.90898100000007,
          "velocity": 0.3937007874015748,
          "duration": 0.13636350000000164
        },
        {
          "name": "D#2",
          "midi": 39,
          "time": 109.90898100000007,
          "velocity": 0.3937007874015748,
          "duration": 0.13636350000000164
        },
        {
          "name": "B1",
          "midi": 35,
          "time": 110.04534450000007,
          "velocity": 0.3937007874015748,
          "duration": 0.13636350000000164
        },
        {
          "name": "C#1",
          "midi": 25,
          "time": 110.04534450000007,
          "velocity": 0.3937007874015748,
          "duration": 0.13636350000000164
        },
        {
          "name": "D1",
          "midi": 26,
          "time": 110.18170800000007,
          "velocity": 0.3937007874015748,
          "duration": 0.13636350000000164
        },
        {
          "name": "C#2",
          "midi": 37,
          "time": 110.18170800000007,
          "velocity": 0.3937007874015748,
          "duration": 0.13636350000000164
        },
        {
          "name": "D2",
          "midi": 38,
          "time": 110.31807150000007,
          "velocity": 0.3937007874015748,
          "duration": 0.13636350000000164
        },
        {
          "name": "D#1",
          "midi": 27,
          "time": 110.31807150000007,
          "velocity": 0.3937007874015748,
          "duration": 0.13636350000000164
        },
        {
          "name": "G#1",
          "midi": 32,
          "time": 110.45443500000007,
          "velocity": 0.3937007874015748,
          "duration": 1.3636350000000022
        },
        {
          "name": "G#2",
          "midi": 44,
          "time": 110.45443500000007,
          "velocity": 0.3937007874015748,
          "duration": 1.3636350000000022
        },
        {
          "name": "E1",
          "midi": 28,
          "time": 111.81807000000008,
          "velocity": 0.3937007874015748,
          "duration": 1.3636350000000022
        },
        {
          "name": "E2",
          "midi": 40,
          "time": 111.81807000000008,
          "velocity": 0.3937007874015748,
          "duration": 0.8181809999999956
        },
        {
          "name": "E2",
          "midi": 40,
          "time": 112.77261450000007,
          "velocity": 0.3937007874015748,
          "duration": 0.13636350000000164
        },
        {
          "name": "F#2",
          "midi": 42,
          "time": 112.90897800000008,
          "velocity": 0.3937007874015748,
          "duration": 0.13636350000000164
        },
        {
          "name": "E2",
          "midi": 40,
          "time": 113.04534150000008,
          "velocity": 0.3937007874015748,
          "duration": 0.13636350000000164
        },
        {
          "name": "D#2",
          "midi": 39,
          "time": 113.18170500000008,
          "velocity": 0.3937007874015748,
          "duration": 0.13636350000000164
        },
        {
          "name": "D#1",
          "midi": 27,
          "time": 113.18170500000008,
          "velocity": 0.3937007874015748,
          "duration": 0.6818175000000082
        },
        {
          "name": "A#1",
          "midi": 34,
          "time": 113.31806850000008,
          "velocity": 0.3937007874015748,
          "duration": 0.13636350000000164
        },
        {
          "name": "C#2",
          "midi": 37,
          "time": 113.45443200000008,
          "velocity": 0.3937007874015748,
          "duration": 0.13636350000000164
        },
        {
          "name": "D#2",
          "midi": 39,
          "time": 113.59079550000008,
          "velocity": 0.3937007874015748,
          "duration": 0.2727270000000033
        },
        {
          "name": "A#1",
          "midi": 34,
          "time": 113.86352250000009,
          "velocity": 0.3937007874015748,
          "duration": 0.13636350000000164
        },
        {
          "name": "C#2",
          "midi": 37,
          "time": 113.99988600000009,
          "velocity": 0.3937007874015748,
          "duration": 0.13636350000000164
        },
        {
          "name": "D#2",
          "midi": 39,
          "time": 114.13624950000009,
          "velocity": 0.3937007874015748,
          "duration": 0.13636350000000164
        },
        {
          "name": "D#1",
          "midi": 27,
          "time": 114.27261300000009,
          "velocity": 0.3937007874015748,
          "duration": 0.9545444999999972
        },
        {
          "name": "F#1",
          "midi": 30,
          "time": 115.22715750000009,
          "velocity": 0.3937007874015748,
          "duration": 0.13636350000000164
        },
        {
          "name": "E1",
          "midi": 28,
          "time": 115.36352100000009,
          "velocity": 0.3937007874015748,
          "duration": 0.13636350000000164
        },
        {
          "name": "C#1",
          "midi": 25,
          "time": 115.49988450000009,
          "velocity": 0.3937007874015748,
          "duration": 0.13636350000000164
        },
        {
          "name": "D1",
          "midi": 26,
          "time": 115.6362480000001,
          "velocity": 0.3937007874015748,
          "duration": 0.13636350000000164
        },
        {
          "name": "D#1",
          "midi": 27,
          "time": 115.7726115000001,
          "velocity": 0.3937007874015748,
          "duration": 0.13636350000000164
        }
      ],
      "controlChanges": {},
      "id": 8,
      "name": "8-Bit Triangle",
      "instrumentNumber": 87,
      "instrument": "lead 8 (bass + lead)",
      "instrumentFamily": "synth lead",
      "channelNumber": 7,
      "isPercussion": false
    },
    {
      "startTime": 0,
      "duration": 118.7726085000007,
      "length": 538,
      "notes": [
        {
          "name": "G#4",
          "midi": 68,
          "time": 0,
          "velocity": 0.3937007874015748,
          "duration": 0.1363635
        },
        {
          "name": "D#4",
          "midi": 63,
          "time": 0.1363635,
          "velocity": 0.3937007874015748,
          "duration": 0.1363635
        },
        {
          "name": "C#5",
          "midi": 73,
          "time": 0.272727,
          "velocity": 0.3937007874015748,
          "duration": 0.13636350000000003
        },
        {
          "name": "D5",
          "midi": 74,
          "time": 0.4090905,
          "velocity": 0.3937007874015748,
          "duration": 0.13636349999999997
        },
        {
          "name": "A4",
          "midi": 69,
          "time": 0.545454,
          "velocity": 0.3937007874015748,
          "duration": 0.13636349999999997
        },
        {
          "name": "G#4",
          "midi": 68,
          "time": 0.6818175,
          "velocity": 0.3937007874015748,
          "duration": 0.13636349999999997
        },
        {
          "name": "D#4",
          "midi": 63,
          "time": 0.8181809999999999,
          "velocity": 0.3937007874015748,
          "duration": 0.13636349999999997
        },
        {
          "name": "C#5",
          "midi": 73,
          "time": 0.9545444999999999,
          "velocity": 0.3937007874015748,
          "duration": 0.13636350000000008
        },
        {
          "name": "D5",
          "midi": 74,
          "time": 1.090908,
          "velocity": 0.3937007874015748,
          "duration": 0.13636350000000008
        },
        {
          "name": "A4",
          "midi": 69,
          "time": 1.2272715,
          "velocity": 0.3937007874015748,
          "duration": 0.13636350000000008
        },
        {
          "name": "G#4",
          "midi": 68,
          "time": 1.3636350000000002,
          "velocity": 0.3937007874015748,
          "duration": 0.13636350000000008
        },
        {
          "name": "D#4",
          "midi": 63,
          "time": 1.4999985000000002,
          "velocity": 0.3937007874015748,
          "duration": 0.13636350000000008
        },
        {
          "name": "C#5",
          "midi": 73,
          "time": 1.6363620000000003,
          "velocity": 0.3937007874015748,
          "duration": 0.13636350000000008
        },
        {
          "name": "D5",
          "midi": 74,
          "time": 1.7727255000000004,
          "velocity": 0.3937007874015748,
          "duration": 0.13636350000000008
        },
        {
          "name": "A4",
          "midi": 69,
          "time": 1.9090890000000005,
          "velocity": 0.3937007874015748,
          "duration": 0.13636350000000008
        },
        {
          "name": "G#4",
          "midi": 68,
          "time": 2.0454525000000006,
          "velocity": 0.3937007874015748,
          "duration": 0.13636349999999986
        },
        {
          "name": "D#4",
          "midi": 63,
          "time": 2.1818160000000004,
          "velocity": 0.3937007874015748,
          "duration": 0.13636349999999986
        },
        {
          "name": "C#5",
          "midi": 73,
          "time": 2.3181795000000003,
          "velocity": 0.3937007874015748,
          "duration": 0.13636349999999986
        },
        {
          "name": "D5",
          "midi": 74,
          "time": 2.454543,
          "velocity": 0.3937007874015748,
          "duration": 0.13636349999999986
        },
        {
          "name": "A4",
          "midi": 69,
          "time": 2.5909065,
          "velocity": 0.3937007874015748,
          "duration": 0.13636349999999986
        },
        {
          "name": "G#4",
          "midi": 68,
          "time": 2.72727,
          "velocity": 0.3937007874015748,
          "duration": 0.13636349999999986
        },
        {
          "name": "D#4",
          "midi": 63,
          "time": 2.8636334999999997,
          "velocity": 0.3937007874015748,
          "duration": 0.13636349999999986
        },
        {
          "name": "C#5",
          "midi": 73,
          "time": 2.9999969999999996,
          "velocity": 0.3937007874015748,
          "duration": 0.13636349999999986
        },
        {
          "name": "D5",
          "midi": 74,
          "time": 3.1363604999999994,
          "velocity": 0.3937007874015748,
          "duration": 0.13636349999999986
        },
        {
          "name": "A4",
          "midi": 69,
          "time": 3.2727239999999993,
          "velocity": 0.3937007874015748,
          "duration": 0.13636349999999986
        },
        {
          "name": "G#4",
          "midi": 68,
          "time": 3.409087499999999,
          "velocity": 0.3937007874015748,
          "duration": 0.13636349999999986
        },
        {
          "name": "D#4",
          "midi": 63,
          "time": 3.545450999999999,
          "velocity": 0.3937007874015748,
          "duration": 0.13636349999999986
        },
        {
          "name": "C#5",
          "midi": 73,
          "time": 3.681814499999999,
          "velocity": 0.3937007874015748,
          "duration": 0.13636349999999986
        },
        {
          "name": "D5",
          "midi": 74,
          "time": 3.8181779999999987,
          "velocity": 0.3937007874015748,
          "duration": 0.13636349999999986
        },
        {
          "name": "A4",
          "midi": 69,
          "time": 3.9545414999999986,
          "velocity": 0.3937007874015748,
          "duration": 0.13636349999999986
        },
        {
          "name": "G#4",
          "midi": 68,
          "time": 4.0909049999999985,
          "velocity": 0.3937007874015748,
          "duration": 0.13636349999999986
        },
        {
          "name": "D#4",
          "midi": 63,
          "time": 4.227268499999998,
          "velocity": 0.3937007874015748,
          "duration": 0.13636349999999986
        },
        {
          "name": "C#5",
          "midi": 73,
          "time": 4.363631999999998,
          "velocity": 0.3937007874015748,
          "duration": 0.13636349999999986
        },
        {
          "name": "D5",
          "midi": 74,
          "time": 4.499995499999998,
          "velocity": 0.3937007874015748,
          "duration": 0.13636349999999986
        },
        {
          "name": "A4",
          "midi": 69,
          "time": 4.636358999999998,
          "velocity": 0.3937007874015748,
          "duration": 0.13636349999999986
        },
        {
          "name": "G#4",
          "midi": 68,
          "time": 4.772722499999998,
          "velocity": 0.3937007874015748,
          "duration": 0.13636349999999986
        },
        {
          "name": "D#4",
          "midi": 63,
          "time": 4.909085999999998,
          "velocity": 0.3937007874015748,
          "duration": 0.13636349999999986
        },
        {
          "name": "C#5",
          "midi": 73,
          "time": 5.0454494999999975,
          "velocity": 0.3937007874015748,
          "duration": 0.13636349999999986
        },
        {
          "name": "D5",
          "midi": 74,
          "time": 5.181812999999997,
          "velocity": 0.3937007874015748,
          "duration": 0.13636349999999986
        },
        {
          "name": "A4",
          "midi": 69,
          "time": 5.318176499999997,
          "velocity": 0.3937007874015748,
          "duration": 0.13636349999999986
        },
        {
          "name": "G#4",
          "midi": 68,
          "time": 5.454539999999997,
          "velocity": 0.3937007874015748,
          "duration": 0.13636349999999986
        },
        {
          "name": "D#4",
          "midi": 63,
          "time": 5.590903499999997,
          "velocity": 0.3937007874015748,
          "duration": 0.13636349999999986
        },
        {
          "name": "C#5",
          "midi": 73,
          "time": 5.727266999999997,
          "velocity": 0.3937007874015748,
          "duration": 0.13636349999999986
        },
        {
          "name": "D5",
          "midi": 74,
          "time": 5.863630499999997,
          "velocity": 0.3937007874015748,
          "duration": 0.13636349999999986
        },
        {
          "name": "A4",
          "midi": 69,
          "time": 5.9999939999999965,
          "velocity": 0.3937007874015748,
          "duration": 0.13636349999999986
        },
        {
          "name": "G#4",
          "midi": 68,
          "time": 6.136357499999996,
          "velocity": 0.3937007874015748,
          "duration": 0.13636349999999986
        },
        {
          "name": "D#4",
          "midi": 63,
          "time": 6.272720999999996,
          "velocity": 0.3937007874015748,
          "duration": 0.13636349999999986
        },
        {
          "name": "C#5",
          "midi": 73,
          "time": 6.409084499999996,
          "velocity": 0.3937007874015748,
          "duration": 0.13636349999999986
        },
        {
          "name": "D5",
          "midi": 74,
          "time": 6.545447999999996,
          "velocity": 0.3937007874015748,
          "duration": 0.13636349999999986
        },
        {
          "name": "A4",
          "midi": 69,
          "time": 6.681811499999996,
          "velocity": 0.3937007874015748,
          "duration": 0.13636349999999986
        },
        {
          "name": "G#4",
          "midi": 68,
          "time": 6.818174999999996,
          "velocity": 0.3937007874015748,
          "duration": 0.13636349999999986
        },
        {
          "name": "D#4",
          "midi": 63,
          "time": 6.9545384999999955,
          "velocity": 0.3937007874015748,
          "duration": 0.13636349999999986
        },
        {
          "name": "C#5",
          "midi": 73,
          "time": 7.090901999999995,
          "velocity": 0.3937007874015748,
          "duration": 0.13636349999999986
        },
        {
          "name": "D5",
          "midi": 74,
          "time": 7.227265499999995,
          "velocity": 0.3937007874015748,
          "duration": 0.13636349999999986
        },
        {
          "name": "A4",
          "midi": 69,
          "time": 7.363628999999995,
          "velocity": 0.3937007874015748,
          "duration": 0.13636349999999986
        },
        {
          "name": "G#4",
          "midi": 68,
          "time": 7.499992499999995,
          "velocity": 0.3937007874015748,
          "duration": 0.13636349999999986
        },
        {
          "name": "D#4",
          "midi": 63,
          "time": 7.636355999999995,
          "velocity": 0.3937007874015748,
          "duration": 0.13636349999999986
        },
        {
          "name": "C#5",
          "midi": 73,
          "time": 7.772719499999995,
          "velocity": 0.3937007874015748,
          "duration": 0.13636349999999986
        },
        {
          "name": "D5",
          "midi": 74,
          "time": 7.9090829999999945,
          "velocity": 0.3937007874015748,
          "duration": 0.13636350000000075
        },
        {
          "name": "A4",
          "midi": 69,
          "time": 8.045446499999995,
          "velocity": 0.3937007874015748,
          "duration": 0.13636349999999986
        },
        {
          "name": "G#4",
          "midi": 68,
          "time": 8.181809999999995,
          "velocity": 0.3937007874015748,
          "duration": 0.13636349999999986
        },
        {
          "name": "D#4",
          "midi": 63,
          "time": 8.318173499999995,
          "velocity": 0.3937007874015748,
          "duration": 0.13636349999999986
        },
        {
          "name": "C#5",
          "midi": 73,
          "time": 8.454536999999995,
          "velocity": 0.3937007874015748,
          "duration": 0.13636349999999986
        },
        {
          "name": "D5",
          "midi": 74,
          "time": 8.590900499999995,
          "velocity": 0.3937007874015748,
          "duration": 0.13636349999999986
        },
        {
          "name": "A4",
          "midi": 69,
          "time": 8.727263999999995,
          "velocity": 0.3937007874015748,
          "duration": 0.13636349999999986
        },
        {
          "name": "G#4",
          "midi": 68,
          "time": 8.863627499999994,
          "velocity": 0.3937007874015748,
          "duration": 0.13636349999999986
        },
        {
          "name": "D#4",
          "midi": 63,
          "time": 8.999990999999994,
          "velocity": 0.3937007874015748,
          "duration": 0.13636349999999986
        },
        {
          "name": "C#5",
          "midi": 73,
          "time": 9.136354499999994,
          "velocity": 0.3937007874015748,
          "duration": 0.13636349999999986
        },
        {
          "name": "D5",
          "midi": 74,
          "time": 9.272717999999994,
          "velocity": 0.3937007874015748,
          "duration": 0.13636349999999986
        },
        {
          "name": "A4",
          "midi": 69,
          "time": 9.409081499999994,
          "velocity": 0.3937007874015748,
          "duration": 0.13636349999999986
        },
        {
          "name": "G#4",
          "midi": 68,
          "time": 9.545444999999994,
          "velocity": 0.3937007874015748,
          "duration": 0.13636349999999986
        },
        {
          "name": "D#4",
          "midi": 63,
          "time": 9.681808499999994,
          "velocity": 0.3937007874015748,
          "duration": 0.13636349999999986
        },
        {
          "name": "C#5",
          "midi": 73,
          "time": 9.818171999999993,
          "velocity": 0.3937007874015748,
          "duration": 0.13636349999999986
        },
        {
          "name": "D5",
          "midi": 74,
          "time": 9.954535499999993,
          "velocity": 0.3937007874015748,
          "duration": 0.13636349999999986
        },
        {
          "name": "A4",
          "midi": 69,
          "time": 10.090898999999993,
          "velocity": 0.3937007874015748,
          "duration": 0.13636349999999986
        },
        {
          "name": "G#4",
          "midi": 68,
          "time": 10.227262499999993,
          "velocity": 0.3937007874015748,
          "duration": 0.13636349999999986
        },
        {
          "name": "D#4",
          "midi": 63,
          "time": 10.363625999999993,
          "velocity": 0.3937007874015748,
          "duration": 0.13636349999999986
        },
        {
          "name": "C#5",
          "midi": 73,
          "time": 10.499989499999993,
          "velocity": 0.3937007874015748,
          "duration": 0.13636349999999986
        },
        {
          "name": "D5",
          "midi": 74,
          "time": 10.636352999999993,
          "velocity": 0.3937007874015748,
          "duration": 0.13636349999999986
        },
        {
          "name": "A4",
          "midi": 69,
          "time": 10.772716499999992,
          "velocity": 0.3937007874015748,
          "duration": 0.13636349999999986
        },
        {
          "name": "G#4",
          "midi": 68,
          "time": 13.636349999999993,
          "velocity": 0.3937007874015748,
          "duration": 0.13636349999999986
        },
        {
          "name": "D#4",
          "midi": 63,
          "time": 13.772713499999993,
          "velocity": 0.3937007874015748,
          "duration": 0.13636349999999986
        },
        {
          "name": "C#5",
          "midi": 73,
          "time": 13.909076999999993,
          "velocity": 0.3937007874015748,
          "duration": 0.13636349999999986
        },
        {
          "name": "D5",
          "midi": 74,
          "time": 14.045440499999993,
          "velocity": 0.3937007874015748,
          "duration": 0.13636349999999986
        },
        {
          "name": "A4",
          "midi": 69,
          "time": 14.181803999999993,
          "velocity": 0.3937007874015748,
          "duration": 0.13636349999999986
        },
        {
          "name": "G#4",
          "midi": 68,
          "time": 14.318167499999992,
          "velocity": 0.3937007874015748,
          "duration": 0.13636349999999986
        },
        {
          "name": "D#4",
          "midi": 63,
          "time": 14.454530999999992,
          "velocity": 0.3937007874015748,
          "duration": 0.13636349999999986
        },
        {
          "name": "C#5",
          "midi": 73,
          "time": 14.590894499999992,
          "velocity": 0.3937007874015748,
          "duration": 0.13636349999999986
        },
        {
          "name": "D5",
          "midi": 74,
          "time": 14.727257999999992,
          "velocity": 0.3937007874015748,
          "duration": 0.13636349999999986
        },
        {
          "name": "A4",
          "midi": 69,
          "time": 14.863621499999992,
          "velocity": 0.3937007874015748,
          "duration": 0.13636349999999986
        },
        {
          "name": "G#4",
          "midi": 68,
          "time": 14.999984999999992,
          "velocity": 0.3937007874015748,
          "duration": 0.13636349999999986
        },
        {
          "name": "D#4",
          "midi": 63,
          "time": 15.136348499999992,
          "velocity": 0.3937007874015748,
          "duration": 0.13636349999999986
        },
        {
          "name": "C#5",
          "midi": 73,
          "time": 15.272711999999991,
          "velocity": 0.3937007874015748,
          "duration": 0.13636349999999986
        },
        {
          "name": "D5",
          "midi": 74,
          "time": 15.409075499999991,
          "velocity": 0.3937007874015748,
          "duration": 0.13636349999999986
        },
        {
          "name": "A4",
          "midi": 69,
          "time": 15.545438999999991,
          "velocity": 0.3937007874015748,
          "duration": 0.13636349999999986
        },
        {
          "name": "G#4",
          "midi": 68,
          "time": 15.681802499999991,
          "velocity": 0.3937007874015748,
          "duration": 0.13636349999999986
        },
        {
          "name": "D#4",
          "midi": 63,
          "time": 15.81816599999999,
          "velocity": 0.3937007874015748,
          "duration": 0.13636349999999986
        },
        {
          "name": "C#5",
          "midi": 73,
          "time": 15.95452949999999,
          "velocity": 0.3937007874015748,
          "duration": 0.13636349999999986
        },
        {
          "name": "D5",
          "midi": 74,
          "time": 16.09089299999999,
          "velocity": 0.3937007874015748,
          "duration": 0.13636350000000164
        },
        {
          "name": "A4",
          "midi": 69,
          "time": 16.227256499999992,
          "velocity": 0.3937007874015748,
          "duration": 0.13636350000000164
        },
        {
          "name": "G#4",
          "midi": 68,
          "time": 16.363619999999994,
          "velocity": 0.3937007874015748,
          "duration": 0.13636350000000164
        },
        {
          "name": "D#4",
          "midi": 63,
          "time": 16.499983499999995,
          "velocity": 0.3937007874015748,
          "duration": 0.13636350000000164
        },
        {
          "name": "C#5",
          "midi": 73,
          "time": 16.636346999999997,
          "velocity": 0.3937007874015748,
          "duration": 0.13636350000000164
        },
        {
          "name": "D5",
          "midi": 74,
          "time": 16.7727105,
          "velocity": 0.3937007874015748,
          "duration": 0.13636350000000164
        },
        {
          "name": "A4",
          "midi": 69,
          "time": 16.909074,
          "velocity": 0.3937007874015748,
          "duration": 0.13636350000000164
        },
        {
          "name": "G#4",
          "midi": 68,
          "time": 17.045437500000002,
          "velocity": 0.3937007874015748,
          "duration": 0.13636350000000164
        },
        {
          "name": "D#4",
          "midi": 63,
          "time": 17.181801000000004,
          "velocity": 0.3937007874015748,
          "duration": 0.13636350000000164
        },
        {
          "name": "C#5",
          "midi": 73,
          "time": 17.318164500000005,
          "velocity": 0.3937007874015748,
          "duration": 0.13636350000000164
        },
        {
          "name": "D5",
          "midi": 74,
          "time": 17.454528000000007,
          "velocity": 0.3937007874015748,
          "duration": 0.13636350000000164
        },
        {
          "name": "A4",
          "midi": 69,
          "time": 17.59089150000001,
          "velocity": 0.3937007874015748,
          "duration": 0.13636350000000164
        },
        {
          "name": "G#4",
          "midi": 68,
          "time": 17.72725500000001,
          "velocity": 0.3937007874015748,
          "duration": 0.13636350000000164
        },
        {
          "name": "D#4",
          "midi": 63,
          "time": 17.863618500000012,
          "velocity": 0.3937007874015748,
          "duration": 0.13636350000000164
        },
        {
          "name": "C#5",
          "midi": 73,
          "time": 17.999982000000013,
          "velocity": 0.3937007874015748,
          "duration": 0.13636350000000164
        },
        {
          "name": "D5",
          "midi": 74,
          "time": 18.136345500000015,
          "velocity": 0.3937007874015748,
          "duration": 0.13636350000000164
        },
        {
          "name": "A4",
          "midi": 69,
          "time": 18.272709000000017,
          "velocity": 0.3937007874015748,
          "duration": 0.13636350000000164
        },
        {
          "name": "G#4",
          "midi": 68,
          "time": 18.40907250000002,
          "velocity": 0.3937007874015748,
          "duration": 0.13636350000000164
        },
        {
          "name": "D#4",
          "midi": 63,
          "time": 18.54543600000002,
          "velocity": 0.3937007874015748,
          "duration": 0.13636350000000164
        },
        {
          "name": "C#5",
          "midi": 73,
          "time": 18.68179950000002,
          "velocity": 0.3937007874015748,
          "duration": 0.13636350000000164
        },
        {
          "name": "D5",
          "midi": 74,
          "time": 18.818163000000023,
          "velocity": 0.3937007874015748,
          "duration": 0.13636350000000164
        },
        {
          "name": "A4",
          "midi": 69,
          "time": 18.954526500000025,
          "velocity": 0.3937007874015748,
          "duration": 0.13636350000000164
        },
        {
          "name": "G#4",
          "midi": 68,
          "time": 19.090890000000027,
          "velocity": 0.3937007874015748,
          "duration": 0.13636350000000164
        },
        {
          "name": "D#4",
          "midi": 63,
          "time": 19.227253500000028,
          "velocity": 0.3937007874015748,
          "duration": 0.13636350000000164
        },
        {
          "name": "C#5",
          "midi": 73,
          "time": 19.36361700000003,
          "velocity": 0.3937007874015748,
          "duration": 0.13636350000000164
        },
        {
          "name": "D5",
          "midi": 74,
          "time": 19.49998050000003,
          "velocity": 0.3937007874015748,
          "duration": 0.13636350000000164
        },
        {
          "name": "A4",
          "midi": 69,
          "time": 19.636344000000033,
          "velocity": 0.3937007874015748,
          "duration": 0.13636350000000164
        },
        {
          "name": "G#4",
          "midi": 68,
          "time": 19.772707500000035,
          "velocity": 0.3937007874015748,
          "duration": 0.13636350000000164
        },
        {
          "name": "D#4",
          "midi": 63,
          "time": 19.909071000000036,
          "velocity": 0.3937007874015748,
          "duration": 0.13636350000000164
        },
        {
          "name": "C#5",
          "midi": 73,
          "time": 20.045434500000038,
          "velocity": 0.3937007874015748,
          "duration": 0.13636350000000164
        },
        {
          "name": "D5",
          "midi": 74,
          "time": 20.18179800000004,
          "velocity": 0.3937007874015748,
          "duration": 0.13636350000000164
        },
        {
          "name": "A4",
          "midi": 69,
          "time": 20.31816150000004,
          "velocity": 0.3937007874015748,
          "duration": 0.13636350000000164
        },
        {
          "name": "G#4",
          "midi": 68,
          "time": 20.454525000000043,
          "velocity": 0.3937007874015748,
          "duration": 0.13636350000000164
        },
        {
          "name": "D#4",
          "midi": 63,
          "time": 20.590888500000045,
          "velocity": 0.3937007874015748,
          "duration": 0.13636350000000164
        },
        {
          "name": "C#5",
          "midi": 73,
          "time": 20.727252000000046,
          "velocity": 0.3937007874015748,
          "duration": 0.13636350000000164
        },
        {
          "name": "D5",
          "midi": 74,
          "time": 20.863615500000048,
          "velocity": 0.3937007874015748,
          "duration": 0.13636350000000164
        },
        {
          "name": "A4",
          "midi": 69,
          "time": 20.99997900000005,
          "velocity": 0.3937007874015748,
          "duration": 0.13636350000000164
        },
        {
          "name": "G#4",
          "midi": 68,
          "time": 21.13634250000005,
          "velocity": 0.3937007874015748,
          "duration": 0.13636350000000164
        },
        {
          "name": "D#4",
          "midi": 63,
          "time": 21.272706000000053,
          "velocity": 0.3937007874015748,
          "duration": 0.13636350000000164
        },
        {
          "name": "C#5",
          "midi": 73,
          "time": 21.409069500000054,
          "velocity": 0.3937007874015748,
          "duration": 0.13636350000000164
        },
        {
          "name": "D5",
          "midi": 74,
          "time": 21.545433000000056,
          "velocity": 0.3937007874015748,
          "duration": 0.13636350000000164
        },
        {
          "name": "A4",
          "midi": 69,
          "time": 21.681796500000058,
          "velocity": 0.3937007874015748,
          "duration": 0.13636350000000164
        },
        {
          "name": "G#4",
          "midi": 68,
          "time": 21.81816000000006,
          "velocity": 0.3937007874015748,
          "duration": 0.13636350000000164
        },
        {
          "name": "D#4",
          "midi": 63,
          "time": 21.95452350000006,
          "velocity": 0.3937007874015748,
          "duration": 0.13636350000000164
        },
        {
          "name": "C#5",
          "midi": 73,
          "time": 22.090887000000063,
          "velocity": 0.3937007874015748,
          "duration": 0.13636350000000164
        },
        {
          "name": "D5",
          "midi": 74,
          "time": 22.227250500000064,
          "velocity": 0.3937007874015748,
          "duration": 0.13636350000000164
        },
        {
          "name": "A4",
          "midi": 69,
          "time": 22.363614000000066,
          "velocity": 0.3937007874015748,
          "duration": 0.13636350000000164
        },
        {
          "name": "G#4",
          "midi": 68,
          "time": 22.499977500000067,
          "velocity": 0.3937007874015748,
          "duration": 0.13636350000000164
        },
        {
          "name": "D#4",
          "midi": 63,
          "time": 22.63634100000007,
          "velocity": 0.3937007874015748,
          "duration": 0.13636350000000164
        },
        {
          "name": "C#5",
          "midi": 73,
          "time": 22.77270450000007,
          "velocity": 0.3937007874015748,
          "duration": 0.13636350000000164
        },
        {
          "name": "D5",
          "midi": 74,
          "time": 22.909068000000072,
          "velocity": 0.3937007874015748,
          "duration": 0.13636350000000164
        },
        {
          "name": "A4",
          "midi": 69,
          "time": 23.045431500000074,
          "velocity": 0.3937007874015748,
          "duration": 0.13636350000000164
        },
        {
          "name": "G#4",
          "midi": 68,
          "time": 23.181795000000076,
          "velocity": 0.3937007874015748,
          "duration": 0.13636350000000164
        },
        {
          "name": "D#4",
          "midi": 63,
          "time": 23.318158500000077,
          "velocity": 0.3937007874015748,
          "duration": 0.13636350000000164
        },
        {
          "name": "C#5",
          "midi": 73,
          "time": 23.45452200000008,
          "velocity": 0.3937007874015748,
          "duration": 0.13636350000000164
        },
        {
          "name": "D5",
          "midi": 74,
          "time": 23.59088550000008,
          "velocity": 0.3937007874015748,
          "duration": 0.13636350000000164
        },
        {
          "name": "A4",
          "midi": 69,
          "time": 23.727249000000082,
          "velocity": 0.3937007874015748,
          "duration": 0.13636350000000164
        },
        {
          "name": "G#4",
          "midi": 68,
          "time": 23.863612500000084,
          "velocity": 0.3937007874015748,
          "duration": 0.13636350000000164
        },
        {
          "name": "D#4",
          "midi": 63,
          "time": 23.999976000000085,
          "velocity": 0.3937007874015748,
          "duration": 0.13636350000000164
        },
        {
          "name": "C#5",
          "midi": 73,
          "time": 24.136339500000087,
          "velocity": 0.3937007874015748,
          "duration": 0.13636350000000164
        },
        {
          "name": "D5",
          "midi": 74,
          "time": 24.27270300000009,
          "velocity": 0.3937007874015748,
          "duration": 0.13636350000000164
        },
        {
          "name": "A4",
          "midi": 69,
          "time": 24.40906650000009,
          "velocity": 0.3937007874015748,
          "duration": 0.13636350000000164
        },
        {
          "name": "G#4",
          "midi": 68,
          "time": 24.545430000000092,
          "velocity": 0.3937007874015748,
          "duration": 0.13636350000000164
        },
        {
          "name": "D#4",
          "midi": 63,
          "time": 24.681793500000094,
          "velocity": 0.3937007874015748,
          "duration": 0.13636350000000164
        },
        {
          "name": "C#5",
          "midi": 73,
          "time": 24.818157000000095,
          "velocity": 0.3937007874015748,
          "duration": 0.13636350000000164
        },
        {
          "name": "D5",
          "midi": 74,
          "time": 24.954520500000097,
          "velocity": 0.3937007874015748,
          "duration": 0.13636350000000164
        },
        {
          "name": "A4",
          "midi": 69,
          "time": 25.0908840000001,
          "velocity": 0.3937007874015748,
          "duration": 0.13636350000000164
        },
        {
          "name": "G#4",
          "midi": 68,
          "time": 25.2272475000001,
          "velocity": 0.3937007874015748,
          "duration": 0.13636350000000164
        },
        {
          "name": "D#4",
          "midi": 63,
          "time": 25.363611000000102,
          "velocity": 0.3937007874015748,
          "duration": 0.13636350000000164
        },
        {
          "name": "C#5",
          "midi": 73,
          "time": 25.499974500000103,
          "velocity": 0.3937007874015748,
          "duration": 0.13636350000000164
        },
        {
          "name": "D5",
          "midi": 74,
          "time": 25.636338000000105,
          "velocity": 0.3937007874015748,
          "duration": 0.13636350000000164
        },
        {
          "name": "A4",
          "midi": 69,
          "time": 25.772701500000107,
          "velocity": 0.3937007874015748,
          "duration": 0.13636350000000164
        },
        {
          "name": "G#4",
          "midi": 68,
          "time": 25.90906500000011,
          "velocity": 0.3937007874015748,
          "duration": 0.13636350000000164
        },
        {
          "name": "D#4",
          "midi": 63,
          "time": 26.04542850000011,
          "velocity": 0.3937007874015748,
          "duration": 0.13636350000000164
        },
        {
          "name": "C#5",
          "midi": 73,
          "time": 26.18179200000011,
          "velocity": 0.3937007874015748,
          "duration": 0.13636350000000164
        },
        {
          "name": "D5",
          "midi": 74,
          "time": 26.318155500000113,
          "velocity": 0.3937007874015748,
          "duration": 0.13636350000000164
        },
        {
          "name": "A4",
          "midi": 69,
          "time": 26.454519000000115,
          "velocity": 0.3937007874015748,
          "duration": 0.13636350000000164
        },
        {
          "name": "G#4",
          "midi": 68,
          "time": 26.590882500000117,
          "velocity": 0.3937007874015748,
          "duration": 0.13636350000000164
        },
        {
          "name": "D#4",
          "midi": 63,
          "time": 26.727246000000118,
          "velocity": 0.3937007874015748,
          "duration": 0.13636350000000164
        },
        {
          "name": "C#5",
          "midi": 73,
          "time": 26.86360950000012,
          "velocity": 0.3937007874015748,
          "duration": 0.13636350000000164
        },
        {
          "name": "D5",
          "midi": 74,
          "time": 26.99997300000012,
          "velocity": 0.3937007874015748,
          "duration": 0.13636350000000164
        },
        {
          "name": "A4",
          "midi": 69,
          "time": 27.136336500000123,
          "velocity": 0.3937007874015748,
          "duration": 0.13636350000000164
        },
        {
          "name": "G#4",
          "midi": 68,
          "time": 27.272700000000125,
          "velocity": 0.3937007874015748,
          "duration": 0.13636350000000164
        },
        {
          "name": "D#4",
          "midi": 63,
          "time": 27.409063500000126,
          "velocity": 0.3937007874015748,
          "duration": 0.13636350000000164
        },
        {
          "name": "C#5",
          "midi": 73,
          "time": 27.545427000000128,
          "velocity": 0.3937007874015748,
          "duration": 0.13636350000000164
        },
        {
          "name": "D5",
          "midi": 74,
          "time": 27.68179050000013,
          "velocity": 0.3937007874015748,
          "duration": 0.13636350000000164
        },
        {
          "name": "A4",
          "midi": 69,
          "time": 27.81815400000013,
          "velocity": 0.3937007874015748,
          "duration": 0.13636350000000164
        },
        {
          "name": "G#4",
          "midi": 68,
          "time": 27.954517500000133,
          "velocity": 0.3937007874015748,
          "duration": 0.13636350000000164
        },
        {
          "name": "D#4",
          "midi": 63,
          "time": 28.090881000000135,
          "velocity": 0.3937007874015748,
          "duration": 0.13636350000000164
        },
        {
          "name": "C#5",
          "midi": 73,
          "time": 28.227244500000136,
          "velocity": 0.3937007874015748,
          "duration": 0.13636350000000164
        },
        {
          "name": "D5",
          "midi": 74,
          "time": 28.363608000000138,
          "velocity": 0.3937007874015748,
          "duration": 0.13636350000000164
        },
        {
          "name": "A4",
          "midi": 69,
          "time": 28.49997150000014,
          "velocity": 0.3937007874015748,
          "duration": 0.13636350000000164
        },
        {
          "name": "G#4",
          "midi": 68,
          "time": 28.63633500000014,
          "velocity": 0.3937007874015748,
          "duration": 0.13636350000000164
        },
        {
          "name": "D#4",
          "midi": 63,
          "time": 28.772698500000143,
          "velocity": 0.3937007874015748,
          "duration": 0.13636350000000164
        },
        {
          "name": "C#5",
          "midi": 73,
          "time": 28.909062000000144,
          "velocity": 0.3937007874015748,
          "duration": 0.13636350000000164
        },
        {
          "name": "D5",
          "midi": 74,
          "time": 29.045425500000146,
          "velocity": 0.3937007874015748,
          "duration": 0.13636350000000164
        },
        {
          "name": "A4",
          "midi": 69,
          "time": 29.181789000000148,
          "velocity": 0.3937007874015748,
          "duration": 0.13636350000000164
        },
        {
          "name": "G#4",
          "midi": 68,
          "time": 29.31815250000015,
          "velocity": 0.3937007874015748,
          "duration": 0.13636350000000164
        },
        {
          "name": "D#4",
          "midi": 63,
          "time": 29.45451600000015,
          "velocity": 0.3937007874015748,
          "duration": 0.13636350000000164
        },
        {
          "name": "C#5",
          "midi": 73,
          "time": 29.590879500000153,
          "velocity": 0.3937007874015748,
          "duration": 0.13636350000000164
        },
        {
          "name": "D5",
          "midi": 74,
          "time": 29.727243000000154,
          "velocity": 0.3937007874015748,
          "duration": 0.13636350000000164
        },
        {
          "name": "A4",
          "midi": 69,
          "time": 29.863606500000156,
          "velocity": 0.3937007874015748,
          "duration": 0.13636350000000164
        },
        {
          "name": "G#4",
          "midi": 68,
          "time": 29.999970000000157,
          "velocity": 0.3937007874015748,
          "duration": 0.13636350000000164
        },
        {
          "name": "D#4",
          "midi": 63,
          "time": 30.13633350000016,
          "velocity": 0.3937007874015748,
          "duration": 0.13636350000000164
        },
        {
          "name": "C#5",
          "midi": 73,
          "time": 30.27269700000016,
          "velocity": 0.3937007874015748,
          "duration": 0.13636350000000164
        },
        {
          "name": "D5",
          "midi": 74,
          "time": 30.409060500000162,
          "velocity": 0.3937007874015748,
          "duration": 0.13636350000000164
        },
        {
          "name": "A4",
          "midi": 69,
          "time": 30.545424000000164,
          "velocity": 0.3937007874015748,
          "duration": 0.13636350000000164
        },
        {
          "name": "G#4",
          "midi": 68,
          "time": 30.681787500000166,
          "velocity": 0.3937007874015748,
          "duration": 0.13636350000000164
        },
        {
          "name": "D#4",
          "midi": 63,
          "time": 30.818151000000167,
          "velocity": 0.3937007874015748,
          "duration": 0.13636350000000164
        },
        {
          "name": "C#5",
          "midi": 73,
          "time": 30.95451450000017,
          "velocity": 0.3937007874015748,
          "duration": 0.13636350000000164
        },
        {
          "name": "D5",
          "midi": 74,
          "time": 31.09087800000017,
          "velocity": 0.3937007874015748,
          "duration": 0.13636350000000164
        },
        {
          "name": "A4",
          "midi": 69,
          "time": 31.227241500000172,
          "velocity": 0.3937007874015748,
          "duration": 0.13636350000000164
        },
        {
          "name": "G#4",
          "midi": 68,
          "time": 31.363605000000174,
          "velocity": 0.3937007874015748,
          "duration": 0.13636350000000164
        },
        {
          "name": "D#4",
          "midi": 63,
          "time": 31.499968500000175,
          "velocity": 0.3937007874015748,
          "duration": 0.13636350000000164
        },
        {
          "name": "C#5",
          "midi": 73,
          "time": 31.636332000000177,
          "velocity": 0.3937007874015748,
          "duration": 0.13636350000000164
        },
        {
          "name": "D5",
          "midi": 74,
          "time": 31.77269550000018,
          "velocity": 0.3937007874015748,
          "duration": 0.13636350000000164
        },
        {
          "name": "A4",
          "midi": 69,
          "time": 31.90905900000018,
          "velocity": 0.3937007874015748,
          "duration": 0.13636349999999808
        },
        {
          "name": "G#4",
          "midi": 68,
          "time": 32.04542250000018,
          "velocity": 0.3937007874015748,
          "duration": 0.13636350000000164
        },
        {
          "name": "D#4",
          "midi": 63,
          "time": 32.18178600000018,
          "velocity": 0.3937007874015748,
          "duration": 0.13636350000000164
        },
        {
          "name": "C#5",
          "midi": 73,
          "time": 32.31814950000018,
          "velocity": 0.3937007874015748,
          "duration": 0.13636350000000164
        },
        {
          "name": "D5",
          "midi": 74,
          "time": 32.45451300000018,
          "velocity": 0.3937007874015748,
          "duration": 0.13636350000000164
        },
        {
          "name": "A4",
          "midi": 69,
          "time": 32.590876500000185,
          "velocity": 0.3937007874015748,
          "duration": 0.13636350000000164
        },
        {
          "name": "G#4",
          "midi": 68,
          "time": 32.72724000000019,
          "velocity": 0.3937007874015748,
          "duration": 0.13636350000000164
        },
        {
          "name": "D#4",
          "midi": 63,
          "time": 32.86360350000019,
          "velocity": 0.3937007874015748,
          "duration": 0.13636350000000164
        },
        {
          "name": "C#5",
          "midi": 73,
          "time": 32.99996700000019,
          "velocity": 0.3937007874015748,
          "duration": 0.13636350000000164
        },
        {
          "name": "D5",
          "midi": 74,
          "time": 33.13633050000019,
          "velocity": 0.3937007874015748,
          "duration": 0.13636350000000164
        },
        {
          "name": "A4",
          "midi": 69,
          "time": 33.27269400000019,
          "velocity": 0.3937007874015748,
          "duration": 0.13636350000000164
        },
        {
          "name": "G#4",
          "midi": 68,
          "time": 33.409057500000195,
          "velocity": 0.3937007874015748,
          "duration": 0.13636350000000164
        },
        {
          "name": "D#4",
          "midi": 63,
          "time": 33.545421000000196,
          "velocity": 0.3937007874015748,
          "duration": 0.13636350000000164
        },
        {
          "name": "C#5",
          "midi": 73,
          "time": 33.6817845000002,
          "velocity": 0.3937007874015748,
          "duration": 0.13636350000000164
        },
        {
          "name": "D5",
          "midi": 74,
          "time": 33.8181480000002,
          "velocity": 0.3937007874015748,
          "duration": 0.13636350000000164
        },
        {
          "name": "A4",
          "midi": 69,
          "time": 33.9545115000002,
          "velocity": 0.3937007874015748,
          "duration": 0.13636350000000164
        },
        {
          "name": "G#4",
          "midi": 68,
          "time": 34.0908750000002,
          "velocity": 0.3937007874015748,
          "duration": 0.13636350000000164
        },
        {
          "name": "D#4",
          "midi": 63,
          "time": 34.227238500000205,
          "velocity": 0.3937007874015748,
          "duration": 0.13636350000000164
        },
        {
          "name": "C#5",
          "midi": 73,
          "time": 34.363602000000206,
          "velocity": 0.3937007874015748,
          "duration": 0.13636350000000164
        },
        {
          "name": "D5",
          "midi": 74,
          "time": 34.49996550000021,
          "velocity": 0.3937007874015748,
          "duration": 0.13636350000000164
        },
        {
          "name": "A4",
          "midi": 69,
          "time": 34.63632900000021,
          "velocity": 0.3937007874015748,
          "duration": 0.13636350000000164
        },
        {
          "name": "G#4",
          "midi": 68,
          "time": 34.77269250000021,
          "velocity": 0.3937007874015748,
          "duration": 0.13636350000000164
        },
        {
          "name": "D#4",
          "midi": 63,
          "time": 34.90905600000021,
          "velocity": 0.3937007874015748,
          "duration": 0.13636350000000164
        },
        {
          "name": "C#5",
          "midi": 73,
          "time": 35.045419500000214,
          "velocity": 0.3937007874015748,
          "duration": 0.13636350000000164
        },
        {
          "name": "D5",
          "midi": 74,
          "time": 35.181783000000216,
          "velocity": 0.3937007874015748,
          "duration": 0.13636350000000164
        },
        {
          "name": "A4",
          "midi": 69,
          "time": 35.31814650000022,
          "velocity": 0.3937007874015748,
          "duration": 0.13636350000000164
        },
        {
          "name": "B5",
          "midi": 83,
          "time": 39.54541500000022,
          "velocity": 0.3937007874015748,
          "duration": 0.13636350000000164
        },
        {
          "name": "C6",
          "midi": 84,
          "time": 39.68177850000022,
          "velocity": 0.3937007874015748,
          "duration": 0.13636350000000164
        },
        {
          "name": "B5",
          "midi": 83,
          "time": 39.81814200000022,
          "velocity": 0.3937007874015748,
          "duration": 0.13636350000000164
        },
        {
          "name": "C6",
          "midi": 84,
          "time": 39.954505500000224,
          "velocity": 0.3937007874015748,
          "duration": 0.13636350000000164
        },
        {
          "name": "B5",
          "midi": 83,
          "time": 40.090869000000225,
          "velocity": 0.3937007874015748,
          "duration": 0.13636350000000164
        },
        {
          "name": "C6",
          "midi": 84,
          "time": 40.22723250000023,
          "velocity": 0.3937007874015748,
          "duration": 0.13636350000000164
        },
        {
          "name": "A#5",
          "midi": 82,
          "time": 40.36359600000023,
          "velocity": 0.3937007874015748,
          "duration": 0.13636350000000164
        },
        {
          "name": "B5",
          "midi": 83,
          "time": 40.49995950000023,
          "velocity": 0.3937007874015748,
          "duration": 0.13636350000000164
        },
        {
          "name": "A5",
          "midi": 81,
          "time": 40.63632300000023,
          "velocity": 0.3937007874015748,
          "duration": 0.13636350000000164
        },
        {
          "name": "A#5",
          "midi": 82,
          "time": 40.77268650000023,
          "velocity": 0.3937007874015748,
          "duration": 0.13636350000000164
        },
        {
          "name": "G#5",
          "midi": 80,
          "time": 40.909050000000235,
          "velocity": 0.3937007874015748,
          "duration": 0.13636350000000164
        },
        {
          "name": "D#6",
          "midi": 87,
          "time": 46.36359000000024,
          "velocity": 0.3937007874015748,
          "duration": 0.13636350000000164
        },
        {
          "name": "B5",
          "midi": 83,
          "time": 46.49995350000024,
          "velocity": 0.3937007874015748,
          "duration": 0.13636350000000164
        },
        {
          "name": "G#5",
          "midi": 80,
          "time": 46.63631700000024,
          "velocity": 0.3937007874015748,
          "duration": 0.13636350000000164
        },
        {
          "name": "D#6",
          "midi": 87,
          "time": 46.77268050000024,
          "velocity": 0.3937007874015748,
          "duration": 0.13636350000000164
        },
        {
          "name": "B5",
          "midi": 83,
          "time": 46.90904400000024,
          "velocity": 0.3937007874015748,
          "duration": 0.13636350000000164
        },
        {
          "name": "G#5",
          "midi": 80,
          "time": 47.045407500000245,
          "velocity": 0.3937007874015748,
          "duration": 0.13636350000000164
        },
        {
          "name": "D#6",
          "midi": 87,
          "time": 47.181771000000246,
          "velocity": 0.3937007874015748,
          "duration": 0.13636350000000164
        },
        {
          "name": "B5",
          "midi": 83,
          "time": 47.31813450000025,
          "velocity": 0.3937007874015748,
          "duration": 0.13636350000000164
        },
        {
          "name": "G#5",
          "midi": 80,
          "time": 47.45449800000025,
          "velocity": 0.3937007874015748,
          "duration": 0.13636350000000164
        },
        {
          "name": "D#6",
          "midi": 87,
          "time": 47.59086150000025,
          "velocity": 0.3937007874015748,
          "duration": 0.13636350000000164
        },
        {
          "name": "B5",
          "midi": 83,
          "time": 47.72722500000025,
          "velocity": 0.3937007874015748,
          "duration": 0.13636350000000164
        },
        {
          "name": "G#5",
          "midi": 80,
          "time": 47.863588500000255,
          "velocity": 0.3937007874015748,
          "duration": 0.13636350000000164
        },
        {
          "name": "D#6",
          "midi": 87,
          "time": 47.999952000000256,
          "velocity": 0.3937007874015748,
          "duration": 0.13636350000000164
        },
        {
          "name": "B5",
          "midi": 83,
          "time": 48.13631550000026,
          "velocity": 0.3937007874015748,
          "duration": 0.13636350000000164
        },
        {
          "name": "G#5",
          "midi": 80,
          "time": 48.27267900000026,
          "velocity": 0.3937007874015748,
          "duration": 0.13636350000000164
        },
        {
          "name": "D#6",
          "midi": 87,
          "time": 48.40904250000026,
          "velocity": 0.3937007874015748,
          "duration": 0.13636350000000164
        },
        {
          "name": "B5",
          "midi": 83,
          "time": 48.54540600000026,
          "velocity": 0.3937007874015748,
          "duration": 0.13636350000000164
        },
        {
          "name": "G#5",
          "midi": 80,
          "time": 48.681769500000264,
          "velocity": 0.3937007874015748,
          "duration": 0.13636350000000164
        },
        {
          "name": "D#6",
          "midi": 87,
          "time": 48.818133000000266,
          "velocity": 0.3937007874015748,
          "duration": 0.13636350000000164
        },
        {
          "name": "B5",
          "midi": 83,
          "time": 48.95449650000027,
          "velocity": 0.3937007874015748,
          "duration": 0.13636350000000164
        },
        {
          "name": "F#5",
          "midi": 78,
          "time": 49.09086000000027,
          "velocity": 0.3937007874015748,
          "duration": 0.13636350000000164
        },
        {
          "name": "C#6",
          "midi": 85,
          "time": 49.22722350000027,
          "velocity": 0.3937007874015748,
          "duration": 0.13636350000000164
        },
        {
          "name": "A#5",
          "midi": 82,
          "time": 49.36358700000027,
          "velocity": 0.3937007874015748,
          "duration": 0.13636350000000164
        },
        {
          "name": "F#5",
          "midi": 78,
          "time": 49.499950500000274,
          "velocity": 0.3937007874015748,
          "duration": 0.13636350000000164
        },
        {
          "name": "C#6",
          "midi": 85,
          "time": 49.636314000000276,
          "velocity": 0.3937007874015748,
          "duration": 0.13636350000000164
        },
        {
          "name": "A#5",
          "midi": 82,
          "time": 49.77267750000028,
          "velocity": 0.3937007874015748,
          "duration": 0.13636350000000164
        },
        {
          "name": "F#5",
          "midi": 78,
          "time": 49.90904100000028,
          "velocity": 0.3937007874015748,
          "duration": 0.13636350000000164
        },
        {
          "name": "C#6",
          "midi": 85,
          "time": 50.04540450000028,
          "velocity": 0.3937007874015748,
          "duration": 0.13636350000000164
        },
        {
          "name": "A#5",
          "midi": 82,
          "time": 50.18176800000028,
          "velocity": 0.3937007874015748,
          "duration": 0.13636350000000164
        },
        {
          "name": "F#5",
          "midi": 78,
          "time": 50.318131500000284,
          "velocity": 0.3937007874015748,
          "duration": 0.13636350000000164
        },
        {
          "name": "B5",
          "midi": 83,
          "time": 50.454495000000286,
          "velocity": 0.3937007874015748,
          "duration": 0.13636350000000164
        },
        {
          "name": "C6",
          "midi": 84,
          "time": 50.59085850000029,
          "velocity": 0.3937007874015748,
          "duration": 0.13636350000000164
        },
        {
          "name": "B5",
          "midi": 83,
          "time": 50.72722200000029,
          "velocity": 0.3937007874015748,
          "duration": 0.13636350000000164
        },
        {
          "name": "C6",
          "midi": 84,
          "time": 50.86358550000029,
          "velocity": 0.3937007874015748,
          "duration": 0.13636350000000164
        },
        {
          "name": "B5",
          "midi": 83,
          "time": 50.99994900000029,
          "velocity": 0.3937007874015748,
          "duration": 0.13636350000000164
        },
        {
          "name": "C6",
          "midi": 84,
          "time": 51.136312500000294,
          "velocity": 0.3937007874015748,
          "duration": 0.13636350000000164
        },
        {
          "name": "A#5",
          "midi": 82,
          "time": 51.272676000000295,
          "velocity": 0.3937007874015748,
          "duration": 0.13636350000000164
        },
        {
          "name": "B5",
          "midi": 83,
          "time": 51.4090395000003,
          "velocity": 0.3937007874015748,
          "duration": 0.13636350000000164
        },
        {
          "name": "A5",
          "midi": 81,
          "time": 51.5454030000003,
          "velocity": 0.3937007874015748,
          "duration": 0.13636350000000164
        },
        {
          "name": "A#5",
          "midi": 82,
          "time": 51.6817665000003,
          "velocity": 0.3937007874015748,
          "duration": 0.13636350000000164
        },
        {
          "name": "G#5",
          "midi": 80,
          "time": 51.8181300000003,
          "velocity": 0.3937007874015748,
          "duration": 0.13636350000000164
        },
        {
          "name": "D#6",
          "midi": 87,
          "time": 51.954493500000304,
          "velocity": 0.3937007874015748,
          "duration": 0.13636350000000164
        },
        {
          "name": "B5",
          "midi": 83,
          "time": 52.090857000000305,
          "velocity": 0.3937007874015748,
          "duration": 0.13636350000000164
        },
        {
          "name": "G#5",
          "midi": 80,
          "time": 52.22722050000031,
          "velocity": 0.3937007874015748,
          "duration": 0.13636350000000164
        },
        {
          "name": "D#6",
          "midi": 87,
          "time": 52.36358400000031,
          "velocity": 0.3937007874015748,
          "duration": 0.13636350000000164
        },
        {
          "name": "B5",
          "midi": 83,
          "time": 52.49994750000031,
          "velocity": 0.3937007874015748,
          "duration": 0.13636350000000164
        },
        {
          "name": "G#5",
          "midi": 80,
          "time": 52.63631100000031,
          "velocity": 0.3937007874015748,
          "duration": 0.13636350000000164
        },
        {
          "name": "D#6",
          "midi": 87,
          "time": 52.77267450000031,
          "velocity": 0.3937007874015748,
          "duration": 0.13636350000000164
        },
        {
          "name": "B5",
          "midi": 83,
          "time": 52.909038000000315,
          "velocity": 0.3937007874015748,
          "duration": 0.13636350000000164
        },
        {
          "name": "G#5",
          "midi": 80,
          "time": 53.04540150000032,
          "velocity": 0.3937007874015748,
          "duration": 0.13636350000000164
        },
        {
          "name": "D#6",
          "midi": 87,
          "time": 53.18176500000032,
          "velocity": 0.3937007874015748,
          "duration": 0.13636350000000164
        },
        {
          "name": "B5",
          "midi": 83,
          "time": 53.31812850000032,
          "velocity": 0.3937007874015748,
          "duration": 0.13636350000000164
        },
        {
          "name": "G#5",
          "midi": 80,
          "time": 53.45449200000032,
          "velocity": 0.3937007874015748,
          "duration": 0.13636350000000164
        },
        {
          "name": "C#6",
          "midi": 85,
          "time": 53.59085550000032,
          "velocity": 0.3937007874015748,
          "duration": 0.13636350000000164
        },
        {
          "name": "A#5",
          "midi": 82,
          "time": 53.727219000000325,
          "velocity": 0.3937007874015748,
          "duration": 0.13636350000000164
        },
        {
          "name": "F#5",
          "midi": 78,
          "time": 53.86358250000033,
          "velocity": 0.3937007874015748,
          "duration": 0.13636350000000164
        },
        {
          "name": "D#5",
          "midi": 75,
          "time": 53.99994600000033,
          "velocity": 0.3937007874015748,
          "duration": 0.13636350000000164
        },
        {
          "name": "G#5",
          "midi": 80,
          "time": 54.13630950000033,
          "velocity": 0.3937007874015748,
          "duration": 0.13636350000000164
        },
        {
          "name": "C#6",
          "midi": 85,
          "time": 54.27267300000033,
          "velocity": 0.3937007874015748,
          "duration": 0.13636350000000164
        },
        {
          "name": "A#5",
          "midi": 82,
          "time": 54.40903650000033,
          "velocity": 0.3937007874015748,
          "duration": 0.13636350000000164
        },
        {
          "name": "F#5",
          "midi": 78,
          "time": 54.545400000000335,
          "velocity": 0.3937007874015748,
          "duration": 0.13636350000000164
        },
        {
          "name": "A#5",
          "midi": 82,
          "time": 54.681763500000336,
          "velocity": 0.3937007874015748,
          "duration": 0.13636350000000164
        },
        {
          "name": "C#6",
          "midi": 85,
          "time": 54.81812700000034,
          "velocity": 0.3937007874015748,
          "duration": 0.13636350000000164
        },
        {
          "name": "G#5",
          "midi": 80,
          "time": 54.95449050000034,
          "velocity": 0.3937007874015748,
          "duration": 0.13636350000000164
        },
        {
          "name": "A5",
          "midi": 81,
          "time": 55.09085400000034,
          "velocity": 0.3937007874015748,
          "duration": 0.13636350000000164
        },
        {
          "name": "F#5",
          "midi": 78,
          "time": 55.22721750000034,
          "velocity": 0.3937007874015748,
          "duration": 0.13636350000000164
        },
        {
          "name": "A#5",
          "midi": 82,
          "time": 55.363581000000345,
          "velocity": 0.3937007874015748,
          "duration": 0.13636350000000164
        },
        {
          "name": "C#6",
          "midi": 85,
          "time": 55.499944500000346,
          "velocity": 0.3937007874015748,
          "duration": 0.13636350000000164
        },
        {
          "name": "G#5",
          "midi": 80,
          "time": 55.63630800000035,
          "velocity": 0.3937007874015748,
          "duration": 0.13636350000000164
        },
        {
          "name": "A5",
          "midi": 81,
          "time": 55.77267150000035,
          "velocity": 0.3937007874015748,
          "duration": 0.13636350000000164
        },
        {
          "name": "D#6",
          "midi": 87,
          "time": 55.90903500000035,
          "velocity": 0.3937007874015748,
          "duration": 0.13636350000000164
        },
        {
          "name": "D6",
          "midi": 86,
          "time": 56.04539850000035,
          "velocity": 0.3937007874015748,
          "duration": 0.13636350000000164
        },
        {
          "name": "C#6",
          "midi": 85,
          "time": 56.181762000000354,
          "velocity": 0.3937007874015748,
          "duration": 0.13636350000000164
        },
        {
          "name": "C6",
          "midi": 84,
          "time": 56.318125500000356,
          "velocity": 0.3937007874015748,
          "duration": 0.13636350000000164
        },
        {
          "name": "B5",
          "midi": 83,
          "time": 56.45448900000036,
          "velocity": 0.3937007874015748,
          "duration": 0.13636350000000164
        },
        {
          "name": "A#5",
          "midi": 82,
          "time": 56.59085250000036,
          "velocity": 0.3937007874015748,
          "duration": 0.13636350000000164
        },
        {
          "name": "A5",
          "midi": 81,
          "time": 56.72721600000036,
          "velocity": 0.3937007874015748,
          "duration": 0.13636350000000164
        },
        {
          "name": "G#5",
          "midi": 80,
          "time": 56.86357950000036,
          "velocity": 0.3937007874015748,
          "duration": 0.13636350000000164
        },
        {
          "name": "G5",
          "midi": 79,
          "time": 56.999943000000364,
          "velocity": 0.3937007874015748,
          "duration": 0.13636350000000164
        },
        {
          "name": "F#5",
          "midi": 78,
          "time": 57.136306500000366,
          "velocity": 0.3937007874015748,
          "duration": 0.13636350000000164
        },
        {
          "name": "G#4",
          "midi": 68,
          "time": 87.27264000000037,
          "velocity": 0.3937007874015748,
          "duration": 0.13636350000000164
        },
        {
          "name": "C#5",
          "midi": 73,
          "time": 87.54536700000037,
          "velocity": 0.3937007874015748,
          "duration": 0.13636350000000164
        },
        {
          "name": "D5",
          "midi": 74,
          "time": 87.68173050000037,
          "velocity": 0.3937007874015748,
          "duration": 0.13636350000000164
        },
        {
          "name": "A4",
          "midi": 69,
          "time": 87.81809400000037,
          "velocity": 0.3937007874015748,
          "duration": 0.13636350000000164
        },
        {
          "name": "G#4",
          "midi": 68,
          "time": 87.95445750000037,
          "velocity": 0.3937007874015748,
          "duration": 0.13636350000000164
        },
        {
          "name": "C#5",
          "midi": 73,
          "time": 88.22718450000038,
          "velocity": 0.3937007874015748,
          "duration": 0.13636350000000164
        },
        {
          "name": "D5",
          "midi": 74,
          "time": 88.36354800000038,
          "velocity": 0.3937007874015748,
          "duration": 0.13636350000000164
        },
        {
          "name": "A4",
          "midi": 69,
          "time": 88.49991150000038,
          "velocity": 0.3937007874015748,
          "duration": 0.13636350000000164
        },
        {
          "name": "G#4",
          "midi": 68,
          "time": 88.63627500000038,
          "velocity": 0.3937007874015748,
          "duration": 0.13636350000000164
        },
        {
          "name": "C#5",
          "midi": 73,
          "time": 88.90900200000038,
          "velocity": 0.3937007874015748,
          "duration": 0.13636350000000164
        },
        {
          "name": "D5",
          "midi": 74,
          "time": 89.04536550000039,
          "velocity": 0.3937007874015748,
          "duration": 0.13636350000000164
        },
        {
          "name": "A4",
          "midi": 69,
          "time": 89.18172900000039,
          "velocity": 0.3937007874015748,
          "duration": 0.13636350000000164
        },
        {
          "name": "G#4",
          "midi": 68,
          "time": 89.31809250000039,
          "velocity": 0.3937007874015748,
          "duration": 0.13636350000000164
        },
        {
          "name": "C#5",
          "midi": 73,
          "time": 89.59081950000039,
          "velocity": 0.3937007874015748,
          "duration": 0.13636350000000164
        },
        {
          "name": "D5",
          "midi": 74,
          "time": 89.7271830000004,
          "velocity": 0.3937007874015748,
          "duration": 0.13636350000000164
        },
        {
          "name": "A4",
          "midi": 69,
          "time": 89.8635465000004,
          "velocity": 0.3937007874015748,
          "duration": 0.13636350000000164
        },
        {
          "name": "G#4",
          "midi": 68,
          "time": 89.9999100000004,
          "velocity": 0.3937007874015748,
          "duration": 0.13636350000000164
        },
        {
          "name": "D#4",
          "midi": 63,
          "time": 90.1362735000004,
          "velocity": 0.3937007874015748,
          "duration": 0.13636350000000164
        },
        {
          "name": "C#5",
          "midi": 73,
          "time": 90.2726370000004,
          "velocity": 0.3937007874015748,
          "duration": 0.13636350000000164
        },
        {
          "name": "D5",
          "midi": 74,
          "time": 90.4090005000004,
          "velocity": 0.3937007874015748,
          "duration": 0.13636350000000164
        },
        {
          "name": "A4",
          "midi": 69,
          "time": 90.5453640000004,
          "velocity": 0.3937007874015748,
          "duration": 0.13636350000000164
        },
        {
          "name": "G#4",
          "midi": 68,
          "time": 90.6817275000004,
          "velocity": 0.3937007874015748,
          "duration": 0.13636350000000164
        },
        {
          "name": "D#4",
          "midi": 63,
          "time": 90.81809100000041,
          "velocity": 0.3937007874015748,
          "duration": 0.13636350000000164
        },
        {
          "name": "C#5",
          "midi": 73,
          "time": 90.95445450000041,
          "velocity": 0.3937007874015748,
          "duration": 0.13636350000000164
        },
        {
          "name": "D5",
          "midi": 74,
          "time": 91.09081800000041,
          "velocity": 0.3937007874015748,
          "duration": 0.13636350000000164
        },
        {
          "name": "A4",
          "midi": 69,
          "time": 91.22718150000041,
          "velocity": 0.3937007874015748,
          "duration": 0.13636350000000164
        },
        {
          "name": "G#4",
          "midi": 68,
          "time": 91.36354500000041,
          "velocity": 0.3937007874015748,
          "duration": 0.13636350000000164
        },
        {
          "name": "D#4",
          "midi": 63,
          "time": 91.49990850000042,
          "velocity": 0.3937007874015748,
          "duration": 0.13636350000000164
        },
        {
          "name": "C#5",
          "midi": 73,
          "time": 91.63627200000042,
          "velocity": 0.3937007874015748,
          "duration": 0.13636350000000164
        },
        {
          "name": "D5",
          "midi": 74,
          "time": 91.77263550000042,
          "velocity": 0.3937007874015748,
          "duration": 0.13636350000000164
        },
        {
          "name": "A4",
          "midi": 69,
          "time": 91.90899900000042,
          "velocity": 0.3937007874015748,
          "duration": 0.13636350000000164
        },
        {
          "name": "G#4",
          "midi": 68,
          "time": 92.04536250000042,
          "velocity": 0.3937007874015748,
          "duration": 0.13636350000000164
        },
        {
          "name": "D#4",
          "midi": 63,
          "time": 92.18172600000042,
          "velocity": 0.3937007874015748,
          "duration": 0.13636350000000164
        },
        {
          "name": "C#5",
          "midi": 73,
          "time": 92.31808950000043,
          "velocity": 0.3937007874015748,
          "duration": 0.13636350000000164
        },
        {
          "name": "D5",
          "midi": 74,
          "time": 92.45445300000043,
          "velocity": 0.3937007874015748,
          "duration": 0.13636350000000164
        },
        {
          "name": "A4",
          "midi": 69,
          "time": 92.59081650000043,
          "velocity": 0.3937007874015748,
          "duration": 0.13636350000000164
        },
        {
          "name": "G#4",
          "midi": 68,
          "time": 94.77263250000043,
          "velocity": 0.3937007874015748,
          "duration": 0.13636350000000164
        },
        {
          "name": "D#4",
          "midi": 63,
          "time": 94.90899600000043,
          "velocity": 0.3937007874015748,
          "duration": 0.13636350000000164
        },
        {
          "name": "C#5",
          "midi": 73,
          "time": 95.04535950000043,
          "velocity": 0.3937007874015748,
          "duration": 0.13636350000000164
        },
        {
          "name": "D5",
          "midi": 74,
          "time": 95.18172300000043,
          "velocity": 0.3937007874015748,
          "duration": 0.13636350000000164
        },
        {
          "name": "A4",
          "midi": 69,
          "time": 95.31808650000043,
          "velocity": 0.3937007874015748,
          "duration": 0.13636350000000164
        },
        {
          "name": "G#4",
          "midi": 68,
          "time": 95.45445000000043,
          "velocity": 0.3937007874015748,
          "duration": 0.13636350000000164
        },
        {
          "name": "D#4",
          "midi": 63,
          "time": 95.59081350000044,
          "velocity": 0.3937007874015748,
          "duration": 0.13636350000000164
        },
        {
          "name": "C#5",
          "midi": 73,
          "time": 95.72717700000044,
          "velocity": 0.3937007874015748,
          "duration": 0.13636350000000164
        },
        {
          "name": "D5",
          "midi": 74,
          "time": 95.86354050000044,
          "velocity": 0.3937007874015748,
          "duration": 0.13636350000000164
        },
        {
          "name": "A4",
          "midi": 69,
          "time": 95.99990400000044,
          "velocity": 0.3937007874015748,
          "duration": 0.13636350000000164
        },
        {
          "name": "G#4",
          "midi": 68,
          "time": 96.13626750000044,
          "velocity": 0.3937007874015748,
          "duration": 0.13636350000000164
        },
        {
          "name": "D#4",
          "midi": 63,
          "time": 96.27263100000044,
          "velocity": 0.3937007874015748,
          "duration": 0.13636350000000164
        },
        {
          "name": "C#5",
          "midi": 73,
          "time": 96.40899450000045,
          "velocity": 0.3937007874015748,
          "duration": 0.13636350000000164
        },
        {
          "name": "D5",
          "midi": 74,
          "time": 96.54535800000045,
          "velocity": 0.3937007874015748,
          "duration": 0.13636350000000164
        },
        {
          "name": "A4",
          "midi": 69,
          "time": 96.68172150000045,
          "velocity": 0.3937007874015748,
          "duration": 0.13636350000000164
        },
        {
          "name": "G#4",
          "midi": 68,
          "time": 96.81808500000045,
          "velocity": 0.3937007874015748,
          "duration": 0.13636350000000164
        },
        {
          "name": "D#4",
          "midi": 63,
          "time": 96.95444850000045,
          "velocity": 0.3937007874015748,
          "duration": 0.13636350000000164
        },
        {
          "name": "C#5",
          "midi": 73,
          "time": 97.09081200000045,
          "velocity": 0.3937007874015748,
          "duration": 0.13636350000000164
        },
        {
          "name": "D5",
          "midi": 74,
          "time": 97.22717550000046,
          "velocity": 0.3937007874015748,
          "duration": 0.13636350000000164
        },
        {
          "name": "A4",
          "midi": 69,
          "time": 97.36353900000046,
          "velocity": 0.3937007874015748,
          "duration": 0.13636350000000164
        },
        {
          "name": "G#4",
          "midi": 68,
          "time": 97.49990250000046,
          "velocity": 0.3937007874015748,
          "duration": 0.13636350000000164
        },
        {
          "name": "D#4",
          "midi": 63,
          "time": 97.63626600000046,
          "velocity": 0.3937007874015748,
          "duration": 0.13636350000000164
        },
        {
          "name": "C#5",
          "midi": 73,
          "time": 97.77262950000046,
          "velocity": 0.3937007874015748,
          "duration": 0.13636350000000164
        },
        {
          "name": "D5",
          "midi": 74,
          "time": 97.90899300000046,
          "velocity": 0.3937007874015748,
          "duration": 0.13636350000000164
        },
        {
          "name": "A4",
          "midi": 69,
          "time": 98.04535650000047,
          "velocity": 0.3937007874015748,
          "duration": 0.13636350000000164
        },
        {
          "name": "G#4",
          "midi": 68,
          "time": 98.18172000000047,
          "velocity": 0.3937007874015748,
          "duration": 0.13636350000000164
        },
        {
          "name": "D#4",
          "midi": 63,
          "time": 98.31808350000047,
          "velocity": 0.3937007874015748,
          "duration": 0.13636350000000164
        },
        {
          "name": "C#5",
          "midi": 73,
          "time": 98.45444700000047,
          "velocity": 0.3937007874015748,
          "duration": 0.13636350000000164
        },
        {
          "name": "D5",
          "midi": 74,
          "time": 98.59081050000047,
          "velocity": 0.3937007874015748,
          "duration": 0.13636350000000164
        },
        {
          "name": "A4",
          "midi": 69,
          "time": 98.72717400000047,
          "velocity": 0.3937007874015748,
          "duration": 0.13636350000000164
        },
        {
          "name": "G#4",
          "midi": 68,
          "time": 98.86353750000048,
          "velocity": 0.3937007874015748,
          "duration": 0.13636350000000164
        },
        {
          "name": "D#4",
          "midi": 63,
          "time": 98.99990100000048,
          "velocity": 0.3937007874015748,
          "duration": 0.13636350000000164
        },
        {
          "name": "C#5",
          "midi": 73,
          "time": 99.13626450000048,
          "velocity": 0.3937007874015748,
          "duration": 0.13636350000000164
        },
        {
          "name": "D5",
          "midi": 74,
          "time": 99.27262800000048,
          "velocity": 0.3937007874015748,
          "duration": 0.13636350000000164
        },
        {
          "name": "A4",
          "midi": 69,
          "time": 99.40899150000048,
          "velocity": 0.3937007874015748,
          "duration": 0.13636350000000164
        },
        {
          "name": "G#4",
          "midi": 68,
          "time": 99.54535500000048,
          "velocity": 0.3937007874015748,
          "duration": 0.13636350000000164
        },
        {
          "name": "D#4",
          "midi": 63,
          "time": 99.68171850000049,
          "velocity": 0.3937007874015748,
          "duration": 0.13636350000000164
        },
        {
          "name": "C#5",
          "midi": 73,
          "time": 99.81808200000049,
          "velocity": 0.3937007874015748,
          "duration": 0.13636350000000164
        },
        {
          "name": "D5",
          "midi": 74,
          "time": 99.95444550000049,
          "velocity": 0.3937007874015748,
          "duration": 0.13636350000000164
        },
        {
          "name": "A4",
          "midi": 69,
          "time": 100.09080900000049,
          "velocity": 0.3937007874015748,
          "duration": 0.13636350000000164
        },
        {
          "name": "G#4",
          "midi": 68,
          "time": 100.22717250000049,
          "velocity": 0.3937007874015748,
          "duration": 0.13636350000000164
        },
        {
          "name": "D#4",
          "midi": 63,
          "time": 100.3635360000005,
          "velocity": 0.3937007874015748,
          "duration": 0.13636350000000164
        },
        {
          "name": "C#5",
          "midi": 73,
          "time": 100.4998995000005,
          "velocity": 0.3937007874015748,
          "duration": 0.13636350000000164
        },
        {
          "name": "D5",
          "midi": 74,
          "time": 100.6362630000005,
          "velocity": 0.3937007874015748,
          "duration": 0.13636350000000164
        },
        {
          "name": "A4",
          "midi": 69,
          "time": 100.7726265000005,
          "velocity": 0.3937007874015748,
          "duration": 0.13636350000000164
        },
        {
          "name": "G#4",
          "midi": 68,
          "time": 100.9089900000005,
          "velocity": 0.3937007874015748,
          "duration": 0.13636350000000164
        },
        {
          "name": "D#4",
          "midi": 63,
          "time": 101.0453535000005,
          "velocity": 0.3937007874015748,
          "duration": 0.13636350000000164
        },
        {
          "name": "C#5",
          "midi": 73,
          "time": 101.1817170000005,
          "velocity": 0.3937007874015748,
          "duration": 0.13636350000000164
        },
        {
          "name": "D5",
          "midi": 74,
          "time": 101.3180805000005,
          "velocity": 0.3937007874015748,
          "duration": 0.13636350000000164
        },
        {
          "name": "A4",
          "midi": 69,
          "time": 101.4544440000005,
          "velocity": 0.3937007874015748,
          "duration": 0.13636350000000164
        },
        {
          "name": "G#4",
          "midi": 68,
          "time": 101.59080750000051,
          "velocity": 0.3937007874015748,
          "duration": 0.13636350000000164
        },
        {
          "name": "D#4",
          "midi": 63,
          "time": 101.72717100000051,
          "velocity": 0.3937007874015748,
          "duration": 0.13636350000000164
        },
        {
          "name": "C#5",
          "midi": 73,
          "time": 101.86353450000051,
          "velocity": 0.3937007874015748,
          "duration": 0.13636350000000164
        },
        {
          "name": "D5",
          "midi": 74,
          "time": 101.99989800000051,
          "velocity": 0.3937007874015748,
          "duration": 0.13636350000000164
        },
        {
          "name": "A4",
          "midi": 69,
          "time": 102.13626150000051,
          "velocity": 0.3937007874015748,
          "duration": 0.13636350000000164
        },
        {
          "name": "G#4",
          "midi": 68,
          "time": 102.27262500000052,
          "velocity": 0.3937007874015748,
          "duration": 0.13636350000000164
        },
        {
          "name": "D#4",
          "midi": 63,
          "time": 102.40898850000052,
          "velocity": 0.3937007874015748,
          "duration": 0.13636350000000164
        },
        {
          "name": "C#5",
          "midi": 73,
          "time": 102.54535200000052,
          "velocity": 0.3937007874015748,
          "duration": 0.13636350000000164
        },
        {
          "name": "D5",
          "midi": 74,
          "time": 102.68171550000052,
          "velocity": 0.3937007874015748,
          "duration": 0.13636350000000164
        },
        {
          "name": "A4",
          "midi": 69,
          "time": 102.81807900000052,
          "velocity": 0.3937007874015748,
          "duration": 0.13636350000000164
        },
        {
          "name": "G#4",
          "midi": 68,
          "time": 102.95444250000052,
          "velocity": 0.3937007874015748,
          "duration": 0.13636350000000164
        },
        {
          "name": "D#4",
          "midi": 63,
          "time": 103.09080600000053,
          "velocity": 0.3937007874015748,
          "duration": 0.13636350000000164
        },
        {
          "name": "C#5",
          "midi": 73,
          "time": 103.22716950000053,
          "velocity": 0.3937007874015748,
          "duration": 0.13636350000000164
        },
        {
          "name": "D5",
          "midi": 74,
          "time": 103.36353300000053,
          "velocity": 0.3937007874015748,
          "duration": 0.13636350000000164
        },
        {
          "name": "A4",
          "midi": 69,
          "time": 103.49989650000053,
          "velocity": 0.3937007874015748,
          "duration": 0.13636350000000164
        },
        {
          "name": "G#4",
          "midi": 68,
          "time": 103.63626000000053,
          "velocity": 0.3937007874015748,
          "duration": 0.13636350000000164
        },
        {
          "name": "D#4",
          "midi": 63,
          "time": 103.77262350000053,
          "velocity": 0.3937007874015748,
          "duration": 0.13636350000000164
        },
        {
          "name": "C#5",
          "midi": 73,
          "time": 103.90898700000054,
          "velocity": 0.3937007874015748,
          "duration": 0.13636350000000164
        },
        {
          "name": "D5",
          "midi": 74,
          "time": 104.04535050000054,
          "velocity": 0.3937007874015748,
          "duration": 0.13636350000000164
        },
        {
          "name": "A4",
          "midi": 69,
          "time": 104.18171400000054,
          "velocity": 0.3937007874015748,
          "duration": 0.13636350000000164
        },
        {
          "name": "G#4",
          "midi": 68,
          "time": 104.31807750000054,
          "velocity": 0.3937007874015748,
          "duration": 0.13636350000000164
        },
        {
          "name": "D#4",
          "midi": 63,
          "time": 104.45444100000054,
          "velocity": 0.3937007874015748,
          "duration": 0.13636350000000164
        },
        {
          "name": "C#5",
          "midi": 73,
          "time": 104.59080450000054,
          "velocity": 0.3937007874015748,
          "duration": 0.13636350000000164
        },
        {
          "name": "D5",
          "midi": 74,
          "time": 104.72716800000055,
          "velocity": 0.3937007874015748,
          "duration": 0.13636350000000164
        },
        {
          "name": "A4",
          "midi": 69,
          "time": 104.86353150000055,
          "velocity": 0.3937007874015748,
          "duration": 0.13636350000000164
        },
        {
          "name": "G#4",
          "midi": 68,
          "time": 105.68171250000054,
          "velocity": 0.3937007874015748,
          "duration": 0.13636350000000164
        },
        {
          "name": "D#4",
          "midi": 63,
          "time": 105.81807600000054,
          "velocity": 0.3937007874015748,
          "duration": 0.13636350000000164
        },
        {
          "name": "C#5",
          "midi": 73,
          "time": 105.95443950000055,
          "velocity": 0.3937007874015748,
          "duration": 0.13636350000000164
        },
        {
          "name": "D5",
          "midi": 74,
          "time": 106.09080300000055,
          "velocity": 0.3937007874015748,
          "duration": 0.13636350000000164
        },
        {
          "name": "A4",
          "midi": 69,
          "time": 106.22716650000055,
          "velocity": 0.3937007874015748,
          "duration": 0.13636350000000164
        },
        {
          "name": "G#4",
          "midi": 68,
          "time": 106.36353000000055,
          "velocity": 0.3937007874015748,
          "duration": 0.13636350000000164
        },
        {
          "name": "D#4",
          "midi": 63,
          "time": 106.49989350000055,
          "velocity": 0.3937007874015748,
          "duration": 0.13636350000000164
        },
        {
          "name": "C#5",
          "midi": 73,
          "time": 106.63625700000055,
          "velocity": 0.3937007874015748,
          "duration": 0.13636350000000164
        },
        {
          "name": "D5",
          "midi": 74,
          "time": 106.77262050000056,
          "velocity": 0.3937007874015748,
          "duration": 0.13636350000000164
        },
        {
          "name": "A4",
          "midi": 69,
          "time": 106.90898400000056,
          "velocity": 0.3937007874015748,
          "duration": 0.13636350000000164
        },
        {
          "name": "G#4",
          "midi": 68,
          "time": 107.04534750000056,
          "velocity": 0.3937007874015748,
          "duration": 0.13636350000000164
        },
        {
          "name": "D#4",
          "midi": 63,
          "time": 107.18171100000056,
          "velocity": 0.3937007874015748,
          "duration": 0.13636350000000164
        },
        {
          "name": "C#5",
          "midi": 73,
          "time": 107.31807450000056,
          "velocity": 0.3937007874015748,
          "duration": 0.13636350000000164
        },
        {
          "name": "D5",
          "midi": 74,
          "time": 107.45443800000056,
          "velocity": 0.3937007874015748,
          "duration": 0.13636350000000164
        },
        {
          "name": "A4",
          "midi": 69,
          "time": 107.59080150000057,
          "velocity": 0.3937007874015748,
          "duration": 0.13636350000000164
        },
        {
          "name": "G#4",
          "midi": 68,
          "time": 107.72716500000057,
          "velocity": 0.3937007874015748,
          "duration": 0.13636350000000164
        },
        {
          "name": "D#4",
          "midi": 63,
          "time": 107.86352850000057,
          "velocity": 0.3937007874015748,
          "duration": 0.13636350000000164
        },
        {
          "name": "C#5",
          "midi": 73,
          "time": 107.99989200000057,
          "velocity": 0.3937007874015748,
          "duration": 0.13636350000000164
        },
        {
          "name": "D5",
          "midi": 74,
          "time": 108.13625550000057,
          "velocity": 0.3937007874015748,
          "duration": 0.13636350000000164
        },
        {
          "name": "A4",
          "midi": 69,
          "time": 108.27261900000057,
          "velocity": 0.3937007874015748,
          "duration": 0.13636350000000164
        },
        {
          "name": "G#4",
          "midi": 68,
          "time": 108.40898250000058,
          "velocity": 0.3937007874015748,
          "duration": 0.13636350000000164
        },
        {
          "name": "D#4",
          "midi": 63,
          "time": 108.54534600000058,
          "velocity": 0.3937007874015748,
          "duration": 0.13636350000000164
        },
        {
          "name": "C#5",
          "midi": 73,
          "time": 108.68170950000058,
          "velocity": 0.3937007874015748,
          "duration": 0.13636350000000164
        },
        {
          "name": "D5",
          "midi": 74,
          "time": 108.81807300000058,
          "velocity": 0.3937007874015748,
          "duration": 0.13636350000000164
        },
        {
          "name": "A4",
          "midi": 69,
          "time": 108.95443650000058,
          "velocity": 0.3937007874015748,
          "duration": 0.13636350000000164
        },
        {
          "name": "G#4",
          "midi": 68,
          "time": 109.09080000000058,
          "velocity": 0.3937007874015748,
          "duration": 0.13636350000000164
        },
        {
          "name": "D#4",
          "midi": 63,
          "time": 109.22716350000059,
          "velocity": 0.3937007874015748,
          "duration": 0.13636350000000164
        },
        {
          "name": "C#5",
          "midi": 73,
          "time": 109.36352700000059,
          "velocity": 0.3937007874015748,
          "duration": 0.13636350000000164
        },
        {
          "name": "D5",
          "midi": 74,
          "time": 109.49989050000059,
          "velocity": 0.3937007874015748,
          "duration": 0.13636350000000164
        },
        {
          "name": "A4",
          "midi": 69,
          "time": 109.63625400000059,
          "velocity": 0.3937007874015748,
          "duration": 0.13636350000000164
        },
        {
          "name": "G#4",
          "midi": 68,
          "time": 109.77261750000059,
          "velocity": 0.3937007874015748,
          "duration": 0.13636350000000164
        },
        {
          "name": "D#4",
          "midi": 63,
          "time": 109.9089810000006,
          "velocity": 0.3937007874015748,
          "duration": 0.13636350000000164
        },
        {
          "name": "C#5",
          "midi": 73,
          "time": 110.0453445000006,
          "velocity": 0.3937007874015748,
          "duration": 0.13636350000000164
        },
        {
          "name": "D5",
          "midi": 74,
          "time": 110.1817080000006,
          "velocity": 0.3937007874015748,
          "duration": 0.13636350000000164
        },
        {
          "name": "A4",
          "midi": 69,
          "time": 110.3180715000006,
          "velocity": 0.3937007874015748,
          "duration": 0.13636350000000164
        },
        {
          "name": "G#4",
          "midi": 68,
          "time": 110.4544350000006,
          "velocity": 0.3937007874015748,
          "duration": 0.13636350000000164
        },
        {
          "name": "D#4",
          "midi": 63,
          "time": 110.5907985000006,
          "velocity": 0.3937007874015748,
          "duration": 0.13636350000000164
        },
        {
          "name": "C#5",
          "midi": 73,
          "time": 110.7271620000006,
          "velocity": 0.3937007874015748,
          "duration": 0.13636350000000164
        },
        {
          "name": "D5",
          "midi": 74,
          "time": 110.8635255000006,
          "velocity": 0.3937007874015748,
          "duration": 0.13636350000000164
        },
        {
          "name": "A4",
          "midi": 69,
          "time": 110.9998890000006,
          "velocity": 0.3937007874015748,
          "duration": 0.13636350000000164
        },
        {
          "name": "G#4",
          "midi": 68,
          "time": 111.13625250000061,
          "velocity": 0.3937007874015748,
          "duration": 0.13636350000000164
        },
        {
          "name": "D#4",
          "midi": 63,
          "time": 111.27261600000061,
          "velocity": 0.3937007874015748,
          "duration": 0.13636350000000164
        },
        {
          "name": "C#5",
          "midi": 73,
          "time": 111.40897950000061,
          "velocity": 0.3937007874015748,
          "duration": 0.13636350000000164
        },
        {
          "name": "D5",
          "midi": 74,
          "time": 111.54534300000061,
          "velocity": 0.3937007874015748,
          "duration": 0.13636350000000164
        },
        {
          "name": "A4",
          "midi": 69,
          "time": 111.68170650000062,
          "velocity": 0.3937007874015748,
          "duration": 0.13636350000000164
        },
        {
          "name": "G#4",
          "midi": 68,
          "time": 111.81807000000062,
          "velocity": 0.3937007874015748,
          "duration": 0.13636350000000164
        },
        {
          "name": "D#4",
          "midi": 63,
          "time": 111.95443350000062,
          "velocity": 0.3937007874015748,
          "duration": 0.13636350000000164
        },
        {
          "name": "C#5",
          "midi": 73,
          "time": 112.09079700000062,
          "velocity": 0.3937007874015748,
          "duration": 0.13636350000000164
        },
        {
          "name": "D5",
          "midi": 74,
          "time": 112.22716050000062,
          "velocity": 0.3937007874015748,
          "duration": 0.13636350000000164
        },
        {
          "name": "A4",
          "midi": 69,
          "time": 112.36352400000062,
          "velocity": 0.3937007874015748,
          "duration": 0.13636350000000164
        },
        {
          "name": "G#4",
          "midi": 68,
          "time": 112.49988750000063,
          "velocity": 0.3937007874015748,
          "duration": 0.13636350000000164
        },
        {
          "name": "D#4",
          "midi": 63,
          "time": 112.63625100000063,
          "velocity": 0.3937007874015748,
          "duration": 0.13636350000000164
        },
        {
          "name": "C#5",
          "midi": 73,
          "time": 112.77261450000063,
          "velocity": 0.3937007874015748,
          "duration": 0.13636350000000164
        },
        {
          "name": "D5",
          "midi": 74,
          "time": 112.90897800000063,
          "velocity": 0.3937007874015748,
          "duration": 0.13636350000000164
        },
        {
          "name": "A4",
          "midi": 69,
          "time": 113.04534150000063,
          "velocity": 0.3937007874015748,
          "duration": 0.13636350000000164
        },
        {
          "name": "G#4",
          "midi": 68,
          "time": 113.18170500000063,
          "velocity": 0.3937007874015748,
          "duration": 0.13636350000000164
        },
        {
          "name": "D#4",
          "midi": 63,
          "time": 113.31806850000063,
          "velocity": 0.3937007874015748,
          "duration": 0.13636350000000164
        },
        {
          "name": "C#5",
          "midi": 73,
          "time": 113.45443200000064,
          "velocity": 0.3937007874015748,
          "duration": 0.13636350000000164
        },
        {
          "name": "D5",
          "midi": 74,
          "time": 113.59079550000064,
          "velocity": 0.3937007874015748,
          "duration": 0.13636350000000164
        },
        {
          "name": "A4",
          "midi": 69,
          "time": 113.72715900000064,
          "velocity": 0.3937007874015748,
          "duration": 0.13636350000000164
        },
        {
          "name": "G#4",
          "midi": 68,
          "time": 113.86352250000064,
          "velocity": 0.3937007874015748,
          "duration": 0.13636350000000164
        },
        {
          "name": "D#4",
          "midi": 63,
          "time": 113.99988600000064,
          "velocity": 0.3937007874015748,
          "duration": 0.13636350000000164
        },
        {
          "name": "C#5",
          "midi": 73,
          "time": 114.13624950000064,
          "velocity": 0.3937007874015748,
          "duration": 0.13636350000000164
        },
        {
          "name": "D5",
          "midi": 74,
          "time": 114.27261300000065,
          "velocity": 0.3937007874015748,
          "duration": 0.13636350000000164
        },
        {
          "name": "A4",
          "midi": 69,
          "time": 114.40897650000065,
          "velocity": 0.3937007874015748,
          "duration": 0.13636350000000164
        },
        {
          "name": "G#4",
          "midi": 68,
          "time": 114.54534000000065,
          "velocity": 0.3937007874015748,
          "duration": 0.13636350000000164
        },
        {
          "name": "D#4",
          "midi": 63,
          "time": 114.68170350000065,
          "velocity": 0.3937007874015748,
          "duration": 0.13636350000000164
        },
        {
          "name": "C#5",
          "midi": 73,
          "time": 114.81806700000065,
          "velocity": 0.3937007874015748,
          "duration": 0.13636350000000164
        },
        {
          "name": "D5",
          "midi": 74,
          "time": 114.95443050000065,
          "velocity": 0.3937007874015748,
          "duration": 0.13636350000000164
        },
        {
          "name": "A4",
          "midi": 69,
          "time": 115.09079400000066,
          "velocity": 0.3937007874015748,
          "duration": 0.13636350000000164
        },
        {
          "name": "G#4",
          "midi": 68,
          "time": 115.22715750000066,
          "velocity": 0.3937007874015748,
          "duration": 0.13636350000000164
        },
        {
          "name": "D#4",
          "midi": 63,
          "time": 115.36352100000066,
          "velocity": 0.3937007874015748,
          "duration": 0.13636350000000164
        },
        {
          "name": "C#5",
          "midi": 73,
          "time": 115.49988450000066,
          "velocity": 0.3937007874015748,
          "duration": 0.13636350000000164
        },
        {
          "name": "D5",
          "midi": 74,
          "time": 115.63624800000066,
          "velocity": 0.3937007874015748,
          "duration": 0.13636350000000164
        },
        {
          "name": "A4",
          "midi": 69,
          "time": 115.77261150000066,
          "velocity": 0.3937007874015748,
          "duration": 0.13636350000000164
        },
        {
          "name": "G#4",
          "midi": 68,
          "time": 115.90897500000067,
          "velocity": 0.3937007874015748,
          "duration": 0.13636350000000164
        },
        {
          "name": "D#4",
          "midi": 63,
          "time": 116.04533850000067,
          "velocity": 0.3937007874015748,
          "duration": 0.13636350000000164
        },
        {
          "name": "C#5",
          "midi": 73,
          "time": 116.18170200000067,
          "velocity": 0.3937007874015748,
          "duration": 0.13636350000000164
        },
        {
          "name": "D5",
          "midi": 74,
          "time": 116.31806550000067,
          "velocity": 0.3937007874015748,
          "duration": 0.13636350000000164
        },
        {
          "name": "A4",
          "midi": 69,
          "time": 116.45442900000067,
          "velocity": 0.3937007874015748,
          "duration": 0.13636350000000164
        },
        {
          "name": "G#4",
          "midi": 68,
          "time": 116.59079250000067,
          "velocity": 0.3937007874015748,
          "duration": 0.13636350000000164
        },
        {
          "name": "D#4",
          "midi": 63,
          "time": 116.72715600000068,
          "velocity": 0.3937007874015748,
          "duration": 0.13636350000000164
        },
        {
          "name": "C#5",
          "midi": 73,
          "time": 116.86351950000068,
          "velocity": 0.3937007874015748,
          "duration": 0.13636350000000164
        },
        {
          "name": "D5",
          "midi": 74,
          "time": 116.99988300000068,
          "velocity": 0.3937007874015748,
          "duration": 0.13636350000000164
        },
        {
          "name": "A4",
          "midi": 69,
          "time": 117.13624650000068,
          "velocity": 0.3937007874015748,
          "duration": 0.13636350000000164
        },
        {
          "name": "G#4",
          "midi": 68,
          "time": 117.27261000000068,
          "velocity": 0.3937007874015748,
          "duration": 0.13636350000000164
        },
        {
          "name": "D#4",
          "midi": 63,
          "time": 117.40897350000068,
          "velocity": 0.3937007874015748,
          "duration": 0.13636350000000164
        },
        {
          "name": "C#5",
          "midi": 73,
          "time": 117.54533700000069,
          "velocity": 0.3937007874015748,
          "duration": 0.13636350000000164
        },
        {
          "name": "D5",
          "midi": 74,
          "time": 117.68170050000069,
          "velocity": 0.3937007874015748,
          "duration": 0.13636350000000164
        },
        {
          "name": "A4",
          "midi": 69,
          "time": 117.81806400000069,
          "velocity": 0.3937007874015748,
          "duration": 0.13636350000000164
        },
        {
          "name": "G#4",
          "midi": 68,
          "time": 117.95442750000069,
          "velocity": 0.3937007874015748,
          "duration": 0.13636350000000164
        },
        {
          "name": "D#4",
          "midi": 63,
          "time": 118.09079100000069,
          "velocity": 0.3937007874015748,
          "duration": 0.13636350000000164
        },
        {
          "name": "C#5",
          "midi": 73,
          "time": 118.2271545000007,
          "velocity": 0.3937007874015748,
          "duration": 0.13636350000000164
        },
        {
          "name": "D5",
          "midi": 74,
          "time": 118.3635180000007,
          "velocity": 0.3937007874015748,
          "duration": 0.13636350000000164
        },
        {
          "name": "A4",
          "midi": 69,
          "time": 118.4998815000007,
          "velocity": 0.3937007874015748,
          "duration": 0.13636350000000164
        },
        {
          "name": "G#4",
          "midi": 68,
          "time": 118.6362450000007,
          "velocity": 0.3937007874015748,
          "duration": 0.13636350000000164
        }
      ],
      "controlChanges": {},
      "id": 9,
      "name": "Xylophone",
      "instrumentNumber": 13,
      "instrument": "xylophone",
      "instrumentFamily": "chromatic percussion",
      "channelNumber": 8,
      "isPercussion": false
    },
    {
      "startTime": 78.61355775,
      "duration": 87.45445800000007,
      "length": 24,
      "notes": [
        {
          "name": "G#3",
          "midi": 56,
          "time": 78.61355775,
          "velocity": 0.3937007874015748,
          "duration": 0.13636350000000164
        },
        {
          "name": "B3",
          "midi": 59,
          "time": 78.7726485,
          "velocity": 0.3937007874015748,
          "duration": 0.13636350000000164
        },
        {
          "name": "A3",
          "midi": 57,
          "time": 78.909012,
          "velocity": 0.3937007874015748,
          "duration": 0.13636350000000164
        },
        {
          "name": "G#3",
          "midi": 56,
          "time": 79.0453755,
          "velocity": 0.3937007874015748,
          "duration": 0.13636350000000164
        },
        {
          "name": "F#4",
          "midi": 66,
          "time": 80.45446500000001,
          "velocity": 0.3937007874015748,
          "duration": 0.13636350000000164
        },
        {
          "name": "G#4",
          "midi": 68,
          "time": 80.59082850000001,
          "velocity": 0.3937007874015748,
          "duration": 0.13636350000000164
        },
        {
          "name": "B4",
          "midi": 71,
          "time": 81.13628250000002,
          "velocity": 0.3937007874015748,
          "duration": 0.13636350000000164
        },
        {
          "name": "C#5",
          "midi": 73,
          "time": 81.40900950000002,
          "velocity": 0.3937007874015748,
          "duration": 0.13636350000000164
        },
        {
          "name": "E5",
          "midi": 76,
          "time": 81.81810000000003,
          "velocity": 0.3937007874015748,
          "duration": 0.13636350000000164
        },
        {
          "name": "C#5",
          "midi": 73,
          "time": 82.09082700000003,
          "velocity": 0.3937007874015748,
          "duration": 0.13636350000000164
        },
        {
          "name": "B4",
          "midi": 71,
          "time": 82.49991750000004,
          "velocity": 0.3937007874015748,
          "duration": 0.13636350000000164
        },
        {
          "name": "C#5",
          "midi": 73,
          "time": 83.04537150000004,
          "velocity": 0.3937007874015748,
          "duration": 0.13636350000000164
        },
        {
          "name": "B4",
          "midi": 71,
          "time": 83.22718950000005,
          "velocity": 0.3937007874015748,
          "duration": 0.13636350000000164
        },
        {
          "name": "C#5",
          "midi": 73,
          "time": 84.54537000000005,
          "velocity": 0.3937007874015748,
          "duration": 0.13636350000000164
        },
        {
          "name": "B4",
          "midi": 71,
          "time": 84.81809700000005,
          "velocity": 0.3937007874015748,
          "duration": 0.13636350000000164
        },
        {
          "name": "G#4",
          "midi": 68,
          "time": 84.92036962500005,
          "velocity": 0.3937007874015748,
          "duration": 0.13636350000000164
        },
        {
          "name": "F#4",
          "midi": 66,
          "time": 85.22718750000006,
          "velocity": 0.3937007874015748,
          "duration": 0.13636350000000164
        },
        {
          "name": "E4",
          "midi": 64,
          "time": 85.56809625000005,
          "velocity": 0.3937007874015748,
          "duration": 0.13636350000000164
        },
        {
          "name": "D#4",
          "midi": 63,
          "time": 85.87491412500006,
          "velocity": 0.3937007874015748,
          "duration": 0.13636350000000164
        },
        {
          "name": "C#4",
          "midi": 61,
          "time": 86.21582287500006,
          "velocity": 0.3937007874015748,
          "duration": 0.13636350000000164
        },
        {
          "name": "D#4",
          "midi": 63,
          "time": 86.38627725000006,
          "velocity": 0.3937007874015748,
          "duration": 0.13636350000000164
        },
        {
          "name": "F#4",
          "midi": 66,
          "time": 86.65900425000007,
          "velocity": 0.3937007874015748,
          "duration": 0.13636350000000164
        },
        {
          "name": "E4",
          "midi": 64,
          "time": 86.95445850000007,
          "velocity": 0.3937007874015748,
          "duration": 0.13636350000000164
        },
        {
          "name": "D#4",
          "midi": 63,
          "time": 87.31809450000007,
          "velocity": 0.3937007874015748,
          "duration": 0.13636350000000164
        }
      ],
      "controlChanges": {},
      "id": 10,
      "name": "Saxophone",
      "instrumentNumber": 64,
      "instrumentFamily": "drums",
      "channelNumber": 10,
      "isPercussion": true
    },
    {
      "startTime": 13.63635,
      "duration": 115.90897500000061,
      "length": 239,
      "notes": [
        {
          "name": "G1",
          "midi": 31,
          "time": 13.63635,
          "velocity": 0.3937007874015748,
          "duration": 0.13636349999999986
        },
        {
          "name": "D#3",
          "midi": 51,
          "time": 13.63635,
          "velocity": 0.3937007874015748,
          "duration": 0.13636349999999986
        },
        {
          "name": "C#3",
          "midi": 49,
          "time": 13.63635,
          "velocity": 0.3937007874015748,
          "duration": 0.13636349999999986
        },
        {
          "name": "G1",
          "midi": 31,
          "time": 14.0454405,
          "velocity": 0.3937007874015748,
          "duration": 0.13636349999999986
        },
        {
          "name": "C#2",
          "midi": 37,
          "time": 14.3181675,
          "velocity": 0.3937007874015748,
          "duration": 0.13636349999999986
        },
        {
          "name": "G1",
          "midi": 31,
          "time": 14.727257999999999,
          "velocity": 0.3937007874015748,
          "duration": 0.13636349999999986
        },
        {
          "name": "G1",
          "midi": 31,
          "time": 14.999984999999999,
          "velocity": 0.3937007874015748,
          "duration": 0.13636349999999986
        },
        {
          "name": "G1",
          "midi": 31,
          "time": 15.409075499999998,
          "velocity": 0.3937007874015748,
          "duration": 0.13636349999999986
        },
        {
          "name": "C#2",
          "midi": 37,
          "time": 15.681802499999998,
          "velocity": 0.3937007874015748,
          "duration": 0.13636349999999986
        },
        {
          "name": "G1",
          "midi": 31,
          "time": 16.363619999999997,
          "velocity": 0.3937007874015748,
          "duration": 0.13636350000000164
        },
        {
          "name": "G1",
          "midi": 31,
          "time": 16.7727105,
          "velocity": 0.3937007874015748,
          "duration": 0.13636350000000164
        },
        {
          "name": "C#2",
          "midi": 37,
          "time": 17.045437500000002,
          "velocity": 0.3937007874015748,
          "duration": 0.13636350000000164
        },
        {
          "name": "G1",
          "midi": 31,
          "time": 17.454528000000003,
          "velocity": 0.3937007874015748,
          "duration": 0.13636350000000164
        },
        {
          "name": "G1",
          "midi": 31,
          "time": 17.727255000000007,
          "velocity": 0.3937007874015748,
          "duration": 0.13636350000000164
        },
        {
          "name": "G1",
          "midi": 31,
          "time": 18.136345500000008,
          "velocity": 0.3937007874015748,
          "duration": 0.13636350000000164
        },
        {
          "name": "C#2",
          "midi": 37,
          "time": 18.40907250000001,
          "velocity": 0.3937007874015748,
          "duration": 0.13636350000000164
        },
        {
          "name": "C#2",
          "midi": 37,
          "time": 18.545436000000013,
          "velocity": 0.3937007874015748,
          "duration": 0.13636350000000164
        },
        {
          "name": "A2",
          "midi": 45,
          "time": 18.681799500000015,
          "velocity": 0.3937007874015748,
          "duration": 0.13636350000000164
        },
        {
          "name": "F2",
          "midi": 41,
          "time": 18.818163000000016,
          "velocity": 0.3937007874015748,
          "duration": 0.13636350000000164
        },
        {
          "name": "F#2",
          "midi": 42,
          "time": 18.954526500000018,
          "velocity": 0.3937007874015748,
          "duration": 0.13636350000000164
        },
        {
          "name": "A#2",
          "midi": 46,
          "time": 18.954526500000018,
          "velocity": 0.3937007874015748,
          "duration": 0.13636350000000164
        },
        {
          "name": "C#3",
          "midi": 49,
          "time": 19.09089000000002,
          "velocity": 0.3937007874015748,
          "duration": 0.13636350000000164
        },
        {
          "name": "D#3",
          "midi": 51,
          "time": 19.09089000000002,
          "velocity": 0.3937007874015748,
          "duration": 0.13636350000000164
        },
        {
          "name": "G1",
          "midi": 31,
          "time": 19.09089000000002,
          "velocity": 0.3937007874015748,
          "duration": 0.13636350000000164
        },
        {
          "name": "G1",
          "midi": 31,
          "time": 19.49998050000002,
          "velocity": 0.3937007874015748,
          "duration": 0.13636350000000164
        },
        {
          "name": "C#2",
          "midi": 37,
          "time": 19.772707500000024,
          "velocity": 0.3937007874015748,
          "duration": 0.13636350000000164
        },
        {
          "name": "G1",
          "midi": 31,
          "time": 20.181798000000025,
          "velocity": 0.3937007874015748,
          "duration": 0.13636350000000164
        },
        {
          "name": "G1",
          "midi": 31,
          "time": 20.45452500000003,
          "velocity": 0.3937007874015748,
          "duration": 0.13636350000000164
        },
        {
          "name": "G1",
          "midi": 31,
          "time": 20.86361550000003,
          "velocity": 0.3937007874015748,
          "duration": 0.13636350000000164
        },
        {
          "name": "C#2",
          "midi": 37,
          "time": 21.136342500000033,
          "velocity": 0.3937007874015748,
          "duration": 0.13636350000000164
        },
        {
          "name": "G1",
          "midi": 31,
          "time": 21.818160000000034,
          "velocity": 0.3937007874015748,
          "duration": 0.13636350000000164
        },
        {
          "name": "G1",
          "midi": 31,
          "time": 22.227250500000036,
          "velocity": 0.3937007874015748,
          "duration": 0.13636350000000164
        },
        {
          "name": "C#2",
          "midi": 37,
          "time": 22.49997750000004,
          "velocity": 0.3937007874015748,
          "duration": 0.13636350000000164
        },
        {
          "name": "G1",
          "midi": 31,
          "time": 22.90906800000004,
          "velocity": 0.3937007874015748,
          "duration": 0.13636350000000164
        },
        {
          "name": "G1",
          "midi": 31,
          "time": 23.181795000000044,
          "velocity": 0.3937007874015748,
          "duration": 0.13636350000000164
        },
        {
          "name": "G1",
          "midi": 31,
          "time": 23.590885500000045,
          "velocity": 0.3937007874015748,
          "duration": 0.13636350000000164
        },
        {
          "name": "C#2",
          "midi": 37,
          "time": 23.86361250000005,
          "velocity": 0.3937007874015748,
          "duration": 0.13636350000000164
        },
        {
          "name": "C#2",
          "midi": 37,
          "time": 23.99997600000005,
          "velocity": 0.3937007874015748,
          "duration": 0.13636350000000164
        },
        {
          "name": "A2",
          "midi": 45,
          "time": 24.13633950000005,
          "velocity": 0.3937007874015748,
          "duration": 0.13636350000000164
        },
        {
          "name": "F2",
          "midi": 41,
          "time": 24.272703000000053,
          "velocity": 0.3937007874015748,
          "duration": 0.13636350000000164
        },
        {
          "name": "F#2",
          "midi": 42,
          "time": 24.409066500000055,
          "velocity": 0.3937007874015748,
          "duration": 0.13636350000000164
        },
        {
          "name": "A#2",
          "midi": 46,
          "time": 24.409066500000055,
          "velocity": 0.3937007874015748,
          "duration": 0.13636350000000164
        },
        {
          "name": "D#3",
          "midi": 51,
          "time": 24.545430000000056,
          "velocity": 0.3937007874015748,
          "duration": 0.13636350000000164
        },
        {
          "name": "G1",
          "midi": 31,
          "time": 24.545430000000056,
          "velocity": 0.3937007874015748,
          "duration": 0.13636350000000164
        },
        {
          "name": "C#3",
          "midi": 49,
          "time": 24.545430000000056,
          "velocity": 0.3937007874015748,
          "duration": 0.13636350000000164
        },
        {
          "name": "G1",
          "midi": 31,
          "time": 24.954520500000058,
          "velocity": 0.3937007874015748,
          "duration": 0.13636350000000164
        },
        {
          "name": "C#2",
          "midi": 37,
          "time": 25.22724750000006,
          "velocity": 0.3937007874015748,
          "duration": 0.13636350000000164
        },
        {
          "name": "G1",
          "midi": 31,
          "time": 25.636338000000062,
          "velocity": 0.3937007874015748,
          "duration": 0.13636350000000164
        },
        {
          "name": "G1",
          "midi": 31,
          "time": 25.909065000000066,
          "velocity": 0.3937007874015748,
          "duration": 0.13636350000000164
        },
        {
          "name": "G1",
          "midi": 31,
          "time": 26.318155500000067,
          "velocity": 0.3937007874015748,
          "duration": 0.13636350000000164
        },
        {
          "name": "C#2",
          "midi": 37,
          "time": 26.59088250000007,
          "velocity": 0.3937007874015748,
          "duration": 0.13636350000000164
        },
        {
          "name": "G1",
          "midi": 31,
          "time": 27.27270000000007,
          "velocity": 0.3937007874015748,
          "duration": 0.13636350000000164
        },
        {
          "name": "G1",
          "midi": 31,
          "time": 27.681790500000073,
          "velocity": 0.3937007874015748,
          "duration": 0.13636350000000164
        },
        {
          "name": "C#2",
          "midi": 37,
          "time": 27.954517500000076,
          "velocity": 0.3937007874015748,
          "duration": 0.13636350000000164
        },
        {
          "name": "G1",
          "midi": 31,
          "time": 28.363608000000077,
          "velocity": 0.3937007874015748,
          "duration": 0.13636350000000164
        },
        {
          "name": "G1",
          "midi": 31,
          "time": 28.63633500000008,
          "velocity": 0.3937007874015748,
          "duration": 0.13636350000000164
        },
        {
          "name": "G1",
          "midi": 31,
          "time": 29.045425500000082,
          "velocity": 0.3937007874015748,
          "duration": 0.13636350000000164
        },
        {
          "name": "C#2",
          "midi": 37,
          "time": 29.318152500000085,
          "velocity": 0.3937007874015748,
          "duration": 0.13636350000000164
        },
        {
          "name": "C#2",
          "midi": 37,
          "time": 29.454516000000087,
          "velocity": 0.3937007874015748,
          "duration": 0.13636350000000164
        },
        {
          "name": "A2",
          "midi": 45,
          "time": 29.59087950000009,
          "velocity": 0.3937007874015748,
          "duration": 0.13636350000000164
        },
        {
          "name": "F2",
          "midi": 41,
          "time": 29.72724300000009,
          "velocity": 0.3937007874015748,
          "duration": 0.13636350000000164
        },
        {
          "name": "F#2",
          "midi": 42,
          "time": 29.863606500000092,
          "velocity": 0.3937007874015748,
          "duration": 0.13636350000000164
        },
        {
          "name": "A#2",
          "midi": 46,
          "time": 29.863606500000092,
          "velocity": 0.3937007874015748,
          "duration": 0.13636350000000164
        },
        {
          "name": "C#3",
          "midi": 49,
          "time": 29.999970000000094,
          "velocity": 0.3937007874015748,
          "duration": 0.13636350000000164
        },
        {
          "name": "G1",
          "midi": 31,
          "time": 29.999970000000094,
          "velocity": 0.3937007874015748,
          "duration": 0.13636350000000164
        },
        {
          "name": "D#3",
          "midi": 51,
          "time": 29.999970000000094,
          "velocity": 0.3937007874015748,
          "duration": 0.13636350000000164
        },
        {
          "name": "G1",
          "midi": 31,
          "time": 30.409060500000095,
          "velocity": 0.3937007874015748,
          "duration": 0.13636350000000164
        },
        {
          "name": "C#2",
          "midi": 37,
          "time": 30.681787500000098,
          "velocity": 0.3937007874015748,
          "duration": 0.13636350000000164
        },
        {
          "name": "G1",
          "midi": 31,
          "time": 31.0908780000001,
          "velocity": 0.3937007874015748,
          "duration": 0.13636350000000164
        },
        {
          "name": "G1",
          "midi": 31,
          "time": 31.363605000000103,
          "velocity": 0.3937007874015748,
          "duration": 0.13636350000000164
        },
        {
          "name": "G1",
          "midi": 31,
          "time": 31.772695500000104,
          "velocity": 0.3937007874015748,
          "duration": 0.13636350000000164
        },
        {
          "name": "C#2",
          "midi": 37,
          "time": 32.04542250000011,
          "velocity": 0.3937007874015748,
          "duration": 0.13636350000000164
        },
        {
          "name": "G1",
          "midi": 31,
          "time": 32.72724000000011,
          "velocity": 0.3937007874015748,
          "duration": 0.13636350000000164
        },
        {
          "name": "G1",
          "midi": 31,
          "time": 33.13633050000011,
          "velocity": 0.3937007874015748,
          "duration": 0.13636350000000164
        },
        {
          "name": "C#2",
          "midi": 37,
          "time": 33.40905750000012,
          "velocity": 0.3937007874015748,
          "duration": 0.13636350000000164
        },
        {
          "name": "G1",
          "midi": 31,
          "time": 33.81814800000012,
          "velocity": 0.3937007874015748,
          "duration": 0.13636350000000164
        },
        {
          "name": "G1",
          "midi": 31,
          "time": 34.090875000000125,
          "velocity": 0.3937007874015748,
          "duration": 0.13636350000000164
        },
        {
          "name": "G1",
          "midi": 31,
          "time": 34.49996550000013,
          "velocity": 0.3937007874015748,
          "duration": 0.13636350000000164
        },
        {
          "name": "C#2",
          "midi": 37,
          "time": 34.77269250000013,
          "velocity": 0.3937007874015748,
          "duration": 0.13636350000000164
        },
        {
          "name": "C#2",
          "midi": 37,
          "time": 34.909056000000135,
          "velocity": 0.3937007874015748,
          "duration": 0.13636350000000164
        },
        {
          "name": "A2",
          "midi": 45,
          "time": 35.045419500000136,
          "velocity": 0.3937007874015748,
          "duration": 0.13636350000000164
        },
        {
          "name": "F2",
          "midi": 41,
          "time": 35.18178300000014,
          "velocity": 0.3937007874015748,
          "duration": 0.13636350000000164
        },
        {
          "name": "F#2",
          "midi": 42,
          "time": 35.31814650000014,
          "velocity": 0.3937007874015748,
          "duration": 0.13636350000000164
        },
        {
          "name": "A#2",
          "midi": 46,
          "time": 35.31814650000014,
          "velocity": 0.3937007874015748,
          "duration": 0.13636350000000164
        },
        {
          "name": "G1",
          "midi": 31,
          "time": 35.45451000000014,
          "velocity": 0.3937007874015748,
          "duration": 0.13636350000000164
        },
        {
          "name": "C#3",
          "midi": 49,
          "time": 35.45451000000014,
          "velocity": 0.3937007874015748,
          "duration": 0.13636350000000164
        },
        {
          "name": "D#3",
          "midi": 51,
          "time": 35.45451000000014,
          "velocity": 0.3937007874015748,
          "duration": 0.13636350000000164
        },
        {
          "name": "G1",
          "midi": 31,
          "time": 35.863600500000146,
          "velocity": 0.3937007874015748,
          "duration": 0.13636350000000164
        },
        {
          "name": "C#2",
          "midi": 37,
          "time": 36.13632750000015,
          "velocity": 0.3937007874015748,
          "duration": 0.13636350000000164
        },
        {
          "name": "G1",
          "midi": 31,
          "time": 36.545418000000154,
          "velocity": 0.3937007874015748,
          "duration": 0.13636350000000164
        },
        {
          "name": "G1",
          "midi": 31,
          "time": 36.81814500000016,
          "velocity": 0.3937007874015748,
          "duration": 0.13636350000000164
        },
        {
          "name": "G1",
          "midi": 31,
          "time": 37.22723550000016,
          "velocity": 0.3937007874015748,
          "duration": 0.13636350000000164
        },
        {
          "name": "C#2",
          "midi": 37,
          "time": 37.499962500000166,
          "velocity": 0.3937007874015748,
          "duration": 0.13636350000000164
        },
        {
          "name": "G1",
          "midi": 31,
          "time": 38.18178000000017,
          "velocity": 0.3937007874015748,
          "duration": 0.13636350000000164
        },
        {
          "name": "G1",
          "midi": 31,
          "time": 38.59087050000017,
          "velocity": 0.3937007874015748,
          "duration": 0.13636350000000164
        },
        {
          "name": "C#2",
          "midi": 37,
          "time": 38.863597500000175,
          "velocity": 0.3937007874015748,
          "duration": 0.13636350000000164
        },
        {
          "name": "G1",
          "midi": 31,
          "time": 39.27268800000018,
          "velocity": 0.3937007874015748,
          "duration": 0.13636350000000164
        },
        {
          "name": "G1",
          "midi": 31,
          "time": 39.54541500000018,
          "velocity": 0.3937007874015748,
          "duration": 0.13636350000000164
        },
        {
          "name": "G1",
          "midi": 31,
          "time": 39.95450550000019,
          "velocity": 0.3937007874015748,
          "duration": 0.13636350000000164
        },
        {
          "name": "C#2",
          "midi": 37,
          "time": 40.22723250000019,
          "velocity": 0.3937007874015748,
          "duration": 0.13636350000000164
        },
        {
          "name": "C#2",
          "midi": 37,
          "time": 40.36359600000019,
          "velocity": 0.3937007874015748,
          "duration": 0.13636350000000164
        },
        {
          "name": "A2",
          "midi": 45,
          "time": 40.499959500000195,
          "velocity": 0.3937007874015748,
          "duration": 0.13636350000000164
        },
        {
          "name": "F2",
          "midi": 41,
          "time": 40.636323000000196,
          "velocity": 0.3937007874015748,
          "duration": 0.13636350000000164
        },
        {
          "name": "F#2",
          "midi": 42,
          "time": 40.7726865000002,
          "velocity": 0.3937007874015748,
          "duration": 0.13636350000000164
        },
        {
          "name": "G1",
          "midi": 31,
          "time": 40.9090500000002,
          "velocity": 0.3937007874015748,
          "duration": 0.13636350000000164
        },
        {
          "name": "G1",
          "midi": 31,
          "time": 41.318140500000204,
          "velocity": 0.3937007874015748,
          "duration": 0.13636350000000164
        },
        {
          "name": "C#2",
          "midi": 37,
          "time": 41.59086750000021,
          "velocity": 0.3937007874015748,
          "duration": 0.13636350000000164
        },
        {
          "name": "G1",
          "midi": 31,
          "time": 41.99995800000021,
          "velocity": 0.3937007874015748,
          "duration": 0.13636350000000164
        },
        {
          "name": "G1",
          "midi": 31,
          "time": 42.272685000000216,
          "velocity": 0.3937007874015748,
          "duration": 0.13636350000000164
        },
        {
          "name": "G1",
          "midi": 31,
          "time": 42.68177550000022,
          "velocity": 0.3937007874015748,
          "duration": 0.13636350000000164
        },
        {
          "name": "C#2",
          "midi": 37,
          "time": 42.954502500000224,
          "velocity": 0.3937007874015748,
          "duration": 0.13636350000000164
        },
        {
          "name": "G1",
          "midi": 31,
          "time": 43.636320000000225,
          "velocity": 0.3937007874015748,
          "duration": 0.13636350000000164
        },
        {
          "name": "G1",
          "midi": 31,
          "time": 44.04541050000023,
          "velocity": 0.3937007874015748,
          "duration": 0.13636350000000164
        },
        {
          "name": "C#2",
          "midi": 37,
          "time": 44.31813750000023,
          "velocity": 0.3937007874015748,
          "duration": 0.13636350000000164
        },
        {
          "name": "G1",
          "midi": 31,
          "time": 44.72722800000024,
          "velocity": 0.3937007874015748,
          "duration": 0.13636350000000164
        },
        {
          "name": "G1",
          "midi": 31,
          "time": 44.99995500000024,
          "velocity": 0.3937007874015748,
          "duration": 0.13636350000000164
        },
        {
          "name": "G1",
          "midi": 31,
          "time": 45.409045500000246,
          "velocity": 0.3937007874015748,
          "duration": 0.13636350000000164
        },
        {
          "name": "C#2",
          "midi": 37,
          "time": 45.68177250000025,
          "velocity": 0.3937007874015748,
          "duration": 0.13636350000000164
        },
        {
          "name": "C#2",
          "midi": 37,
          "time": 45.81813600000025,
          "velocity": 0.3937007874015748,
          "duration": 0.13636350000000164
        },
        {
          "name": "A2",
          "midi": 45,
          "time": 45.95449950000025,
          "velocity": 0.3937007874015748,
          "duration": 0.13636350000000164
        },
        {
          "name": "F2",
          "midi": 41,
          "time": 46.090863000000255,
          "velocity": 0.3937007874015748,
          "duration": 0.13636350000000164
        },
        {
          "name": "F#2",
          "midi": 42,
          "time": 46.227226500000256,
          "velocity": 0.3937007874015748,
          "duration": 0.13636350000000164
        },
        {
          "name": "G1",
          "midi": 31,
          "time": 46.36359000000026,
          "velocity": 0.3937007874015748,
          "duration": 0.13636350000000164
        },
        {
          "name": "C#3",
          "midi": 49,
          "time": 46.36359000000026,
          "velocity": 0.3937007874015748,
          "duration": 0.13636350000000164
        },
        {
          "name": "G1",
          "midi": 31,
          "time": 46.77268050000026,
          "velocity": 0.3937007874015748,
          "duration": 0.13636350000000164
        },
        {
          "name": "C#2",
          "midi": 37,
          "time": 47.045407500000266,
          "velocity": 0.3937007874015748,
          "duration": 0.13636350000000164
        },
        {
          "name": "G1",
          "midi": 31,
          "time": 47.45449800000027,
          "velocity": 0.3937007874015748,
          "duration": 0.13636350000000164
        },
        {
          "name": "G1",
          "midi": 31,
          "time": 47.727225000000274,
          "velocity": 0.3937007874015748,
          "duration": 0.13636350000000164
        },
        {
          "name": "G1",
          "midi": 31,
          "time": 48.13631550000028,
          "velocity": 0.3937007874015748,
          "duration": 0.13636350000000164
        },
        {
          "name": "C#2",
          "midi": 37,
          "time": 48.40904250000028,
          "velocity": 0.3937007874015748,
          "duration": 0.13636350000000164
        },
        {
          "name": "G1",
          "midi": 31,
          "time": 49.09086000000028,
          "velocity": 0.3937007874015748,
          "duration": 0.13636350000000164
        },
        {
          "name": "G1",
          "midi": 31,
          "time": 49.49995050000029,
          "velocity": 0.3937007874015748,
          "duration": 0.13636350000000164
        },
        {
          "name": "C#2",
          "midi": 37,
          "time": 49.77267750000029,
          "velocity": 0.3937007874015748,
          "duration": 0.13636350000000164
        },
        {
          "name": "G1",
          "midi": 31,
          "time": 50.1817680000003,
          "velocity": 0.3937007874015748,
          "duration": 0.13636350000000164
        },
        {
          "name": "G1",
          "midi": 31,
          "time": 50.4544950000003,
          "velocity": 0.3937007874015748,
          "duration": 0.13636350000000164
        },
        {
          "name": "G1",
          "midi": 31,
          "time": 50.863585500000305,
          "velocity": 0.3937007874015748,
          "duration": 0.13636350000000164
        },
        {
          "name": "C#2",
          "midi": 37,
          "time": 51.13631250000031,
          "velocity": 0.3937007874015748,
          "duration": 0.13636350000000164
        },
        {
          "name": "C#2",
          "midi": 37,
          "time": 51.27267600000031,
          "velocity": 0.3937007874015748,
          "duration": 0.13636350000000164
        },
        {
          "name": "A2",
          "midi": 45,
          "time": 51.40903950000031,
          "velocity": 0.3937007874015748,
          "duration": 0.13636350000000164
        },
        {
          "name": "F2",
          "midi": 41,
          "time": 51.54540300000031,
          "velocity": 0.3937007874015748,
          "duration": 0.13636350000000164
        },
        {
          "name": "F#2",
          "midi": 42,
          "time": 51.681766500000315,
          "velocity": 0.3937007874015748,
          "duration": 0.13636350000000164
        },
        {
          "name": "G1",
          "midi": 31,
          "time": 51.818130000000316,
          "velocity": 0.3937007874015748,
          "duration": 0.13636350000000164
        },
        {
          "name": "G1",
          "midi": 31,
          "time": 52.22722050000032,
          "velocity": 0.3937007874015748,
          "duration": 0.13636350000000164
        },
        {
          "name": "C#2",
          "midi": 37,
          "time": 52.499947500000324,
          "velocity": 0.3937007874015748,
          "duration": 0.13636350000000164
        },
        {
          "name": "G1",
          "midi": 31,
          "time": 52.90903800000033,
          "velocity": 0.3937007874015748,
          "duration": 0.13636350000000164
        },
        {
          "name": "G1",
          "midi": 31,
          "time": 53.18176500000033,
          "velocity": 0.3937007874015748,
          "duration": 0.13636350000000164
        },
        {
          "name": "G1",
          "midi": 31,
          "time": 53.59085550000034,
          "velocity": 0.3937007874015748,
          "duration": 0.13636350000000164
        },
        {
          "name": "C#2",
          "midi": 37,
          "time": 53.86358250000034,
          "velocity": 0.3937007874015748,
          "duration": 0.13636350000000164
        },
        {
          "name": "G1",
          "midi": 31,
          "time": 54.54540000000034,
          "velocity": 0.3937007874015748,
          "duration": 0.13636350000000164
        },
        {
          "name": "G1",
          "midi": 31,
          "time": 54.95449050000035,
          "velocity": 0.3937007874015748,
          "duration": 0.13636350000000164
        },
        {
          "name": "C#2",
          "midi": 37,
          "time": 55.22721750000035,
          "velocity": 0.3937007874015748,
          "duration": 0.13636350000000164
        },
        {
          "name": "G1",
          "midi": 31,
          "time": 55.636308000000355,
          "velocity": 0.3937007874015748,
          "duration": 0.13636350000000164
        },
        {
          "name": "G1",
          "midi": 31,
          "time": 55.90903500000036,
          "velocity": 0.3937007874015748,
          "duration": 0.13636350000000164
        },
        {
          "name": "G1",
          "midi": 31,
          "time": 56.31812550000036,
          "velocity": 0.3937007874015748,
          "duration": 0.13636350000000164
        },
        {
          "name": "C#2",
          "midi": 37,
          "time": 56.590852500000366,
          "velocity": 0.3937007874015748,
          "duration": 0.13636350000000164
        },
        {
          "name": "C#2",
          "midi": 37,
          "time": 56.72721600000037,
          "velocity": 0.3937007874015748,
          "duration": 0.13636350000000164
        },
        {
          "name": "A2",
          "midi": 45,
          "time": 56.86357950000037,
          "velocity": 0.3937007874015748,
          "duration": 0.13636350000000164
        },
        {
          "name": "F2",
          "midi": 41,
          "time": 56.99994300000037,
          "velocity": 0.3937007874015748,
          "duration": 0.13636350000000164
        },
        {
          "name": "F#2",
          "midi": 42,
          "time": 57.13630650000037,
          "velocity": 0.3937007874015748,
          "duration": 0.13636350000000164
        },
        {
          "name": "D#3",
          "midi": 51,
          "time": 94.09081500000038,
          "velocity": 0.3937007874015748,
          "duration": 0.13636350000000164
        },
        {
          "name": "G1",
          "midi": 31,
          "time": 94.09081500000038,
          "velocity": 0.3937007874015748,
          "duration": 0.13636350000000164
        },
        {
          "name": "C#3",
          "midi": 49,
          "time": 94.09081500000038,
          "velocity": 0.3937007874015748,
          "duration": 0.13636350000000164
        },
        {
          "name": "G1",
          "midi": 31,
          "time": 95.18172300000037,
          "velocity": 0.3937007874015748,
          "duration": 0.13636350000000164
        },
        {
          "name": "G1",
          "midi": 31,
          "time": 95.45445000000038,
          "velocity": 0.3937007874015748,
          "duration": 0.13636350000000164
        },
        {
          "name": "G1",
          "midi": 31,
          "time": 95.86354050000038,
          "velocity": 0.3937007874015748,
          "duration": 0.13636350000000164
        },
        {
          "name": "C#2",
          "midi": 37,
          "time": 96.13626750000039,
          "velocity": 0.3937007874015748,
          "duration": 0.13636350000000164
        },
        {
          "name": "G1",
          "midi": 31,
          "time": 96.8180850000004,
          "velocity": 0.3937007874015748,
          "duration": 0.13636350000000164
        },
        {
          "name": "G1",
          "midi": 31,
          "time": 97.2271755000004,
          "velocity": 0.3937007874015748,
          "duration": 0.13636350000000164
        },
        {
          "name": "C#2",
          "midi": 37,
          "time": 97.4999025000004,
          "velocity": 0.3937007874015748,
          "duration": 0.13636350000000164
        },
        {
          "name": "G1",
          "midi": 31,
          "time": 97.90899300000041,
          "velocity": 0.3937007874015748,
          "duration": 0.13636350000000164
        },
        {
          "name": "G1",
          "midi": 31,
          "time": 98.18172000000041,
          "velocity": 0.3937007874015748,
          "duration": 0.13636350000000164
        },
        {
          "name": "G1",
          "midi": 31,
          "time": 98.59081050000042,
          "velocity": 0.3937007874015748,
          "duration": 0.13636350000000164
        },
        {
          "name": "C#2",
          "midi": 37,
          "time": 98.86353750000042,
          "velocity": 0.3937007874015748,
          "duration": 0.13636350000000164
        },
        {
          "name": "C#2",
          "midi": 37,
          "time": 98.99990100000042,
          "velocity": 0.3937007874015748,
          "duration": 0.13636350000000164
        },
        {
          "name": "A2",
          "midi": 45,
          "time": 99.13626450000042,
          "velocity": 0.3937007874015748,
          "duration": 0.13636350000000164
        },
        {
          "name": "F2",
          "midi": 41,
          "time": 99.27262800000042,
          "velocity": 0.3937007874015748,
          "duration": 0.13636350000000164
        },
        {
          "name": "F#2",
          "midi": 42,
          "time": 99.40899150000043,
          "velocity": 0.3937007874015748,
          "duration": 0.13636350000000164
        },
        {
          "name": "A#2",
          "midi": 46,
          "time": 99.40899150000043,
          "velocity": 0.3937007874015748,
          "duration": 0.03409087500000396
        },
        {
          "name": "G1",
          "midi": 31,
          "time": 99.54535500000043,
          "velocity": 0.3937007874015748,
          "duration": 0.13636350000000164
        },
        {
          "name": "C#3",
          "midi": 49,
          "time": 99.54535500000043,
          "velocity": 0.3937007874015748,
          "duration": 0.13636350000000164
        },
        {
          "name": "D#3",
          "midi": 51,
          "time": 99.54535500000043,
          "velocity": 0.3937007874015748,
          "duration": 0.13636350000000164
        },
        {
          "name": "G1",
          "midi": 31,
          "time": 99.95444550000043,
          "velocity": 0.3937007874015748,
          "duration": 0.13636350000000164
        },
        {
          "name": "C#2",
          "midi": 37,
          "time": 100.22717250000044,
          "velocity": 0.3937007874015748,
          "duration": 0.13636350000000164
        },
        {
          "name": "G1",
          "midi": 31,
          "time": 100.63626300000044,
          "velocity": 0.3937007874015748,
          "duration": 0.13636350000000164
        },
        {
          "name": "G1",
          "midi": 31,
          "time": 100.90899000000044,
          "velocity": 0.3937007874015748,
          "duration": 0.13636350000000164
        },
        {
          "name": "G1",
          "midi": 31,
          "time": 101.31808050000045,
          "velocity": 0.3937007874015748,
          "duration": 0.13636350000000164
        },
        {
          "name": "C#2",
          "midi": 37,
          "time": 101.59080750000045,
          "velocity": 0.3937007874015748,
          "duration": 0.13636350000000164
        },
        {
          "name": "G1",
          "midi": 31,
          "time": 102.27262500000046,
          "velocity": 0.3937007874015748,
          "duration": 0.13636350000000164
        },
        {
          "name": "G1",
          "midi": 31,
          "time": 102.68171550000046,
          "velocity": 0.3937007874015748,
          "duration": 0.13636350000000164
        },
        {
          "name": "C#2",
          "midi": 37,
          "time": 102.95444250000047,
          "velocity": 0.3937007874015748,
          "duration": 0.13636350000000164
        },
        {
          "name": "G1",
          "midi": 31,
          "time": 103.36353300000047,
          "velocity": 0.3937007874015748,
          "duration": 0.13636350000000164
        },
        {
          "name": "G1",
          "midi": 31,
          "time": 103.63626000000048,
          "velocity": 0.3937007874015748,
          "duration": 0.13636350000000164
        },
        {
          "name": "G1",
          "midi": 31,
          "time": 104.04535050000048,
          "velocity": 0.3937007874015748,
          "duration": 0.13636350000000164
        },
        {
          "name": "C#2",
          "midi": 37,
          "time": 104.31807750000048,
          "velocity": 0.3937007874015748,
          "duration": 0.13636350000000164
        },
        {
          "name": "C#2",
          "midi": 37,
          "time": 104.45444100000049,
          "velocity": 0.3937007874015748,
          "duration": 0.13636350000000164
        },
        {
          "name": "A2",
          "midi": 45,
          "time": 104.59080450000049,
          "velocity": 0.3937007874015748,
          "duration": 0.13636350000000164
        },
        {
          "name": "F2",
          "midi": 41,
          "time": 104.72716800000049,
          "velocity": 0.3937007874015748,
          "duration": 0.13636350000000164
        },
        {
          "name": "F#2",
          "midi": 42,
          "time": 104.86353150000049,
          "velocity": 0.3937007874015748,
          "duration": 0.13636350000000164
        },
        {
          "name": "A#2",
          "midi": 46,
          "time": 104.86353150000049,
          "velocity": 0.3937007874015748,
          "duration": 0.03409087500000396
        },
        {
          "name": "D#3",
          "midi": 51,
          "time": 104.99989500000049,
          "velocity": 0.3937007874015748,
          "duration": 0.13636350000000164
        },
        {
          "name": "C#3",
          "midi": 49,
          "time": 104.99989500000049,
          "velocity": 0.3937007874015748,
          "duration": 0.13636350000000164
        },
        {
          "name": "G1",
          "midi": 31,
          "time": 104.99989500000049,
          "velocity": 0.3937007874015748,
          "duration": 0.13636350000000164
        },
        {
          "name": "G1",
          "midi": 31,
          "time": 106.09080300000049,
          "velocity": 0.3937007874015748,
          "duration": 0.13636350000000164
        },
        {
          "name": "G1",
          "midi": 31,
          "time": 106.3635300000005,
          "velocity": 0.3937007874015748,
          "duration": 0.13636350000000164
        },
        {
          "name": "G1",
          "midi": 31,
          "time": 106.7726205000005,
          "velocity": 0.3937007874015748,
          "duration": 0.13636350000000164
        },
        {
          "name": "C#2",
          "midi": 37,
          "time": 107.0453475000005,
          "velocity": 0.3937007874015748,
          "duration": 0.13636350000000164
        },
        {
          "name": "G1",
          "midi": 31,
          "time": 107.72716500000051,
          "velocity": 0.3937007874015748,
          "duration": 0.13636350000000164
        },
        {
          "name": "G1",
          "midi": 31,
          "time": 108.13625550000052,
          "velocity": 0.3937007874015748,
          "duration": 0.13636350000000164
        },
        {
          "name": "C#2",
          "midi": 37,
          "time": 108.40898250000052,
          "velocity": 0.3937007874015748,
          "duration": 0.13636350000000164
        },
        {
          "name": "G1",
          "midi": 31,
          "time": 108.81807300000052,
          "velocity": 0.3937007874015748,
          "duration": 0.13636350000000164
        },
        {
          "name": "G1",
          "midi": 31,
          "time": 109.09080000000053,
          "velocity": 0.3937007874015748,
          "duration": 0.13636350000000164
        },
        {
          "name": "G1",
          "midi": 31,
          "time": 109.49989050000053,
          "velocity": 0.3937007874015748,
          "duration": 0.13636350000000164
        },
        {
          "name": "C#2",
          "midi": 37,
          "time": 109.77261750000054,
          "velocity": 0.3937007874015748,
          "duration": 0.13636350000000164
        },
        {
          "name": "C#2",
          "midi": 37,
          "time": 109.90898100000054,
          "velocity": 0.3937007874015748,
          "duration": 0.13636350000000164
        },
        {
          "name": "A2",
          "midi": 45,
          "time": 110.04534450000054,
          "velocity": 0.3937007874015748,
          "duration": 0.13636350000000164
        },
        {
          "name": "F2",
          "midi": 41,
          "time": 110.18170800000054,
          "velocity": 0.3937007874015748,
          "duration": 0.13636350000000164
        },
        {
          "name": "A#2",
          "midi": 46,
          "time": 110.31807150000054,
          "velocity": 0.3937007874015748,
          "duration": 0.03409087500000396
        },
        {
          "name": "F#2",
          "midi": 42,
          "time": 110.31807150000054,
          "velocity": 0.3937007874015748,
          "duration": 0.13636350000000164
        },
        {
          "name": "C#3",
          "midi": 49,
          "time": 110.45443500000054,
          "velocity": 0.3937007874015748,
          "duration": 0.13636350000000164
        },
        {
          "name": "D#3",
          "midi": 51,
          "time": 110.45443500000054,
          "velocity": 0.3937007874015748,
          "duration": 0.13636350000000164
        },
        {
          "name": "G1",
          "midi": 31,
          "time": 110.45443500000054,
          "velocity": 0.3937007874015748,
          "duration": 0.13636350000000164
        },
        {
          "name": "G1",
          "midi": 31,
          "time": 110.86352550000055,
          "velocity": 0.3937007874015748,
          "duration": 0.13636350000000164
        },
        {
          "name": "C#2",
          "midi": 37,
          "time": 111.13625250000055,
          "velocity": 0.3937007874015748,
          "duration": 0.13636350000000164
        },
        {
          "name": "G1",
          "midi": 31,
          "time": 111.54534300000056,
          "velocity": 0.3937007874015748,
          "duration": 0.13636350000000164
        },
        {
          "name": "G1",
          "midi": 31,
          "time": 111.81807000000056,
          "velocity": 0.3937007874015748,
          "duration": 0.13636350000000164
        },
        {
          "name": "G1",
          "midi": 31,
          "time": 112.22716050000056,
          "velocity": 0.3937007874015748,
          "duration": 0.13636350000000164
        },
        {
          "name": "C#2",
          "midi": 37,
          "time": 112.49988750000057,
          "velocity": 0.3937007874015748,
          "duration": 0.13636350000000164
        },
        {
          "name": "G1",
          "midi": 31,
          "time": 113.18170500000058,
          "velocity": 0.3937007874015748,
          "duration": 0.13636350000000164
        },
        {
          "name": "G1",
          "midi": 31,
          "time": 113.59079550000058,
          "velocity": 0.3937007874015748,
          "duration": 0.13636350000000164
        },
        {
          "name": "C#2",
          "midi": 37,
          "time": 113.86352250000058,
          "velocity": 0.3937007874015748,
          "duration": 0.13636350000000164
        },
        {
          "name": "G1",
          "midi": 31,
          "time": 114.27261300000059,
          "velocity": 0.3937007874015748,
          "duration": 0.13636350000000164
        },
        {
          "name": "G1",
          "midi": 31,
          "time": 114.54534000000059,
          "velocity": 0.3937007874015748,
          "duration": 0.13636350000000164
        },
        {
          "name": "G1",
          "midi": 31,
          "time": 114.9544305000006,
          "velocity": 0.3937007874015748,
          "duration": 0.13636350000000164
        },
        {
          "name": "C#2",
          "midi": 37,
          "time": 115.2271575000006,
          "velocity": 0.3937007874015748,
          "duration": 0.13636350000000164
        },
        {
          "name": "C#2",
          "midi": 37,
          "time": 115.3635210000006,
          "velocity": 0.3937007874015748,
          "duration": 0.13636350000000164
        },
        {
          "name": "A2",
          "midi": 45,
          "time": 115.4998845000006,
          "velocity": 0.3937007874015748,
          "duration": 0.13636350000000164
        },
        {
          "name": "F2",
          "midi": 41,
          "time": 115.6362480000006,
          "velocity": 0.3937007874015748,
          "duration": 0.13636350000000164
        },
        {
          "name": "A#2",
          "midi": 46,
          "time": 115.77261150000061,
          "velocity": 0.3937007874015748,
          "duration": 0.03409087500000396
        },
        {
          "name": "F#2",
          "midi": 42,
          "time": 115.77261150000061,
          "velocity": 0.3937007874015748,
          "duration": 0.13636350000000164
        }
      ],
      "controlChanges": {},
      "id": 11,
      "name": "Electric Drum Kit",
      "instrumentNumber": 0,
      "instrument": "standard kit",
      "instrumentFamily": "drums",
      "channelNumber": 9,
      "isPercussion": true
    },
    {
      "startTime": 13.63635,
      "duration": 115.90897500000055,
      "length": 326,
      "notes": [
        {
          "name": "G#3",
          "midi": 56,
          "time": 13.63635,
          "velocity": 0.3937007874015748,
          "duration": 0.13636349999999986
        },
        {
          "name": "G#3",
          "midi": 56,
          "time": 13.909077,
          "velocity": 0.3937007874015748,
          "duration": 0.13636349999999986
        },
        {
          "name": "D#4",
          "midi": 63,
          "time": 14.0454405,
          "velocity": 0.3937007874015748,
          "duration": 0.13636349999999986
        },
        {
          "name": "B3",
          "midi": 59,
          "time": 14.0454405,
          "velocity": 0.3937007874015748,
          "duration": 0.13636349999999986
        },
        {
          "name": "G#4",
          "midi": 68,
          "time": 14.3181675,
          "velocity": 0.3937007874015748,
          "duration": 0.13636349999999986
        },
        {
          "name": "D#4",
          "midi": 63,
          "time": 14.454531,
          "velocity": 0.3937007874015748,
          "duration": 0.13636349999999986
        },
        {
          "name": "B3",
          "midi": 59,
          "time": 14.5908945,
          "velocity": 0.3937007874015748,
          "duration": 0.13636349999999986
        },
        {
          "name": "G#3",
          "midi": 56,
          "time": 14.727257999999999,
          "velocity": 0.3937007874015748,
          "duration": 0.13636349999999986
        },
        {
          "name": "B3",
          "midi": 59,
          "time": 14.863621499999999,
          "velocity": 0.3937007874015748,
          "duration": 0.13636349999999986
        },
        {
          "name": "D#4",
          "midi": 63,
          "time": 14.999984999999999,
          "velocity": 0.3937007874015748,
          "duration": 0.13636349999999986
        },
        {
          "name": "D4",
          "midi": 62,
          "time": 15.136348499999999,
          "velocity": 0.3937007874015748,
          "duration": 0.13636349999999986
        },
        {
          "name": "C#4",
          "midi": 61,
          "time": 15.272711999999999,
          "velocity": 0.3937007874015748,
          "duration": 0.13636349999999986
        },
        {
          "name": "C4",
          "midi": 60,
          "time": 15.409075499999998,
          "velocity": 0.3937007874015748,
          "duration": 0.13636349999999986
        },
        {
          "name": "B3",
          "midi": 59,
          "time": 15.545438999999998,
          "velocity": 0.3937007874015748,
          "duration": 0.13636349999999986
        },
        {
          "name": "A#3",
          "midi": 58,
          "time": 15.681802499999998,
          "velocity": 0.3937007874015748,
          "duration": 0.13636349999999986
        },
        {
          "name": "A3",
          "midi": 57,
          "time": 15.818165999999998,
          "velocity": 0.3937007874015748,
          "duration": 0.13636349999999986
        },
        {
          "name": "G#3",
          "midi": 56,
          "time": 15.954529499999998,
          "velocity": 0.3937007874015748,
          "duration": 0.13636349999999986
        },
        {
          "name": "G3",
          "midi": 55,
          "time": 16.090892999999998,
          "velocity": 0.3937007874015748,
          "duration": 0.13636350000000164
        },
        {
          "name": "F#3",
          "midi": 54,
          "time": 16.2272565,
          "velocity": 0.3937007874015748,
          "duration": 0.13636350000000164
        },
        {
          "name": "A#3",
          "midi": 58,
          "time": 16.36362,
          "velocity": 0.3937007874015748,
          "duration": 0.13636350000000164
        },
        {
          "name": "A#3",
          "midi": 58,
          "time": 16.636347000000004,
          "velocity": 0.3937007874015748,
          "duration": 0.13636350000000164
        },
        {
          "name": "F#3",
          "midi": 54,
          "time": 16.772710500000006,
          "velocity": 0.3937007874015748,
          "duration": 0.13636350000000164
        },
        {
          "name": "F3",
          "midi": 53,
          "time": 16.909074000000007,
          "velocity": 0.3937007874015748,
          "duration": 0.13636350000000164
        },
        {
          "name": "A#3",
          "midi": 58,
          "time": 17.04543750000001,
          "velocity": 0.3937007874015748,
          "duration": 0.13636350000000164
        },
        {
          "name": "D#3",
          "midi": 51,
          "time": 17.18180100000001,
          "velocity": 0.3937007874015748,
          "duration": 0.13636350000000164
        },
        {
          "name": "A#3",
          "midi": 58,
          "time": 17.318164500000012,
          "velocity": 0.3937007874015748,
          "duration": 0.13636350000000164
        },
        {
          "name": "F4",
          "midi": 65,
          "time": 17.454528000000014,
          "velocity": 0.3937007874015748,
          "duration": 0.13636350000000164
        },
        {
          "name": "D#4",
          "midi": 63,
          "time": 17.727255000000017,
          "velocity": 0.3937007874015748,
          "duration": 0.13636350000000164
        },
        {
          "name": "D4",
          "midi": 62,
          "time": 17.86361850000002,
          "velocity": 0.3937007874015748,
          "duration": 0.13636350000000164
        },
        {
          "name": "A#3",
          "midi": 58,
          "time": 17.99998200000002,
          "velocity": 0.3937007874015748,
          "duration": 0.13636350000000164
        },
        {
          "name": "G#3",
          "midi": 56,
          "time": 18.136345500000022,
          "velocity": 0.3937007874015748,
          "duration": 0.13636350000000164
        },
        {
          "name": "D#4",
          "midi": 63,
          "time": 18.272709000000024,
          "velocity": 0.3937007874015748,
          "duration": 0.13636350000000164
        },
        {
          "name": "G#4",
          "midi": 68,
          "time": 18.409072500000025,
          "velocity": 0.3937007874015748,
          "duration": 0.13636350000000164
        },
        {
          "name": "D#4",
          "midi": 63,
          "time": 18.545436000000027,
          "velocity": 0.3937007874015748,
          "duration": 0.13636350000000164
        },
        {
          "name": "B3",
          "midi": 59,
          "time": 18.68179950000003,
          "velocity": 0.3937007874015748,
          "duration": 0.13636350000000164
        },
        {
          "name": "C4",
          "midi": 60,
          "time": 18.81816300000003,
          "velocity": 0.3937007874015748,
          "duration": 0.13636350000000164
        },
        {
          "name": "C#4",
          "midi": 61,
          "time": 18.954526500000032,
          "velocity": 0.3937007874015748,
          "duration": 0.13636350000000164
        },
        {
          "name": "D4",
          "midi": 62,
          "time": 19.090890000000034,
          "velocity": 0.3937007874015748,
          "duration": 0.13636350000000164
        },
        {
          "name": "D#4",
          "midi": 63,
          "time": 19.227253500000035,
          "velocity": 0.3937007874015748,
          "duration": 0.13636350000000164
        },
        {
          "name": "B3",
          "midi": 59,
          "time": 19.363617000000037,
          "velocity": 0.3937007874015748,
          "duration": 0.13636350000000164
        },
        {
          "name": "G#3",
          "midi": 56,
          "time": 19.49998050000004,
          "velocity": 0.3937007874015748,
          "duration": 0.13636350000000164
        },
        {
          "name": "A#3",
          "midi": 58,
          "time": 19.63634400000004,
          "velocity": 0.3937007874015748,
          "duration": 0.13636350000000164
        },
        {
          "name": "D#4",
          "midi": 63,
          "time": 19.909071000000043,
          "velocity": 0.3937007874015748,
          "duration": 0.13636350000000164
        },
        {
          "name": "B3",
          "midi": 59,
          "time": 20.045434500000045,
          "velocity": 0.3937007874015748,
          "duration": 0.13636350000000164
        },
        {
          "name": "G#3",
          "midi": 56,
          "time": 20.181798000000047,
          "velocity": 0.3937007874015748,
          "duration": 0.13636350000000164
        },
        {
          "name": "B3",
          "midi": 59,
          "time": 20.31816150000005,
          "velocity": 0.3937007874015748,
          "duration": 0.13636350000000164
        },
        {
          "name": "G#4",
          "midi": 68,
          "time": 20.45452500000005,
          "velocity": 0.3937007874015748,
          "duration": 0.13636350000000164
        },
        {
          "name": "G4",
          "midi": 67,
          "time": 20.59088850000005,
          "velocity": 0.3937007874015748,
          "duration": 0.13636350000000164
        },
        {
          "name": "F#4",
          "midi": 66,
          "time": 20.727252000000053,
          "velocity": 0.3937007874015748,
          "duration": 0.13636350000000164
        },
        {
          "name": "F4",
          "midi": 65,
          "time": 20.863615500000055,
          "velocity": 0.3937007874015748,
          "duration": 0.13636350000000164
        },
        {
          "name": "E4",
          "midi": 64,
          "time": 20.999979000000057,
          "velocity": 0.3937007874015748,
          "duration": 0.13636350000000164
        },
        {
          "name": "D#4",
          "midi": 63,
          "time": 21.136342500000058,
          "velocity": 0.3937007874015748,
          "duration": 0.13636350000000164
        },
        {
          "name": "D4",
          "midi": 62,
          "time": 21.27270600000006,
          "velocity": 0.3937007874015748,
          "duration": 0.13636350000000164
        },
        {
          "name": "C#4",
          "midi": 61,
          "time": 21.40906950000006,
          "velocity": 0.3937007874015748,
          "duration": 0.13636350000000164
        },
        {
          "name": "C4",
          "midi": 60,
          "time": 21.545433000000063,
          "velocity": 0.3937007874015748,
          "duration": 0.13636350000000164
        },
        {
          "name": "B3",
          "midi": 59,
          "time": 21.681796500000065,
          "velocity": 0.3937007874015748,
          "duration": 0.13636350000000164
        },
        {
          "name": "D#4",
          "midi": 63,
          "time": 21.818160000000066,
          "velocity": 0.3937007874015748,
          "duration": 0.13636350000000164
        },
        {
          "name": "A#3",
          "midi": 58,
          "time": 21.954523500000068,
          "velocity": 0.3937007874015748,
          "duration": 0.13636350000000164
        },
        {
          "name": "D#4",
          "midi": 63,
          "time": 22.09088700000007,
          "velocity": 0.3937007874015748,
          "duration": 0.13636350000000164
        },
        {
          "name": "D4",
          "midi": 62,
          "time": 22.22725050000007,
          "velocity": 0.3937007874015748,
          "duration": 0.13636350000000164
        },
        {
          "name": "A#3",
          "midi": 58,
          "time": 22.363614000000073,
          "velocity": 0.3937007874015748,
          "duration": 0.13636350000000164
        },
        {
          "name": "D#4",
          "midi": 63,
          "time": 22.499977500000075,
          "velocity": 0.3937007874015748,
          "duration": 0.13636350000000164
        },
        {
          "name": "A#3",
          "midi": 58,
          "time": 22.636341000000076,
          "velocity": 0.3937007874015748,
          "duration": 0.13636350000000164
        },
        {
          "name": "D#4",
          "midi": 63,
          "time": 22.772704500000078,
          "velocity": 0.3937007874015748,
          "duration": 0.13636350000000164
        },
        {
          "name": "D4",
          "midi": 62,
          "time": 22.90906800000008,
          "velocity": 0.3937007874015748,
          "duration": 0.13636350000000164
        },
        {
          "name": "A#3",
          "midi": 58,
          "time": 23.04543150000008,
          "velocity": 0.3937007874015748,
          "duration": 0.13636350000000164
        },
        {
          "name": "G#3",
          "midi": 56,
          "time": 23.181795000000083,
          "velocity": 0.3937007874015748,
          "duration": 0.13636350000000164
        },
        {
          "name": "G3",
          "midi": 55,
          "time": 23.318158500000084,
          "velocity": 0.3937007874015748,
          "duration": 0.13636350000000164
        },
        {
          "name": "A#3",
          "midi": 58,
          "time": 23.454522000000086,
          "velocity": 0.3937007874015748,
          "duration": 0.13636350000000164
        },
        {
          "name": "G#3",
          "midi": 56,
          "time": 23.590885500000088,
          "velocity": 0.3937007874015748,
          "duration": 0.13636350000000164
        },
        {
          "name": "D#4",
          "midi": 63,
          "time": 23.72724900000009,
          "velocity": 0.3937007874015748,
          "duration": 0.13636350000000164
        },
        {
          "name": "G#4",
          "midi": 68,
          "time": 23.86361250000009,
          "velocity": 0.3937007874015748,
          "duration": 0.13636350000000164
        },
        {
          "name": "D#4",
          "midi": 63,
          "time": 23.999976000000093,
          "velocity": 0.3937007874015748,
          "duration": 0.13636350000000164
        },
        {
          "name": "F#4",
          "midi": 66,
          "time": 24.136339500000094,
          "velocity": 0.3937007874015748,
          "duration": 0.13636350000000164
        },
        {
          "name": "E4",
          "midi": 64,
          "time": 24.272703000000096,
          "velocity": 0.3937007874015748,
          "duration": 0.13636350000000164
        },
        {
          "name": "D#4",
          "midi": 63,
          "time": 24.409066500000097,
          "velocity": 0.3937007874015748,
          "duration": 0.13636350000000164
        },
        {
          "name": "B3",
          "midi": 59,
          "time": 24.5454300000001,
          "velocity": 0.3937007874015748,
          "duration": 0.13636350000000164
        },
        {
          "name": "G#3",
          "midi": 56,
          "time": 24.818157000000102,
          "velocity": 0.3937007874015748,
          "duration": 0.13636350000000164
        },
        {
          "name": "D#4",
          "midi": 63,
          "time": 24.954520500000104,
          "velocity": 0.3937007874015748,
          "duration": 0.13636350000000164
        },
        {
          "name": "B3",
          "midi": 59,
          "time": 25.090884000000106,
          "velocity": 0.3937007874015748,
          "duration": 0.13636350000000164
        },
        {
          "name": "G#4",
          "midi": 68,
          "time": 25.227247500000107,
          "velocity": 0.3937007874015748,
          "duration": 0.13636350000000164
        },
        {
          "name": "D#4",
          "midi": 63,
          "time": 25.36361100000011,
          "velocity": 0.3937007874015748,
          "duration": 0.13636350000000164
        },
        {
          "name": "B3",
          "midi": 59,
          "time": 25.49997450000011,
          "velocity": 0.3937007874015748,
          "duration": 0.13636350000000164
        },
        {
          "name": "G#3",
          "midi": 56,
          "time": 25.636338000000112,
          "velocity": 0.3937007874015748,
          "duration": 0.13636350000000164
        },
        {
          "name": "B3",
          "midi": 59,
          "time": 25.772701500000114,
          "velocity": 0.3937007874015748,
          "duration": 0.13636350000000164
        },
        {
          "name": "D#4",
          "midi": 63,
          "time": 25.909065000000115,
          "velocity": 0.3937007874015748,
          "duration": 0.13636350000000164
        },
        {
          "name": "D4",
          "midi": 62,
          "time": 26.045428500000117,
          "velocity": 0.3937007874015748,
          "duration": 0.13636350000000164
        },
        {
          "name": "C#4",
          "midi": 61,
          "time": 26.18179200000012,
          "velocity": 0.3937007874015748,
          "duration": 0.13636350000000164
        },
        {
          "name": "C4",
          "midi": 60,
          "time": 26.31815550000012,
          "velocity": 0.3937007874015748,
          "duration": 0.13636350000000164
        },
        {
          "name": "B3",
          "midi": 59,
          "time": 26.454519000000122,
          "velocity": 0.3937007874015748,
          "duration": 0.13636350000000164
        },
        {
          "name": "A#3",
          "midi": 58,
          "time": 26.590882500000124,
          "velocity": 0.3937007874015748,
          "duration": 0.13636350000000164
        },
        {
          "name": "A3",
          "midi": 57,
          "time": 26.727246000000125,
          "velocity": 0.3937007874015748,
          "duration": 0.13636350000000164
        },
        {
          "name": "G#3",
          "midi": 56,
          "time": 26.863609500000127,
          "velocity": 0.3937007874015748,
          "duration": 0.13636350000000164
        },
        {
          "name": "G3",
          "midi": 55,
          "time": 26.99997300000013,
          "velocity": 0.3937007874015748,
          "duration": 0.13636350000000164
        },
        {
          "name": "F#3",
          "midi": 54,
          "time": 27.13633650000013,
          "velocity": 0.3937007874015748,
          "duration": 0.13636350000000164
        },
        {
          "name": "A#3",
          "midi": 58,
          "time": 27.272700000000132,
          "velocity": 0.3937007874015748,
          "duration": 0.13636350000000164
        },
        {
          "name": "A#3",
          "midi": 58,
          "time": 27.545427000000135,
          "velocity": 0.3937007874015748,
          "duration": 0.13636350000000164
        },
        {
          "name": "F#3",
          "midi": 54,
          "time": 27.681790500000137,
          "velocity": 0.3937007874015748,
          "duration": 0.13636350000000164
        },
        {
          "name": "F3",
          "midi": 53,
          "time": 27.81815400000014,
          "velocity": 0.3937007874015748,
          "duration": 0.13636350000000164
        },
        {
          "name": "A#3",
          "midi": 58,
          "time": 27.95451750000014,
          "velocity": 0.3937007874015748,
          "duration": 0.13636350000000164
        },
        {
          "name": "D#3",
          "midi": 51,
          "time": 28.09088100000014,
          "velocity": 0.3937007874015748,
          "duration": 0.13636350000000164
        },
        {
          "name": "A#3",
          "midi": 58,
          "time": 28.227244500000143,
          "velocity": 0.3937007874015748,
          "duration": 0.13636350000000164
        },
        {
          "name": "F4",
          "midi": 65,
          "time": 28.363608000000145,
          "velocity": 0.3937007874015748,
          "duration": 0.13636350000000164
        },
        {
          "name": "D#4",
          "midi": 63,
          "time": 28.636335000000148,
          "velocity": 0.3937007874015748,
          "duration": 0.13636350000000164
        },
        {
          "name": "D4",
          "midi": 62,
          "time": 28.77269850000015,
          "velocity": 0.3937007874015748,
          "duration": 0.13636350000000164
        },
        {
          "name": "A#3",
          "midi": 58,
          "time": 28.90906200000015,
          "velocity": 0.3937007874015748,
          "duration": 0.13636350000000164
        },
        {
          "name": "G#3",
          "midi": 56,
          "time": 29.045425500000153,
          "velocity": 0.3937007874015748,
          "duration": 0.13636350000000164
        },
        {
          "name": "D#4",
          "midi": 63,
          "time": 29.181789000000155,
          "velocity": 0.3937007874015748,
          "duration": 0.13636350000000164
        },
        {
          "name": "G#4",
          "midi": 68,
          "time": 29.318152500000156,
          "velocity": 0.3937007874015748,
          "duration": 0.13636350000000164
        },
        {
          "name": "D#4",
          "midi": 63,
          "time": 29.454516000000158,
          "velocity": 0.3937007874015748,
          "duration": 0.13636350000000164
        },
        {
          "name": "B3",
          "midi": 59,
          "time": 29.59087950000016,
          "velocity": 0.3937007874015748,
          "duration": 0.13636350000000164
        },
        {
          "name": "C4",
          "midi": 60,
          "time": 29.72724300000016,
          "velocity": 0.3937007874015748,
          "duration": 0.13636350000000164
        },
        {
          "name": "C#4",
          "midi": 61,
          "time": 29.863606500000163,
          "velocity": 0.3937007874015748,
          "duration": 0.13636350000000164
        },
        {
          "name": "D4",
          "midi": 62,
          "time": 29.999970000000165,
          "velocity": 0.3937007874015748,
          "duration": 0.13636350000000164
        },
        {
          "name": "D#4",
          "midi": 63,
          "time": 30.136333500000166,
          "velocity": 0.3937007874015748,
          "duration": 0.13636350000000164
        },
        {
          "name": "B3",
          "midi": 59,
          "time": 30.272697000000168,
          "velocity": 0.3937007874015748,
          "duration": 0.13636350000000164
        },
        {
          "name": "G#3",
          "midi": 56,
          "time": 30.40906050000017,
          "velocity": 0.3937007874015748,
          "duration": 0.13636350000000164
        },
        {
          "name": "A#3",
          "midi": 58,
          "time": 30.54542400000017,
          "velocity": 0.3937007874015748,
          "duration": 0.13636350000000164
        },
        {
          "name": "D#4",
          "midi": 63,
          "time": 30.818151000000174,
          "velocity": 0.3937007874015748,
          "duration": 0.13636350000000164
        },
        {
          "name": "B3",
          "midi": 59,
          "time": 30.954514500000176,
          "velocity": 0.3937007874015748,
          "duration": 0.13636350000000164
        },
        {
          "name": "G#3",
          "midi": 56,
          "time": 31.090878000000178,
          "velocity": 0.3937007874015748,
          "duration": 0.13636350000000164
        },
        {
          "name": "B3",
          "midi": 59,
          "time": 31.22724150000018,
          "velocity": 0.3937007874015748,
          "duration": 0.13636350000000164
        },
        {
          "name": "G#4",
          "midi": 68,
          "time": 31.36360500000018,
          "velocity": 0.3937007874015748,
          "duration": 0.13636350000000164
        },
        {
          "name": "G4",
          "midi": 67,
          "time": 31.499968500000183,
          "velocity": 0.3937007874015748,
          "duration": 0.13636350000000164
        },
        {
          "name": "F#4",
          "midi": 66,
          "time": 31.636332000000184,
          "velocity": 0.3937007874015748,
          "duration": 0.13636350000000164
        },
        {
          "name": "F4",
          "midi": 65,
          "time": 31.772695500000186,
          "velocity": 0.3937007874015748,
          "duration": 0.13636350000000164
        },
        {
          "name": "E4",
          "midi": 64,
          "time": 31.909059000000187,
          "velocity": 0.3937007874015748,
          "duration": 0.13636349999999808
        },
        {
          "name": "D#4",
          "midi": 63,
          "time": 32.045422500000186,
          "velocity": 0.3937007874015748,
          "duration": 0.13636350000000164
        },
        {
          "name": "D4",
          "midi": 62,
          "time": 32.18178600000019,
          "velocity": 0.3937007874015748,
          "duration": 0.13636350000000164
        },
        {
          "name": "C#4",
          "midi": 61,
          "time": 32.31814950000019,
          "velocity": 0.3937007874015748,
          "duration": 0.13636350000000164
        },
        {
          "name": "C4",
          "midi": 60,
          "time": 32.45451300000019,
          "velocity": 0.3937007874015748,
          "duration": 0.13636350000000164
        },
        {
          "name": "B3",
          "midi": 59,
          "time": 32.59087650000019,
          "velocity": 0.3937007874015748,
          "duration": 0.13636350000000164
        },
        {
          "name": "D#4",
          "midi": 63,
          "time": 32.727240000000194,
          "velocity": 0.3937007874015748,
          "duration": 0.13636350000000164
        },
        {
          "name": "A#3",
          "midi": 58,
          "time": 32.863603500000195,
          "velocity": 0.3937007874015748,
          "duration": 0.13636350000000164
        },
        {
          "name": "D#4",
          "midi": 63,
          "time": 32.9999670000002,
          "velocity": 0.3937007874015748,
          "duration": 0.13636350000000164
        },
        {
          "name": "D4",
          "midi": 62,
          "time": 33.1363305000002,
          "velocity": 0.3937007874015748,
          "duration": 0.13636350000000164
        },
        {
          "name": "A#3",
          "midi": 58,
          "time": 33.2726940000002,
          "velocity": 0.3937007874015748,
          "duration": 0.13636350000000164
        },
        {
          "name": "D#4",
          "midi": 63,
          "time": 33.4090575000002,
          "velocity": 0.3937007874015748,
          "duration": 0.13636350000000164
        },
        {
          "name": "A#3",
          "midi": 58,
          "time": 33.5454210000002,
          "velocity": 0.3937007874015748,
          "duration": 0.13636350000000164
        },
        {
          "name": "D#4",
          "midi": 63,
          "time": 33.681784500000205,
          "velocity": 0.3937007874015748,
          "duration": 0.13636350000000164
        },
        {
          "name": "D4",
          "midi": 62,
          "time": 33.81814800000021,
          "velocity": 0.3937007874015748,
          "duration": 0.13636350000000164
        },
        {
          "name": "A#3",
          "midi": 58,
          "time": 33.95451150000021,
          "velocity": 0.3937007874015748,
          "duration": 0.13636350000000164
        },
        {
          "name": "G#3",
          "midi": 56,
          "time": 34.09087500000021,
          "velocity": 0.3937007874015748,
          "duration": 0.13636350000000164
        },
        {
          "name": "G3",
          "midi": 55,
          "time": 34.22723850000021,
          "velocity": 0.3937007874015748,
          "duration": 0.13636350000000164
        },
        {
          "name": "A#3",
          "midi": 58,
          "time": 34.36360200000021,
          "velocity": 0.3937007874015748,
          "duration": 0.13636350000000164
        },
        {
          "name": "G#3",
          "midi": 56,
          "time": 34.499965500000215,
          "velocity": 0.3937007874015748,
          "duration": 0.13636350000000164
        },
        {
          "name": "D#4",
          "midi": 63,
          "time": 34.63632900000022,
          "velocity": 0.3937007874015748,
          "duration": 0.13636350000000164
        },
        {
          "name": "G#4",
          "midi": 68,
          "time": 34.77269250000022,
          "velocity": 0.3937007874015748,
          "duration": 0.13636350000000164
        },
        {
          "name": "D#4",
          "midi": 63,
          "time": 34.90905600000022,
          "velocity": 0.3937007874015748,
          "duration": 0.13636350000000164
        },
        {
          "name": "F#4",
          "midi": 66,
          "time": 35.04541950000022,
          "velocity": 0.3937007874015748,
          "duration": 0.13636350000000164
        },
        {
          "name": "E4",
          "midi": 64,
          "time": 35.18178300000022,
          "velocity": 0.3937007874015748,
          "duration": 0.13636350000000164
        },
        {
          "name": "D#4",
          "midi": 63,
          "time": 35.318146500000225,
          "velocity": 0.3937007874015748,
          "duration": 0.13636350000000164
        },
        {
          "name": "F4",
          "midi": 65,
          "time": 44.99995500000023,
          "velocity": 0.3937007874015748,
          "duration": 0.13636350000000164
        },
        {
          "name": "C4",
          "midi": 60,
          "time": 45.40904550000023,
          "velocity": 0.3937007874015748,
          "duration": 0.13636350000000164
        },
        {
          "name": "G#4",
          "midi": 68,
          "time": 45.681772500000235,
          "velocity": 0.3937007874015748,
          "duration": 0.13636350000000164
        },
        {
          "name": "G4",
          "midi": 67,
          "time": 45.81813600000024,
          "velocity": 0.3937007874015748,
          "duration": 0.13636350000000164
        },
        {
          "name": "F#4",
          "midi": 66,
          "time": 45.95449950000024,
          "velocity": 0.3937007874015748,
          "duration": 0.13636350000000164
        },
        {
          "name": "F4",
          "midi": 65,
          "time": 46.09086300000024,
          "velocity": 0.3937007874015748,
          "duration": 0.13636350000000164
        },
        {
          "name": "E4",
          "midi": 64,
          "time": 46.22722650000024,
          "velocity": 0.3937007874015748,
          "duration": 0.13636350000000164
        },
        {
          "name": "D#4",
          "midi": 63,
          "time": 46.363590000000244,
          "velocity": 0.3937007874015748,
          "duration": 0.13636350000000164
        },
        {
          "name": "F#4",
          "midi": 66,
          "time": 68.18175000000025,
          "velocity": 0.3937007874015748,
          "duration": 0.13636350000000164
        },
        {
          "name": "G#4",
          "midi": 68,
          "time": 68.31811350000025,
          "velocity": 0.3937007874015748,
          "duration": 0.13636350000000164
        },
        {
          "name": "F#4",
          "midi": 66,
          "time": 68.72720400000026,
          "velocity": 0.3937007874015748,
          "duration": 0.13636350000000164
        },
        {
          "name": "E4",
          "midi": 64,
          "time": 70.36356600000026,
          "velocity": 0.3937007874015748,
          "duration": 0.13636350000000164
        },
        {
          "name": "C#4",
          "midi": 61,
          "time": 70.63629300000026,
          "velocity": 0.3937007874015748,
          "duration": 0.13636350000000164
        },
        {
          "name": "E4",
          "midi": 64,
          "time": 70.90902000000027,
          "velocity": 0.3937007874015748,
          "duration": 0.13636350000000164
        },
        {
          "name": "F#4",
          "midi": 66,
          "time": 71.18174700000027,
          "velocity": 0.3937007874015748,
          "duration": 0.13636350000000164
        },
        {
          "name": "E4",
          "midi": 64,
          "time": 73.36356300000027,
          "velocity": 0.3937007874015748,
          "duration": 0.13636350000000164
        },
        {
          "name": "F#4",
          "midi": 66,
          "time": 73.49992650000027,
          "velocity": 0.3937007874015748,
          "duration": 0.13636350000000164
        },
        {
          "name": "G#4",
          "midi": 68,
          "time": 73.63629000000027,
          "velocity": 0.3937007874015748,
          "duration": 0.13636350000000164
        },
        {
          "name": "A4",
          "midi": 69,
          "time": 74.04538050000028,
          "velocity": 0.3937007874015748,
          "duration": 0.13636350000000164
        },
        {
          "name": "E4",
          "midi": 64,
          "time": 74.59083450000028,
          "velocity": 0.3937007874015748,
          "duration": 0.13636350000000164
        },
        {
          "name": "F#4",
          "midi": 66,
          "time": 74.72719800000029,
          "velocity": 0.3937007874015748,
          "duration": 0.13636350000000164
        },
        {
          "name": "E4",
          "midi": 64,
          "time": 75.13628850000029,
          "velocity": 0.3937007874015748,
          "duration": 0.13636350000000164
        },
        {
          "name": "G#3",
          "midi": 56,
          "time": 94.09081500000029,
          "velocity": 0.3937007874015748,
          "duration": 0.13636350000000164
        },
        {
          "name": "G#3",
          "midi": 56,
          "time": 94.3635420000003,
          "velocity": 0.3937007874015748,
          "duration": 0.13636350000000164
        },
        {
          "name": "D#4",
          "midi": 63,
          "time": 94.4999055000003,
          "velocity": 0.3937007874015748,
          "duration": 0.13636350000000164
        },
        {
          "name": "B3",
          "midi": 59,
          "time": 94.4999055000003,
          "velocity": 0.3937007874015748,
          "duration": 0.13636350000000164
        },
        {
          "name": "G#4",
          "midi": 68,
          "time": 94.7726325000003,
          "velocity": 0.3937007874015748,
          "duration": 0.13636350000000164
        },
        {
          "name": "D#4",
          "midi": 63,
          "time": 94.9089960000003,
          "velocity": 0.3937007874015748,
          "duration": 0.13636350000000164
        },
        {
          "name": "B3",
          "midi": 59,
          "time": 95.0453595000003,
          "velocity": 0.3937007874015748,
          "duration": 0.13636350000000164
        },
        {
          "name": "G#3",
          "midi": 56,
          "time": 95.1817230000003,
          "velocity": 0.3937007874015748,
          "duration": 0.13636350000000164
        },
        {
          "name": "B3",
          "midi": 59,
          "time": 95.3180865000003,
          "velocity": 0.3937007874015748,
          "duration": 0.13636350000000164
        },
        {
          "name": "D#4",
          "midi": 63,
          "time": 95.4544500000003,
          "velocity": 0.3937007874015748,
          "duration": 0.13636350000000164
        },
        {
          "name": "D4",
          "midi": 62,
          "time": 95.59081350000031,
          "velocity": 0.3937007874015748,
          "duration": 0.13636350000000164
        },
        {
          "name": "C#4",
          "midi": 61,
          "time": 95.72717700000031,
          "velocity": 0.3937007874015748,
          "duration": 0.13636350000000164
        },
        {
          "name": "C4",
          "midi": 60,
          "time": 95.86354050000031,
          "velocity": 0.3937007874015748,
          "duration": 0.13636350000000164
        },
        {
          "name": "B3",
          "midi": 59,
          "time": 95.99990400000031,
          "velocity": 0.3937007874015748,
          "duration": 0.13636350000000164
        },
        {
          "name": "A#3",
          "midi": 58,
          "time": 96.13626750000032,
          "velocity": 0.3937007874015748,
          "duration": 0.13636350000000164
        },
        {
          "name": "A3",
          "midi": 57,
          "time": 96.27263100000032,
          "velocity": 0.3937007874015748,
          "duration": 0.13636350000000164
        },
        {
          "name": "G#3",
          "midi": 56,
          "time": 96.40899450000032,
          "velocity": 0.3937007874015748,
          "duration": 0.13636350000000164
        },
        {
          "name": "G3",
          "midi": 55,
          "time": 96.54535800000032,
          "velocity": 0.3937007874015748,
          "duration": 0.13636350000000164
        },
        {
          "name": "F#3",
          "midi": 54,
          "time": 96.68172150000032,
          "velocity": 0.3937007874015748,
          "duration": 0.13636350000000164
        },
        {
          "name": "A#3",
          "midi": 58,
          "time": 96.81808500000032,
          "velocity": 0.3937007874015748,
          "duration": 0.13636350000000164
        },
        {
          "name": "A#3",
          "midi": 58,
          "time": 97.09081200000033,
          "velocity": 0.3937007874015748,
          "duration": 0.13636350000000164
        },
        {
          "name": "F#3",
          "midi": 54,
          "time": 97.22717550000033,
          "velocity": 0.3937007874015748,
          "duration": 0.13636350000000164
        },
        {
          "name": "F3",
          "midi": 53,
          "time": 97.36353900000033,
          "velocity": 0.3937007874015748,
          "duration": 0.13636350000000164
        },
        {
          "name": "A#3",
          "midi": 58,
          "time": 97.49990250000033,
          "velocity": 0.3937007874015748,
          "duration": 0.13636350000000164
        },
        {
          "name": "D#3",
          "midi": 51,
          "time": 97.63626600000033,
          "velocity": 0.3937007874015748,
          "duration": 0.13636350000000164
        },
        {
          "name": "A#3",
          "midi": 58,
          "time": 97.77262950000033,
          "velocity": 0.3937007874015748,
          "duration": 0.13636350000000164
        },
        {
          "name": "F4",
          "midi": 65,
          "time": 97.90899300000034,
          "velocity": 0.3937007874015748,
          "duration": 0.13636350000000164
        },
        {
          "name": "D#4",
          "midi": 63,
          "time": 98.18172000000034,
          "velocity": 0.3937007874015748,
          "duration": 0.13636350000000164
        },
        {
          "name": "D4",
          "midi": 62,
          "time": 98.31808350000034,
          "velocity": 0.3937007874015748,
          "duration": 0.13636350000000164
        },
        {
          "name": "A#3",
          "midi": 58,
          "time": 98.45444700000034,
          "velocity": 0.3937007874015748,
          "duration": 0.13636350000000164
        },
        {
          "name": "G#3",
          "midi": 56,
          "time": 98.59081050000034,
          "velocity": 0.3937007874015748,
          "duration": 0.13636350000000164
        },
        {
          "name": "D#4",
          "midi": 63,
          "time": 98.72717400000035,
          "velocity": 0.3937007874015748,
          "duration": 0.13636350000000164
        },
        {
          "name": "G#4",
          "midi": 68,
          "time": 98.86353750000035,
          "velocity": 0.3937007874015748,
          "duration": 0.13636350000000164
        },
        {
          "name": "D#4",
          "midi": 63,
          "time": 98.99990100000035,
          "velocity": 0.3937007874015748,
          "duration": 0.13636350000000164
        },
        {
          "name": "B3",
          "midi": 59,
          "time": 99.13626450000035,
          "velocity": 0.3937007874015748,
          "duration": 0.13636350000000164
        },
        {
          "name": "C4",
          "midi": 60,
          "time": 99.27262800000035,
          "velocity": 0.3937007874015748,
          "duration": 0.13636350000000164
        },
        {
          "name": "C#4",
          "midi": 61,
          "time": 99.40899150000035,
          "velocity": 0.3937007874015748,
          "duration": 0.13636350000000164
        },
        {
          "name": "D4",
          "midi": 62,
          "time": 99.54535500000036,
          "velocity": 0.3937007874015748,
          "duration": 0.13636350000000164
        },
        {
          "name": "D#4",
          "midi": 63,
          "time": 99.68171850000036,
          "velocity": 0.3937007874015748,
          "duration": 0.13636350000000164
        },
        {
          "name": "B3",
          "midi": 59,
          "time": 99.81808200000036,
          "velocity": 0.3937007874015748,
          "duration": 0.13636350000000164
        },
        {
          "name": "G#3",
          "midi": 56,
          "time": 99.95444550000036,
          "velocity": 0.3937007874015748,
          "duration": 0.13636350000000164
        },
        {
          "name": "A#3",
          "midi": 58,
          "time": 100.09080900000036,
          "velocity": 0.3937007874015748,
          "duration": 0.13636350000000164
        },
        {
          "name": "D#4",
          "midi": 63,
          "time": 100.36353600000037,
          "velocity": 0.3937007874015748,
          "duration": 0.13636350000000164
        },
        {
          "name": "B3",
          "midi": 59,
          "time": 100.49989950000037,
          "velocity": 0.3937007874015748,
          "duration": 0.13636350000000164
        },
        {
          "name": "G#3",
          "midi": 56,
          "time": 100.63626300000037,
          "velocity": 0.3937007874015748,
          "duration": 0.13636350000000164
        },
        {
          "name": "B3",
          "midi": 59,
          "time": 100.77262650000037,
          "velocity": 0.3937007874015748,
          "duration": 0.13636350000000164
        },
        {
          "name": "G#4",
          "midi": 68,
          "time": 100.90899000000037,
          "velocity": 0.3937007874015748,
          "duration": 0.13636350000000164
        },
        {
          "name": "G4",
          "midi": 67,
          "time": 101.04535350000037,
          "velocity": 0.3937007874015748,
          "duration": 0.13636350000000164
        },
        {
          "name": "F#4",
          "midi": 66,
          "time": 101.18171700000038,
          "velocity": 0.3937007874015748,
          "duration": 0.13636350000000164
        },
        {
          "name": "F4",
          "midi": 65,
          "time": 101.31808050000038,
          "velocity": 0.3937007874015748,
          "duration": 0.13636350000000164
        },
        {
          "name": "E4",
          "midi": 64,
          "time": 101.45444400000038,
          "velocity": 0.3937007874015748,
          "duration": 0.13636350000000164
        },
        {
          "name": "D#4",
          "midi": 63,
          "time": 101.59080750000038,
          "velocity": 0.3937007874015748,
          "duration": 0.13636350000000164
        },
        {
          "name": "D4",
          "midi": 62,
          "time": 101.72717100000038,
          "velocity": 0.3937007874015748,
          "duration": 0.13636350000000164
        },
        {
          "name": "C#4",
          "midi": 61,
          "time": 101.86353450000038,
          "velocity": 0.3937007874015748,
          "duration": 0.13636350000000164
        },
        {
          "name": "C4",
          "midi": 60,
          "time": 101.99989800000039,
          "velocity": 0.3937007874015748,
          "duration": 0.13636350000000164
        },
        {
          "name": "B3",
          "midi": 59,
          "time": 102.13626150000039,
          "velocity": 0.3937007874015748,
          "duration": 0.13636350000000164
        },
        {
          "name": "D#4",
          "midi": 63,
          "time": 102.27262500000039,
          "velocity": 0.3937007874015748,
          "duration": 0.13636350000000164
        },
        {
          "name": "A#3",
          "midi": 58,
          "time": 102.40898850000039,
          "velocity": 0.3937007874015748,
          "duration": 0.13636350000000164
        },
        {
          "name": "D#4",
          "midi": 63,
          "time": 102.54535200000039,
          "velocity": 0.3937007874015748,
          "duration": 0.13636350000000164
        },
        {
          "name": "D4",
          "midi": 62,
          "time": 102.6817155000004,
          "velocity": 0.3937007874015748,
          "duration": 0.13636350000000164
        },
        {
          "name": "A#3",
          "midi": 58,
          "time": 102.8180790000004,
          "velocity": 0.3937007874015748,
          "duration": 0.13636350000000164
        },
        {
          "name": "D#4",
          "midi": 63,
          "time": 102.9544425000004,
          "velocity": 0.3937007874015748,
          "duration": 0.13636350000000164
        },
        {
          "name": "A#3",
          "midi": 58,
          "time": 103.0908060000004,
          "velocity": 0.3937007874015748,
          "duration": 0.13636350000000164
        },
        {
          "name": "D#4",
          "midi": 63,
          "time": 103.2271695000004,
          "velocity": 0.3937007874015748,
          "duration": 0.13636350000000164
        },
        {
          "name": "D4",
          "midi": 62,
          "time": 103.3635330000004,
          "velocity": 0.3937007874015748,
          "duration": 0.13636350000000164
        },
        {
          "name": "A#3",
          "midi": 58,
          "time": 103.4998965000004,
          "velocity": 0.3937007874015748,
          "duration": 0.13636350000000164
        },
        {
          "name": "G#3",
          "midi": 56,
          "time": 103.6362600000004,
          "velocity": 0.3937007874015748,
          "duration": 0.13636350000000164
        },
        {
          "name": "G3",
          "midi": 55,
          "time": 103.7726235000004,
          "velocity": 0.3937007874015748,
          "duration": 0.13636350000000164
        },
        {
          "name": "A#3",
          "midi": 58,
          "time": 103.90898700000041,
          "velocity": 0.3937007874015748,
          "duration": 0.13636350000000164
        },
        {
          "name": "G#3",
          "midi": 56,
          "time": 104.04535050000041,
          "velocity": 0.3937007874015748,
          "duration": 0.13636350000000164
        },
        {
          "name": "D#4",
          "midi": 63,
          "time": 104.18171400000041,
          "velocity": 0.3937007874015748,
          "duration": 0.13636350000000164
        },
        {
          "name": "G#4",
          "midi": 68,
          "time": 104.31807750000041,
          "velocity": 0.3937007874015748,
          "duration": 0.13636350000000164
        },
        {
          "name": "D#4",
          "midi": 63,
          "time": 104.45444100000041,
          "velocity": 0.3937007874015748,
          "duration": 0.13636350000000164
        },
        {
          "name": "F#4",
          "midi": 66,
          "time": 104.59080450000042,
          "velocity": 0.3937007874015748,
          "duration": 0.13636350000000164
        },
        {
          "name": "E4",
          "midi": 64,
          "time": 104.72716800000042,
          "velocity": 0.3937007874015748,
          "duration": 0.13636350000000164
        },
        {
          "name": "D#4",
          "midi": 63,
          "time": 104.86353150000042,
          "velocity": 0.3937007874015748,
          "duration": 0.13636350000000164
        },
        {
          "name": "G#3",
          "midi": 56,
          "time": 104.99989500000042,
          "velocity": 0.3937007874015748,
          "duration": 0.13636350000000164
        },
        {
          "name": "G#3",
          "midi": 56,
          "time": 105.27262200000042,
          "velocity": 0.3937007874015748,
          "duration": 0.13636350000000164
        },
        {
          "name": "B3",
          "midi": 59,
          "time": 105.40898550000043,
          "velocity": 0.3937007874015748,
          "duration": 0.13636350000000164
        },
        {
          "name": "D#4",
          "midi": 63,
          "time": 105.40898550000043,
          "velocity": 0.3937007874015748,
          "duration": 0.13636350000000164
        },
        {
          "name": "G#4",
          "midi": 68,
          "time": 105.68171250000043,
          "velocity": 0.3937007874015748,
          "duration": 0.13636350000000164
        },
        {
          "name": "D#4",
          "midi": 63,
          "time": 105.81807600000043,
          "velocity": 0.3937007874015748,
          "duration": 0.13636350000000164
        },
        {
          "name": "B3",
          "midi": 59,
          "time": 105.95443950000043,
          "velocity": 0.3937007874015748,
          "duration": 0.13636350000000164
        },
        {
          "name": "G#3",
          "midi": 56,
          "time": 106.09080300000043,
          "velocity": 0.3937007874015748,
          "duration": 0.13636350000000164
        },
        {
          "name": "B3",
          "midi": 59,
          "time": 106.22716650000044,
          "velocity": 0.3937007874015748,
          "duration": 0.13636350000000164
        },
        {
          "name": "D#4",
          "midi": 63,
          "time": 106.36353000000044,
          "velocity": 0.3937007874015748,
          "duration": 0.13636350000000164
        },
        {
          "name": "D4",
          "midi": 62,
          "time": 106.49989350000044,
          "velocity": 0.3937007874015748,
          "duration": 0.13636350000000164
        },
        {
          "name": "C#4",
          "midi": 61,
          "time": 106.63625700000044,
          "velocity": 0.3937007874015748,
          "duration": 0.13636350000000164
        },
        {
          "name": "C4",
          "midi": 60,
          "time": 106.77262050000044,
          "velocity": 0.3937007874015748,
          "duration": 0.13636350000000164
        },
        {
          "name": "B3",
          "midi": 59,
          "time": 106.90898400000044,
          "velocity": 0.3937007874015748,
          "duration": 0.13636350000000164
        },
        {
          "name": "A#3",
          "midi": 58,
          "time": 107.04534750000045,
          "velocity": 0.3937007874015748,
          "duration": 0.13636350000000164
        },
        {
          "name": "A3",
          "midi": 57,
          "time": 107.18171100000045,
          "velocity": 0.3937007874015748,
          "duration": 0.13636350000000164
        },
        {
          "name": "G#3",
          "midi": 56,
          "time": 107.31807450000045,
          "velocity": 0.3937007874015748,
          "duration": 0.13636350000000164
        },
        {
          "name": "G3",
          "midi": 55,
          "time": 107.45443800000045,
          "velocity": 0.3937007874015748,
          "duration": 0.13636350000000164
        },
        {
          "name": "F#3",
          "midi": 54,
          "time": 107.59080150000045,
          "velocity": 0.3937007874015748,
          "duration": 0.13636350000000164
        },
        {
          "name": "A#3",
          "midi": 58,
          "time": 107.72716500000045,
          "velocity": 0.3937007874015748,
          "duration": 0.13636350000000164
        },
        {
          "name": "A#3",
          "midi": 58,
          "time": 107.99989200000046,
          "velocity": 0.3937007874015748,
          "duration": 0.13636350000000164
        },
        {
          "name": "F#3",
          "midi": 54,
          "time": 108.13625550000046,
          "velocity": 0.3937007874015748,
          "duration": 0.13636350000000164
        },
        {
          "name": "F3",
          "midi": 53,
          "time": 108.27261900000046,
          "velocity": 0.3937007874015748,
          "duration": 0.13636350000000164
        },
        {
          "name": "A#3",
          "midi": 58,
          "time": 108.40898250000046,
          "velocity": 0.3937007874015748,
          "duration": 0.13636350000000164
        },
        {
          "name": "D#3",
          "midi": 51,
          "time": 108.54534600000046,
          "velocity": 0.3937007874015748,
          "duration": 0.13636350000000164
        },
        {
          "name": "A#3",
          "midi": 58,
          "time": 108.68170950000047,
          "velocity": 0.3937007874015748,
          "duration": 0.13636350000000164
        },
        {
          "name": "F4",
          "midi": 65,
          "time": 108.81807300000047,
          "velocity": 0.3937007874015748,
          "duration": 0.13636350000000164
        },
        {
          "name": "D#4",
          "midi": 63,
          "time": 109.09080000000047,
          "velocity": 0.3937007874015748,
          "duration": 0.13636350000000164
        },
        {
          "name": "D4",
          "midi": 62,
          "time": 109.22716350000047,
          "velocity": 0.3937007874015748,
          "duration": 0.13636350000000164
        },
        {
          "name": "A#3",
          "midi": 58,
          "time": 109.36352700000047,
          "velocity": 0.3937007874015748,
          "duration": 0.13636350000000164
        },
        {
          "name": "G#3",
          "midi": 56,
          "time": 109.49989050000048,
          "velocity": 0.3937007874015748,
          "duration": 0.13636350000000164
        },
        {
          "name": "D#4",
          "midi": 63,
          "time": 109.63625400000048,
          "velocity": 0.3937007874015748,
          "duration": 0.13636350000000164
        },
        {
          "name": "G#4",
          "midi": 68,
          "time": 109.77261750000048,
          "velocity": 0.3937007874015748,
          "duration": 0.13636350000000164
        },
        {
          "name": "D#4",
          "midi": 63,
          "time": 109.90898100000048,
          "velocity": 0.3937007874015748,
          "duration": 0.13636350000000164
        },
        {
          "name": "B3",
          "midi": 59,
          "time": 110.04534450000048,
          "velocity": 0.3937007874015748,
          "duration": 0.13636350000000164
        },
        {
          "name": "C4",
          "midi": 60,
          "time": 110.18170800000048,
          "velocity": 0.3937007874015748,
          "duration": 0.13636350000000164
        },
        {
          "name": "C#4",
          "midi": 61,
          "time": 110.31807150000049,
          "velocity": 0.3937007874015748,
          "duration": 0.13636350000000164
        },
        {
          "name": "D4",
          "midi": 62,
          "time": 110.45443500000049,
          "velocity": 0.3937007874015748,
          "duration": 0.13636350000000164
        },
        {
          "name": "D#4",
          "midi": 63,
          "time": 110.59079850000049,
          "velocity": 0.3937007874015748,
          "duration": 0.13636350000000164
        },
        {
          "name": "B3",
          "midi": 59,
          "time": 110.72716200000049,
          "velocity": 0.3937007874015748,
          "duration": 0.13636350000000164
        },
        {
          "name": "G#3",
          "midi": 56,
          "time": 110.86352550000049,
          "velocity": 0.3937007874015748,
          "duration": 0.13636350000000164
        },
        {
          "name": "A#3",
          "midi": 58,
          "time": 110.9998890000005,
          "velocity": 0.3937007874015748,
          "duration": 0.13636350000000164
        },
        {
          "name": "D#4",
          "midi": 63,
          "time": 111.2726160000005,
          "velocity": 0.3937007874015748,
          "duration": 0.13636350000000164
        },
        {
          "name": "B3",
          "midi": 59,
          "time": 111.4089795000005,
          "velocity": 0.3937007874015748,
          "duration": 0.13636350000000164
        },
        {
          "name": "G#3",
          "midi": 56,
          "time": 111.5453430000005,
          "velocity": 0.3937007874015748,
          "duration": 0.13636350000000164
        },
        {
          "name": "B3",
          "midi": 59,
          "time": 111.6817065000005,
          "velocity": 0.3937007874015748,
          "duration": 0.13636350000000164
        },
        {
          "name": "G#4",
          "midi": 68,
          "time": 111.8180700000005,
          "velocity": 0.3937007874015748,
          "duration": 0.13636350000000164
        },
        {
          "name": "G4",
          "midi": 67,
          "time": 111.9544335000005,
          "velocity": 0.3937007874015748,
          "duration": 0.13636350000000164
        },
        {
          "name": "F#4",
          "midi": 66,
          "time": 112.0907970000005,
          "velocity": 0.3937007874015748,
          "duration": 0.13636350000000164
        },
        {
          "name": "F4",
          "midi": 65,
          "time": 112.22716050000051,
          "velocity": 0.3937007874015748,
          "duration": 0.13636350000000164
        },
        {
          "name": "E4",
          "midi": 64,
          "time": 112.36352400000051,
          "velocity": 0.3937007874015748,
          "duration": 0.13636350000000164
        },
        {
          "name": "D#4",
          "midi": 63,
          "time": 112.49988750000051,
          "velocity": 0.3937007874015748,
          "duration": 0.13636350000000164
        },
        {
          "name": "D4",
          "midi": 62,
          "time": 112.63625100000051,
          "velocity": 0.3937007874015748,
          "duration": 0.13636350000000164
        },
        {
          "name": "C#4",
          "midi": 61,
          "time": 112.77261450000051,
          "velocity": 0.3937007874015748,
          "duration": 0.13636350000000164
        },
        {
          "name": "C4",
          "midi": 60,
          "time": 112.90897800000052,
          "velocity": 0.3937007874015748,
          "duration": 0.13636350000000164
        },
        {
          "name": "B3",
          "midi": 59,
          "time": 113.04534150000052,
          "velocity": 0.3937007874015748,
          "duration": 0.13636350000000164
        },
        {
          "name": "D#4",
          "midi": 63,
          "time": 113.18170500000052,
          "velocity": 0.3937007874015748,
          "duration": 0.13636350000000164
        },
        {
          "name": "A#3",
          "midi": 58,
          "time": 113.31806850000052,
          "velocity": 0.3937007874015748,
          "duration": 0.13636350000000164
        },
        {
          "name": "D#4",
          "midi": 63,
          "time": 113.45443200000052,
          "velocity": 0.3937007874015748,
          "duration": 0.13636350000000164
        },
        {
          "name": "D4",
          "midi": 62,
          "time": 113.59079550000052,
          "velocity": 0.3937007874015748,
          "duration": 0.13636350000000164
        },
        {
          "name": "A#3",
          "midi": 58,
          "time": 113.72715900000053,
          "velocity": 0.3937007874015748,
          "duration": 0.13636350000000164
        },
        {
          "name": "D#4",
          "midi": 63,
          "time": 113.86352250000053,
          "velocity": 0.3937007874015748,
          "duration": 0.13636350000000164
        },
        {
          "name": "A#3",
          "midi": 58,
          "time": 113.99988600000053,
          "velocity": 0.3937007874015748,
          "duration": 0.13636350000000164
        },
        {
          "name": "D#4",
          "midi": 63,
          "time": 114.13624950000053,
          "velocity": 0.3937007874015748,
          "duration": 0.13636350000000164
        },
        {
          "name": "D4",
          "midi": 62,
          "time": 114.27261300000053,
          "velocity": 0.3937007874015748,
          "duration": 0.13636350000000164
        },
        {
          "name": "A#3",
          "midi": 58,
          "time": 114.40897650000053,
          "velocity": 0.3937007874015748,
          "duration": 0.13636350000000164
        },
        {
          "name": "G#3",
          "midi": 56,
          "time": 114.54534000000054,
          "velocity": 0.3937007874015748,
          "duration": 0.13636350000000164
        },
        {
          "name": "G3",
          "midi": 55,
          "time": 114.68170350000054,
          "velocity": 0.3937007874015748,
          "duration": 0.13636350000000164
        },
        {
          "name": "A#3",
          "midi": 58,
          "time": 114.81806700000054,
          "velocity": 0.3937007874015748,
          "duration": 0.13636350000000164
        },
        {
          "name": "G#3",
          "midi": 56,
          "time": 114.95443050000054,
          "velocity": 0.3937007874015748,
          "duration": 0.13636350000000164
        },
        {
          "name": "D#4",
          "midi": 63,
          "time": 115.09079400000054,
          "velocity": 0.3937007874015748,
          "duration": 0.13636350000000164
        },
        {
          "name": "G#4",
          "midi": 68,
          "time": 115.22715750000054,
          "velocity": 0.3937007874015748,
          "duration": 0.13636350000000164
        },
        {
          "name": "D#4",
          "midi": 63,
          "time": 115.36352100000055,
          "velocity": 0.3937007874015748,
          "duration": 0.13636350000000164
        },
        {
          "name": "F#4",
          "midi": 66,
          "time": 115.49988450000055,
          "velocity": 0.3937007874015748,
          "duration": 0.13636350000000164
        },
        {
          "name": "E4",
          "midi": 64,
          "time": 115.63624800000055,
          "velocity": 0.3937007874015748,
          "duration": 0.13636350000000164
        },
        {
          "name": "D#4",
          "midi": 63,
          "time": 115.77261150000055,
          "velocity": 0.3937007874015748,
          "duration": 0.13636350000000164
        }
      ],
      "controlChanges": {},
      "id": 12,
      "name": "Jazz Guitar",
      "instrumentNumber": 26,
      "instrument": "electric guitar (jazz)",
      "instrumentFamily": "guitar",
      "channelNumber": 11,
      "isPercussion": false
    },
    {
      "startTime": 95.45445,
      "duration": 114.40897650000001,
      "length": 5,
      "notes": [
        {
          "name": "G1",
          "midi": 31,
          "time": 95.45445,
          "velocity": 0.3937007874015748,
          "duration": 0.13636350000000164
        },
        {
          "name": "G1",
          "midi": 31,
          "time": 103.36353299999999,
          "velocity": 0.3937007874015748,
          "duration": 0.13636350000000164
        },
        {
          "name": "G1",
          "midi": 31,
          "time": 106.36353,
          "velocity": 0.3937007874015748,
          "duration": 0.13636350000000164
        },
        {
          "name": "G1",
          "midi": 31,
          "time": 107.727165,
          "velocity": 0.3937007874015748,
          "duration": 0.13636350000000164
        },
        {
          "name": "G1",
          "midi": 31,
          "time": 114.272613,
          "velocity": 0.3937007874015748,
          "duration": 0.13636350000000164
        }
      ],
      "controlChanges": {},
      "id": 13,
      "name": "808 Bass",
      "instrumentNumber": 0,
      "instrument": "acoustic grand piano",
      "instrumentFamily": "piano",
      "channelNumber": 12,
      "isPercussion": false
    },
    {
      "startTime": 12.9545325,
      "duration": 115.90897500000084,
      "length": 766,
      "notes": [
        {
          "name": "C2",
          "midi": 36,
          "time": 12.9545325,
          "velocity": 0.3937007874015748,
          "duration": 0.13636349999999986
        },
        {
          "name": "A1",
          "midi": 33,
          "time": 13.090895999999999,
          "velocity": 0.3937007874015748,
          "duration": 0.13636349999999986
        },
        {
          "name": "B1",
          "midi": 35,
          "time": 13.090895999999999,
          "velocity": 0.3937007874015748,
          "duration": 0.13636349999999986
        },
        {
          "name": "G1",
          "midi": 31,
          "time": 13.227259499999999,
          "velocity": 0.3937007874015748,
          "duration": 0.13636349999999986
        },
        {
          "name": "G#1",
          "midi": 32,
          "time": 13.363622999999999,
          "velocity": 0.3937007874015748,
          "duration": 0.13636349999999986
        },
        {
          "name": "A1",
          "midi": 33,
          "time": 13.363622999999999,
          "velocity": 0.3937007874015748,
          "duration": 0.13636349999999986
        },
        {
          "name": "A#1",
          "midi": 34,
          "time": 13.499986499999999,
          "velocity": 0.3937007874015748,
          "duration": 0.13636349999999986
        },
        {
          "name": "B1",
          "midi": 35,
          "time": 13.499986499999999,
          "velocity": 0.3937007874015748,
          "duration": 0.13636349999999986
        },
        {
          "name": "A1",
          "midi": 33,
          "time": 13.499986499999999,
          "velocity": 0.3937007874015748,
          "duration": 0.13636349999999986
        },
        {
          "name": "G1",
          "midi": 31,
          "time": 13.636349999999998,
          "velocity": 0.3937007874015748,
          "duration": 0.13636349999999986
        },
        {
          "name": "A1",
          "midi": 33,
          "time": 13.636349999999998,
          "velocity": 0.3937007874015748,
          "duration": 0.13636349999999986
        },
        {
          "name": "A1",
          "midi": 33,
          "time": 13.772713499999998,
          "velocity": 0.3937007874015748,
          "duration": 0.13636349999999986
        },
        {
          "name": "A1",
          "midi": 33,
          "time": 13.909076999999998,
          "velocity": 0.3937007874015748,
          "duration": 0.13636349999999986
        },
        {
          "name": "A1",
          "midi": 33,
          "time": 14.045440499999998,
          "velocity": 0.3937007874015748,
          "duration": 0.13636349999999986
        },
        {
          "name": "G1",
          "midi": 31,
          "time": 14.045440499999998,
          "velocity": 0.3937007874015748,
          "duration": 0.13636349999999986
        },
        {
          "name": "G1",
          "midi": 31,
          "time": 14.181803999999998,
          "velocity": 0.3937007874015748,
          "duration": 0.13636349999999986
        },
        {
          "name": "A1",
          "midi": 33,
          "time": 14.181803999999998,
          "velocity": 0.3937007874015748,
          "duration": 0.13636349999999986
        },
        {
          "name": "A#1",
          "midi": 34,
          "time": 14.318167499999998,
          "velocity": 0.3937007874015748,
          "duration": 0.13636349999999986
        },
        {
          "name": "A1",
          "midi": 33,
          "time": 14.318167499999998,
          "velocity": 0.3937007874015748,
          "duration": 0.13636349999999986
        },
        {
          "name": "A1",
          "midi": 33,
          "time": 14.454530999999998,
          "velocity": 0.3937007874015748,
          "duration": 0.13636349999999986
        },
        {
          "name": "A1",
          "midi": 33,
          "time": 14.590894499999997,
          "velocity": 0.3937007874015748,
          "duration": 0.13636349999999986
        },
        {
          "name": "A1",
          "midi": 33,
          "time": 14.727257999999997,
          "velocity": 0.3937007874015748,
          "duration": 0.13636349999999986
        },
        {
          "name": "A1",
          "midi": 33,
          "time": 14.863621499999997,
          "velocity": 0.3937007874015748,
          "duration": 0.13636349999999986
        },
        {
          "name": "A1",
          "midi": 33,
          "time": 14.999984999999997,
          "velocity": 0.3937007874015748,
          "duration": 0.13636349999999986
        },
        {
          "name": "G1",
          "midi": 31,
          "time": 14.999984999999997,
          "velocity": 0.3937007874015748,
          "duration": 0.13636349999999986
        },
        {
          "name": "A1",
          "midi": 33,
          "time": 15.136348499999997,
          "velocity": 0.3937007874015748,
          "duration": 0.13636349999999986
        },
        {
          "name": "A1",
          "midi": 33,
          "time": 15.272711999999997,
          "velocity": 0.3937007874015748,
          "duration": 0.13636349999999986
        },
        {
          "name": "A1",
          "midi": 33,
          "time": 15.409075499999997,
          "velocity": 0.3937007874015748,
          "duration": 0.13636349999999986
        },
        {
          "name": "G1",
          "midi": 31,
          "time": 15.545438999999996,
          "velocity": 0.3937007874015748,
          "duration": 0.13636349999999986
        },
        {
          "name": "A1",
          "midi": 33,
          "time": 15.545438999999996,
          "velocity": 0.3937007874015748,
          "duration": 0.13636349999999986
        },
        {
          "name": "A1",
          "midi": 33,
          "time": 15.681802499999996,
          "velocity": 0.3937007874015748,
          "duration": 0.13636349999999986
        },
        {
          "name": "A#1",
          "midi": 34,
          "time": 15.681802499999996,
          "velocity": 0.3937007874015748,
          "duration": 0.13636349999999986
        },
        {
          "name": "A1",
          "midi": 33,
          "time": 15.818165999999996,
          "velocity": 0.3937007874015748,
          "duration": 0.13636349999999986
        },
        {
          "name": "A1",
          "midi": 33,
          "time": 15.954529499999996,
          "velocity": 0.3937007874015748,
          "duration": 0.13636350000000164
        },
        {
          "name": "G1",
          "midi": 31,
          "time": 15.954529499999996,
          "velocity": 0.3937007874015748,
          "duration": 0.13636350000000164
        },
        {
          "name": "G1",
          "midi": 31,
          "time": 16.090892999999998,
          "velocity": 0.3937007874015748,
          "duration": 0.13636350000000164
        },
        {
          "name": "A1",
          "midi": 33,
          "time": 16.090892999999998,
          "velocity": 0.3937007874015748,
          "duration": 0.13636350000000164
        },
        {
          "name": "A1",
          "midi": 33,
          "time": 16.2272565,
          "velocity": 0.3937007874015748,
          "duration": 0.13636350000000164
        },
        {
          "name": "B1",
          "midi": 35,
          "time": 16.2272565,
          "velocity": 0.3937007874015748,
          "duration": 0.13636350000000164
        },
        {
          "name": "G1",
          "midi": 31,
          "time": 16.36362,
          "velocity": 0.3937007874015748,
          "duration": 0.13636350000000164
        },
        {
          "name": "A1",
          "midi": 33,
          "time": 16.36362,
          "velocity": 0.3937007874015748,
          "duration": 0.13636350000000164
        },
        {
          "name": "A1",
          "midi": 33,
          "time": 16.499983500000003,
          "velocity": 0.3937007874015748,
          "duration": 0.13636350000000164
        },
        {
          "name": "A1",
          "midi": 33,
          "time": 16.636347000000004,
          "velocity": 0.3937007874015748,
          "duration": 0.13636350000000164
        },
        {
          "name": "G1",
          "midi": 31,
          "time": 16.772710500000006,
          "velocity": 0.3937007874015748,
          "duration": 0.13636350000000164
        },
        {
          "name": "A1",
          "midi": 33,
          "time": 16.772710500000006,
          "velocity": 0.3937007874015748,
          "duration": 0.13636350000000164
        },
        {
          "name": "A1",
          "midi": 33,
          "time": 16.909074000000007,
          "velocity": 0.3937007874015748,
          "duration": 0.13636350000000164
        },
        {
          "name": "G1",
          "midi": 31,
          "time": 16.909074000000007,
          "velocity": 0.3937007874015748,
          "duration": 0.13636350000000164
        },
        {
          "name": "A#1",
          "midi": 34,
          "time": 17.04543750000001,
          "velocity": 0.3937007874015748,
          "duration": 0.13636350000000164
        },
        {
          "name": "A1",
          "midi": 33,
          "time": 17.04543750000001,
          "velocity": 0.3937007874015748,
          "duration": 0.13636350000000164
        },
        {
          "name": "A1",
          "midi": 33,
          "time": 17.18180100000001,
          "velocity": 0.3937007874015748,
          "duration": 0.13636350000000164
        },
        {
          "name": "A1",
          "midi": 33,
          "time": 17.318164500000012,
          "velocity": 0.3937007874015748,
          "duration": 0.13636350000000164
        },
        {
          "name": "A1",
          "midi": 33,
          "time": 17.454528000000014,
          "velocity": 0.3937007874015748,
          "duration": 0.13636350000000164
        },
        {
          "name": "A1",
          "midi": 33,
          "time": 17.590891500000016,
          "velocity": 0.3937007874015748,
          "duration": 0.13636350000000164
        },
        {
          "name": "G1",
          "midi": 31,
          "time": 17.727255000000017,
          "velocity": 0.3937007874015748,
          "duration": 0.13636350000000164
        },
        {
          "name": "A1",
          "midi": 33,
          "time": 17.727255000000017,
          "velocity": 0.3937007874015748,
          "duration": 0.13636350000000164
        },
        {
          "name": "A1",
          "midi": 33,
          "time": 17.86361850000002,
          "velocity": 0.3937007874015748,
          "duration": 0.13636350000000164
        },
        {
          "name": "A1",
          "midi": 33,
          "time": 17.99998200000002,
          "velocity": 0.3937007874015748,
          "duration": 0.13636350000000164
        },
        {
          "name": "A1",
          "midi": 33,
          "time": 18.136345500000022,
          "velocity": 0.3937007874015748,
          "duration": 0.13636350000000164
        },
        {
          "name": "A1",
          "midi": 33,
          "time": 18.272709000000024,
          "velocity": 0.3937007874015748,
          "duration": 0.13636350000000164
        },
        {
          "name": "G1",
          "midi": 31,
          "time": 18.272709000000024,
          "velocity": 0.3937007874015748,
          "duration": 0.13636350000000164
        },
        {
          "name": "A#1",
          "midi": 34,
          "time": 18.409072500000025,
          "velocity": 0.3937007874015748,
          "duration": 0.13636350000000164
        },
        {
          "name": "A1",
          "midi": 33,
          "time": 18.409072500000025,
          "velocity": 0.3937007874015748,
          "duration": 0.13636350000000164
        },
        {
          "name": "A1",
          "midi": 33,
          "time": 18.545436000000027,
          "velocity": 0.3937007874015748,
          "duration": 0.13636350000000164
        },
        {
          "name": "G1",
          "midi": 31,
          "time": 18.68179950000003,
          "velocity": 0.3937007874015748,
          "duration": 0.13636350000000164
        },
        {
          "name": "A1",
          "midi": 33,
          "time": 18.68179950000003,
          "velocity": 0.3937007874015748,
          "duration": 0.13636350000000164
        },
        {
          "name": "G1",
          "midi": 31,
          "time": 18.81816300000003,
          "velocity": 0.3937007874015748,
          "duration": 0.13636350000000164
        },
        {
          "name": "A1",
          "midi": 33,
          "time": 18.81816300000003,
          "velocity": 0.3937007874015748,
          "duration": 0.13636350000000164
        },
        {
          "name": "A1",
          "midi": 33,
          "time": 18.954526500000032,
          "velocity": 0.3937007874015748,
          "duration": 0.13636350000000164
        },
        {
          "name": "B1",
          "midi": 35,
          "time": 18.954526500000032,
          "velocity": 0.3937007874015748,
          "duration": 0.13636350000000164
        },
        {
          "name": "G1",
          "midi": 31,
          "time": 19.090890000000034,
          "velocity": 0.3937007874015748,
          "duration": 0.13636350000000164
        },
        {
          "name": "A1",
          "midi": 33,
          "time": 19.090890000000034,
          "velocity": 0.3937007874015748,
          "duration": 0.13636350000000164
        },
        {
          "name": "A1",
          "midi": 33,
          "time": 19.227253500000035,
          "velocity": 0.3937007874015748,
          "duration": 0.13636350000000164
        },
        {
          "name": "A1",
          "midi": 33,
          "time": 19.363617000000037,
          "velocity": 0.3937007874015748,
          "duration": 0.13636350000000164
        },
        {
          "name": "A1",
          "midi": 33,
          "time": 19.49998050000004,
          "velocity": 0.3937007874015748,
          "duration": 0.13636350000000164
        },
        {
          "name": "G1",
          "midi": 31,
          "time": 19.49998050000004,
          "velocity": 0.3937007874015748,
          "duration": 0.13636350000000164
        },
        {
          "name": "A1",
          "midi": 33,
          "time": 19.63634400000004,
          "velocity": 0.3937007874015748,
          "duration": 0.13636350000000164
        },
        {
          "name": "G1",
          "midi": 31,
          "time": 19.63634400000004,
          "velocity": 0.3937007874015748,
          "duration": 0.13636350000000164
        },
        {
          "name": "A1",
          "midi": 33,
          "time": 19.772707500000042,
          "velocity": 0.3937007874015748,
          "duration": 0.13636350000000164
        },
        {
          "name": "A#1",
          "midi": 34,
          "time": 19.772707500000042,
          "velocity": 0.3937007874015748,
          "duration": 0.13636350000000164
        },
        {
          "name": "A1",
          "midi": 33,
          "time": 19.909071000000043,
          "velocity": 0.3937007874015748,
          "duration": 0.13636350000000164
        },
        {
          "name": "A1",
          "midi": 33,
          "time": 20.045434500000045,
          "velocity": 0.3937007874015748,
          "duration": 0.13636350000000164
        },
        {
          "name": "A1",
          "midi": 33,
          "time": 20.181798000000047,
          "velocity": 0.3937007874015748,
          "duration": 0.13636350000000164
        },
        {
          "name": "A1",
          "midi": 33,
          "time": 20.31816150000005,
          "velocity": 0.3937007874015748,
          "duration": 0.13636350000000164
        },
        {
          "name": "A1",
          "midi": 33,
          "time": 20.45452500000005,
          "velocity": 0.3937007874015748,
          "duration": 0.13636350000000164
        },
        {
          "name": "G1",
          "midi": 31,
          "time": 20.45452500000005,
          "velocity": 0.3937007874015748,
          "duration": 0.13636350000000164
        },
        {
          "name": "A1",
          "midi": 33,
          "time": 20.59088850000005,
          "velocity": 0.3937007874015748,
          "duration": 0.13636350000000164
        },
        {
          "name": "A1",
          "midi": 33,
          "time": 20.727252000000053,
          "velocity": 0.3937007874015748,
          "duration": 0.13636350000000164
        },
        {
          "name": "A1",
          "midi": 33,
          "time": 20.863615500000055,
          "velocity": 0.3937007874015748,
          "duration": 0.13636350000000164
        },
        {
          "name": "G1",
          "midi": 31,
          "time": 20.999979000000057,
          "velocity": 0.3937007874015748,
          "duration": 0.13636350000000164
        },
        {
          "name": "A1",
          "midi": 33,
          "time": 20.999979000000057,
          "velocity": 0.3937007874015748,
          "duration": 0.13636350000000164
        },
        {
          "name": "A#1",
          "midi": 34,
          "time": 21.136342500000058,
          "velocity": 0.3937007874015748,
          "duration": 0.13636350000000164
        },
        {
          "name": "A1",
          "midi": 33,
          "time": 21.136342500000058,
          "velocity": 0.3937007874015748,
          "duration": 0.13636350000000164
        },
        {
          "name": "A1",
          "midi": 33,
          "time": 21.27270600000006,
          "velocity": 0.3937007874015748,
          "duration": 0.13636350000000164
        },
        {
          "name": "A1",
          "midi": 33,
          "time": 21.40906950000006,
          "velocity": 0.3937007874015748,
          "duration": 0.13636350000000164
        },
        {
          "name": "G1",
          "midi": 31,
          "time": 21.40906950000006,
          "velocity": 0.3937007874015748,
          "duration": 0.13636350000000164
        },
        {
          "name": "G1",
          "midi": 31,
          "time": 21.545433000000063,
          "velocity": 0.3937007874015748,
          "duration": 0.13636350000000164
        },
        {
          "name": "A1",
          "midi": 33,
          "time": 21.545433000000063,
          "velocity": 0.3937007874015748,
          "duration": 0.13636350000000164
        },
        {
          "name": "A1",
          "midi": 33,
          "time": 21.681796500000065,
          "velocity": 0.3937007874015748,
          "duration": 0.13636350000000164
        },
        {
          "name": "B1",
          "midi": 35,
          "time": 21.681796500000065,
          "velocity": 0.3937007874015748,
          "duration": 0.13636350000000164
        },
        {
          "name": "A1",
          "midi": 33,
          "time": 21.818160000000066,
          "velocity": 0.3937007874015748,
          "duration": 0.13636350000000164
        },
        {
          "name": "G1",
          "midi": 31,
          "time": 21.818160000000066,
          "velocity": 0.3937007874015748,
          "duration": 0.13636350000000164
        },
        {
          "name": "A1",
          "midi": 33,
          "time": 21.954523500000068,
          "velocity": 0.3937007874015748,
          "duration": 0.13636350000000164
        },
        {
          "name": "A1",
          "midi": 33,
          "time": 22.09088700000007,
          "velocity": 0.3937007874015748,
          "duration": 0.13636350000000164
        },
        {
          "name": "A1",
          "midi": 33,
          "time": 22.22725050000007,
          "velocity": 0.3937007874015748,
          "duration": 0.13636350000000164
        },
        {
          "name": "G1",
          "midi": 31,
          "time": 22.22725050000007,
          "velocity": 0.3937007874015748,
          "duration": 0.13636350000000164
        },
        {
          "name": "A1",
          "midi": 33,
          "time": 22.363614000000073,
          "velocity": 0.3937007874015748,
          "duration": 0.13636350000000164
        },
        {
          "name": "G1",
          "midi": 31,
          "time": 22.363614000000073,
          "velocity": 0.3937007874015748,
          "duration": 0.13636350000000164
        },
        {
          "name": "A#1",
          "midi": 34,
          "time": 22.499977500000075,
          "velocity": 0.3937007874015748,
          "duration": 0.13636350000000164
        },
        {
          "name": "A1",
          "midi": 33,
          "time": 22.499977500000075,
          "velocity": 0.3937007874015748,
          "duration": 0.13636350000000164
        },
        {
          "name": "A1",
          "midi": 33,
          "time": 22.636341000000076,
          "velocity": 0.3937007874015748,
          "duration": 0.13636350000000164
        },
        {
          "name": "A1",
          "midi": 33,
          "time": 22.772704500000078,
          "velocity": 0.3937007874015748,
          "duration": 0.13636350000000164
        },
        {
          "name": "A1",
          "midi": 33,
          "time": 22.90906800000008,
          "velocity": 0.3937007874015748,
          "duration": 0.13636350000000164
        },
        {
          "name": "A1",
          "midi": 33,
          "time": 23.04543150000008,
          "velocity": 0.3937007874015748,
          "duration": 0.13636350000000164
        },
        {
          "name": "A1",
          "midi": 33,
          "time": 23.181795000000083,
          "velocity": 0.3937007874015748,
          "duration": 0.13636350000000164
        },
        {
          "name": "G1",
          "midi": 31,
          "time": 23.181795000000083,
          "velocity": 0.3937007874015748,
          "duration": 0.13636350000000164
        },
        {
          "name": "A1",
          "midi": 33,
          "time": 23.318158500000084,
          "velocity": 0.3937007874015748,
          "duration": 0.13636350000000164
        },
        {
          "name": "A1",
          "midi": 33,
          "time": 23.454522000000086,
          "velocity": 0.3937007874015748,
          "duration": 0.13636350000000164
        },
        {
          "name": "A1",
          "midi": 33,
          "time": 23.590885500000088,
          "velocity": 0.3937007874015748,
          "duration": 0.13636350000000164
        },
        {
          "name": "A1",
          "midi": 33,
          "time": 23.72724900000009,
          "velocity": 0.3937007874015748,
          "duration": 0.13636350000000164
        },
        {
          "name": "G1",
          "midi": 31,
          "time": 23.72724900000009,
          "velocity": 0.3937007874015748,
          "duration": 0.13636350000000164
        },
        {
          "name": "C2",
          "midi": 36,
          "time": 23.86361250000009,
          "velocity": 0.3937007874015748,
          "duration": 0.13636350000000164
        },
        {
          "name": "B1",
          "midi": 35,
          "time": 23.999976000000093,
          "velocity": 0.3937007874015748,
          "duration": 0.13636350000000164
        },
        {
          "name": "A1",
          "midi": 33,
          "time": 23.999976000000093,
          "velocity": 0.3937007874015748,
          "duration": 0.13636350000000164
        },
        {
          "name": "G1",
          "midi": 31,
          "time": 24.136339500000094,
          "velocity": 0.3937007874015748,
          "duration": 0.13636350000000164
        },
        {
          "name": "G1",
          "midi": 31,
          "time": 24.136339500000094,
          "velocity": 0.3937007874015748,
          "duration": 0.13636350000000164
        },
        {
          "name": "A1",
          "midi": 33,
          "time": 24.272703000000096,
          "velocity": 0.3937007874015748,
          "duration": 0.13636350000000164
        },
        {
          "name": "G#1",
          "midi": 32,
          "time": 24.272703000000096,
          "velocity": 0.3937007874015748,
          "duration": 0.13636350000000164
        },
        {
          "name": "B1",
          "midi": 35,
          "time": 24.409066500000097,
          "velocity": 0.3937007874015748,
          "duration": 0.13636350000000164
        },
        {
          "name": "A1",
          "midi": 33,
          "time": 24.409066500000097,
          "velocity": 0.3937007874015748,
          "duration": 0.13636350000000164
        },
        {
          "name": "A#1",
          "midi": 34,
          "time": 24.409066500000097,
          "velocity": 0.3937007874015748,
          "duration": 0.13636350000000164
        },
        {
          "name": "B1",
          "midi": 35,
          "time": 24.409066500000097,
          "velocity": 0.3937007874015748,
          "duration": 0.13636350000000164
        },
        {
          "name": "A1",
          "midi": 33,
          "time": 24.5454300000001,
          "velocity": 0.3937007874015748,
          "duration": 0.13636350000000164
        },
        {
          "name": "G1",
          "midi": 31,
          "time": 24.5454300000001,
          "velocity": 0.3937007874015748,
          "duration": 0.13636350000000164
        },
        {
          "name": "A1",
          "midi": 33,
          "time": 24.6817935000001,
          "velocity": 0.3937007874015748,
          "duration": 0.13636350000000164
        },
        {
          "name": "A1",
          "midi": 33,
          "time": 24.818157000000102,
          "velocity": 0.3937007874015748,
          "duration": 0.13636350000000164
        },
        {
          "name": "A1",
          "midi": 33,
          "time": 24.954520500000104,
          "velocity": 0.3937007874015748,
          "duration": 0.13636350000000164
        },
        {
          "name": "G1",
          "midi": 31,
          "time": 24.954520500000104,
          "velocity": 0.3937007874015748,
          "duration": 0.13636350000000164
        },
        {
          "name": "A1",
          "midi": 33,
          "time": 25.090884000000106,
          "velocity": 0.3937007874015748,
          "duration": 0.13636350000000164
        },
        {
          "name": "G1",
          "midi": 31,
          "time": 25.090884000000106,
          "velocity": 0.3937007874015748,
          "duration": 0.13636350000000164
        },
        {
          "name": "A#1",
          "midi": 34,
          "time": 25.227247500000107,
          "velocity": 0.3937007874015748,
          "duration": 0.13636350000000164
        },
        {
          "name": "A1",
          "midi": 33,
          "time": 25.227247500000107,
          "velocity": 0.3937007874015748,
          "duration": 0.13636350000000164
        },
        {
          "name": "A1",
          "midi": 33,
          "time": 25.36361100000011,
          "velocity": 0.3937007874015748,
          "duration": 0.13636350000000164
        },
        {
          "name": "A1",
          "midi": 33,
          "time": 25.49997450000011,
          "velocity": 0.3937007874015748,
          "duration": 0.13636350000000164
        },
        {
          "name": "A1",
          "midi": 33,
          "time": 25.636338000000112,
          "velocity": 0.3937007874015748,
          "duration": 0.13636350000000164
        },
        {
          "name": "A1",
          "midi": 33,
          "time": 25.772701500000114,
          "velocity": 0.3937007874015748,
          "duration": 0.13636350000000164
        },
        {
          "name": "A1",
          "midi": 33,
          "time": 25.909065000000115,
          "velocity": 0.3937007874015748,
          "duration": 0.13636350000000164
        },
        {
          "name": "G1",
          "midi": 31,
          "time": 25.909065000000115,
          "velocity": 0.3937007874015748,
          "duration": 0.13636350000000164
        },
        {
          "name": "A1",
          "midi": 33,
          "time": 26.045428500000117,
          "velocity": 0.3937007874015748,
          "duration": 0.13636350000000164
        },
        {
          "name": "A1",
          "midi": 33,
          "time": 26.18179200000012,
          "velocity": 0.3937007874015748,
          "duration": 0.13636350000000164
        },
        {
          "name": "A1",
          "midi": 33,
          "time": 26.31815550000012,
          "velocity": 0.3937007874015748,
          "duration": 0.13636350000000164
        },
        {
          "name": "A1",
          "midi": 33,
          "time": 26.454519000000122,
          "velocity": 0.3937007874015748,
          "duration": 0.13636350000000164
        },
        {
          "name": "G1",
          "midi": 31,
          "time": 26.454519000000122,
          "velocity": 0.3937007874015748,
          "duration": 0.13636350000000164
        },
        {
          "name": "A1",
          "midi": 33,
          "time": 26.590882500000124,
          "velocity": 0.3937007874015748,
          "duration": 0.13636350000000164
        },
        {
          "name": "A#1",
          "midi": 34,
          "time": 26.590882500000124,
          "velocity": 0.3937007874015748,
          "duration": 0.13636350000000164
        },
        {
          "name": "A1",
          "midi": 33,
          "time": 26.727246000000125,
          "velocity": 0.3937007874015748,
          "duration": 0.13636350000000164
        },
        {
          "name": "G1",
          "midi": 31,
          "time": 26.863609500000127,
          "velocity": 0.3937007874015748,
          "duration": 0.13636350000000164
        },
        {
          "name": "A1",
          "midi": 33,
          "time": 26.863609500000127,
          "velocity": 0.3937007874015748,
          "duration": 0.13636350000000164
        },
        {
          "name": "A1",
          "midi": 33,
          "time": 26.99997300000013,
          "velocity": 0.3937007874015748,
          "duration": 0.13636350000000164
        },
        {
          "name": "G1",
          "midi": 31,
          "time": 26.99997300000013,
          "velocity": 0.3937007874015748,
          "duration": 0.13636350000000164
        },
        {
          "name": "A1",
          "midi": 33,
          "time": 27.13633650000013,
          "velocity": 0.3937007874015748,
          "duration": 0.13636350000000164
        },
        {
          "name": "B1",
          "midi": 35,
          "time": 27.13633650000013,
          "velocity": 0.3937007874015748,
          "duration": 0.13636350000000164
        },
        {
          "name": "A1",
          "midi": 33,
          "time": 27.272700000000132,
          "velocity": 0.3937007874015748,
          "duration": 0.13636350000000164
        },
        {
          "name": "G1",
          "midi": 31,
          "time": 27.272700000000132,
          "velocity": 0.3937007874015748,
          "duration": 0.13636350000000164
        },
        {
          "name": "A1",
          "midi": 33,
          "time": 27.409063500000133,
          "velocity": 0.3937007874015748,
          "duration": 0.13636350000000164
        },
        {
          "name": "A1",
          "midi": 33,
          "time": 27.545427000000135,
          "velocity": 0.3937007874015748,
          "duration": 0.13636350000000164
        },
        {
          "name": "A1",
          "midi": 33,
          "time": 27.681790500000137,
          "velocity": 0.3937007874015748,
          "duration": 0.13636350000000164
        },
        {
          "name": "G1",
          "midi": 31,
          "time": 27.681790500000137,
          "velocity": 0.3937007874015748,
          "duration": 0.13636350000000164
        },
        {
          "name": "G1",
          "midi": 31,
          "time": 27.81815400000014,
          "velocity": 0.3937007874015748,
          "duration": 0.13636350000000164
        },
        {
          "name": "A1",
          "midi": 33,
          "time": 27.81815400000014,
          "velocity": 0.3937007874015748,
          "duration": 0.13636350000000164
        },
        {
          "name": "A#1",
          "midi": 34,
          "time": 27.95451750000014,
          "velocity": 0.3937007874015748,
          "duration": 0.13636350000000164
        },
        {
          "name": "A1",
          "midi": 33,
          "time": 27.95451750000014,
          "velocity": 0.3937007874015748,
          "duration": 0.13636350000000164
        },
        {
          "name": "A1",
          "midi": 33,
          "time": 28.09088100000014,
          "velocity": 0.3937007874015748,
          "duration": 0.13636350000000164
        },
        {
          "name": "A1",
          "midi": 33,
          "time": 28.227244500000143,
          "velocity": 0.3937007874015748,
          "duration": 0.13636350000000164
        },
        {
          "name": "A1",
          "midi": 33,
          "time": 28.363608000000145,
          "velocity": 0.3937007874015748,
          "duration": 0.13636350000000164
        },
        {
          "name": "A1",
          "midi": 33,
          "time": 28.499971500000147,
          "velocity": 0.3937007874015748,
          "duration": 0.13636350000000164
        },
        {
          "name": "G1",
          "midi": 31,
          "time": 28.636335000000148,
          "velocity": 0.3937007874015748,
          "duration": 0.13636350000000164
        },
        {
          "name": "A1",
          "midi": 33,
          "time": 28.636335000000148,
          "velocity": 0.3937007874015748,
          "duration": 0.13636350000000164
        },
        {
          "name": "A1",
          "midi": 33,
          "time": 28.77269850000015,
          "velocity": 0.3937007874015748,
          "duration": 0.13636350000000164
        },
        {
          "name": "A1",
          "midi": 33,
          "time": 28.90906200000015,
          "velocity": 0.3937007874015748,
          "duration": 0.13636350000000164
        },
        {
          "name": "A1",
          "midi": 33,
          "time": 29.045425500000153,
          "velocity": 0.3937007874015748,
          "duration": 0.13636350000000164
        },
        {
          "name": "G1",
          "midi": 31,
          "time": 29.181789000000155,
          "velocity": 0.3937007874015748,
          "duration": 0.13636350000000164
        },
        {
          "name": "A1",
          "midi": 33,
          "time": 29.181789000000155,
          "velocity": 0.3937007874015748,
          "duration": 0.13636350000000164
        },
        {
          "name": "A1",
          "midi": 33,
          "time": 29.318152500000156,
          "velocity": 0.3937007874015748,
          "duration": 0.13636350000000164
        },
        {
          "name": "A#1",
          "midi": 34,
          "time": 29.318152500000156,
          "velocity": 0.3937007874015748,
          "duration": 0.13636350000000164
        },
        {
          "name": "A1",
          "midi": 33,
          "time": 29.454516000000158,
          "velocity": 0.3937007874015748,
          "duration": 0.13636350000000164
        },
        {
          "name": "A1",
          "midi": 33,
          "time": 29.59087950000016,
          "velocity": 0.3937007874015748,
          "duration": 0.13636350000000164
        },
        {
          "name": "G1",
          "midi": 31,
          "time": 29.59087950000016,
          "velocity": 0.3937007874015748,
          "duration": 0.13636350000000164
        },
        {
          "name": "A1",
          "midi": 33,
          "time": 29.72724300000016,
          "velocity": 0.3937007874015748,
          "duration": 0.13636350000000164
        },
        {
          "name": "G1",
          "midi": 31,
          "time": 29.72724300000016,
          "velocity": 0.3937007874015748,
          "duration": 0.13636350000000164
        },
        {
          "name": "A1",
          "midi": 33,
          "time": 29.863606500000163,
          "velocity": 0.3937007874015748,
          "duration": 0.13636350000000164
        },
        {
          "name": "B1",
          "midi": 35,
          "time": 29.863606500000163,
          "velocity": 0.3937007874015748,
          "duration": 0.13636350000000164
        },
        {
          "name": "G1",
          "midi": 31,
          "time": 29.999970000000165,
          "velocity": 0.3937007874015748,
          "duration": 0.13636350000000164
        },
        {
          "name": "A1",
          "midi": 33,
          "time": 29.999970000000165,
          "velocity": 0.3937007874015748,
          "duration": 0.13636350000000164
        },
        {
          "name": "A1",
          "midi": 33,
          "time": 30.136333500000166,
          "velocity": 0.3937007874015748,
          "duration": 0.13636350000000164
        },
        {
          "name": "A1",
          "midi": 33,
          "time": 30.272697000000168,
          "velocity": 0.3937007874015748,
          "duration": 0.13636350000000164
        },
        {
          "name": "A1",
          "midi": 33,
          "time": 30.40906050000017,
          "velocity": 0.3937007874015748,
          "duration": 0.13636350000000164
        },
        {
          "name": "G1",
          "midi": 31,
          "time": 30.40906050000017,
          "velocity": 0.3937007874015748,
          "duration": 0.13636350000000164
        },
        {
          "name": "A1",
          "midi": 33,
          "time": 30.54542400000017,
          "velocity": 0.3937007874015748,
          "duration": 0.13636350000000164
        },
        {
          "name": "G1",
          "midi": 31,
          "time": 30.54542400000017,
          "velocity": 0.3937007874015748,
          "duration": 0.13636350000000164
        },
        {
          "name": "A#1",
          "midi": 34,
          "time": 30.681787500000173,
          "velocity": 0.3937007874015748,
          "duration": 0.13636350000000164
        },
        {
          "name": "A1",
          "midi": 33,
          "time": 30.681787500000173,
          "velocity": 0.3937007874015748,
          "duration": 0.13636350000000164
        },
        {
          "name": "A1",
          "midi": 33,
          "time": 30.818151000000174,
          "velocity": 0.3937007874015748,
          "duration": 0.13636350000000164
        },
        {
          "name": "A1",
          "midi": 33,
          "time": 30.954514500000176,
          "velocity": 0.3937007874015748,
          "duration": 0.13636350000000164
        },
        {
          "name": "A1",
          "midi": 33,
          "time": 31.090878000000178,
          "velocity": 0.3937007874015748,
          "duration": 0.13636350000000164
        },
        {
          "name": "A1",
          "midi": 33,
          "time": 31.22724150000018,
          "velocity": 0.3937007874015748,
          "duration": 0.13636350000000164
        },
        {
          "name": "G1",
          "midi": 31,
          "time": 31.36360500000018,
          "velocity": 0.3937007874015748,
          "duration": 0.13636350000000164
        },
        {
          "name": "A1",
          "midi": 33,
          "time": 31.36360500000018,
          "velocity": 0.3937007874015748,
          "duration": 0.13636350000000164
        },
        {
          "name": "A1",
          "midi": 33,
          "time": 31.499968500000183,
          "velocity": 0.3937007874015748,
          "duration": 0.13636350000000164
        },
        {
          "name": "A1",
          "midi": 33,
          "time": 31.636332000000184,
          "velocity": 0.3937007874015748,
          "duration": 0.13636350000000164
        },
        {
          "name": "A1",
          "midi": 33,
          "time": 31.772695500000186,
          "velocity": 0.3937007874015748,
          "duration": 0.13636350000000164
        },
        {
          "name": "G1",
          "midi": 31,
          "time": 31.909059000000187,
          "velocity": 0.3937007874015748,
          "duration": 0.13636349999999808
        },
        {
          "name": "A1",
          "midi": 33,
          "time": 31.909059000000187,
          "velocity": 0.3937007874015748,
          "duration": 0.13636349999999808
        },
        {
          "name": "A1",
          "midi": 33,
          "time": 32.045422500000186,
          "velocity": 0.3937007874015748,
          "duration": 0.13636350000000164
        },
        {
          "name": "A#1",
          "midi": 34,
          "time": 32.045422500000186,
          "velocity": 0.3937007874015748,
          "duration": 0.13636350000000164
        },
        {
          "name": "A1",
          "midi": 33,
          "time": 32.18178600000019,
          "velocity": 0.3937007874015748,
          "duration": 0.13636350000000164
        },
        {
          "name": "G1",
          "midi": 31,
          "time": 32.31814950000019,
          "velocity": 0.3937007874015748,
          "duration": 0.13636350000000164
        },
        {
          "name": "A1",
          "midi": 33,
          "time": 32.31814950000019,
          "velocity": 0.3937007874015748,
          "duration": 0.13636350000000164
        },
        {
          "name": "G1",
          "midi": 31,
          "time": 32.45451300000019,
          "velocity": 0.3937007874015748,
          "duration": 0.13636350000000164
        },
        {
          "name": "A1",
          "midi": 33,
          "time": 32.45451300000019,
          "velocity": 0.3937007874015748,
          "duration": 0.13636350000000164
        },
        {
          "name": "A1",
          "midi": 33,
          "time": 32.59087650000019,
          "velocity": 0.3937007874015748,
          "duration": 0.13636350000000164
        },
        {
          "name": "B1",
          "midi": 35,
          "time": 32.59087650000019,
          "velocity": 0.3937007874015748,
          "duration": 0.13636350000000164
        },
        {
          "name": "A1",
          "midi": 33,
          "time": 32.727240000000194,
          "velocity": 0.3937007874015748,
          "duration": 0.13636350000000164
        },
        {
          "name": "G1",
          "midi": 31,
          "time": 32.727240000000194,
          "velocity": 0.3937007874015748,
          "duration": 0.13636350000000164
        },
        {
          "name": "A1",
          "midi": 33,
          "time": 32.863603500000195,
          "velocity": 0.3937007874015748,
          "duration": 0.13636350000000164
        },
        {
          "name": "A1",
          "midi": 33,
          "time": 32.9999670000002,
          "velocity": 0.3937007874015748,
          "duration": 0.13636350000000164
        },
        {
          "name": "G1",
          "midi": 31,
          "time": 33.1363305000002,
          "velocity": 0.3937007874015748,
          "duration": 0.13636350000000164
        },
        {
          "name": "A1",
          "midi": 33,
          "time": 33.1363305000002,
          "velocity": 0.3937007874015748,
          "duration": 0.13636350000000164
        },
        {
          "name": "G1",
          "midi": 31,
          "time": 33.2726940000002,
          "velocity": 0.3937007874015748,
          "duration": 0.13636350000000164
        },
        {
          "name": "A1",
          "midi": 33,
          "time": 33.2726940000002,
          "velocity": 0.3937007874015748,
          "duration": 0.13636350000000164
        },
        {
          "name": "A#1",
          "midi": 34,
          "time": 33.4090575000002,
          "velocity": 0.3937007874015748,
          "duration": 0.13636350000000164
        },
        {
          "name": "A1",
          "midi": 33,
          "time": 33.4090575000002,
          "velocity": 0.3937007874015748,
          "duration": 0.13636350000000164
        },
        {
          "name": "A1",
          "midi": 33,
          "time": 33.5454210000002,
          "velocity": 0.3937007874015748,
          "duration": 0.13636350000000164
        },
        {
          "name": "A1",
          "midi": 33,
          "time": 33.681784500000205,
          "velocity": 0.3937007874015748,
          "duration": 0.13636350000000164
        },
        {
          "name": "A1",
          "midi": 33,
          "time": 33.81814800000021,
          "velocity": 0.3937007874015748,
          "duration": 0.13636350000000164
        },
        {
          "name": "A1",
          "midi": 33,
          "time": 33.95451150000021,
          "velocity": 0.3937007874015748,
          "duration": 0.13636350000000164
        },
        {
          "name": "A1",
          "midi": 33,
          "time": 34.09087500000021,
          "velocity": 0.3937007874015748,
          "duration": 0.13636350000000164
        },
        {
          "name": "G1",
          "midi": 31,
          "time": 34.09087500000021,
          "velocity": 0.3937007874015748,
          "duration": 0.13636350000000164
        },
        {
          "name": "A1",
          "midi": 33,
          "time": 34.22723850000021,
          "velocity": 0.3937007874015748,
          "duration": 0.13636350000000164
        },
        {
          "name": "A1",
          "midi": 33,
          "time": 34.36360200000021,
          "velocity": 0.3937007874015748,
          "duration": 0.13636350000000164
        },
        {
          "name": "A1",
          "midi": 33,
          "time": 34.499965500000215,
          "velocity": 0.3937007874015748,
          "duration": 0.13636350000000164
        },
        {
          "name": "A1",
          "midi": 33,
          "time": 34.63632900000022,
          "velocity": 0.3937007874015748,
          "duration": 0.13636350000000164
        },
        {
          "name": "G1",
          "midi": 31,
          "time": 34.63632900000022,
          "velocity": 0.3937007874015748,
          "duration": 0.13636350000000164
        },
        {
          "name": "C2",
          "midi": 36,
          "time": 34.77269250000022,
          "velocity": 0.3937007874015748,
          "duration": 0.13636350000000164
        },
        {
          "name": "A1",
          "midi": 33,
          "time": 34.90905600000022,
          "velocity": 0.3937007874015748,
          "duration": 0.13636350000000164
        },
        {
          "name": "B1",
          "midi": 35,
          "time": 34.90905600000022,
          "velocity": 0.3937007874015748,
          "duration": 0.13636350000000164
        },
        {
          "name": "G1",
          "midi": 31,
          "time": 35.04541950000022,
          "velocity": 0.3937007874015748,
          "duration": 0.13636350000000164
        },
        {
          "name": "G1",
          "midi": 31,
          "time": 35.04541950000022,
          "velocity": 0.3937007874015748,
          "duration": 0.13636350000000164
        },
        {
          "name": "A1",
          "midi": 33,
          "time": 35.18178300000022,
          "velocity": 0.3937007874015748,
          "duration": 0.13636350000000164
        },
        {
          "name": "G#1",
          "midi": 32,
          "time": 35.18178300000022,
          "velocity": 0.3937007874015748,
          "duration": 0.13636350000000164
        },
        {
          "name": "A1",
          "midi": 33,
          "time": 35.318146500000225,
          "velocity": 0.3937007874015748,
          "duration": 0.13636350000000164
        },
        {
          "name": "B1",
          "midi": 35,
          "time": 35.318146500000225,
          "velocity": 0.3937007874015748,
          "duration": 0.13636350000000164
        },
        {
          "name": "A#1",
          "midi": 34,
          "time": 35.318146500000225,
          "velocity": 0.3937007874015748,
          "duration": 0.13636350000000164
        },
        {
          "name": "B1",
          "midi": 35,
          "time": 35.318146500000225,
          "velocity": 0.3937007874015748,
          "duration": 0.13636350000000164
        },
        {
          "name": "A1",
          "midi": 33,
          "time": 35.45451000000023,
          "velocity": 0.3937007874015748,
          "duration": 0.13636350000000164
        },
        {
          "name": "G1",
          "midi": 31,
          "time": 35.45451000000023,
          "velocity": 0.3937007874015748,
          "duration": 0.13636350000000164
        },
        {
          "name": "A1",
          "midi": 33,
          "time": 35.59087350000023,
          "velocity": 0.3937007874015748,
          "duration": 0.13636350000000164
        },
        {
          "name": "A1",
          "midi": 33,
          "time": 35.72723700000023,
          "velocity": 0.3937007874015748,
          "duration": 0.13636350000000164
        },
        {
          "name": "G1",
          "midi": 31,
          "time": 35.86360050000023,
          "velocity": 0.3937007874015748,
          "duration": 0.13636350000000164
        },
        {
          "name": "A1",
          "midi": 33,
          "time": 35.86360050000023,
          "velocity": 0.3937007874015748,
          "duration": 0.13636350000000164
        },
        {
          "name": "G1",
          "midi": 31,
          "time": 35.99996400000023,
          "velocity": 0.3937007874015748,
          "duration": 0.13636350000000164
        },
        {
          "name": "A1",
          "midi": 33,
          "time": 35.99996400000023,
          "velocity": 0.3937007874015748,
          "duration": 0.13636350000000164
        },
        {
          "name": "A1",
          "midi": 33,
          "time": 36.136327500000235,
          "velocity": 0.3937007874015748,
          "duration": 0.13636350000000164
        },
        {
          "name": "A#1",
          "midi": 34,
          "time": 36.136327500000235,
          "velocity": 0.3937007874015748,
          "duration": 0.13636350000000164
        },
        {
          "name": "A1",
          "midi": 33,
          "time": 36.272691000000236,
          "velocity": 0.3937007874015748,
          "duration": 0.13636350000000164
        },
        {
          "name": "A1",
          "midi": 33,
          "time": 36.40905450000024,
          "velocity": 0.3937007874015748,
          "duration": 0.13636350000000164
        },
        {
          "name": "A1",
          "midi": 33,
          "time": 36.54541800000024,
          "velocity": 0.3937007874015748,
          "duration": 0.13636350000000164
        },
        {
          "name": "A1",
          "midi": 33,
          "time": 36.68178150000024,
          "velocity": 0.3937007874015748,
          "duration": 0.13636350000000164
        },
        {
          "name": "A1",
          "midi": 33,
          "time": 36.81814500000024,
          "velocity": 0.3937007874015748,
          "duration": 0.13636350000000164
        },
        {
          "name": "G1",
          "midi": 31,
          "time": 36.81814500000024,
          "velocity": 0.3937007874015748,
          "duration": 0.13636350000000164
        },
        {
          "name": "A1",
          "midi": 33,
          "time": 36.954508500000244,
          "velocity": 0.3937007874015748,
          "duration": 0.13636350000000164
        },
        {
          "name": "A1",
          "midi": 33,
          "time": 37.090872000000246,
          "velocity": 0.3937007874015748,
          "duration": 0.13636350000000164
        },
        {
          "name": "A1",
          "midi": 33,
          "time": 37.22723550000025,
          "velocity": 0.3937007874015748,
          "duration": 0.13636350000000164
        },
        {
          "name": "G1",
          "midi": 31,
          "time": 37.36359900000025,
          "velocity": 0.3937007874015748,
          "duration": 0.13636350000000164
        },
        {
          "name": "A1",
          "midi": 33,
          "time": 37.36359900000025,
          "velocity": 0.3937007874015748,
          "duration": 0.13636350000000164
        },
        {
          "name": "A1",
          "midi": 33,
          "time": 37.49996250000025,
          "velocity": 0.3937007874015748,
          "duration": 0.13636350000000164
        },
        {
          "name": "A#1",
          "midi": 34,
          "time": 37.49996250000025,
          "velocity": 0.3937007874015748,
          "duration": 0.13636350000000164
        },
        {
          "name": "A1",
          "midi": 33,
          "time": 37.63632600000025,
          "velocity": 0.3937007874015748,
          "duration": 0.13636350000000164
        },
        {
          "name": "A1",
          "midi": 33,
          "time": 37.772689500000254,
          "velocity": 0.3937007874015748,
          "duration": 0.13636350000000164
        },
        {
          "name": "G1",
          "midi": 31,
          "time": 37.772689500000254,
          "velocity": 0.3937007874015748,
          "duration": 0.13636350000000164
        },
        {
          "name": "G1",
          "midi": 31,
          "time": 37.909053000000256,
          "velocity": 0.3937007874015748,
          "duration": 0.13636350000000164
        },
        {
          "name": "A1",
          "midi": 33,
          "time": 37.909053000000256,
          "velocity": 0.3937007874015748,
          "duration": 0.13636350000000164
        },
        {
          "name": "B1",
          "midi": 35,
          "time": 38.04541650000026,
          "velocity": 0.3937007874015748,
          "duration": 0.13636350000000164
        },
        {
          "name": "A1",
          "midi": 33,
          "time": 38.04541650000026,
          "velocity": 0.3937007874015748,
          "duration": 0.13636350000000164
        },
        {
          "name": "G1",
          "midi": 31,
          "time": 38.18178000000026,
          "velocity": 0.3937007874015748,
          "duration": 0.13636350000000164
        },
        {
          "name": "A1",
          "midi": 33,
          "time": 38.18178000000026,
          "velocity": 0.3937007874015748,
          "duration": 0.13636350000000164
        },
        {
          "name": "A1",
          "midi": 33,
          "time": 38.31814350000026,
          "velocity": 0.3937007874015748,
          "duration": 0.13636350000000164
        },
        {
          "name": "A1",
          "midi": 33,
          "time": 38.45450700000026,
          "velocity": 0.3937007874015748,
          "duration": 0.13636350000000164
        },
        {
          "name": "A1",
          "midi": 33,
          "time": 38.590870500000264,
          "velocity": 0.3937007874015748,
          "duration": 0.13636350000000164
        },
        {
          "name": "G1",
          "midi": 31,
          "time": 38.590870500000264,
          "velocity": 0.3937007874015748,
          "duration": 0.13636350000000164
        },
        {
          "name": "G1",
          "midi": 31,
          "time": 38.727234000000266,
          "velocity": 0.3937007874015748,
          "duration": 0.13636350000000164
        },
        {
          "name": "A1",
          "midi": 33,
          "time": 38.727234000000266,
          "velocity": 0.3937007874015748,
          "duration": 0.13636350000000164
        },
        {
          "name": "A#1",
          "midi": 34,
          "time": 38.86359750000027,
          "velocity": 0.3937007874015748,
          "duration": 0.13636350000000164
        },
        {
          "name": "A1",
          "midi": 33,
          "time": 38.86359750000027,
          "velocity": 0.3937007874015748,
          "duration": 0.13636350000000164
        },
        {
          "name": "A1",
          "midi": 33,
          "time": 38.99996100000027,
          "velocity": 0.3937007874015748,
          "duration": 0.13636350000000164
        },
        {
          "name": "A1",
          "midi": 33,
          "time": 39.13632450000027,
          "velocity": 0.3937007874015748,
          "duration": 0.13636350000000164
        },
        {
          "name": "A1",
          "midi": 33,
          "time": 39.27268800000027,
          "velocity": 0.3937007874015748,
          "duration": 0.13636350000000164
        },
        {
          "name": "A1",
          "midi": 33,
          "time": 39.409051500000274,
          "velocity": 0.3937007874015748,
          "duration": 0.13636350000000164
        },
        {
          "name": "A1",
          "midi": 33,
          "time": 39.545415000000276,
          "velocity": 0.3937007874015748,
          "duration": 0.13636350000000164
        },
        {
          "name": "G1",
          "midi": 31,
          "time": 39.545415000000276,
          "velocity": 0.3937007874015748,
          "duration": 0.13636350000000164
        },
        {
          "name": "A1",
          "midi": 33,
          "time": 39.68177850000028,
          "velocity": 0.3937007874015748,
          "duration": 0.13636350000000164
        },
        {
          "name": "A1",
          "midi": 33,
          "time": 39.81814200000028,
          "velocity": 0.3937007874015748,
          "duration": 0.13636350000000164
        },
        {
          "name": "A1",
          "midi": 33,
          "time": 39.95450550000028,
          "velocity": 0.3937007874015748,
          "duration": 0.13636350000000164
        },
        {
          "name": "G1",
          "midi": 31,
          "time": 40.09086900000028,
          "velocity": 0.3937007874015748,
          "duration": 0.13636350000000164
        },
        {
          "name": "A1",
          "midi": 33,
          "time": 40.09086900000028,
          "velocity": 0.3937007874015748,
          "duration": 0.13636350000000164
        },
        {
          "name": "A#1",
          "midi": 34,
          "time": 40.227232500000284,
          "velocity": 0.3937007874015748,
          "duration": 0.13636350000000164
        },
        {
          "name": "A1",
          "midi": 33,
          "time": 40.227232500000284,
          "velocity": 0.3937007874015748,
          "duration": 0.13636350000000164
        },
        {
          "name": "A1",
          "midi": 33,
          "time": 40.363596000000285,
          "velocity": 0.3937007874015748,
          "duration": 0.13636350000000164
        },
        {
          "name": "A1",
          "midi": 33,
          "time": 40.49995950000029,
          "velocity": 0.3937007874015748,
          "duration": 0.13636350000000164
        },
        {
          "name": "G1",
          "midi": 31,
          "time": 40.49995950000029,
          "velocity": 0.3937007874015748,
          "duration": 0.13636350000000164
        },
        {
          "name": "A1",
          "midi": 33,
          "time": 40.63632300000029,
          "velocity": 0.3937007874015748,
          "duration": 0.13636350000000164
        },
        {
          "name": "G1",
          "midi": 31,
          "time": 40.63632300000029,
          "velocity": 0.3937007874015748,
          "duration": 0.13636350000000164
        },
        {
          "name": "B1",
          "midi": 35,
          "time": 40.77268650000029,
          "velocity": 0.3937007874015748,
          "duration": 0.13636350000000164
        },
        {
          "name": "A1",
          "midi": 33,
          "time": 40.77268650000029,
          "velocity": 0.3937007874015748,
          "duration": 0.13636350000000164
        },
        {
          "name": "G1",
          "midi": 31,
          "time": 40.90905000000029,
          "velocity": 0.3937007874015748,
          "duration": 0.13636350000000164
        },
        {
          "name": "A1",
          "midi": 33,
          "time": 40.90905000000029,
          "velocity": 0.3937007874015748,
          "duration": 0.13636350000000164
        },
        {
          "name": "A1",
          "midi": 33,
          "time": 41.04541350000029,
          "velocity": 0.3937007874015748,
          "duration": 0.13636350000000164
        },
        {
          "name": "A1",
          "midi": 33,
          "time": 41.181777000000295,
          "velocity": 0.3937007874015748,
          "duration": 0.13636350000000164
        },
        {
          "name": "G1",
          "midi": 31,
          "time": 41.3181405000003,
          "velocity": 0.3937007874015748,
          "duration": 0.13636350000000164
        },
        {
          "name": "A1",
          "midi": 33,
          "time": 41.3181405000003,
          "velocity": 0.3937007874015748,
          "duration": 0.13636350000000164
        },
        {
          "name": "A1",
          "midi": 33,
          "time": 41.4545040000003,
          "velocity": 0.3937007874015748,
          "duration": 0.13636350000000164
        },
        {
          "name": "G1",
          "midi": 31,
          "time": 41.4545040000003,
          "velocity": 0.3937007874015748,
          "duration": 0.13636350000000164
        },
        {
          "name": "A#1",
          "midi": 34,
          "time": 41.5908675000003,
          "velocity": 0.3937007874015748,
          "duration": 0.13636350000000164
        },
        {
          "name": "A1",
          "midi": 33,
          "time": 41.5908675000003,
          "velocity": 0.3937007874015748,
          "duration": 0.13636350000000164
        },
        {
          "name": "A1",
          "midi": 33,
          "time": 41.7272310000003,
          "velocity": 0.3937007874015748,
          "duration": 0.13636350000000164
        },
        {
          "name": "A1",
          "midi": 33,
          "time": 41.8635945000003,
          "velocity": 0.3937007874015748,
          "duration": 0.13636350000000164
        },
        {
          "name": "A1",
          "midi": 33,
          "time": 41.999958000000305,
          "velocity": 0.3937007874015748,
          "duration": 0.13636350000000164
        },
        {
          "name": "A1",
          "midi": 33,
          "time": 42.13632150000031,
          "velocity": 0.3937007874015748,
          "duration": 0.13636350000000164
        },
        {
          "name": "G1",
          "midi": 31,
          "time": 42.27268500000031,
          "velocity": 0.3937007874015748,
          "duration": 0.13636350000000164
        },
        {
          "name": "A1",
          "midi": 33,
          "time": 42.27268500000031,
          "velocity": 0.3937007874015748,
          "duration": 0.13636350000000164
        },
        {
          "name": "A1",
          "midi": 33,
          "time": 42.40904850000031,
          "velocity": 0.3937007874015748,
          "duration": 0.13636350000000164
        },
        {
          "name": "A1",
          "midi": 33,
          "time": 42.54541200000031,
          "velocity": 0.3937007874015748,
          "duration": 0.13636350000000164
        },
        {
          "name": "A1",
          "midi": 33,
          "time": 42.68177550000031,
          "velocity": 0.3937007874015748,
          "duration": 0.13636350000000164
        },
        {
          "name": "G1",
          "midi": 31,
          "time": 42.818139000000315,
          "velocity": 0.3937007874015748,
          "duration": 0.13636350000000164
        },
        {
          "name": "A1",
          "midi": 33,
          "time": 42.818139000000315,
          "velocity": 0.3937007874015748,
          "duration": 0.13636350000000164
        },
        {
          "name": "A1",
          "midi": 33,
          "time": 42.954502500000316,
          "velocity": 0.3937007874015748,
          "duration": 0.13636350000000164
        },
        {
          "name": "A#1",
          "midi": 34,
          "time": 42.954502500000316,
          "velocity": 0.3937007874015748,
          "duration": 0.13636350000000164
        },
        {
          "name": "A1",
          "midi": 33,
          "time": 43.09086600000032,
          "velocity": 0.3937007874015748,
          "duration": 0.13636350000000164
        },
        {
          "name": "A1",
          "midi": 33,
          "time": 43.22722950000032,
          "velocity": 0.3937007874015748,
          "duration": 0.13636350000000164
        },
        {
          "name": "G1",
          "midi": 31,
          "time": 43.22722950000032,
          "velocity": 0.3937007874015748,
          "duration": 0.13636350000000164
        },
        {
          "name": "A1",
          "midi": 33,
          "time": 43.36359300000032,
          "velocity": 0.3937007874015748,
          "duration": 0.13636350000000164
        },
        {
          "name": "G1",
          "midi": 31,
          "time": 43.36359300000032,
          "velocity": 0.3937007874015748,
          "duration": 0.13636350000000164
        },
        {
          "name": "B1",
          "midi": 35,
          "time": 43.49995650000032,
          "velocity": 0.3937007874015748,
          "duration": 0.13636350000000164
        },
        {
          "name": "A1",
          "midi": 33,
          "time": 43.49995650000032,
          "velocity": 0.3937007874015748,
          "duration": 0.13636350000000164
        },
        {
          "name": "G1",
          "midi": 31,
          "time": 43.636320000000325,
          "velocity": 0.3937007874015748,
          "duration": 0.13636350000000164
        },
        {
          "name": "A1",
          "midi": 33,
          "time": 43.636320000000325,
          "velocity": 0.3937007874015748,
          "duration": 0.13636350000000164
        },
        {
          "name": "A1",
          "midi": 33,
          "time": 43.772683500000326,
          "velocity": 0.3937007874015748,
          "duration": 0.13636350000000164
        },
        {
          "name": "A1",
          "midi": 33,
          "time": 43.90904700000033,
          "velocity": 0.3937007874015748,
          "duration": 0.13636350000000164
        },
        {
          "name": "G1",
          "midi": 31,
          "time": 44.04541050000033,
          "velocity": 0.3937007874015748,
          "duration": 0.13636350000000164
        },
        {
          "name": "A1",
          "midi": 33,
          "time": 44.04541050000033,
          "velocity": 0.3937007874015748,
          "duration": 0.13636350000000164
        },
        {
          "name": "G1",
          "midi": 31,
          "time": 44.18177400000033,
          "velocity": 0.3937007874015748,
          "duration": 0.13636350000000164
        },
        {
          "name": "A1",
          "midi": 33,
          "time": 44.18177400000033,
          "velocity": 0.3937007874015748,
          "duration": 0.13636350000000164
        },
        {
          "name": "A#1",
          "midi": 34,
          "time": 44.31813750000033,
          "velocity": 0.3937007874015748,
          "duration": 0.13636350000000164
        },
        {
          "name": "A1",
          "midi": 33,
          "time": 44.31813750000033,
          "velocity": 0.3937007874015748,
          "duration": 0.13636350000000164
        },
        {
          "name": "A1",
          "midi": 33,
          "time": 44.454501000000334,
          "velocity": 0.3937007874015748,
          "duration": 0.13636350000000164
        },
        {
          "name": "A1",
          "midi": 33,
          "time": 44.590864500000336,
          "velocity": 0.3937007874015748,
          "duration": 0.13636350000000164
        },
        {
          "name": "A1",
          "midi": 33,
          "time": 44.72722800000034,
          "velocity": 0.3937007874015748,
          "duration": 0.13636350000000164
        },
        {
          "name": "A1",
          "midi": 33,
          "time": 44.86359150000034,
          "velocity": 0.3937007874015748,
          "duration": 0.13636350000000164
        },
        {
          "name": "G1",
          "midi": 31,
          "time": 44.99995500000034,
          "velocity": 0.3937007874015748,
          "duration": 0.13636350000000164
        },
        {
          "name": "A1",
          "midi": 33,
          "time": 44.99995500000034,
          "velocity": 0.3937007874015748,
          "duration": 0.13636350000000164
        },
        {
          "name": "A1",
          "midi": 33,
          "time": 45.13631850000034,
          "velocity": 0.3937007874015748,
          "duration": 0.13636350000000164
        },
        {
          "name": "A1",
          "midi": 33,
          "time": 45.272682000000344,
          "velocity": 0.3937007874015748,
          "duration": 0.13636350000000164
        },
        {
          "name": "A1",
          "midi": 33,
          "time": 45.409045500000346,
          "velocity": 0.3937007874015748,
          "duration": 0.13636350000000164
        },
        {
          "name": "A1",
          "midi": 33,
          "time": 45.54540900000035,
          "velocity": 0.3937007874015748,
          "duration": 0.13636350000000164
        },
        {
          "name": "G1",
          "midi": 31,
          "time": 45.54540900000035,
          "velocity": 0.3937007874015748,
          "duration": 0.13636350000000164
        },
        {
          "name": "A#1",
          "midi": 34,
          "time": 45.68177250000035,
          "velocity": 0.3937007874015748,
          "duration": 0.13636350000000164
        },
        {
          "name": "A1",
          "midi": 33,
          "time": 45.68177250000035,
          "velocity": 0.3937007874015748,
          "duration": 0.13636350000000164
        },
        {
          "name": "A1",
          "midi": 33,
          "time": 45.81813600000035,
          "velocity": 0.3937007874015748,
          "duration": 0.13636350000000164
        },
        {
          "name": "A1",
          "midi": 33,
          "time": 45.95449950000035,
          "velocity": 0.3937007874015748,
          "duration": 0.13636350000000164
        },
        {
          "name": "G1",
          "midi": 31,
          "time": 45.95449950000035,
          "velocity": 0.3937007874015748,
          "duration": 0.13636350000000164
        },
        {
          "name": "A1",
          "midi": 33,
          "time": 46.090863000000354,
          "velocity": 0.3937007874015748,
          "duration": 0.13636350000000164
        },
        {
          "name": "G1",
          "midi": 31,
          "time": 46.090863000000354,
          "velocity": 0.3937007874015748,
          "duration": 0.13636350000000164
        },
        {
          "name": "B1",
          "midi": 35,
          "time": 46.227226500000356,
          "velocity": 0.3937007874015748,
          "duration": 0.13636350000000164
        },
        {
          "name": "A1",
          "midi": 33,
          "time": 46.227226500000356,
          "velocity": 0.3937007874015748,
          "duration": 0.13636350000000164
        },
        {
          "name": "G1",
          "midi": 31,
          "time": 46.36359000000036,
          "velocity": 0.3937007874015748,
          "duration": 0.13636350000000164
        },
        {
          "name": "A1",
          "midi": 33,
          "time": 46.36359000000036,
          "velocity": 0.3937007874015748,
          "duration": 0.13636350000000164
        },
        {
          "name": "A1",
          "midi": 33,
          "time": 46.49995350000036,
          "velocity": 0.3937007874015748,
          "duration": 0.13636350000000164
        },
        {
          "name": "A1",
          "midi": 33,
          "time": 46.63631700000036,
          "velocity": 0.3937007874015748,
          "duration": 0.13636350000000164
        },
        {
          "name": "A1",
          "midi": 33,
          "time": 46.77268050000036,
          "velocity": 0.3937007874015748,
          "duration": 0.13636350000000164
        },
        {
          "name": "G1",
          "midi": 31,
          "time": 46.77268050000036,
          "velocity": 0.3937007874015748,
          "duration": 0.13636350000000164
        },
        {
          "name": "A1",
          "midi": 33,
          "time": 46.909044000000364,
          "velocity": 0.3937007874015748,
          "duration": 0.13636350000000164
        },
        {
          "name": "G1",
          "midi": 31,
          "time": 46.909044000000364,
          "velocity": 0.3937007874015748,
          "duration": 0.13636350000000164
        },
        {
          "name": "A#1",
          "midi": 34,
          "time": 47.045407500000366,
          "velocity": 0.3937007874015748,
          "duration": 0.13636350000000164
        },
        {
          "name": "A1",
          "midi": 33,
          "time": 47.045407500000366,
          "velocity": 0.3937007874015748,
          "duration": 0.13636350000000164
        },
        {
          "name": "A1",
          "midi": 33,
          "time": 47.18177100000037,
          "velocity": 0.3937007874015748,
          "duration": 0.13636350000000164
        },
        {
          "name": "A1",
          "midi": 33,
          "time": 47.31813450000037,
          "velocity": 0.3937007874015748,
          "duration": 0.13636350000000164
        },
        {
          "name": "A1",
          "midi": 33,
          "time": 47.45449800000037,
          "velocity": 0.3937007874015748,
          "duration": 0.13636350000000164
        },
        {
          "name": "A1",
          "midi": 33,
          "time": 47.59086150000037,
          "velocity": 0.3937007874015748,
          "duration": 0.13636350000000164
        },
        {
          "name": "G1",
          "midi": 31,
          "time": 47.727225000000374,
          "velocity": 0.3937007874015748,
          "duration": 0.13636350000000164
        },
        {
          "name": "A1",
          "midi": 33,
          "time": 47.727225000000374,
          "velocity": 0.3937007874015748,
          "duration": 0.13636350000000164
        },
        {
          "name": "A1",
          "midi": 33,
          "time": 47.863588500000375,
          "velocity": 0.3937007874015748,
          "duration": 0.13636350000000164
        },
        {
          "name": "A1",
          "midi": 33,
          "time": 47.99995200000038,
          "velocity": 0.3937007874015748,
          "duration": 0.13636350000000164
        },
        {
          "name": "A1",
          "midi": 33,
          "time": 48.13631550000038,
          "velocity": 0.3937007874015748,
          "duration": 0.13636350000000164
        },
        {
          "name": "G1",
          "midi": 31,
          "time": 48.27267900000038,
          "velocity": 0.3937007874015748,
          "duration": 0.13636350000000164
        },
        {
          "name": "A1",
          "midi": 33,
          "time": 48.27267900000038,
          "velocity": 0.3937007874015748,
          "duration": 0.13636350000000164
        },
        {
          "name": "A1",
          "midi": 33,
          "time": 48.40904250000038,
          "velocity": 0.3937007874015748,
          "duration": 0.13636350000000164
        },
        {
          "name": "A#1",
          "midi": 34,
          "time": 48.40904250000038,
          "velocity": 0.3937007874015748,
          "duration": 0.13636350000000164
        },
        {
          "name": "A1",
          "midi": 33,
          "time": 48.54540600000038,
          "velocity": 0.3937007874015748,
          "duration": 0.13636350000000164
        },
        {
          "name": "A1",
          "midi": 33,
          "time": 48.681769500000385,
          "velocity": 0.3937007874015748,
          "duration": 0.13636350000000164
        },
        {
          "name": "G1",
          "midi": 31,
          "time": 48.681769500000385,
          "velocity": 0.3937007874015748,
          "duration": 0.13636350000000164
        },
        {
          "name": "A1",
          "midi": 33,
          "time": 48.81813300000039,
          "velocity": 0.3937007874015748,
          "duration": 0.13636350000000164
        },
        {
          "name": "G1",
          "midi": 31,
          "time": 48.81813300000039,
          "velocity": 0.3937007874015748,
          "duration": 0.13636350000000164
        },
        {
          "name": "B1",
          "midi": 35,
          "time": 48.95449650000039,
          "velocity": 0.3937007874015748,
          "duration": 0.13636350000000164
        },
        {
          "name": "A1",
          "midi": 33,
          "time": 48.95449650000039,
          "velocity": 0.3937007874015748,
          "duration": 0.13636350000000164
        },
        {
          "name": "G1",
          "midi": 31,
          "time": 49.09086000000039,
          "velocity": 0.3937007874015748,
          "duration": 0.13636350000000164
        },
        {
          "name": "A1",
          "midi": 33,
          "time": 49.09086000000039,
          "velocity": 0.3937007874015748,
          "duration": 0.13636350000000164
        },
        {
          "name": "A1",
          "midi": 33,
          "time": 49.22722350000039,
          "velocity": 0.3937007874015748,
          "duration": 0.13636350000000164
        },
        {
          "name": "A1",
          "midi": 33,
          "time": 49.36358700000039,
          "velocity": 0.3937007874015748,
          "duration": 0.13636350000000164
        },
        {
          "name": "G1",
          "midi": 31,
          "time": 49.499950500000395,
          "velocity": 0.3937007874015748,
          "duration": 0.13636350000000164
        },
        {
          "name": "A1",
          "midi": 33,
          "time": 49.499950500000395,
          "velocity": 0.3937007874015748,
          "duration": 0.13636350000000164
        },
        {
          "name": "G1",
          "midi": 31,
          "time": 49.6363140000004,
          "velocity": 0.3937007874015748,
          "duration": 0.13636350000000164
        },
        {
          "name": "A1",
          "midi": 33,
          "time": 49.6363140000004,
          "velocity": 0.3937007874015748,
          "duration": 0.13636350000000164
        },
        {
          "name": "A1",
          "midi": 33,
          "time": 49.7726775000004,
          "velocity": 0.3937007874015748,
          "duration": 0.13636350000000164
        },
        {
          "name": "A#1",
          "midi": 34,
          "time": 49.7726775000004,
          "velocity": 0.3937007874015748,
          "duration": 0.13636350000000164
        },
        {
          "name": "A1",
          "midi": 33,
          "time": 49.9090410000004,
          "velocity": 0.3937007874015748,
          "duration": 0.13636350000000164
        },
        {
          "name": "A1",
          "midi": 33,
          "time": 50.0454045000004,
          "velocity": 0.3937007874015748,
          "duration": 0.13636350000000164
        },
        {
          "name": "A1",
          "midi": 33,
          "time": 50.1817680000004,
          "velocity": 0.3937007874015748,
          "duration": 0.13636350000000164
        },
        {
          "name": "A1",
          "midi": 33,
          "time": 50.318131500000405,
          "velocity": 0.3937007874015748,
          "duration": 0.13636350000000164
        },
        {
          "name": "A1",
          "midi": 33,
          "time": 50.454495000000406,
          "velocity": 0.3937007874015748,
          "duration": 0.13636350000000164
        },
        {
          "name": "G1",
          "midi": 31,
          "time": 50.454495000000406,
          "velocity": 0.3937007874015748,
          "duration": 0.13636350000000164
        },
        {
          "name": "A1",
          "midi": 33,
          "time": 50.59085850000041,
          "velocity": 0.3937007874015748,
          "duration": 0.13636350000000164
        },
        {
          "name": "A1",
          "midi": 33,
          "time": 50.72722200000041,
          "velocity": 0.3937007874015748,
          "duration": 0.13636350000000164
        },
        {
          "name": "A1",
          "midi": 33,
          "time": 50.86358550000041,
          "velocity": 0.3937007874015748,
          "duration": 0.13636350000000164
        },
        {
          "name": "G1",
          "midi": 31,
          "time": 50.99994900000041,
          "velocity": 0.3937007874015748,
          "duration": 0.13636350000000164
        },
        {
          "name": "A1",
          "midi": 33,
          "time": 50.99994900000041,
          "velocity": 0.3937007874015748,
          "duration": 0.13636350000000164
        },
        {
          "name": "A#1",
          "midi": 34,
          "time": 51.136312500000415,
          "velocity": 0.3937007874015748,
          "duration": 0.13636350000000164
        },
        {
          "name": "A1",
          "midi": 33,
          "time": 51.136312500000415,
          "velocity": 0.3937007874015748,
          "duration": 0.13636350000000164
        },
        {
          "name": "A1",
          "midi": 33,
          "time": 51.272676000000416,
          "velocity": 0.3937007874015748,
          "duration": 0.13636350000000164
        },
        {
          "name": "G1",
          "midi": 31,
          "time": 51.40903950000042,
          "velocity": 0.3937007874015748,
          "duration": 0.13636350000000164
        },
        {
          "name": "A1",
          "midi": 33,
          "time": 51.40903950000042,
          "velocity": 0.3937007874015748,
          "duration": 0.13636350000000164
        },
        {
          "name": "A1",
          "midi": 33,
          "time": 51.54540300000042,
          "velocity": 0.3937007874015748,
          "duration": 0.13636350000000164
        },
        {
          "name": "G1",
          "midi": 31,
          "time": 51.54540300000042,
          "velocity": 0.3937007874015748,
          "duration": 0.13636350000000164
        },
        {
          "name": "B1",
          "midi": 35,
          "time": 51.68176650000042,
          "velocity": 0.3937007874015748,
          "duration": 0.13636350000000164
        },
        {
          "name": "A1",
          "midi": 33,
          "time": 51.68176650000042,
          "velocity": 0.3937007874015748,
          "duration": 0.13636350000000164
        },
        {
          "name": "G1",
          "midi": 31,
          "time": 51.81813000000042,
          "velocity": 0.3937007874015748,
          "duration": 0.13636350000000164
        },
        {
          "name": "A1",
          "midi": 33,
          "time": 51.81813000000042,
          "velocity": 0.3937007874015748,
          "duration": 0.13636350000000164
        },
        {
          "name": "A1",
          "midi": 33,
          "time": 51.954493500000424,
          "velocity": 0.3937007874015748,
          "duration": 0.13636350000000164
        },
        {
          "name": "A1",
          "midi": 33,
          "time": 52.090857000000426,
          "velocity": 0.3937007874015748,
          "duration": 0.13636350000000164
        },
        {
          "name": "G1",
          "midi": 31,
          "time": 52.22722050000043,
          "velocity": 0.3937007874015748,
          "duration": 0.13636350000000164
        },
        {
          "name": "A1",
          "midi": 33,
          "time": 52.22722050000043,
          "velocity": 0.3937007874015748,
          "duration": 0.13636350000000164
        },
        {
          "name": "A1",
          "midi": 33,
          "time": 52.36358400000043,
          "velocity": 0.3937007874015748,
          "duration": 0.13636350000000164
        },
        {
          "name": "G1",
          "midi": 31,
          "time": 52.36358400000043,
          "velocity": 0.3937007874015748,
          "duration": 0.13636350000000164
        },
        {
          "name": "A1",
          "midi": 33,
          "time": 52.49994750000043,
          "velocity": 0.3937007874015748,
          "duration": 0.13636350000000164
        },
        {
          "name": "A#1",
          "midi": 34,
          "time": 52.49994750000043,
          "velocity": 0.3937007874015748,
          "duration": 0.13636350000000164
        },
        {
          "name": "A1",
          "midi": 33,
          "time": 52.63631100000043,
          "velocity": 0.3937007874015748,
          "duration": 0.13636350000000164
        },
        {
          "name": "A1",
          "midi": 33,
          "time": 52.772674500000434,
          "velocity": 0.3937007874015748,
          "duration": 0.13636350000000164
        },
        {
          "name": "A1",
          "midi": 33,
          "time": 52.909038000000436,
          "velocity": 0.3937007874015748,
          "duration": 0.13636350000000164
        },
        {
          "name": "A1",
          "midi": 33,
          "time": 53.04540150000044,
          "velocity": 0.3937007874015748,
          "duration": 0.13636350000000164
        },
        {
          "name": "A1",
          "midi": 33,
          "time": 53.18176500000044,
          "velocity": 0.3937007874015748,
          "duration": 0.13636350000000164
        },
        {
          "name": "G1",
          "midi": 31,
          "time": 53.18176500000044,
          "velocity": 0.3937007874015748,
          "duration": 0.13636350000000164
        },
        {
          "name": "A1",
          "midi": 33,
          "time": 53.31812850000044,
          "velocity": 0.3937007874015748,
          "duration": 0.13636350000000164
        },
        {
          "name": "A1",
          "midi": 33,
          "time": 53.45449200000044,
          "velocity": 0.3937007874015748,
          "duration": 0.13636350000000164
        },
        {
          "name": "A1",
          "midi": 33,
          "time": 53.590855500000444,
          "velocity": 0.3937007874015748,
          "duration": 0.13636350000000164
        },
        {
          "name": "G1",
          "midi": 31,
          "time": 53.727219000000446,
          "velocity": 0.3937007874015748,
          "duration": 0.13636350000000164
        },
        {
          "name": "A1",
          "midi": 33,
          "time": 53.727219000000446,
          "velocity": 0.3937007874015748,
          "duration": 0.13636350000000164
        },
        {
          "name": "A#1",
          "midi": 34,
          "time": 53.86358250000045,
          "velocity": 0.3937007874015748,
          "duration": 0.13636350000000164
        },
        {
          "name": "A1",
          "midi": 33,
          "time": 53.86358250000045,
          "velocity": 0.3937007874015748,
          "duration": 0.13636350000000164
        },
        {
          "name": "A1",
          "midi": 33,
          "time": 53.99994600000045,
          "velocity": 0.3937007874015748,
          "duration": 0.13636350000000164
        },
        {
          "name": "A1",
          "midi": 33,
          "time": 54.13630950000045,
          "velocity": 0.3937007874015748,
          "duration": 0.13636350000000164
        },
        {
          "name": "G1",
          "midi": 31,
          "time": 54.13630950000045,
          "velocity": 0.3937007874015748,
          "duration": 0.13636350000000164
        },
        {
          "name": "A1",
          "midi": 33,
          "time": 54.27267300000045,
          "velocity": 0.3937007874015748,
          "duration": 0.13636350000000164
        },
        {
          "name": "G1",
          "midi": 31,
          "time": 54.27267300000045,
          "velocity": 0.3937007874015748,
          "duration": 0.13636350000000164
        },
        {
          "name": "A1",
          "midi": 33,
          "time": 54.409036500000454,
          "velocity": 0.3937007874015748,
          "duration": 0.13636350000000164
        },
        {
          "name": "B1",
          "midi": 35,
          "time": 54.409036500000454,
          "velocity": 0.3937007874015748,
          "duration": 0.13636350000000164
        },
        {
          "name": "G1",
          "midi": 31,
          "time": 54.545400000000456,
          "velocity": 0.3937007874015748,
          "duration": 0.13636350000000164
        },
        {
          "name": "A1",
          "midi": 33,
          "time": 54.545400000000456,
          "velocity": 0.3937007874015748,
          "duration": 0.13636350000000164
        },
        {
          "name": "A1",
          "midi": 33,
          "time": 54.68176350000046,
          "velocity": 0.3937007874015748,
          "duration": 0.13636350000000164
        },
        {
          "name": "A1",
          "midi": 33,
          "time": 54.81812700000046,
          "velocity": 0.3937007874015748,
          "duration": 0.13636350000000164
        },
        {
          "name": "G1",
          "midi": 31,
          "time": 54.95449050000046,
          "velocity": 0.3937007874015748,
          "duration": 0.13636350000000164
        },
        {
          "name": "A1",
          "midi": 33,
          "time": 54.95449050000046,
          "velocity": 0.3937007874015748,
          "duration": 0.13636350000000164
        },
        {
          "name": "G1",
          "midi": 31,
          "time": 55.09085400000046,
          "velocity": 0.3937007874015748,
          "duration": 0.13636350000000164
        },
        {
          "name": "A1",
          "midi": 33,
          "time": 55.09085400000046,
          "velocity": 0.3937007874015748,
          "duration": 0.13636350000000164
        },
        {
          "name": "A1",
          "midi": 33,
          "time": 55.227217500000464,
          "velocity": 0.3937007874015748,
          "duration": 0.13636350000000164
        },
        {
          "name": "A#1",
          "midi": 34,
          "time": 55.227217500000464,
          "velocity": 0.3937007874015748,
          "duration": 0.13636350000000164
        },
        {
          "name": "A1",
          "midi": 33,
          "time": 55.363581000000465,
          "velocity": 0.3937007874015748,
          "duration": 0.13636350000000164
        },
        {
          "name": "A1",
          "midi": 33,
          "time": 55.49994450000047,
          "velocity": 0.3937007874015748,
          "duration": 0.13636350000000164
        },
        {
          "name": "A1",
          "midi": 33,
          "time": 55.63630800000047,
          "velocity": 0.3937007874015748,
          "duration": 0.13636350000000164
        },
        {
          "name": "A1",
          "midi": 33,
          "time": 55.77267150000047,
          "velocity": 0.3937007874015748,
          "duration": 0.13636350000000164
        },
        {
          "name": "G1",
          "midi": 31,
          "time": 55.90903500000047,
          "velocity": 0.3937007874015748,
          "duration": 0.13636350000000164
        },
        {
          "name": "A1",
          "midi": 33,
          "time": 55.90903500000047,
          "velocity": 0.3937007874015748,
          "duration": 0.13636350000000164
        },
        {
          "name": "A1",
          "midi": 33,
          "time": 56.04539850000047,
          "velocity": 0.3937007874015748,
          "duration": 0.13636350000000164
        },
        {
          "name": "A1",
          "midi": 33,
          "time": 56.181762000000475,
          "velocity": 0.3937007874015748,
          "duration": 0.13636350000000164
        },
        {
          "name": "A1",
          "midi": 33,
          "time": 56.31812550000048,
          "velocity": 0.3937007874015748,
          "duration": 0.13636350000000164
        },
        {
          "name": "A1",
          "midi": 33,
          "time": 56.45448900000048,
          "velocity": 0.3937007874015748,
          "duration": 0.13636350000000164
        },
        {
          "name": "G1",
          "midi": 31,
          "time": 56.45448900000048,
          "velocity": 0.3937007874015748,
          "duration": 0.13636350000000164
        },
        {
          "name": "A1",
          "midi": 33,
          "time": 56.59085250000048,
          "velocity": 0.3937007874015748,
          "duration": 0.13636350000000164
        },
        {
          "name": "A#1",
          "midi": 34,
          "time": 56.59085250000048,
          "velocity": 0.3937007874015748,
          "duration": 0.13636350000000164
        },
        {
          "name": "A1",
          "midi": 33,
          "time": 56.72721600000048,
          "velocity": 0.3937007874015748,
          "duration": 0.13636350000000164
        },
        {
          "name": "A1",
          "midi": 33,
          "time": 56.86357950000048,
          "velocity": 0.3937007874015748,
          "duration": 0.13636350000000164
        },
        {
          "name": "G1",
          "midi": 31,
          "time": 56.86357950000048,
          "velocity": 0.3937007874015748,
          "duration": 0.13636350000000164
        },
        {
          "name": "A1",
          "midi": 33,
          "time": 56.999943000000485,
          "velocity": 0.3937007874015748,
          "duration": 0.13636350000000164
        },
        {
          "name": "G1",
          "midi": 31,
          "time": 56.999943000000485,
          "velocity": 0.3937007874015748,
          "duration": 0.13636350000000164
        },
        {
          "name": "B1",
          "midi": 35,
          "time": 57.13630650000049,
          "velocity": 0.3937007874015748,
          "duration": 0.13636350000000164
        },
        {
          "name": "A1",
          "midi": 33,
          "time": 57.13630650000049,
          "velocity": 0.3937007874015748,
          "duration": 0.13636350000000164
        },
        {
          "name": "A1",
          "midi": 33,
          "time": 84.54537000000049,
          "velocity": 0.3937007874015748,
          "duration": 0.13636350000000164
        },
        {
          "name": "A1",
          "midi": 33,
          "time": 84.9544605000005,
          "velocity": 0.3937007874015748,
          "duration": 0.13636350000000164
        },
        {
          "name": "A1",
          "midi": 33,
          "time": 85.2271875000005,
          "velocity": 0.3937007874015748,
          "duration": 0.13636350000000164
        },
        {
          "name": "A1",
          "midi": 33,
          "time": 85.6362780000005,
          "velocity": 0.3937007874015748,
          "duration": 0.13636350000000164
        },
        {
          "name": "A1",
          "midi": 33,
          "time": 85.9090050000005,
          "velocity": 0.3937007874015748,
          "duration": 0.13636350000000164
        },
        {
          "name": "A1",
          "midi": 33,
          "time": 86.31809550000051,
          "velocity": 0.3937007874015748,
          "duration": 0.13636350000000164
        },
        {
          "name": "A1",
          "midi": 33,
          "time": 86.59082250000051,
          "velocity": 0.3937007874015748,
          "duration": 0.13636350000000164
        },
        {
          "name": "A1",
          "midi": 33,
          "time": 86.99991300000052,
          "velocity": 0.3937007874015748,
          "duration": 0.13636350000000164
        },
        {
          "name": "A1",
          "midi": 33,
          "time": 87.27264000000052,
          "velocity": 0.3937007874015748,
          "duration": 0.13636350000000164
        },
        {
          "name": "A1",
          "midi": 33,
          "time": 87.68173050000053,
          "velocity": 0.3937007874015748,
          "duration": 0.13636350000000164
        },
        {
          "name": "A1",
          "midi": 33,
          "time": 87.95445750000053,
          "velocity": 0.3937007874015748,
          "duration": 0.13636350000000164
        },
        {
          "name": "A1",
          "midi": 33,
          "time": 88.36354800000053,
          "velocity": 0.3937007874015748,
          "duration": 0.13636350000000164
        },
        {
          "name": "A1",
          "midi": 33,
          "time": 88.63627500000054,
          "velocity": 0.3937007874015748,
          "duration": 0.13636350000000164
        },
        {
          "name": "A1",
          "midi": 33,
          "time": 89.04536550000054,
          "velocity": 0.3937007874015748,
          "duration": 0.13636350000000164
        },
        {
          "name": "A1",
          "midi": 33,
          "time": 89.31809250000055,
          "velocity": 0.3937007874015748,
          "duration": 0.13636350000000164
        },
        {
          "name": "A1",
          "midi": 33,
          "time": 89.72718300000055,
          "velocity": 0.3937007874015748,
          "duration": 0.13636350000000164
        },
        {
          "name": "G1",
          "midi": 31,
          "time": 92.72718000000056,
          "velocity": 0.3937007874015748,
          "duration": 0.13636350000000164
        },
        {
          "name": "G1",
          "midi": 31,
          "time": 92.86354350000056,
          "velocity": 0.3937007874015748,
          "duration": 0.13636350000000164
        },
        {
          "name": "G1",
          "midi": 31,
          "time": 92.99990700000056,
          "velocity": 0.3937007874015748,
          "duration": 0.13636350000000164
        },
        {
          "name": "G1",
          "midi": 31,
          "time": 93.13627050000056,
          "velocity": 0.3937007874015748,
          "duration": 0.13636350000000164
        },
        {
          "name": "G1",
          "midi": 31,
          "time": 93.27263400000056,
          "velocity": 0.3937007874015748,
          "duration": 0.13636350000000164
        },
        {
          "name": "C2",
          "midi": 36,
          "time": 93.40899750000057,
          "velocity": 0.3937007874015748,
          "duration": 0.13636350000000164
        },
        {
          "name": "A1",
          "midi": 33,
          "time": 93.54536100000057,
          "velocity": 0.3937007874015748,
          "duration": 0.13636350000000164
        },
        {
          "name": "B1",
          "midi": 35,
          "time": 93.54536100000057,
          "velocity": 0.3937007874015748,
          "duration": 0.13636350000000164
        },
        {
          "name": "G1",
          "midi": 31,
          "time": 93.68172450000057,
          "velocity": 0.3937007874015748,
          "duration": 0.13636350000000164
        },
        {
          "name": "G#1",
          "midi": 32,
          "time": 93.81808800000057,
          "velocity": 0.3937007874015748,
          "duration": 0.13636350000000164
        },
        {
          "name": "A1",
          "midi": 33,
          "time": 93.81808800000057,
          "velocity": 0.3937007874015748,
          "duration": 0.13636350000000164
        },
        {
          "name": "B1",
          "midi": 35,
          "time": 93.95445150000057,
          "velocity": 0.3937007874015748,
          "duration": 0.13636350000000164
        },
        {
          "name": "A1",
          "midi": 33,
          "time": 93.95445150000057,
          "velocity": 0.3937007874015748,
          "duration": 0.13636350000000164
        },
        {
          "name": "A#1",
          "midi": 34,
          "time": 93.95445150000057,
          "velocity": 0.3937007874015748,
          "duration": 0.13636350000000164
        },
        {
          "name": "G1",
          "midi": 31,
          "time": 94.09081500000057,
          "velocity": 0.3937007874015748,
          "duration": 0.13636350000000164
        },
        {
          "name": "B1",
          "midi": 35,
          "time": 94.77263250000058,
          "velocity": 0.3937007874015748,
          "duration": 0.13636350000000164
        },
        {
          "name": "B1",
          "midi": 35,
          "time": 94.90899600000058,
          "velocity": 0.3937007874015748,
          "duration": 0.13636350000000164
        },
        {
          "name": "B1",
          "midi": 35,
          "time": 95.04535950000059,
          "velocity": 0.3937007874015748,
          "duration": 0.13636350000000164
        },
        {
          "name": "G1",
          "midi": 31,
          "time": 95.18172300000059,
          "velocity": 0.3937007874015748,
          "duration": 0.13636350000000164
        },
        {
          "name": "G1",
          "midi": 31,
          "time": 95.31808650000059,
          "velocity": 0.3937007874015748,
          "duration": 0.13636350000000164
        },
        {
          "name": "A#1",
          "midi": 34,
          "time": 95.45445000000059,
          "velocity": 0.3937007874015748,
          "duration": 0.13636350000000164
        },
        {
          "name": "A1",
          "midi": 33,
          "time": 95.45445000000059,
          "velocity": 0.3937007874015748,
          "duration": 0.13636350000000164
        },
        {
          "name": "G1",
          "midi": 31,
          "time": 95.45445000000059,
          "velocity": 0.3937007874015748,
          "duration": 0.13636350000000164
        },
        {
          "name": "A1",
          "midi": 33,
          "time": 95.59081350000059,
          "velocity": 0.3937007874015748,
          "duration": 0.13636350000000164
        },
        {
          "name": "A1",
          "midi": 33,
          "time": 95.7271770000006,
          "velocity": 0.3937007874015748,
          "duration": 0.13636350000000164
        },
        {
          "name": "A1",
          "midi": 33,
          "time": 95.8635405000006,
          "velocity": 0.3937007874015748,
          "duration": 0.13636350000000164
        },
        {
          "name": "A1",
          "midi": 33,
          "time": 95.9999040000006,
          "velocity": 0.3937007874015748,
          "duration": 0.13636350000000164
        },
        {
          "name": "G1",
          "midi": 31,
          "time": 95.9999040000006,
          "velocity": 0.3937007874015748,
          "duration": 0.13636350000000164
        },
        {
          "name": "A1",
          "midi": 33,
          "time": 96.1362675000006,
          "velocity": 0.3937007874015748,
          "duration": 0.13636350000000164
        },
        {
          "name": "A#1",
          "midi": 34,
          "time": 96.1362675000006,
          "velocity": 0.3937007874015748,
          "duration": 0.13636350000000164
        },
        {
          "name": "A1",
          "midi": 33,
          "time": 96.2726310000006,
          "velocity": 0.3937007874015748,
          "duration": 0.13636350000000164
        },
        {
          "name": "A1",
          "midi": 33,
          "time": 96.4089945000006,
          "velocity": 0.3937007874015748,
          "duration": 0.13636350000000164
        },
        {
          "name": "G1",
          "midi": 31,
          "time": 96.4089945000006,
          "velocity": 0.3937007874015748,
          "duration": 0.13636350000000164
        },
        {
          "name": "G1",
          "midi": 31,
          "time": 96.5453580000006,
          "velocity": 0.3937007874015748,
          "duration": 0.13636350000000164
        },
        {
          "name": "A1",
          "midi": 33,
          "time": 96.5453580000006,
          "velocity": 0.3937007874015748,
          "duration": 0.13636350000000164
        },
        {
          "name": "B1",
          "midi": 35,
          "time": 96.6817215000006,
          "velocity": 0.3937007874015748,
          "duration": 0.13636350000000164
        },
        {
          "name": "A1",
          "midi": 33,
          "time": 96.6817215000006,
          "velocity": 0.3937007874015748,
          "duration": 0.13636350000000164
        },
        {
          "name": "G1",
          "midi": 31,
          "time": 96.81808500000061,
          "velocity": 0.3937007874015748,
          "duration": 0.13636350000000164
        },
        {
          "name": "A1",
          "midi": 33,
          "time": 96.81808500000061,
          "velocity": 0.3937007874015748,
          "duration": 0.13636350000000164
        },
        {
          "name": "A1",
          "midi": 33,
          "time": 96.95444850000061,
          "velocity": 0.3937007874015748,
          "duration": 0.13636350000000164
        },
        {
          "name": "A1",
          "midi": 33,
          "time": 97.09081200000061,
          "velocity": 0.3937007874015748,
          "duration": 0.13636350000000164
        },
        {
          "name": "G1",
          "midi": 31,
          "time": 97.22717550000061,
          "velocity": 0.3937007874015748,
          "duration": 0.13636350000000164
        },
        {
          "name": "A1",
          "midi": 33,
          "time": 97.22717550000061,
          "velocity": 0.3937007874015748,
          "duration": 0.13636350000000164
        },
        {
          "name": "G1",
          "midi": 31,
          "time": 97.36353900000061,
          "velocity": 0.3937007874015748,
          "duration": 0.13636350000000164
        },
        {
          "name": "A1",
          "midi": 33,
          "time": 97.36353900000061,
          "velocity": 0.3937007874015748,
          "duration": 0.13636350000000164
        },
        {
          "name": "A1",
          "midi": 33,
          "time": 97.49990250000062,
          "velocity": 0.3937007874015748,
          "duration": 0.13636350000000164
        },
        {
          "name": "A#1",
          "midi": 34,
          "time": 97.49990250000062,
          "velocity": 0.3937007874015748,
          "duration": 0.13636350000000164
        },
        {
          "name": "A1",
          "midi": 33,
          "time": 97.63626600000062,
          "velocity": 0.3937007874015748,
          "duration": 0.13636350000000164
        },
        {
          "name": "A1",
          "midi": 33,
          "time": 97.77262950000062,
          "velocity": 0.3937007874015748,
          "duration": 0.13636350000000164
        },
        {
          "name": "A1",
          "midi": 33,
          "time": 97.90899300000062,
          "velocity": 0.3937007874015748,
          "duration": 0.13636350000000164
        },
        {
          "name": "A1",
          "midi": 33,
          "time": 98.04535650000062,
          "velocity": 0.3937007874015748,
          "duration": 0.13636350000000164
        },
        {
          "name": "A1",
          "midi": 33,
          "time": 98.18172000000062,
          "velocity": 0.3937007874015748,
          "duration": 0.13636350000000164
        },
        {
          "name": "G1",
          "midi": 31,
          "time": 98.18172000000062,
          "velocity": 0.3937007874015748,
          "duration": 0.13636350000000164
        },
        {
          "name": "A1",
          "midi": 33,
          "time": 98.31808350000063,
          "velocity": 0.3937007874015748,
          "duration": 0.13636350000000164
        },
        {
          "name": "A1",
          "midi": 33,
          "time": 98.45444700000063,
          "velocity": 0.3937007874015748,
          "duration": 0.13636350000000164
        },
        {
          "name": "A1",
          "midi": 33,
          "time": 98.59081050000063,
          "velocity": 0.3937007874015748,
          "duration": 0.13636350000000164
        },
        {
          "name": "G1",
          "midi": 31,
          "time": 98.72717400000063,
          "velocity": 0.3937007874015748,
          "duration": 0.13636350000000164
        },
        {
          "name": "A1",
          "midi": 33,
          "time": 98.72717400000063,
          "velocity": 0.3937007874015748,
          "duration": 0.13636350000000164
        },
        {
          "name": "A1",
          "midi": 33,
          "time": 98.86353750000063,
          "velocity": 0.3937007874015748,
          "duration": 0.13636350000000164
        },
        {
          "name": "A#1",
          "midi": 34,
          "time": 98.86353750000063,
          "velocity": 0.3937007874015748,
          "duration": 0.13636350000000164
        },
        {
          "name": "A1",
          "midi": 33,
          "time": 98.99990100000063,
          "velocity": 0.3937007874015748,
          "duration": 0.13636350000000164
        },
        {
          "name": "G1",
          "midi": 31,
          "time": 99.13626450000064,
          "velocity": 0.3937007874015748,
          "duration": 0.13636350000000164
        },
        {
          "name": "A1",
          "midi": 33,
          "time": 99.13626450000064,
          "velocity": 0.3937007874015748,
          "duration": 0.13636350000000164
        },
        {
          "name": "G1",
          "midi": 31,
          "time": 99.27262800000064,
          "velocity": 0.3937007874015748,
          "duration": 0.13636350000000164
        },
        {
          "name": "A1",
          "midi": 33,
          "time": 99.27262800000064,
          "velocity": 0.3937007874015748,
          "duration": 0.13636350000000164
        },
        {
          "name": "A1",
          "midi": 33,
          "time": 99.40899150000064,
          "velocity": 0.3937007874015748,
          "duration": 0.13636350000000164
        },
        {
          "name": "B1",
          "midi": 35,
          "time": 99.40899150000064,
          "velocity": 0.3937007874015748,
          "duration": 0.13636350000000164
        },
        {
          "name": "G1",
          "midi": 31,
          "time": 99.54535500000064,
          "velocity": 0.3937007874015748,
          "duration": 0.13636350000000164
        },
        {
          "name": "A1",
          "midi": 33,
          "time": 99.54535500000064,
          "velocity": 0.3937007874015748,
          "duration": 0.13636350000000164
        },
        {
          "name": "A1",
          "midi": 33,
          "time": 99.68171850000064,
          "velocity": 0.3937007874015748,
          "duration": 0.13636350000000164
        },
        {
          "name": "A1",
          "midi": 33,
          "time": 99.81808200000064,
          "velocity": 0.3937007874015748,
          "duration": 0.13636350000000164
        },
        {
          "name": "G1",
          "midi": 31,
          "time": 99.95444550000065,
          "velocity": 0.3937007874015748,
          "duration": 0.13636350000000164
        },
        {
          "name": "A1",
          "midi": 33,
          "time": 99.95444550000065,
          "velocity": 0.3937007874015748,
          "duration": 0.13636350000000164
        },
        {
          "name": "A1",
          "midi": 33,
          "time": 100.09080900000065,
          "velocity": 0.3937007874015748,
          "duration": 0.13636350000000164
        },
        {
          "name": "G1",
          "midi": 31,
          "time": 100.09080900000065,
          "velocity": 0.3937007874015748,
          "duration": 0.13636350000000164
        },
        {
          "name": "A1",
          "midi": 33,
          "time": 100.22717250000065,
          "velocity": 0.3937007874015748,
          "duration": 0.13636350000000164
        },
        {
          "name": "A#1",
          "midi": 34,
          "time": 100.22717250000065,
          "velocity": 0.3937007874015748,
          "duration": 0.13636350000000164
        },
        {
          "name": "A1",
          "midi": 33,
          "time": 100.36353600000065,
          "velocity": 0.3937007874015748,
          "duration": 0.13636350000000164
        },
        {
          "name": "A1",
          "midi": 33,
          "time": 100.49989950000065,
          "velocity": 0.3937007874015748,
          "duration": 0.13636350000000164
        },
        {
          "name": "A1",
          "midi": 33,
          "time": 100.63626300000065,
          "velocity": 0.3937007874015748,
          "duration": 0.13636350000000164
        },
        {
          "name": "A1",
          "midi": 33,
          "time": 100.77262650000065,
          "velocity": 0.3937007874015748,
          "duration": 0.13636350000000164
        },
        {
          "name": "G1",
          "midi": 31,
          "time": 100.90899000000066,
          "velocity": 0.3937007874015748,
          "duration": 0.13636350000000164
        },
        {
          "name": "A1",
          "midi": 33,
          "time": 100.90899000000066,
          "velocity": 0.3937007874015748,
          "duration": 0.13636350000000164
        },
        {
          "name": "A1",
          "midi": 33,
          "time": 101.04535350000066,
          "velocity": 0.3937007874015748,
          "duration": 0.13636350000000164
        },
        {
          "name": "A1",
          "midi": 33,
          "time": 101.18171700000066,
          "velocity": 0.3937007874015748,
          "duration": 0.13636350000000164
        },
        {
          "name": "A1",
          "midi": 33,
          "time": 101.31808050000066,
          "velocity": 0.3937007874015748,
          "duration": 0.13636350000000164
        },
        {
          "name": "G1",
          "midi": 31,
          "time": 101.45444400000066,
          "velocity": 0.3937007874015748,
          "duration": 0.13636350000000164
        },
        {
          "name": "A1",
          "midi": 33,
          "time": 101.45444400000066,
          "velocity": 0.3937007874015748,
          "duration": 0.13636350000000164
        },
        {
          "name": "A#1",
          "midi": 34,
          "time": 101.59080750000066,
          "velocity": 0.3937007874015748,
          "duration": 0.13636350000000164
        },
        {
          "name": "A1",
          "midi": 33,
          "time": 101.59080750000066,
          "velocity": 0.3937007874015748,
          "duration": 0.13636350000000164
        },
        {
          "name": "A1",
          "midi": 33,
          "time": 101.72717100000067,
          "velocity": 0.3937007874015748,
          "duration": 0.13636350000000164
        },
        {
          "name": "G1",
          "midi": 31,
          "time": 101.86353450000067,
          "velocity": 0.3937007874015748,
          "duration": 0.13636350000000164
        },
        {
          "name": "A1",
          "midi": 33,
          "time": 101.86353450000067,
          "velocity": 0.3937007874015748,
          "duration": 0.13636350000000164
        },
        {
          "name": "G1",
          "midi": 31,
          "time": 101.99989800000067,
          "velocity": 0.3937007874015748,
          "duration": 0.13636350000000164
        },
        {
          "name": "A1",
          "midi": 33,
          "time": 101.99989800000067,
          "velocity": 0.3937007874015748,
          "duration": 0.13636350000000164
        },
        {
          "name": "A1",
          "midi": 33,
          "time": 102.13626150000067,
          "velocity": 0.3937007874015748,
          "duration": 0.13636350000000164
        },
        {
          "name": "B1",
          "midi": 35,
          "time": 102.13626150000067,
          "velocity": 0.3937007874015748,
          "duration": 0.13636350000000164
        },
        {
          "name": "A1",
          "midi": 33,
          "time": 102.27262500000067,
          "velocity": 0.3937007874015748,
          "duration": 0.13636350000000164
        },
        {
          "name": "G1",
          "midi": 31,
          "time": 102.27262500000067,
          "velocity": 0.3937007874015748,
          "duration": 0.13636350000000164
        },
        {
          "name": "A1",
          "midi": 33,
          "time": 102.40898850000067,
          "velocity": 0.3937007874015748,
          "duration": 0.13636350000000164
        },
        {
          "name": "A1",
          "midi": 33,
          "time": 102.54535200000068,
          "velocity": 0.3937007874015748,
          "duration": 0.13636350000000164
        },
        {
          "name": "G1",
          "midi": 31,
          "time": 102.68171550000068,
          "velocity": 0.3937007874015748,
          "duration": 0.13636350000000164
        },
        {
          "name": "A1",
          "midi": 33,
          "time": 102.68171550000068,
          "velocity": 0.3937007874015748,
          "duration": 0.13636350000000164
        },
        {
          "name": "A1",
          "midi": 33,
          "time": 102.81807900000068,
          "velocity": 0.3937007874015748,
          "duration": 0.13636350000000164
        },
        {
          "name": "G1",
          "midi": 31,
          "time": 102.81807900000068,
          "velocity": 0.3937007874015748,
          "duration": 0.13636350000000164
        },
        {
          "name": "A#1",
          "midi": 34,
          "time": 102.95444250000068,
          "velocity": 0.3937007874015748,
          "duration": 0.13636350000000164
        },
        {
          "name": "A1",
          "midi": 33,
          "time": 102.95444250000068,
          "velocity": 0.3937007874015748,
          "duration": 0.13636350000000164
        },
        {
          "name": "A1",
          "midi": 33,
          "time": 103.09080600000068,
          "velocity": 0.3937007874015748,
          "duration": 0.13636350000000164
        },
        {
          "name": "A1",
          "midi": 33,
          "time": 103.22716950000068,
          "velocity": 0.3937007874015748,
          "duration": 0.13636350000000164
        },
        {
          "name": "A1",
          "midi": 33,
          "time": 103.36353300000069,
          "velocity": 0.3937007874015748,
          "duration": 0.13636350000000164
        },
        {
          "name": "A1",
          "midi": 33,
          "time": 103.49989650000069,
          "velocity": 0.3937007874015748,
          "duration": 0.13636350000000164
        },
        {
          "name": "G1",
          "midi": 31,
          "time": 103.63626000000069,
          "velocity": 0.3937007874015748,
          "duration": 0.13636350000000164
        },
        {
          "name": "A1",
          "midi": 33,
          "time": 103.63626000000069,
          "velocity": 0.3937007874015748,
          "duration": 0.13636350000000164
        },
        {
          "name": "A1",
          "midi": 33,
          "time": 103.77262350000069,
          "velocity": 0.3937007874015748,
          "duration": 0.13636350000000164
        },
        {
          "name": "A1",
          "midi": 33,
          "time": 103.90898700000069,
          "velocity": 0.3937007874015748,
          "duration": 0.13636350000000164
        },
        {
          "name": "A1",
          "midi": 33,
          "time": 104.0453505000007,
          "velocity": 0.3937007874015748,
          "duration": 0.13636350000000164
        },
        {
          "name": "A1",
          "midi": 33,
          "time": 104.1817140000007,
          "velocity": 0.3937007874015748,
          "duration": 0.13636350000000164
        },
        {
          "name": "G1",
          "midi": 31,
          "time": 104.1817140000007,
          "velocity": 0.3937007874015748,
          "duration": 0.13636350000000164
        },
        {
          "name": "C2",
          "midi": 36,
          "time": 104.3180775000007,
          "velocity": 0.3937007874015748,
          "duration": 0.13636350000000164
        },
        {
          "name": "B1",
          "midi": 35,
          "time": 104.4544410000007,
          "velocity": 0.3937007874015748,
          "duration": 0.13636350000000164
        },
        {
          "name": "A1",
          "midi": 33,
          "time": 104.4544410000007,
          "velocity": 0.3937007874015748,
          "duration": 0.13636350000000164
        },
        {
          "name": "G1",
          "midi": 31,
          "time": 104.5908045000007,
          "velocity": 0.3937007874015748,
          "duration": 0.13636350000000164
        },
        {
          "name": "G1",
          "midi": 31,
          "time": 104.5908045000007,
          "velocity": 0.3937007874015748,
          "duration": 0.13636350000000164
        },
        {
          "name": "A1",
          "midi": 33,
          "time": 104.7271680000007,
          "velocity": 0.3937007874015748,
          "duration": 0.13636350000000164
        },
        {
          "name": "G#1",
          "midi": 32,
          "time": 104.7271680000007,
          "velocity": 0.3937007874015748,
          "duration": 0.13636350000000164
        },
        {
          "name": "A1",
          "midi": 33,
          "time": 104.8635315000007,
          "velocity": 0.3937007874015748,
          "duration": 0.13636350000000164
        },
        {
          "name": "B1",
          "midi": 35,
          "time": 104.8635315000007,
          "velocity": 0.3937007874015748,
          "duration": 0.13636350000000164
        },
        {
          "name": "B1",
          "midi": 35,
          "time": 104.8635315000007,
          "velocity": 0.3937007874015748,
          "duration": 0.13636350000000164
        },
        {
          "name": "A#1",
          "midi": 34,
          "time": 104.8635315000007,
          "velocity": 0.3937007874015748,
          "duration": 0.13636350000000164
        },
        {
          "name": "G1",
          "midi": 31,
          "time": 104.9998950000007,
          "velocity": 0.3937007874015748,
          "duration": 0.13636350000000164
        },
        {
          "name": "A1",
          "midi": 33,
          "time": 104.9998950000007,
          "velocity": 0.3937007874015748,
          "duration": 0.13636350000000164
        },
        {
          "name": "G1",
          "midi": 31,
          "time": 104.9998950000007,
          "velocity": 0.3937007874015748,
          "duration": 0.13636350000000164
        },
        {
          "name": "A1",
          "midi": 33,
          "time": 105.13625850000071,
          "velocity": 0.3937007874015748,
          "duration": 0.13636350000000164
        },
        {
          "name": "A1",
          "midi": 33,
          "time": 105.27262200000071,
          "velocity": 0.3937007874015748,
          "duration": 0.13636350000000164
        },
        {
          "name": "B1",
          "midi": 35,
          "time": 105.40898550000071,
          "velocity": 0.3937007874015748,
          "duration": 0.13636350000000164
        },
        {
          "name": "G1",
          "midi": 31,
          "time": 105.40898550000071,
          "velocity": 0.3937007874015748,
          "duration": 0.13636350000000164
        },
        {
          "name": "A1",
          "midi": 33,
          "time": 105.40898550000071,
          "velocity": 0.3937007874015748,
          "duration": 0.13636350000000164
        },
        {
          "name": "G1",
          "midi": 31,
          "time": 105.54534900000071,
          "velocity": 0.3937007874015748,
          "duration": 0.13636350000000164
        },
        {
          "name": "A1",
          "midi": 33,
          "time": 105.54534900000071,
          "velocity": 0.3937007874015748,
          "duration": 0.13636350000000164
        },
        {
          "name": "G1",
          "midi": 31,
          "time": 105.68171250000071,
          "velocity": 0.3937007874015748,
          "duration": 0.13636350000000164
        },
        {
          "name": "A1",
          "midi": 33,
          "time": 105.68171250000071,
          "velocity": 0.3937007874015748,
          "duration": 0.13636350000000164
        },
        {
          "name": "B1",
          "midi": 35,
          "time": 105.81807600000072,
          "velocity": 0.3937007874015748,
          "duration": 0.13636350000000164
        },
        {
          "name": "A1",
          "midi": 33,
          "time": 105.81807600000072,
          "velocity": 0.3937007874015748,
          "duration": 0.13636350000000164
        },
        {
          "name": "A1",
          "midi": 33,
          "time": 105.95443950000072,
          "velocity": 0.3937007874015748,
          "duration": 0.13636350000000164
        },
        {
          "name": "G1",
          "midi": 31,
          "time": 106.09080300000072,
          "velocity": 0.3937007874015748,
          "duration": 0.13636350000000164
        },
        {
          "name": "A1",
          "midi": 33,
          "time": 106.09080300000072,
          "velocity": 0.3937007874015748,
          "duration": 0.13636350000000164
        },
        {
          "name": "A1",
          "midi": 33,
          "time": 106.22716650000072,
          "velocity": 0.3937007874015748,
          "duration": 0.13636350000000164
        },
        {
          "name": "G1",
          "midi": 31,
          "time": 106.22716650000072,
          "velocity": 0.3937007874015748,
          "duration": 0.13636350000000164
        },
        {
          "name": "A1",
          "midi": 33,
          "time": 106.36353000000072,
          "velocity": 0.3937007874015748,
          "duration": 0.13636350000000164
        },
        {
          "name": "G1",
          "midi": 31,
          "time": 106.36353000000072,
          "velocity": 0.3937007874015748,
          "duration": 0.13636350000000164
        },
        {
          "name": "A#1",
          "midi": 34,
          "time": 106.36353000000072,
          "velocity": 0.3937007874015748,
          "duration": 0.13636350000000164
        },
        {
          "name": "A1",
          "midi": 33,
          "time": 106.49989350000072,
          "velocity": 0.3937007874015748,
          "duration": 0.13636350000000164
        },
        {
          "name": "A1",
          "midi": 33,
          "time": 106.63625700000073,
          "velocity": 0.3937007874015748,
          "duration": 0.13636350000000164
        },
        {
          "name": "A1",
          "midi": 33,
          "time": 106.77262050000073,
          "velocity": 0.3937007874015748,
          "duration": 0.13636350000000164
        },
        {
          "name": "G1",
          "midi": 31,
          "time": 106.90898400000073,
          "velocity": 0.3937007874015748,
          "duration": 0.13636350000000164
        },
        {
          "name": "A1",
          "midi": 33,
          "time": 106.90898400000073,
          "velocity": 0.3937007874015748,
          "duration": 0.13636350000000164
        },
        {
          "name": "A1",
          "midi": 33,
          "time": 107.04534750000073,
          "velocity": 0.3937007874015748,
          "duration": 0.13636350000000164
        },
        {
          "name": "A#1",
          "midi": 34,
          "time": 107.04534750000073,
          "velocity": 0.3937007874015748,
          "duration": 0.13636350000000164
        },
        {
          "name": "A1",
          "midi": 33,
          "time": 107.18171100000073,
          "velocity": 0.3937007874015748,
          "duration": 0.13636350000000164
        },
        {
          "name": "G1",
          "midi": 31,
          "time": 107.31807450000073,
          "velocity": 0.3937007874015748,
          "duration": 0.13636350000000164
        },
        {
          "name": "A1",
          "midi": 33,
          "time": 107.31807450000073,
          "velocity": 0.3937007874015748,
          "duration": 0.13636350000000164
        },
        {
          "name": "G1",
          "midi": 31,
          "time": 107.45443800000074,
          "velocity": 0.3937007874015748,
          "duration": 0.13636350000000164
        },
        {
          "name": "A1",
          "midi": 33,
          "time": 107.45443800000074,
          "velocity": 0.3937007874015748,
          "duration": 0.13636350000000164
        },
        {
          "name": "A1",
          "midi": 33,
          "time": 107.59080150000074,
          "velocity": 0.3937007874015748,
          "duration": 0.13636350000000164
        },
        {
          "name": "B1",
          "midi": 35,
          "time": 107.59080150000074,
          "velocity": 0.3937007874015748,
          "duration": 0.13636350000000164
        },
        {
          "name": "G1",
          "midi": 31,
          "time": 107.72716500000074,
          "velocity": 0.3937007874015748,
          "duration": 0.13636350000000164
        },
        {
          "name": "A1",
          "midi": 33,
          "time": 107.72716500000074,
          "velocity": 0.3937007874015748,
          "duration": 0.13636350000000164
        },
        {
          "name": "A1",
          "midi": 33,
          "time": 107.86352850000074,
          "velocity": 0.3937007874015748,
          "duration": 0.13636350000000164
        },
        {
          "name": "A1",
          "midi": 33,
          "time": 107.99989200000074,
          "velocity": 0.3937007874015748,
          "duration": 0.13636350000000164
        },
        {
          "name": "A1",
          "midi": 33,
          "time": 108.13625550000074,
          "velocity": 0.3937007874015748,
          "duration": 0.13636350000000164
        },
        {
          "name": "G1",
          "midi": 31,
          "time": 108.13625550000074,
          "velocity": 0.3937007874015748,
          "duration": 0.13636350000000164
        },
        {
          "name": "G1",
          "midi": 31,
          "time": 108.27261900000074,
          "velocity": 0.3937007874015748,
          "duration": 0.13636350000000164
        },
        {
          "name": "A1",
          "midi": 33,
          "time": 108.27261900000074,
          "velocity": 0.3937007874015748,
          "duration": 0.13636350000000164
        },
        {
          "name": "A1",
          "midi": 33,
          "time": 108.40898250000075,
          "velocity": 0.3937007874015748,
          "duration": 0.13636350000000164
        },
        {
          "name": "A#1",
          "midi": 34,
          "time": 108.40898250000075,
          "velocity": 0.3937007874015748,
          "duration": 0.13636350000000164
        },
        {
          "name": "A1",
          "midi": 33,
          "time": 108.54534600000075,
          "velocity": 0.3937007874015748,
          "duration": 0.13636350000000164
        },
        {
          "name": "A1",
          "midi": 33,
          "time": 108.68170950000075,
          "velocity": 0.3937007874015748,
          "duration": 0.13636350000000164
        },
        {
          "name": "A1",
          "midi": 33,
          "time": 108.81807300000075,
          "velocity": 0.3937007874015748,
          "duration": 0.13636350000000164
        },
        {
          "name": "A1",
          "midi": 33,
          "time": 108.95443650000075,
          "velocity": 0.3937007874015748,
          "duration": 0.13636350000000164
        },
        {
          "name": "A1",
          "midi": 33,
          "time": 109.09080000000075,
          "velocity": 0.3937007874015748,
          "duration": 0.13636350000000164
        },
        {
          "name": "G1",
          "midi": 31,
          "time": 109.09080000000075,
          "velocity": 0.3937007874015748,
          "duration": 0.13636350000000164
        },
        {
          "name": "A1",
          "midi": 33,
          "time": 109.22716350000076,
          "velocity": 0.3937007874015748,
          "duration": 0.13636350000000164
        },
        {
          "name": "A1",
          "midi": 33,
          "time": 109.36352700000076,
          "velocity": 0.3937007874015748,
          "duration": 0.13636350000000164
        },
        {
          "name": "A1",
          "midi": 33,
          "time": 109.49989050000076,
          "velocity": 0.3937007874015748,
          "duration": 0.13636350000000164
        },
        {
          "name": "G1",
          "midi": 31,
          "time": 109.63625400000076,
          "velocity": 0.3937007874015748,
          "duration": 0.13636350000000164
        },
        {
          "name": "A1",
          "midi": 33,
          "time": 109.63625400000076,
          "velocity": 0.3937007874015748,
          "duration": 0.13636350000000164
        },
        {
          "name": "A#1",
          "midi": 34,
          "time": 109.77261750000076,
          "velocity": 0.3937007874015748,
          "duration": 0.13636350000000164
        },
        {
          "name": "A1",
          "midi": 33,
          "time": 109.77261750000076,
          "velocity": 0.3937007874015748,
          "duration": 0.13636350000000164
        },
        {
          "name": "A1",
          "midi": 33,
          "time": 109.90898100000076,
          "velocity": 0.3937007874015748,
          "duration": 0.13636350000000164
        },
        {
          "name": "G1",
          "midi": 31,
          "time": 110.04534450000077,
          "velocity": 0.3937007874015748,
          "duration": 0.13636350000000164
        },
        {
          "name": "A1",
          "midi": 33,
          "time": 110.04534450000077,
          "velocity": 0.3937007874015748,
          "duration": 0.13636350000000164
        },
        {
          "name": "G1",
          "midi": 31,
          "time": 110.18170800000077,
          "velocity": 0.3937007874015748,
          "duration": 0.13636350000000164
        },
        {
          "name": "A1",
          "midi": 33,
          "time": 110.18170800000077,
          "velocity": 0.3937007874015748,
          "duration": 0.13636350000000164
        },
        {
          "name": "A1",
          "midi": 33,
          "time": 110.31807150000077,
          "velocity": 0.3937007874015748,
          "duration": 0.13636350000000164
        },
        {
          "name": "B1",
          "midi": 35,
          "time": 110.31807150000077,
          "velocity": 0.3937007874015748,
          "duration": 0.13636350000000164
        },
        {
          "name": "A1",
          "midi": 33,
          "time": 110.45443500000077,
          "velocity": 0.3937007874015748,
          "duration": 0.13636350000000164
        },
        {
          "name": "G1",
          "midi": 31,
          "time": 110.45443500000077,
          "velocity": 0.3937007874015748,
          "duration": 0.13636350000000164
        },
        {
          "name": "A1",
          "midi": 33,
          "time": 110.59079850000077,
          "velocity": 0.3937007874015748,
          "duration": 0.13636350000000164
        },
        {
          "name": "A1",
          "midi": 33,
          "time": 110.72716200000077,
          "velocity": 0.3937007874015748,
          "duration": 0.13636350000000164
        },
        {
          "name": "G1",
          "midi": 31,
          "time": 110.86352550000078,
          "velocity": 0.3937007874015748,
          "duration": 0.13636350000000164
        },
        {
          "name": "A1",
          "midi": 33,
          "time": 110.86352550000078,
          "velocity": 0.3937007874015748,
          "duration": 0.13636350000000164
        },
        {
          "name": "A1",
          "midi": 33,
          "time": 110.99988900000078,
          "velocity": 0.3937007874015748,
          "duration": 0.13636350000000164
        },
        {
          "name": "G1",
          "midi": 31,
          "time": 110.99988900000078,
          "velocity": 0.3937007874015748,
          "duration": 0.13636350000000164
        },
        {
          "name": "A1",
          "midi": 33,
          "time": 111.13625250000078,
          "velocity": 0.3937007874015748,
          "duration": 0.13636350000000164
        },
        {
          "name": "A#1",
          "midi": 34,
          "time": 111.13625250000078,
          "velocity": 0.3937007874015748,
          "duration": 0.13636350000000164
        },
        {
          "name": "A1",
          "midi": 33,
          "time": 111.27261600000078,
          "velocity": 0.3937007874015748,
          "duration": 0.13636350000000164
        },
        {
          "name": "A1",
          "midi": 33,
          "time": 111.40897950000078,
          "velocity": 0.3937007874015748,
          "duration": 0.13636350000000164
        },
        {
          "name": "A1",
          "midi": 33,
          "time": 111.54534300000078,
          "velocity": 0.3937007874015748,
          "duration": 0.13636350000000164
        },
        {
          "name": "A1",
          "midi": 33,
          "time": 111.68170650000079,
          "velocity": 0.3937007874015748,
          "duration": 0.13636350000000164
        },
        {
          "name": "G1",
          "midi": 31,
          "time": 111.81807000000079,
          "velocity": 0.3937007874015748,
          "duration": 0.13636350000000164
        },
        {
          "name": "A1",
          "midi": 33,
          "time": 111.81807000000079,
          "velocity": 0.3937007874015748,
          "duration": 0.13636350000000164
        },
        {
          "name": "A1",
          "midi": 33,
          "time": 111.95443350000079,
          "velocity": 0.3937007874015748,
          "duration": 0.13636350000000164
        },
        {
          "name": "A1",
          "midi": 33,
          "time": 112.09079700000079,
          "velocity": 0.3937007874015748,
          "duration": 0.13636350000000164
        },
        {
          "name": "A1",
          "midi": 33,
          "time": 112.22716050000079,
          "velocity": 0.3937007874015748,
          "duration": 0.13636350000000164
        },
        {
          "name": "G1",
          "midi": 31,
          "time": 112.3635240000008,
          "velocity": 0.3937007874015748,
          "duration": 0.13636350000000164
        },
        {
          "name": "A1",
          "midi": 33,
          "time": 112.3635240000008,
          "velocity": 0.3937007874015748,
          "duration": 0.13636350000000164
        },
        {
          "name": "A1",
          "midi": 33,
          "time": 112.4998875000008,
          "velocity": 0.3937007874015748,
          "duration": 0.13636350000000164
        },
        {
          "name": "A#1",
          "midi": 34,
          "time": 112.4998875000008,
          "velocity": 0.3937007874015748,
          "duration": 0.13636350000000164
        },
        {
          "name": "A1",
          "midi": 33,
          "time": 112.6362510000008,
          "velocity": 0.3937007874015748,
          "duration": 0.13636350000000164
        },
        {
          "name": "G1",
          "midi": 31,
          "time": 112.7726145000008,
          "velocity": 0.3937007874015748,
          "duration": 0.13636350000000164
        },
        {
          "name": "A1",
          "midi": 33,
          "time": 112.7726145000008,
          "velocity": 0.3937007874015748,
          "duration": 0.13636350000000164
        },
        {
          "name": "A1",
          "midi": 33,
          "time": 112.9089780000008,
          "velocity": 0.3937007874015748,
          "duration": 0.13636350000000164
        },
        {
          "name": "G1",
          "midi": 31,
          "time": 112.9089780000008,
          "velocity": 0.3937007874015748,
          "duration": 0.13636350000000164
        },
        {
          "name": "A1",
          "midi": 33,
          "time": 113.0453415000008,
          "velocity": 0.3937007874015748,
          "duration": 0.13636350000000164
        },
        {
          "name": "B1",
          "midi": 35,
          "time": 113.0453415000008,
          "velocity": 0.3937007874015748,
          "duration": 0.13636350000000164
        },
        {
          "name": "A1",
          "midi": 33,
          "time": 113.1817050000008,
          "velocity": 0.3937007874015748,
          "duration": 0.13636350000000164
        },
        {
          "name": "G1",
          "midi": 31,
          "time": 113.1817050000008,
          "velocity": 0.3937007874015748,
          "duration": 0.13636350000000164
        },
        {
          "name": "A1",
          "midi": 33,
          "time": 113.3180685000008,
          "velocity": 0.3937007874015748,
          "duration": 0.13636350000000164
        },
        {
          "name": "A1",
          "midi": 33,
          "time": 113.4544320000008,
          "velocity": 0.3937007874015748,
          "duration": 0.13636350000000164
        },
        {
          "name": "G1",
          "midi": 31,
          "time": 113.59079550000081,
          "velocity": 0.3937007874015748,
          "duration": 0.13636350000000164
        },
        {
          "name": "A1",
          "midi": 33,
          "time": 113.59079550000081,
          "velocity": 0.3937007874015748,
          "duration": 0.13636350000000164
        },
        {
          "name": "G1",
          "midi": 31,
          "time": 113.72715900000081,
          "velocity": 0.3937007874015748,
          "duration": 0.13636350000000164
        },
        {
          "name": "A1",
          "midi": 33,
          "time": 113.72715900000081,
          "velocity": 0.3937007874015748,
          "duration": 0.13636350000000164
        },
        {
          "name": "A1",
          "midi": 33,
          "time": 113.86352250000081,
          "velocity": 0.3937007874015748,
          "duration": 0.13636350000000164
        },
        {
          "name": "A#1",
          "midi": 34,
          "time": 113.86352250000081,
          "velocity": 0.3937007874015748,
          "duration": 0.13636350000000164
        },
        {
          "name": "A1",
          "midi": 33,
          "time": 113.99988600000081,
          "velocity": 0.3937007874015748,
          "duration": 0.13636350000000164
        },
        {
          "name": "A1",
          "midi": 33,
          "time": 114.13624950000082,
          "velocity": 0.3937007874015748,
          "duration": 0.13636350000000164
        },
        {
          "name": "A1",
          "midi": 33,
          "time": 114.27261300000082,
          "velocity": 0.3937007874015748,
          "duration": 0.13636350000000164
        },
        {
          "name": "A1",
          "midi": 33,
          "time": 114.40897650000082,
          "velocity": 0.3937007874015748,
          "duration": 0.13636350000000164
        },
        {
          "name": "G1",
          "midi": 31,
          "time": 114.54534000000082,
          "velocity": 0.3937007874015748,
          "duration": 0.13636350000000164
        },
        {
          "name": "A1",
          "midi": 33,
          "time": 114.54534000000082,
          "velocity": 0.3937007874015748,
          "duration": 0.13636350000000164
        },
        {
          "name": "A1",
          "midi": 33,
          "time": 114.68170350000082,
          "velocity": 0.3937007874015748,
          "duration": 0.13636350000000164
        },
        {
          "name": "A1",
          "midi": 33,
          "time": 114.81806700000082,
          "velocity": 0.3937007874015748,
          "duration": 0.13636350000000164
        },
        {
          "name": "A1",
          "midi": 33,
          "time": 114.95443050000083,
          "velocity": 0.3937007874015748,
          "duration": 0.13636350000000164
        },
        {
          "name": "G1",
          "midi": 31,
          "time": 115.09079400000083,
          "velocity": 0.3937007874015748,
          "duration": 0.13636350000000164
        },
        {
          "name": "A1",
          "midi": 33,
          "time": 115.09079400000083,
          "velocity": 0.3937007874015748,
          "duration": 0.13636350000000164
        },
        {
          "name": "C2",
          "midi": 36,
          "time": 115.22715750000083,
          "velocity": 0.3937007874015748,
          "duration": 0.13636350000000164
        },
        {
          "name": "A1",
          "midi": 33,
          "time": 115.36352100000083,
          "velocity": 0.3937007874015748,
          "duration": 0.13636350000000164
        },
        {
          "name": "B1",
          "midi": 35,
          "time": 115.36352100000083,
          "velocity": 0.3937007874015748,
          "duration": 0.13636350000000164
        },
        {
          "name": "G1",
          "midi": 31,
          "time": 115.49988450000083,
          "velocity": 0.3937007874015748,
          "duration": 0.13636350000000164
        },
        {
          "name": "G1",
          "midi": 31,
          "time": 115.49988450000083,
          "velocity": 0.3937007874015748,
          "duration": 0.13636350000000164
        },
        {
          "name": "G#1",
          "midi": 32,
          "time": 115.63624800000083,
          "velocity": 0.3937007874015748,
          "duration": 0.13636350000000164
        },
        {
          "name": "A1",
          "midi": 33,
          "time": 115.63624800000083,
          "velocity": 0.3937007874015748,
          "duration": 0.13636350000000164
        },
        {
          "name": "B1",
          "midi": 35,
          "time": 115.77261150000083,
          "velocity": 0.3937007874015748,
          "duration": 0.13636350000000164
        },
        {
          "name": "B1",
          "midi": 35,
          "time": 115.77261150000083,
          "velocity": 0.3937007874015748,
          "duration": 0.13636350000000164
        },
        {
          "name": "A#1",
          "midi": 34,
          "time": 115.77261150000083,
          "velocity": 0.3937007874015748,
          "duration": 0.13636350000000164
        },
        {
          "name": "A1",
          "midi": 33,
          "time": 115.77261150000083,
          "velocity": 0.3937007874015748,
          "duration": 0.13636350000000164
        }
      ],
      "controlChanges": {},
      "id": 14,
      "name": "8-Bit Drum Kit",
      "instrumentNumber": 0,
      "instrument": "acoustic grand piano",
      "instrumentFamily": "piano",
      "channelNumber": 13,
      "isPercussion": false
    },
    {
      "startTime": 94.09081499999999,
      "duration": 110.59079850000003,
      "length": 22,
      "notes": [
        {
          "name": "C3",
          "midi": 48,
          "time": 94.09081499999999,
          "velocity": 0.3937007874015748,
          "duration": 0.13636350000000164
        },
        {
          "name": "D#3",
          "midi": 51,
          "time": 94.09081499999999,
          "velocity": 0.3937007874015748,
          "duration": 0.13636350000000164
        },
        {
          "name": "B2",
          "midi": 47,
          "time": 94.09081499999999,
          "velocity": 0.3937007874015748,
          "duration": 0.13636350000000164
        },
        {
          "name": "D2",
          "midi": 38,
          "time": 94.7726325,
          "velocity": 0.3937007874015748,
          "duration": 0.13636350000000164
        },
        {
          "name": "E2",
          "midi": 40,
          "time": 95.181723,
          "velocity": 0.3937007874015748,
          "duration": 0.13636350000000164
        },
        {
          "name": "E2",
          "midi": 40,
          "time": 95.3180865,
          "velocity": 0.3937007874015748,
          "duration": 0.13636350000000164
        },
        {
          "name": "C3",
          "midi": 48,
          "time": 95.45445000000001,
          "velocity": 0.3937007874015748,
          "duration": 0.13636350000000164
        },
        {
          "name": "B2",
          "midi": 47,
          "time": 95.45445000000001,
          "velocity": 0.3937007874015748,
          "duration": 0.13636350000000164
        },
        {
          "name": "F#2",
          "midi": 42,
          "time": 98.99990100000001,
          "velocity": 0.3937007874015748,
          "duration": 0.13636350000000164
        },
        {
          "name": "A#2",
          "midi": 46,
          "time": 99.27262800000001,
          "velocity": 0.3937007874015748,
          "duration": 0.13636350000000164
        },
        {
          "name": "A#2",
          "midi": 46,
          "time": 99.40899150000001,
          "velocity": 0.3937007874015748,
          "duration": 0.13636350000000164
        },
        {
          "name": "A2",
          "midi": 45,
          "time": 99.54535500000001,
          "velocity": 0.3937007874015748,
          "duration": 0.13636350000000164
        },
        {
          "name": "B2",
          "midi": 47,
          "time": 104.99989500000001,
          "velocity": 0.3937007874015748,
          "duration": 0.03409087500000396
        },
        {
          "name": "D2",
          "midi": 38,
          "time": 105.68171250000002,
          "velocity": 0.3937007874015748,
          "duration": 0.13636350000000164
        },
        {
          "name": "E2",
          "midi": 40,
          "time": 106.09080300000002,
          "velocity": 0.3937007874015748,
          "duration": 0.13636350000000164
        },
        {
          "name": "E2",
          "midi": 40,
          "time": 106.22716650000002,
          "velocity": 0.3937007874015748,
          "duration": 0.13636350000000164
        },
        {
          "name": "B2",
          "midi": 47,
          "time": 106.36353000000003,
          "velocity": 0.3937007874015748,
          "duration": 0.13636350000000164
        },
        {
          "name": "C3",
          "midi": 48,
          "time": 106.36353000000003,
          "velocity": 0.3937007874015748,
          "duration": 0.13636350000000164
        },
        {
          "name": "F#2",
          "midi": 42,
          "time": 109.90898100000003,
          "velocity": 0.3937007874015748,
          "duration": 0.13636350000000164
        },
        {
          "name": "A#2",
          "midi": 46,
          "time": 110.18170800000003,
          "velocity": 0.3937007874015748,
          "duration": 0.13636350000000164
        },
        {
          "name": "A#2",
          "midi": 46,
          "time": 110.31807150000003,
          "velocity": 0.3937007874015748,
          "duration": 0.13636350000000164
        },
        {
          "name": "A2",
          "midi": 45,
          "time": 110.45443500000003,
          "velocity": 0.3937007874015748,
          "duration": 0.13636350000000164
        }
      ],
      "controlChanges": {},
      "id": 15,
      "name": "2013 Drum Kit",
      "instrumentNumber": 255,
      "channelNumber": 14,
      "isPercussion": false
    }
  ]
}`

export const allnotes = JSON.parse(sequence);